<?xml version="1.0" encoding="utf-8"?>
<!-- Generator: Adobe Illustrator 27.0.0, SVG Export Plug-In . SVG Version: 6.00 Build 0)  -->
<svg version="1.1" id="Layer_1" xmlns="http://www.w3.org/2000/svg" xmlns:xlink="http://www.w3.org/1999/xlink" x="0px" y="0px"
	 viewBox="0 0 643.4 593.5" style="enable-background:new 0 0 643.4 593.5;" xml:space="preserve">
<style type="text/css">
	.st0{fill:#FFFFFF;}
</style>
<path class="st0" d="M537,146.5c18.3,30.5,47.3,52.1,68.4,80.3c10.4,13.9,19.2,29.5,22.6,46.6c0.8,4,1.3,8,1.5,12.1
	c0.1,1.9,0,3.7-0.1,5.6c0-0.1-0.1,2.5-0.1,1.3c0.2-0.9,0.1-0.4-0.2,1.3l2.4-10.8c0.2-0.6,3-8.8,2.7-9l0.1-0.3
	c0.3-0.8,0.2-0.4-0.5,1.2c-0.7,1.6-1.5,3.2-2.3,4.8c-2,3.8-4.4,7.5-6.8,11c-18.7,26.9-48.7,55.1-84.2,49.2
	c-16.2-2.7-30.1-13.9-35.5-29.5c-1.3-3.6-2-7.5-2.3-11.3c-0.1-1.6,0-3.1,0-4.7c-2.5,9.5-5,19.1-7.5,28.6l-0.7,1.6
	c0.8-1,1.4-2.2,2.2-3.3c4.6-5.9,12.4-9.5,19.9-8.5s13.8,6.7,18.5,12.6c5.3,6.7,9.9,14.1,14.2,21.5c4.6,8.1,8.6,16.6,11,25.6
	c1,3.8,1.7,7.7,2.1,11.6c0.2,2.2,0.4,4.5,0.3,6.8c0,1.2-0.9,5.9-0.1,3.1c1.6-5.5,3.1-11.1,4.5-16.6c-0.6,2.4-0.8,2-0.4,1.2
	c-0.4,1.1-0.9,2.1-1.4,3.2c-1.8,4-3.8,7.9-6,11.8c-4.2,7.3-8.6,14.4-13.4,21.4c-9.4,13.7-19.8,26.8-31.1,38.9
	c-23,24.7-49.7,45.8-79.1,62.3c-29.4,16.5-66.9,32.8-99.4,15.2c-15-8.1-27-21.4-37.3-34.7c-10.7-13.9-19.4-29.6-19.1-47.5l0.1-0.8
	c-2.6,9.6-5.2,19.2-7.8,28.9c0.1-0.2,0.5-1.2,0.7-1.6c1-1.7,2-3.3,3.2-4.9c2.4-3.2,5.2-6.1,8.4-8.4c6-4.3,13.3-6.7,20.7-6.9
	c14.3-0.2,29.6,8,33.8,22.4c0.9,2.9,1.2,5.9,1.4,8.9c0.7,13.8,15.6-40.5,7.5-28.7c-1,1.5-2.1,2.9-3.4,4.2c-2.1,2.2-3.6,8.1-4.4,10.7
	c-2,6.1-3.8,12.3-5.2,18.5c-1.1,4.8-2.4,9.8-2.8,14.7c-0.1,0.9-0.6,4.9,1.2,2.9c3.1-3.3,5.3-7.1,7.1-11.3c4.9-11.1,8.1-23.2,10.7-35
	s4.9-23.3,0.5-34.5c-6.5-16.6-25.7-24.6-42.5-20c-24.9,6.9-32.5,35.2-38.1,57.1c-3.5,13.8-6.8,28.5-3.7,42.8
	c2.1,9.6,6.6,18.7,11.9,27c10.8,16.7,25.4,33.8,42.8,43.7c18.5,10.6,39.9,9.9,59.8,4c19.5-5.8,37.7-15.8,54.9-26.6
	c16.6-10.5,32.4-22.5,47-35.7c29.4-26.7,55.9-59.4,72.6-95.6c7.8-16.9,13.1-35.1,17-53.3c2.6-12.1,4.5-24.7,2.7-37
	c-3-20.3-14.2-39.5-26.3-55.7c-5.3-7.2-12.4-14.4-22-14.6c-9-0.1-17.2,5.8-21.8,13.3c-4.2,7-6.7,15.3-9,23.1
	c-3.3,11.2-6.6,23-7.6,34.7c-0.8,10,0.8,19.6,5.4,28.6c9.1,17.8,28,26.4,47.6,24.7s37.7-13.5,51.8-27.5c15.4-15.3,28-33.3,35.5-53.7
	c6.5-17.8,11.9-36.8,13.8-55.8c1-10.4,0.2-20.8-2.6-30.9c-11.5-40.9-46-67.3-72.5-98.2c-6.6-7.7-12.7-15.8-17.9-24.5
	c-0.5-0.8-4.1,8-3.6,6.6c-2.1,5.5-3.8,11.2-5.3,16.9c-1.5,5.7-3,11.4-3.9,17.3C536.9,141.1,535.9,144.6,537,146.5L537,146.5
	L537,146.5z"/>
<path class="st0" d="M29.6,407.4C18.4,437,10,467.9,4.7,499.1c-2.2,12.6-3.7,25.4-4.4,38.2c-0.5,9.9-0.9,20.1,1.6,29.9
	c11.9,46.8,69,20.5,94.5,2.2c72.2-51.7,94.9-142.1,133.7-217.1c5.3-10.3,10.8-20.8,18.1-29.7s17-14.9,28.9-17.2
	c11.4-2.2,22.5-3.1,32.5-9.4s16.8-14.7,21.7-25l-2.5,1.9c2.4,22.1,12.6,44.1,31.3,56.9c18.8,13,42.5,14.4,62.5,3.3
	c19.9-11.1,35.1-30.2,47.4-48.9c14.4-21.8,25-45.8,32.9-70.7c5.5-17.4,10.6-35.3,13.3-53.4c1.6-10.8,2.7-22.1,0.6-32.9
	c-1.7-8.9-5.6-17.7-12.5-23.7c-8.9-7.8-21.1-9.8-32.4-10.9c-13-1.3-26.2-0.8-39.1,1.5c-10.7,1.9-23.7,4.1-30.9,13.2
	c-4.2,5.3-6.3,12.3-8.4,18.6c-4.2,12.7-8,26.3-9.2,39.7c-1,10.2,0.9,20.1,4.4,29.7c16.2,43.6,53.8,77.6,98.8,89.1
	c3.8,1,16.4-47.4,12.9-48.3c-35.5-9-66.7-32.2-86.2-63.2c-9.1-14.6-16.3-30.9-16.4-48.3c0.2,40.1-15.8,39.5-6.3,28.7
	c1.4-1.5,2.9-2.8,4.7-3.9c4.9-2.9,10.8-4.2,16.2-5.5c11.2-2.6,22.8-3.8,34.3-3.7c19.2,0.2,42.7,2.8,52.5,21.8
	c3.8,7.4,5,16.2,4.9,24.5c0,1.7-0.2,3.4-0.3,5.2c-0.1,0.9-0.2,1.9-0.3,2.8c0.4-2.7-0.1,0.3-0.2,1c-0.4,3,1-4.7,0-0.2
	c0.1-0.4,1.3-5.6,0.4-1.8c1.5-6.2,0.7-2.9,0.3-1.5c1.9-6.8,0.5-1.3-0.1,0.2c3.2-7.8-2.3,6.4-0.3,0.9c-0.8,2.1-1.6,4.3-2.4,6.4
	c-2,5.2,0.5-1.1-0.8,1.9c-0.5,1.3-1.1,2.6-1.7,3.9c-1.2,2.6-2.4,5.2-3.6,7.7c-4.5,9.2-9.7,18-15.5,26.5
	c-11.3,16.6-24.8,33.8-42.2,44.2c-19.6,11.8-43.1,11.5-62.5-0.8c-19.4-12.3-30-33.9-32.4-56.2c-0.3-3-2.6,2-2.5,1.9
	c-3.7,7.8-10.2,14.5-17.5,19.1c-8.5,5.3-17.8,7-27.4,8.5c-9.7,1.6-18.7,4-26.5,10.3c-7.3,5.8-12.8,13.4-17.6,21.3
	c-22.8,37.6-37.9,79.4-56.4,119.1c-16.4,35-36,69-63.8,96.2c-13.2,13-28.2,24.1-44.9,32.1c-15.4,7.4-35,14.5-51.8,7.8
	c-20.6-8.2-21.1-32.5-19.8-51.3c0.4-5.4,1-11.9,1.6-16.5c0.4-3.1,0.9-6.2,1.4-9.2c-0.1,0.4,1-5.7,0.5-3c-0.3,1.7,0.7-3.2,0.8-3.9
	c0.6-3.4-0.9,3.7-0.1,0.4c0.2-0.8,1.7-7,0.7-3.1c-0.9,3.5,0.1-0.4,0.4-1.3c0.5-1.8,0.3-1.2-0.6,1.9c0.3-0.9,0.5-1.8,0.8-2.7
	c0.2-0.7,1.4-4.5,0.5-1.6s0.9-2.7,1.1-3.4c0.1-0.5,1.4-4.1,0.7-2c-0.4,1.2-0.3,0.9,0.4-1.1c0.4-1.2,0.9-2.3,1.3-3.5
	c4.1-10.9,7.3-22.6,9.1-34.1c0.2-1,1.5-7.2,0.2-7.5S29.6,407.5,29.6,407.4L29.6,407.4L29.6,407.4z"/>
<path class="st0" d="M268.8,359.7c7.7,4,15.8,6.9,24.3,8.5c3.1,0.6,8.3-21.1,8.9-23.5c0.5-2,6.6-24.3,4.1-24.8
	c-8.5-1.6-16.6-4.5-24.3-8.5c-1.9-1-8.4,21.7-8.9,23.5c-1.5,5.7-3,11.4-3.9,17.3C268.8,353.5,267.3,359,268.8,359.7L268.8,359.7
	L268.8,359.7z"/>
<path class="st0" d="M284,379.9c7.9,3.5,16,6.1,24.5,7.6c3.1,0.6,8.3-21.1,8.9-23.5c0.5-1.9,6.5-24.4,4.1-24.8
	c-8.5-1.5-16.7-4-24.5-7.6c-2.1-1-8.4,21.6-8.9,23.5c-1.5,5.7-3,11.4-3.9,17.3C284,373.6,282.6,379.3,284,379.9L284,379.9L284,379.9
	z"/>
<path class="st0" d="M447.6,25.8c-10.2-4.1-20.4-8.3-30.6-12.4c-2.3-0.9-8.4,21.5-8.9,23.5c-1.5,5.7-3,11.4-3.9,17.3
	c-0.2,1.2-1.6,7-0.2,7.5c10.2,4.1,20.4,8.3,30.6,12.4c2.3,0.9,8.4-21.5,8.9-23.5c1.5-5.7,3-11.4,3.9-17.3
	C447.6,32.2,449,26.4,447.6,25.8C447.6,25.8,447.6,25.8,447.6,25.8z"/>
<path class="st0" d="M430.5,48.3c11.7,3.2,23.5,6.5,35.2,9.8c3.4,0.9,16.7-47.2,12.9-48.3c-11.7-3.2-23.5-6.5-35.2-9.8
	C440-0.9,426.7,47.3,430.5,48.3L430.5,48.3z"/>
<path class="st0" d="M519.4,101.2c7.3,1.6,14.6,3.1,21.9,4.7c3,0.6,8.3-21.2,8.9-23.5c0.5-2,6.7-24.2,4.1-24.8
	c-7.3-1.6-14.6-3.1-21.9-4.7c-3-0.6-8.3,21.2-8.9,23.5C523,78.4,516.8,100.6,519.4,101.2L519.4,101.2z"/>
<path class="st0" d="M552,20.3c-7.3-3.7-14.6-7.4-22-11c-2-1-8.4,21.6-8.9,23.5c-1.5,5.7-3,11.4-3.9,17.3c-0.2,1.3-1.6,6.8-0.2,7.5
	c7.3,3.7,14.6,7.4,22,11c2,1,8.4-21.6,8.9-23.5c1.5-5.7,3-11.4,3.9-17.3C552,26.6,553.4,21,552,20.3C552,20.3,552,20.3,552,20.3z"/>
<path class="st0" d="M394,131.7c-0.6,1.1-2.2,4.1-3,6c-2.6,6.4-4.5,13-6.3,19.6c-1.9,7.1-4,14.7-4.5,22.1c-0.1,1.8-0.3,4.3,1.1,5.8
	c2.5,2.6,6-0.6,7.6-2.6c4.1-4.7,6.2-11.1,8.1-16.9c3.8-11.7,7.8-24.2,8.6-36.5c0.2-2.7,0.5-7.7-2.6-9.1c-5.1-2.4-7.9,8.5-8.8,10.9
	c-3.1,8.7-5.5,17.7-7.4,26.8c-0.8,4.1-2.2,9.1-1.5,13.2c4.5-15.8,8.9-31.5,13.4-47.3c-1.7,1.3-2.3,2.3-3.3,4.4c-0.5,1-0.9,2-1.3,3
	C394,131.7,391.9,137,394,131.7c-4.4,10.5-7.5,21.7-9.7,32.8l-0.9,5c-0.4,2.1-0.6,4.3-0.6,6.5l0.4,1c1.1-0.7,1.8-1.7,2.1-3
	c0.6-1.5,0.9-3.6,1.9-4.8c0.3-0.7,0.2-0.6-0.3,0.6c-0.3,0.6-0.5,1.2-0.8,1.9l-0.9,0.7l0.6-0.4c1.9-1.4,2.9-4.6,3.6-6.6
	c1.7-4.5,3.1-9.1,4.4-13.7c1.4-5.1,2.8-10.3,3.8-15.5c0.7-3.5,2.2-7.9,1.5-11.5l-0.1-0.9l-0.6,6.5l0.1-0.9L388,167.4l-0.3,0.8
	l-0.9,0.7c2.1-1.3,3.9-0.6,5.1,1.4l-0.4-1c1.4,3.9-0.8,7.2,1.8-5.6l4.7-18.7c5.4-18.9,6.6-14.7,2.9-10c-0.9,1.1-1.8,2-2.8,2.9
	l0.9-0.7c-2.1,1.2-4.3,1.2-5.3-1.3l0.4,1l-0.1,0.7c-1.5,7.1-2.9,14.1-4.4,21.2l0.3-0.9c-2.3,6.8-4.5,13.7-6.8,20.5
	c0.2-0.4,1.6-2.9,2.2-4.1c2.2-4.2,3.6-9.6,5-14.1c1.8-6.1,3.5-12.4,4.7-18.7l0.9-5c0.4-2.1,0.6-4.3,0.6-6.5l-0.4-1
	C395.1,129.4,394.4,130.4,394,131.7L394,131.7z"/>
</svg>
