<?xml version="1.0" encoding="UTF-8"?>
<svg id="Layer_1" data-name="Layer 1" xmlns="http://www.w3.org/2000/svg" viewBox="0 0 643.4 593.45">
  <defs>
    <style>
      .cls-1 {
        fill: #231f20;
      }
    </style>
  </defs>
  <path class="cls-1" d="M537.04,146.51c18.35,30.46,47.28,52.06,68.44,80.29,10.4,13.88,19.2,29.48,22.63,46.63,.8,3.99,1.31,8.04,1.47,12.11,.07,1.88,.02,3.72-.07,5.6,0-.13-.09,2.53-.09,1.34,.16-.85,.09-.4-.21,1.34l2.44-10.8c.17-.64,3-8.82,2.72-9.03l.13-.29c.35-.79,.17-.38-.54,1.23-.74,1.63-1.5,3.25-2.33,4.83-2.01,3.81-4.38,7.46-6.84,10.99-18.7,26.86-48.67,55.09-84.19,49.16-16.21-2.7-30.12-13.87-35.55-29.52-1.26-3.64-2.04-7.46-2.34-11.29-.13-1.63-.05-3.13-.04-4.74-2.51,9.53-5.01,19.06-7.52,28.59l-.66,1.56c.83-1,1.41-2.24,2.22-3.27,4.65-5.87,12.4-9.49,19.94-8.5s13.82,6.69,18.5,12.63c5.29,6.72,9.94,14.11,14.17,21.53,4.61,8.1,8.58,16.6,10.96,25.64,1,3.81,1.73,7.69,2.12,11.61,.22,2.24,.38,4.53,.32,6.78-.03,1.17-.91,5.85-.11,3.06,1.57-5.49,3.08-11.12,4.49-16.64-.62,2.42-.76,2.01-.44,1.23-.44,1.08-.93,2.15-1.42,3.21-1.83,4.01-3.85,7.92-6.03,11.75-4.16,7.3-8.64,14.43-13.38,21.37-9.37,13.74-19.78,26.76-31.12,38.93-22.98,24.68-49.68,45.77-79.07,62.3s-66.92,32.77-99.43,15.21c-14.99-8.1-27.02-21.37-37.31-34.72-10.72-13.92-19.35-29.58-19.14-47.55l.07-.83c-2.59,9.63-5.19,19.25-7.78,28.88,.11-.2,.45-1.2,.72-1.63,1.03-1.66,2-3.32,3.17-4.88,2.37-3.17,5.18-6.09,8.4-8.41,6.01-4.33,13.26-6.73,20.66-6.86,14.33-.25,29.56,8.03,33.77,22.4,.85,2.91,1.23,5.87,1.38,8.89,.68,13.81,15.62-40.46,7.51-28.69-1.04,1.5-2.15,2.88-3.4,4.22-2.1,2.24-3.56,8.14-4.42,10.71-2.03,6.06-3.78,12.32-5.23,18.54-1.12,4.83-2.4,9.77-2.76,14.73-.07,.93-.61,4.87,1.21,2.93,3.09-3.3,5.3-7.14,7.14-11.26,4.94-11.11,8.06-23.22,10.7-35.04s4.88-23.31,.51-34.47c-6.48-16.58-25.69-24.61-42.51-19.98-24.93,6.86-32.51,35.19-38.06,57.08-3.51,13.84-6.82,28.54-3.68,42.77,2.12,9.62,6.57,18.72,11.87,26.96,10.76,16.73,25.37,33.75,42.81,43.71,18.5,10.56,39.92,9.93,59.82,3.96,19.45-5.83,37.74-15.84,54.86-26.61,16.65-10.48,32.38-22.46,46.96-35.68,29.43-26.69,55.85-59.41,72.65-95.59,7.84-16.89,13.09-35.14,16.97-53.31,2.59-12.14,4.48-24.66,2.65-37.05-2.99-20.29-14.19-39.45-26.26-55.68-5.35-7.19-12.44-14.44-22.03-14.59-9.04-.15-17.25,5.78-21.78,13.29-4.22,7.01-6.73,15.32-9.05,23.08-3.34,11.19-6.59,23.03-7.58,34.74-.84,10,.76,19.64,5.35,28.6,9.13,17.83,28.03,26.4,47.58,24.73s37.69-13.55,51.76-27.52c15.4-15.3,28-33.26,35.49-53.72,6.51-17.81,11.92-36.84,13.77-55.77,1.02-10.4,.18-20.82-2.64-30.88-11.45-40.87-46-67.28-72.47-98.17-6.59-7.69-12.67-15.79-17.9-24.47-.5-.83-4.14,8.01-3.6,6.62-2.11,5.47-3.79,11.23-5.28,16.89-1.5,5.7-2.95,11.44-3.87,17.26-.34,2.13-1.36,5.58-.19,7.53h0Z"/>
  <path class="cls-1" d="M29.63,407.43c-11.23,29.59-19.58,60.48-24.89,91.67-2.15,12.63-3.67,25.41-4.36,38.21-.54,9.93-.87,20.14,1.6,29.86,11.89,46.82,69.02,20.45,94.51,2.19,72.18-51.7,94.9-142.06,133.67-217.12,5.3-10.26,10.79-20.76,18.13-29.74s16.96-14.88,28.85-17.17c11.36-2.19,22.48-3.15,32.54-9.41s16.77-14.73,21.72-25.03l-2.51,1.94c2.41,22.06,12.62,44.09,31.27,56.94,18.83,12.96,42.48,14.42,62.47,3.27,19.87-11.09,35.07-30.23,47.44-48.91,14.43-21.79,25.03-45.81,32.93-70.67,5.55-17.45,10.59-35.32,13.34-53.45,1.64-10.81,2.67-22.11,.6-32.94-1.7-8.9-5.59-17.69-12.52-23.74-8.87-7.75-21.1-9.83-32.44-10.93-13.04-1.27-26.24-.75-39.14,1.53-10.71,1.89-23.73,4.14-30.85,13.24-4.18,5.34-6.33,12.26-8.44,18.59-4.24,12.71-8,26.3-9.24,39.69-.95,10.24,.87,20.1,4.43,29.69,16.18,43.55,53.75,77.6,98.82,89.07,3.75,.95,16.42-47.41,12.94-48.3-35.51-9.04-66.74-32.18-86.16-63.22-9.13-14.6-16.32-30.88-16.42-48.29,.24,40.12-15.79,39.46-6.3,28.71,1.36-1.54,2.94-2.81,4.71-3.86,4.89-2.92,10.75-4.25,16.25-5.52,11.24-2.59,22.8-3.83,34.33-3.68,19.24,.24,42.68,2.77,52.52,21.82,3.82,7.4,5,16.25,4.85,24.5-.03,1.73-.16,3.45-.33,5.18-.09,.94-.19,1.88-.31,2.82,.35-2.74-.1,.31-.2,.99-.43,2.96,.96-4.7,.01-.18,.08-.36,1.26-5.55,.37-1.81,1.48-6.21,.72-2.85,.34-1.48,1.89-6.83,.53-1.31-.09,.17,3.25-7.82-2.3,6.39-.3,.85-.78,2.14-1.59,4.27-2.41,6.39-2.01,5.18,.48-1.07-.76,1.89-.55,1.31-1.12,2.62-1.7,3.92-1.16,2.6-2.36,5.18-3.61,7.74-4.5,9.2-9.71,18.03-15.46,26.51-11.28,16.64-24.77,33.75-42.24,44.23-19.64,11.78-43.12,11.53-62.5-.78-19.35-12.29-30.01-33.87-32.44-56.19-.33-3.02-2.56,2.04-2.51,1.94-3.74,7.79-10.21,14.54-17.52,19.09-8.46,5.26-17.76,6.98-27.44,8.54s-18.67,4.02-26.54,10.3c-7.27,5.81-12.77,13.35-17.56,21.26-22.76,37.63-37.87,79.37-56.45,119.08-16.37,35.01-35.99,68.95-63.82,96.19-13.23,12.95-28.24,24.07-44.95,32.14-15.37,7.42-34.98,14.51-51.83,7.78-20.56-8.21-21.06-32.55-19.75-51.29,.37-5.37,1-11.87,1.6-16.51,.4-3.08,.9-6.16,1.42-9.22-.06,.36,1.04-5.66,.53-3.02-.33,1.72,.69-3.25,.81-3.91,.64-3.35-.9,3.69-.09,.37,.18-.75,1.7-6.96,.73-3.13-.9,3.52,.14-.43,.36-1.29,.5-1.84,.32-1.2-.56,1.9,.26-.9,.52-1.79,.79-2.69,.21-.69,1.38-4.51,.47-1.61s.91-2.74,1.12-3.36c.15-.45,1.44-4.1,.69-2.02-.43,1.22-.29,.85,.42-1.12,.43-1.17,.87-2.33,1.31-3.49,4.15-10.94,7.33-22.59,9.15-34.15,.16-1.03,1.5-7.18,.19-7.53s-3.6,6.61-3.6,6.62h0Z"/>
  <path class="cls-1" d="M268.75,359.72c7.7,4.03,15.76,6.86,24.29,8.51,3.06,.59,8.27-21.15,8.89-23.5,.51-1.96,6.61-24.3,4.06-24.8-8.53-1.65-16.59-4.47-24.29-8.51-1.88-.99-8.4,21.66-8.89,23.5-1.5,5.69-3,11.44-3.87,17.26-.19,1.28-1.6,6.79-.19,7.53h0Z"/>
  <path class="cls-1" d="M283.95,379.91c7.89,3.54,16.04,6.06,24.55,7.57,3.12,.56,8.26-21.11,8.89-23.5,.51-1.93,6.55-24.35,4.06-24.8-8.51-1.52-16.66-4.03-24.55-7.57-2.13-.96-8.38,21.59-8.89,23.5-1.5,5.69-3,11.44-3.87,17.26-.18,1.21-1.58,6.9-.19,7.53h0Z"/>
  <path class="cls-1" d="M447.61,25.79c-10.21-4.14-20.42-8.28-30.63-12.42-2.28-.92-8.37,21.54-8.89,23.5-1.5,5.7-2.95,11.44-3.87,17.26-.18,1.16-1.56,6.97-.19,7.53,10.21,4.14,20.42,8.28,30.63,12.42,2.28,.92,8.37-21.54,8.89-23.5,1.5-5.7,2.95-11.44,3.87-17.26,.18-1.16,1.56-6.97,.19-7.53h0Z"/>
  <path class="cls-1" d="M430.45,48.31c11.73,3.25,23.47,6.5,35.2,9.75,3.4,.94,16.72-47.25,12.94-48.3-11.73-3.25-23.47-6.5-35.2-9.75-3.4-.94-16.72,47.25-12.94,48.3h0Z"/>
  <path class="cls-1" d="M519.42,101.17c7.31,1.56,14.61,3.12,21.92,4.69,2.98,.64,8.28-21.19,8.89-23.5,.52-1.99,6.68-24.23,4.06-24.8-7.31-1.56-14.61-3.12-21.92-4.69-2.98-.64-8.28,21.19-8.89,23.5-.52,1.99-6.68,24.23-4.06,24.8h0Z"/>
  <path class="cls-1" d="M551.97,20.31c-7.32-3.68-14.64-7.36-21.96-11.03-1.95-.98-8.4,21.64-8.89,23.5-1.5,5.69-3,11.44-3.87,17.26-.19,1.26-1.6,6.82-.19,7.53,7.32,3.68,14.64,7.36,21.96,11.03,1.95,.98,8.4-21.64,8.89-23.5,1.5-5.69,3-11.44,3.87-17.26,.19-1.26,1.6-6.82,.19-7.53h0Z"/>
  <path class="cls-1" d="M394.05,131.72c-.58,1.08-2.23,4.09-3,5.96-2.61,6.35-4.5,13.01-6.29,19.63-1.93,7.15-3.95,14.7-4.47,22.13-.13,1.81-.29,4.29,1.1,5.75,2.47,2.6,5.95-.65,7.64-2.58,4.1-4.66,6.2-11.12,8.09-16.89,3.82-11.66,7.81-24.17,8.62-36.49,.18-2.68,.46-7.68-2.59-9.13-5.14-2.45-7.91,8.46-8.78,10.92-3.07,8.71-5.53,17.72-7.38,26.77-.84,4.11-2.25,9.06-1.51,13.23,4.45-15.75,8.9-31.51,13.35-47.26-1.7,1.27-2.33,2.31-3.33,4.38-.48,.99-.88,2.01-1.3,3.03-.2,.48-2.35,5.84-.15,.55-4.36,10.5-7.51,21.65-9.72,32.81l-.93,4.99c-.42,2.15-.62,4.31-.6,6.5l.41,1.03c1.08-.67,1.78-1.66,2.1-2.97,.64-1.54,.88-3.64,1.94-4.76,.28-.74,.19-.55-.27,.57-.28,.62-.54,1.25-.78,1.89l-.87,.69,.56-.42c1.89-1.41,2.85-4.61,3.6-6.62,1.68-4.49,3.08-9.08,4.38-13.69,1.44-5.11,2.81-10.27,3.84-15.47,.69-3.51,2.16-7.93,1.53-11.48l-.15-.86-.6,6.5,.13-.88-10.65,37.8-.28,.8-.87,.69c2.09-1.29,3.89-.65,5.08,1.41l-.41-1.03c1.43,3.88-.78,7.23,1.77-5.65l4.74-18.67c5.42-18.88,6.62-14.71,2.94-10.03-.85,1.07-1.76,1.99-2.82,2.85l.87-.69c-2.14,1.17-4.27,1.23-5.31-1.3l.41,1.03-.11,.69c-1.46,7.06-2.93,14.11-4.39,21.17l.26-.92c-2.26,6.84-4.52,13.69-6.78,20.53,.2-.43,1.58-2.88,2.25-4.14,2.24-4.2,3.63-9.64,4.98-14.13,1.83-6.12,3.5-12.4,4.74-18.67l.93-4.99c.42-2.15,.62-4.31,.6-6.5l-.41-1.03c-1.08,.67-1.78,1.66-2.1,2.97Z"/>
</svg>