<?xml version="1.0" encoding="utf-8" ?>
<svg xmlns="http://www.w3.org/2000/svg" xmlns:xlink="http://www.w3.org/1999/xlink" width="1024" height="1024">
	<path fill="#191818" d="M0 0L180.649 0L182.181 0L266.995 0L268.142 0L367.868 0L369.239 0L512.267 0L513.623 0L678.196 0L679.258 0L767.661 0L768.813 0L900.357 0L902.282 0L1022.72 0L1024 0L1024 2.04514L1024 13.7912L1024 496.352L1024 518.067L1024 857.969L1024 1023.67L1024 1024L0 1024L0 1023.67L0 833.076L0 501.053L0 211.858L0 0Z"/>
	<path fill="#EB6F1A" d="M115.022 620.321C116.934 621.352 118.773 622.531 120.629 623.659L118.852 628.401L118.269 629.224C116.741 628.011 115.631 622.367 115.022 620.321Z"/>
	<path fill="#2B9E5C" d="M763.725 790.864C764.884 797.473 764.498 804.695 764.521 811.392L755.139 811.483L754.838 810.974C755.678 806.122 761.425 795.798 763.725 790.864Z"/>
	<path fill="#E21818" d="M119.392 556.934L119.621 556.192C124.787 563.822 127.49 572.788 128.849 581.83C123.512 584.509 118.365 587.381 113.14 590.264C115.205 584.743 117.04 579.216 117.877 573.361C118.351 570.043 117.472 559.487 118.226 558.124C118.495 557.638 119.003 557.33 119.392 556.934Z"/>
	<path fill="#E21818" d="M86.9063 615.94C86.9401 615.966 86.9851 615.983 87.0077 616.02C87.6622 617.084 85.6621 620.442 85.0853 621.746C81.7662 629.251 80.9977 637.078 79.8602 645.115C72.6317 644.935 65.3912 644.94 58.1604 644.869C56.9923 643.285 57.7647 626.433 57.751 623.106C67.5572 622.411 77.9536 619.996 86.9063 615.94Z"/>
	<path fill="#E21818" d="M127.533 583.427L128.516 583.397L129.079 584.195C129.667 599.477 125.403 608.674 120.944 622.682C116.615 620.214 113.707 617.602 110.44 613.848C107.178 610.191 103.658 606.75 100.219 603.259C110.326 593.648 115.193 589.818 127.533 583.427Z"/>
	<path fill="#FDE431" d="M65.5662 839.837C64.9994 839.497 64.4751 839.178 63.9837 838.731C60.5691 835.624 57.7186 830.907 57.3864 826.264C57.1716 823.261 58.0364 820.216 60.1087 817.985C62.2174 815.715 65.1369 814.623 68.1955 814.553C75.3104 814.389 83.0531 818.883 88.0414 823.685C88.0686 828.391 88.4617 833.413 87.7803 838.07C80.9215 838.419 72.1643 837.986 65.5662 839.837Z"/>
	<path fill="#E21818" d="M75.2475 558.707C77.0472 558.593 78.8986 558.71 80.7037 558.736C81.5168 572.099 83.6658 580.388 88.7252 592.708C84.7774 590.627 80.8126 588.745 76.7077 586.994C70.6689 584.744 64.7866 583.575 58.4575 582.543C57.3994 575.199 57.2694 567.501 56.6418 560.084Q65.9385 559.312 75.2475 558.707Z"/>
	<path fill="#E21818" d="M893.962 695.799L894.615 696.184C895.945 699.763 897.701 702.57 900.432 705.238C896.779 715.741 892.97 726.618 890.054 737.339C884.993 737.68 879.935 738.177 874.881 738.608Q871.729 738.883 868.581 739.202C869.743 734.999 869.784 730.48 871.236 726.37C873.668 719.485 888.485 702.618 893.962 695.799Z"/>
	<path fill="#FDE431" d="M908.027 677.611C911.442 677.281 914.286 677.252 917.489 678.644Q918.213 678.951 918.901 679.33Q919.59 679.71 920.235 680.159Q920.881 680.607 921.477 681.12Q922.073 681.633 922.613 682.204Q923.152 682.776 923.63 683.4Q924.108 684.024 924.519 684.695Q924.93 685.365 925.27 686.074Q925.609 686.783 925.874 687.523Q926.114 688.218 926.285 688.934Q926.456 689.65 926.555 690.378Q926.655 691.107 926.682 691.842Q926.71 692.578 926.665 693.312Q926.621 694.046 926.504 694.773Q926.387 695.499 926.2 696.21Q926.013 696.922 925.756 697.611Q925.5 698.301 925.177 698.962C922.876 703.67 918.888 705.679 914.146 707.174C912.773 707.313 911.381 707.422 910 707.35C905.954 707.142 901.984 705.565 899.259 702.508C895.489 698.277 895.178 693.463 895.613 688.125C899.364 683.542 902.454 679.985 908.027 677.611Z"/>
	<path fill="#E21818" d="M926.387 699.456C935.309 705.064 946.317 710.341 955.7 715.628L955.47 739.996L947.577 740.072L932.426 740.059C923.335 731.984 920.962 718.26 918.109 707.011C921.801 704.943 924.056 703.006 926.387 699.456Z"/>
	<path fill="#E21818" d="M955.93 675.474C956.152 675.484 956.376 675.479 956.596 675.505C960.872 676.023 972.704 691.093 975.892 694.766C970.22 701.649 963.237 709.469 956.088 714.821L950.32 711.746Q938.818 705.024 926.961 698.951C927.682 695.737 927.879 692.875 927.686 689.606C937.499 685.663 946.045 679.343 955.93 675.474Z"/>
	<path fill="#E21818" d="M903.11 678.519C911.219 667.983 919.229 656.992 928.106 647.097C926.276 656.111 922.02 664.77 917.691 672.815C923.183 667.548 925.746 658.774 928.013 651.738L955.45 651.61C954.748 659.169 955.189 666.903 955.426 674.485C945.783 678.47 937.314 684.634 927.701 688.623C923.663 679.945 922.534 681.355 915.979 676.268L917.099 673.52C916.62 674.122 915.846 675.315 915.239 675.694C914.672 676.048 905.929 677.366 903.11 678.519Z"/>
	<path fill="#E21818" d="M901.249 705.988C906.8 708.6 911.317 708.911 917.172 707.409C918.047 710.941 918.893 714.495 919.903 717.991C922.352 726.464 925.549 737.148 933.727 741.682C929.327 746.053 924.558 750.089 919.78 754.038L914.686 758.873C906.77 751.862 897.982 744.914 890.943 737.046C892.023 732.941 893.746 728.876 895.116 724.851Q898.236 715.437 901.249 705.988Z"/>
	<path fill="#E21818" d="M99.4196 603.887C111.439 615.202 112.584 616.228 117.624 631.585C115.588 638.034 113.712 644.417 113.512 651.218L98.8348 665.624C95.5136 664.369 83.2652 650.89 80.547 647.596C82.5544 627.669 85.4097 618.376 99.4196 603.887Z"/>
	<path fill="#E21818" d="M99.0927 539.908C103.059 542.117 108.045 546.556 111.197 549.88C116.465 555.436 117.521 561.076 117.256 568.444C116.611 586.297 112.194 590.96 99.6003 602.641C98.4733 601.855 97.4957 600.808 96.5054 599.857C84.944 588.753 82.0229 572.901 81.6758 557.438C86.9825 551.212 93.6056 546.042 99.0927 539.908Z"/>
	<path fill="#E21818" d="M54.7617 583.624Q56.1305 583.547 57.5003 583.605C68.3937 583.981 81.6875 588.325 90.3133 595.066C93.3362 597.428 96.0013 600.619 98.6375 603.411C90.9511 611.365 89.0615 614.959 77.6001 618.414C71.0425 620.298 64.3247 621.441 57.5561 622.239C50.1209 615.764 42.735 608.626 37.377 600.319C41.8273 594.599 48.2084 586.943 54.7617 583.624Z"/>
	<path fill="#FEFEFE" d="M43.788 840.532C39.9254 831.142 36.7514 820.281 40.7779 810.359C42.8405 805.277 46.5456 801.421 51.6153 799.292C62.7855 794.601 77.7212 798.094 88.472 802.338L88.3083 821.853C82.4376 817.215 74.111 812.37 66.3087 813.322C63.0164 813.723 59.8402 815.292 57.9175 818.061C55.9447 820.903 55.8323 824.492 56.5367 827.773C57.6571 832.992 60.6735 837.431 64.2889 841.246L65.5662 839.837C72.1643 837.986 80.9215 838.419 87.7803 838.07C87.3745 844.555 88.712 855.914 87.8188 861.139C89.0843 862.985 91.5219 874.597 94.3305 879.434C93.8562 879.414 93.7211 879.425 93.1967 879.304C80.4107 876.332 61.3167 863.319 52.7385 853.381C49.3132 849.413 46.7121 844.858 43.788 840.532Z"/>
	<path fill="#231F1F" d="M87.7803 838.07C87.3745 844.555 88.712 855.914 87.8188 861.139C78.9199 856.36 70.9929 848.691 64.2889 841.246L65.5662 839.837C72.1643 837.986 80.9215 838.419 87.7803 838.07Z"/>
	<path fill="#FEFEFE" d="M212.203 548.386C213.656 549.707 214.397 553.862 214.97 555.847C217.791 565.616 219.344 575.13 220.234 585.237C222.075 606.135 219.938 630.762 232.613 648.699C241.167 660.805 252.621 663.809 266.555 666.301C262.418 678.848 258.661 691.222 255.779 704.124C255.557 705.687 255.2 707.202 254.84 708.738C253.689 709.613 252.336 709.339 250.926 709.221C238.434 708.174 227.874 704.345 219.596 694.634C212.373 686.159 208.765 674.63 207.114 663.791C204.501 646.62 206.104 628.887 207.245 611.662Q209.389 579.998 212.203 548.386Z"/>
	<path fill="#FDE431" d="M193.953 502.193C195.793 500.922 245.763 501.898 253.885 501.283L253.954 662.395C242.535 658.135 234.976 652.461 229.812 641.129C219.947 619.481 223.592 593.471 219.912 570.378C218.454 561.234 213.99 552.692 212.741 543.709C211.478 534.62 212.683 524.774 210.11 515.862C209.016 515.722 207.194 515.749 206.211 515.409C204.528 514.828 195.949 504.852 194.407 502.853C194.244 502.642 194.104 502.413 193.953 502.193Z"/>
	<path fill="#2B9E5C" d="M644.035 500.973C684.117 501.703 724.338 501.117 764.432 501.031Q764.125 512.234 764.228 523.441C748.44 529.503 735.376 537.919 722.951 549.354C712.063 562.006 704.702 575.882 699.795 591.779C677.597 564.321 653.944 535.511 644.035 500.973Z"/>
	<path fill="#0055A5" d="M69.9585 501.01C79.6269 501.001 131.618 500.022 137.59 501.886C142.943 503.557 148.039 507.357 152.966 510.019C157.643 512.546 162.514 514.475 167.474 516.352C167.473 527.895 166.748 539.539 166.282 551.076C165.336 574.52 164.085 598.086 161.599 621.422C157.725 657.794 151.083 695.243 153.903 731.842C151.001 728.235 148.748 723.732 146.352 719.754Q141.422 711.494 136.097 703.484C123.398 684.015 110.561 663.922 116.465 639.558C118.549 630.956 122.237 622.518 125.183 614.174C128.811 603.901 130.929 593.024 129.872 582.1C126.713 549.453 93.7481 520.768 69.9585 501.01Z"/>
	<path fill="#2B9E5C" d="M255.039 501.467C271.788 501.044 288.654 501.423 305.414 501.414C327.231 501.403 349.085 501.109 370.896 501.489C368.086 512.664 364.306 523.501 358.946 533.723C346.806 556.877 324.23 581.047 307.357 601.246C291.726 621.641 277.341 641.687 267.188 665.45C263.117 664.803 259.155 663.716 255.172 662.677L255.039 501.467Z"/>
	<path fill="#FDE431" d="M519.578 439.648C520.08 441.272 520.304 442.849 520.521 444.532C552.125 445.987 578.508 449.943 606.902 465.167C613.196 468.541 618.741 473.151 624.94 476.579C632.158 482.458 638.519 489.542 641.799 498.4C633.799 498.969 625.577 498.63 617.552 498.618L576.078 498.593L436.184 498.803L396.636 498.68C388.656 498.642 380.328 498.128 372.418 499.193Q373.303 497.089 374.356 495.063Q375.409 493.038 376.623 491.105Q377.837 489.172 379.205 487.344Q380.572 485.517 382.084 483.806C406.837 455.587 448.557 446.635 484.486 444.447C488.854 441.899 494.659 444.233 499.443 441.256C506.562 443.125 512.911 442.506 519.578 439.648Z"/>
	<path fill="#191818" d="M519.578 439.648C520.08 441.272 520.304 442.849 520.521 444.532C508.502 444.157 496.508 444.458 484.486 444.447C488.854 441.899 494.659 444.233 499.443 441.256C506.562 443.125 512.911 442.506 519.578 439.648Z"/>
	<path fill="#E21818" d="M625.392 475.666L625.168 474.89C628.462 468.995 634.497 463.294 638.893 458.121L669.604 422.35L765.515 311.277Q764.604 405.636 765.125 499.996L684.154 499.984C671.757 499.996 655.516 500.991 643.469 499.708C639.578 490.064 633.994 481.724 625.392 475.666Z"/>
	<path fill="#FEFEFE" d="M168.613 516.877C182.474 519.525 194.749 518.265 208.634 517.187C218.812 564.911 187.289 657.711 218.515 695.278C228.567 707.372 239.793 709.276 254.633 710.677C250.383 734.685 255.106 758.083 258.337 781.833L254.375 781.746C227.188 781.077 199.469 780.868 172.308 781.824C169.122 777.695 166.789 773.027 164.599 768.313C149.802 736.455 154.415 699.419 157.992 665.61C160.088 645.795 162.643 625.983 164.337 606.133C166.87 576.434 167.742 546.659 168.613 516.877Z"/>
	<path fill="#E21818" d="M90.0179 783.126C109.884 782.478 129.899 783.02 149.781 783.193L224.764 783.141C239.321 783.149 253.916 783.669 268.463 783.369C268.326 794.692 268.81 806.008 268.51 817.335C264.78 845.159 273.513 881.18 247.573 900.706C243.729 903.599 239.592 905.449 235.141 907.211L236.304 907.505L236.494 908.562L237.539 908.056L237.486 908.411C236.175 908.763 234.982 908.958 233.635 909.106C232.854 909.192 233.141 909.158 232.204 909.4C216.345 909.749 200.445 909.472 184.58 909.462Q160.187 909.62 135.795 909.397C133.73 908.869 131.484 908.764 129.366 908.502L130.538 908.226L130.402 907.351L131.332 906.724C120.909 902.885 111.521 897.594 103.719 889.544C101.31 887.058 99.4518 883.891 96.9479 881.553L96.4219 881.071C94.9182 876.583 92.0837 872.511 90.9402 867.848C87.1191 852.266 89.393 832.733 89.7781 816.578Q90.0681 799.853 90.0179 783.126Z"/>
	<path fill="#0A41EF" d="M235.249 821.246C236.891 820.883 238.547 820.446 240.205 820.172C239.973 824.366 239.465 828.276 240.837 832.33L240.492 832.616L240.106 832.341C235.558 831.875 231.769 831.141 227.213 832.446C227.378 829.011 227.412 825.635 227.3 822.197L228.535 821.068C230.77 820.599 233.002 821.005 235.249 821.246Z"/>
	<path fill="#FDE431" d="M115.756 834.678C115.221 835.746 114.678 836.58 113.739 837.322C111.938 838.748 109.141 838.672 106.995 838.315C103.864 837.792 101.204 836.166 99.3836 833.552C97.2582 830.501 96.6915 826.546 97.5274 822.957C98.2398 819.897 99.9642 817.177 102.703 815.567C105.826 813.731 108.567 814.106 111.951 814.898C115.315 818 117.762 820.7 119.776 824.853C119.108 828.348 118.232 831.116 115.697 833.778L115.756 834.678Z"/>
	<path fill="#FDE431" d="M231.366 797.752C233.556 797.617 235.756 797.66 237.861 798.353C241.857 799.669 243.539 802.753 245.288 806.272C245.165 811.866 244.329 814.421 240.677 818.598C239.269 819.146 237.818 819.516 236.365 819.925L228.271 819.836C225.693 817.59 223.625 814.775 222.584 811.491C221.668 808.599 221.574 805.466 223.072 802.753C224.923 799.399 227.894 798.641 231.366 797.752Z"/>
	<path fill="#FDE431" d="M221.282 837.355Q219.691 837.471 218.097 837.54C214.544 837.683 211.454 836.825 208.854 834.271C206.47 831.93 205.352 828.594 205.42 825.295Q205.429 824.656 205.504 824.021Q205.58 823.386 205.72 822.762Q205.861 822.138 206.065 821.532Q206.27 820.926 206.536 820.344Q206.802 819.763 207.126 819.212Q207.451 818.661 207.831 818.147Q208.211 817.633 208.642 817.16Q209.073 816.688 209.551 816.263C212.789 813.392 216.218 812.987 220.36 813.313C222.679 815.556 226.072 819.231 227.3 822.197C227.412 825.635 227.378 829.011 227.213 832.446C227.168 832.476 227.125 832.506 227.08 832.535C224.94 833.928 223.153 835.63 221.282 837.355Z"/>
	<path fill="#FDE431" d="M247.117 813.249C248.923 813.198 250.843 813.142 252.624 813.459C255.953 814.052 259.061 815.975 260.9 818.839C262.738 821.7 263.252 825.426 262.394 828.703C261.306 832.861 258.74 835.005 255.173 837.105C252.32 837.979 249.84 837.951 246.887 837.918C245.506 836.719 244.303 835.515 243.304 833.97C240.954 830.336 240.12 825.734 241.223 821.536C241.983 818.638 244.529 814.831 247.117 813.249Z"/>
	<path fill="#FDE431" d="M130.913 822.886C132.748 819.353 135.127 815.739 139.147 814.528C141.796 813.729 144.621 814.174 147.033 815.48C150.238 817.214 152.669 820.456 153.498 823.998C154.222 827.09 153.907 830.655 152.062 833.312C150.107 836.127 146.548 837.714 143.218 838.121C141.176 838.371 139.033 838.277 136.977 838.255L132.524 832.23C130.854 828.927 130.776 826.482 130.913 822.886Z"/>
	<path fill="#FDE431" d="M229.754 832.736C234.602 832.215 238.539 832.637 242.708 835.329C243.369 836.439 244.096 837.546 244.609 838.735C245.904 841.737 246.029 845.79 244.615 848.764C242.964 852.233 240.032 853.897 236.589 855.226C234.856 855.454 232.97 855.498 231.246 855.169C226.777 854.317 224.331 851.495 221.828 847.988L221.551 845.736C221.266 843.4 221.422 841.604 221.879 839.291C224.22 836.112 226.265 834.494 229.754 832.736Z"/>
	<path fill="#FDE431" d="M113.968 814.973C112.802 810.875 112.093 807.299 114.171 803.277Q114.431 802.775 114.742 802.303Q115.052 801.831 115.41 801.394Q115.768 800.957 116.17 800.56Q116.571 800.162 117.012 799.809Q117.453 799.455 117.928 799.149Q118.403 798.843 118.907 798.589Q119.412 798.334 119.94 798.133Q120.468 797.932 121.014 797.787C124.384 796.858 128.046 797.554 131.018 799.334C133.006 800.525 134.568 802.357 136.025 804.131C136.677 807.266 136.927 810.039 136.885 813.25C134.608 815.703 131.462 818.44 129.957 821.403C129.493 821.16 129.512 821.153 128.926 820.949C126.613 820.146 124.195 820.174 121.994 821.23C118.495 821.043 116.331 817.336 113.968 814.973Z"/>
	<path fill="#FDE431" d="M121.994 821.23C124.195 820.174 126.613 820.146 128.926 820.949C129.512 821.153 129.493 821.16 129.957 821.403L130.257 822.667L130.913 822.886C130.776 826.482 130.854 828.927 132.524 832.23L131.222 834.26C134.148 836.301 136.036 838.487 136.638 842.114Q136.727 842.682 136.757 843.257Q136.788 843.831 136.76 844.406Q136.732 844.98 136.645 845.549Q136.559 846.118 136.415 846.675Q136.271 847.232 136.071 847.771Q135.871 848.311 135.617 848.827Q135.364 849.343 135.059 849.831Q134.754 850.319 134.401 850.773Q134.018 851.266 133.586 851.718Q133.154 852.169 132.678 852.573Q132.202 852.978 131.687 853.331Q131.172 853.684 130.623 853.983Q130.074 854.281 129.497 854.521Q128.92 854.761 128.322 854.94Q127.724 855.12 127.11 855.236Q126.496 855.353 125.874 855.406C122.532 855.691 119.078 854.471 116.582 852.25C115.62 851.394 114.803 850.369 113.992 849.373C113.143 845.658 112.998 842.944 113.864 839.159L118.33 834.676C117.538 834.258 116.635 834.571 115.756 834.678L115.697 833.778C118.232 831.116 119.108 828.348 119.776 824.853C120.288 823.166 120.635 822.376 121.994 821.23Z"/>
	<path fill="#0A41EF" d="M121.994 821.23C124.195 820.174 126.613 820.146 128.926 820.949C129.512 821.153 129.493 821.16 129.957 821.403L130.257 822.667L130.913 822.886C130.776 826.482 130.854 828.927 132.524 832.23L131.222 834.26C128.519 832.63 126.149 831.955 123.016 832.772C121.358 833.204 119.845 833.891 118.33 834.676C117.538 834.258 116.635 834.571 115.756 834.678L115.697 833.778C118.232 831.116 119.108 828.348 119.776 824.853C120.288 823.166 120.635 822.376 121.994 821.23Z"/>
	<path fill="#191818" d="M175.896 908.033C173.055 905.626 170.57 903.409 170.277 899.43C170.144 897.621 171.023 894.94 170.32 893.427C165.163 893.307 159.851 892.518 156.156 888.505C154.259 886.444 153.509 883.854 153.656 881.084C153.848 877.461 155.4 872.236 158.16 869.783C161.426 866.88 166.936 868.923 170.863 867.408C170.52 862.486 169.82 859.293 173.341 855.132C175.909 852.098 179.341 851.014 183.202 850.874C186.379 850.759 189.437 851.454 191.784 853.707C196.656 858.383 194.933 862.662 196.742 866.248C197.768 868.281 213 867.448 212.583 879.858C212.467 883.306 210.822 888.369 208.272 890.798C205.524 893.415 196.068 893.077 195.793 895.451C195.78 895.566 195.757 897.172 195.756 897.185C195.677 900.393 195 903.73 192.465 905.935C191.499 906.774 190.294 907.386 189.177 907.999C200.089 908.006 225.917 909.147 235.141 907.211L236.304 907.505L236.494 908.562L237.539 908.056L237.486 908.411C236.175 908.763 234.982 908.958 233.635 909.106C232.854 909.192 233.141 909.158 232.204 909.4C216.345 909.749 200.445 909.472 184.58 909.462Q160.187 909.62 135.795 909.397C133.73 908.869 131.484 908.764 129.366 908.502L130.538 908.226L130.402 907.351L131.332 906.724C143.507 909.644 162.765 907.714 175.896 908.033Z"/>
	<path fill="#0A41EF" d="M182.497 874.538C184.043 874.658 185.578 874.734 187.124 874.814C188.063 874.863 188.37 874.982 189.114 875.515C189.308 876.83 188.92 877.091 188.198 878.093C187.845 878.585 187.452 879.054 187.072 879.524C187.759 881.896 188.417 884.239 188.79 886.684C185.667 886.258 182.553 885.836 179.412 885.557C178.159 882.583 176.227 879.704 177.411 876.513C179.037 874.964 180.356 874.889 182.497 874.538Z"/>
	<path fill="#FDE431" d="M179.412 885.557C183.421 887.863 188.508 886.873 192.157 890.774C194.925 893.733 194.593 898.118 194.472 901.853C194.197 902.307 193.927 902.764 193.63 903.204C191.543 906.299 189.704 907.219 186.099 907.939Q184.19 907.995 182.281 907.991C178.997 907.972 175.722 906.94 173.444 904.451C171.86 902.721 171.141 900.386 171.261 898.062C171.546 892.571 175.634 888.978 179.412 885.557Z"/>
	<path fill="#FDE431" d="M182.497 874.538C179.031 874.209 176.418 873.379 174.078 870.641C172.081 868.305 171.286 865.183 171.573 862.156Q171.627 861.583 171.738 861.019Q171.85 860.454 172.017 859.904Q172.185 859.354 172.407 858.823Q172.63 858.292 172.905 857.787Q173.179 857.281 173.504 856.806Q173.828 856.331 174.199 855.891Q174.569 855.451 174.982 855.05Q175.396 854.65 175.847 854.293C178.501 852.175 181.231 851.984 184.492 851.844C188.195 852.9 191.781 854.545 193.824 858.009Q194.074 858.429 194.281 858.872Q194.488 859.314 194.649 859.775Q194.811 860.236 194.926 860.711Q195.041 861.186 195.109 861.67Q195.176 862.154 195.194 862.643Q195.213 863.131 195.183 863.619Q195.153 864.106 195.075 864.589Q194.996 865.071 194.87 865.543C193.965 868.842 191.298 871.455 188.381 873.09C186.612 874.083 184.476 874.264 182.497 874.538Z"/>
	<path fill="#FDE431" d="M165.671 868.62C166.293 868.608 166.914 868.6 167.536 868.631C171.66 868.836 173.941 872.129 176.473 874.966C176.466 878.384 176.972 881.285 177.831 884.572C174.754 887.878 172.199 891.686 167.603 892.762C165.098 892.573 162.884 892.146 160.714 890.807Q160.16 890.465 159.644 890.07Q159.127 889.674 158.653 889.228Q158.18 888.782 157.753 888.29Q157.327 887.798 156.953 887.266Q156.578 886.734 156.26 886.167Q155.941 885.599 155.682 885.002Q155.423 884.406 155.225 883.786Q155.027 883.166 154.893 882.529C154.224 879.395 154.8 875.99 156.679 873.366C159.003 870.119 161.9 869.251 165.671 868.62Z"/>
	<path fill="#FDE431" d="M198.062 868.087C199.882 868.268 201.925 868.48 203.626 869.167C206.699 870.406 209.321 872.903 210.573 875.982Q210.813 876.58 210.991 877.198Q211.169 877.817 211.283 878.451Q211.396 879.085 211.445 879.727Q211.494 880.369 211.476 881.013Q211.459 881.657 211.377 882.295Q211.294 882.934 211.147 883.561Q210.999 884.188 210.789 884.796Q210.578 885.405 210.307 885.989C208.644 889.539 206.09 891.277 202.544 892.671C199.873 893.039 197.711 893.436 195.259 892.086C192.489 890.56 190.603 888.022 189.737 885.001C188.695 881.363 189.143 877.076 191.007 873.77C192.566 871.005 194.979 868.895 198.062 868.087Z"/>
	<path fill="#2B9E5C" d="M767.891 500.807C778.244 501.44 788.786 501.046 799.164 501.059L854.56 501.109L1022.05 501.027C1021.99 506.18 1021.43 512.079 1022.4 517.134C1022.46 518.187 1022.45 518.967 1021.92 519.917C1020.77 521.988 1018.68 524.108 1017.2 526.012L1007.19 539.082Q988.676 563.245 970.481 587.649C955.183 608.311 940.253 629.293 924.66 649.728C915.322 661.965 905.18 673.639 895.894 685.882C886.542 698.212 877.807 710.994 868.514 723.337Q834.767 767.855 799.665 811.311Q782.826 811.125 765.986 811.177C766.097 802.739 764.031 792.25 767.02 784.32C773.634 766.773 796.32 748.896 810.136 736.185Q822.825 724.559 834.934 712.329C847.769 699.12 859.12 684.894 868.565 669.064C882.973 644.915 891.72 614.381 884.556 586.438Q884.288 585.383 883.994 584.334Q883.7 583.286 883.38 582.245Q883.06 581.204 882.714 580.172Q882.367 579.14 881.995 578.116Q881.624 577.093 881.226 576.079Q880.829 575.065 880.406 574.062Q879.983 573.058 879.536 572.066Q879.088 571.073 878.616 570.092Q878.143 569.111 877.647 568.142Q877.15 567.173 876.629 566.217Q876.108 565.26 875.564 564.318Q875.019 563.375 874.451 562.446Q873.883 561.517 873.292 560.602Q872.701 559.688 872.087 558.788Q871.473 557.889 870.837 557.005Q870.201 556.122 869.543 555.254Q868.885 554.387 868.205 553.536Q867.526 552.685 866.825 551.852Q866.124 551.018 865.403 550.202Q864.682 549.387 863.94 548.589Q863.199 547.792 862.438 547.013Q861.677 546.234 860.896 545.475Q860.116 544.716 859.316 543.976Q858.517 543.237 857.7 542.518Q856.882 541.798 856.047 541.099Q855.212 540.401 854.359 539.723Q853.507 539.046 852.638 538.39Q851.769 537.734 850.884 537.1Q849.998 536.466 849.097 535.854Q848.197 535.243 847.281 534.654Q846.365 534.065 845.435 533.499Q844.504 532.933 843.56 532.391C819.557 518.445 793.109 515.816 766.419 522.895C766.439 516.713 765.509 507.013 766.801 501.347L767.891 500.807Z"/>
	<path fill="#FDE431" d="M1022.87 520.631L1022.77 747.962L1022.88 820.627C1022.9 832.502 1022.22 844.839 1023 856.651C1017.13 860.773 989.955 873.845 983.396 875.865C980.439 876.775 977.497 876.584 974.44 876.509C977.793 867.588 980.895 857.606 979.052 847.983Q978.943 847.39 978.805 846.804Q978.666 846.218 978.498 845.639Q978.33 845.061 978.133 844.492Q977.935 843.922 977.71 843.364Q977.484 842.805 977.23 842.259Q976.976 841.713 976.695 841.18Q976.413 840.647 976.106 840.129Q975.798 839.611 975.464 839.11Q975.13 838.608 974.772 838.124Q974.413 837.64 974.03 837.175Q973.647 836.71 973.242 836.264Q972.836 835.819 972.408 835.395Q971.98 834.971 971.531 834.569Q971.082 834.167 970.614 833.789Q970.145 833.41 969.658 833.056Q969.171 832.701 968.666 832.372C957.234 824.893 944.374 828.987 932.087 831.386C931.919 824.983 932.051 818.543 932.049 812.136C911.457 811.607 890.792 812.027 870.19 811.94C847.136 811.842 824.002 811.297 800.956 811.698C809.722 799.578 819.695 788.139 828.828 776.259C835.124 768.07 841.605 760.014 847.854 751.793C855.204 742.125 862.39 732.178 870.284 722.947C869.796 728.701 869.052 734.813 866.916 740.22C874.813 739.739 882.806 739.341 890.659 738.399C897.48 746.369 906.711 753.345 914.653 760.297C921.467 754.047 928.816 748.185 935.11 741.414C942.28 741.331 949.497 741.401 956.655 740.995Q956.97 728.246 956.935 715.494C964.194 709.521 971.185 702.035 977.272 694.859C971.732 688.18 964.008 677.796 956.531 673.66C956.48 665.808 956.36 657.95 956.401 650.098C951.879 650.11 931.987 650.877 929.228 649.866L928.66 650.01C928.085 648.404 928.134 647.311 928.807 645.774C931.075 640.597 946.394 622.403 950.878 616.358C967.839 593.493 984.615 570.576 1001.9 547.942C1008.77 538.937 1015.31 529.044 1022.87 520.631Z"/>
	<path fill="#FDE431" d="M0 501.053L46.0524 501.111C53.2963 501.113 60.8075 500.652 68.0232 501.074Q74.277 505.754 80.1918 510.856Q86.1066 515.958 91.6539 521.458Q97.2012 526.957 102.354 532.828Q107.508 538.698 112.242 544.911C114.861 548.385 117.898 552.19 119.621 556.192L119.392 556.934C116.84 556.296 115.187 553.04 113.523 551.114C109.338 546.271 103.923 542.286 99.0226 538.188C93.2523 544.883 85.7113 550.477 80.383 557.402C72.1292 557.51 63.6581 557.955 55.4395 558.753C56.0897 565.953 57.6975 574.277 57.0666 581.43C55.3835 582.728 53.1486 582.984 51.3991 584.301C45.965 588.393 40.1922 594.659 36.02 600.07C41.2028 608.378 48.737 616.744 56.5029 622.773Q56.5176 634.389 56.3694 646.005C63.5307 646.005 70.7464 645.842 77.8917 646.337C84.2806 653.886 91.5444 660.452 98.2727 667.668C103.161 662.567 108.095 657.349 113.394 652.672C114.178 658.776 114.856 664.898 116.691 670.798C121.922 687.617 136.041 704.903 145.085 720.105C147.648 724.412 150.931 728.773 152.885 733.359C155.101 738.562 155.242 744.502 156.623 749.962C159.47 761.215 164.355 771.873 170.075 781.937Q144.806 781.624 119.536 781.592C109.361 781.562 98.9488 781.14 88.8081 781.943C88.2734 788.193 88.4877 794.518 88.5117 800.786C76.6286 796.754 61.5982 792.683 49.6565 798.701C44.2642 801.418 40.671 806.011 38.9059 811.746C35.9774 821.259 38.5003 830.63 42.0757 839.559C28.0335 837.813 13.8994 835.728 0 833.076L0 501.053Z"/>
	<path fill="#FEFEFE" d="M182.181 0L266.995 0C252.982 49.4348 217.056 95.9107 183.871 134.408C131.86 194.746 75.0813 251.732 82.2147 338.478C84.724 368.991 94.7608 399.043 109.64 425.724C127.006 456.865 150.617 486.127 179.382 507.48C184.157 511.025 189.174 513.822 194.145 517.013C169.536 518.523 156.041 511.485 136.023 498.613C107.864 480.398 82.4235 455.601 62.0099 429.077C37.032 396.622 20.4285 357.192 18.2429 316.116C14.0466 237.253 56.2475 182.154 104.547 124.979C111.508 116.739 118.037 108.136 125.045 99.9339C130.071 94.0504 135.388 88.436 140.263 82.4197C159.078 59.2003 178.214 30.1747 182.181 0Z"/>
	<path fill="#FEFEFE" d="M268.142 0L367.868 0C343.536 71.6017 292.065 122.525 240.583 175.499C223.63 192.945 205.923 209.91 190.381 228.662C178.283 243.258 166.662 258.96 157.739 275.728C125.625 336.084 133.184 396.492 162.533 455.989C168.556 468.197 183.567 494.453 193.166 503.2C196.743 507.711 200.88 511.768 204.876 515.905L197.299 516.643C166.201 502.68 131.384 460.354 114.266 431.04C96.2364 400.165 84.4652 366.327 83.25 330.406C80.4184 246.702 135.673 192.711 186.102 133.836C207.231 109.167 227.47 83.13 243.866 55.0504C254.16 37.42 262.932 19.8162 268.142 0Z"/>
	<path fill="#231F1F" d="M0 0L180.649 0L182.181 0C178.214 30.1747 159.078 59.2003 140.263 82.4197C135.388 88.436 130.071 94.0504 125.045 99.9339C118.037 108.136 111.508 116.739 104.547 124.979C56.2475 182.154 14.0466 237.253 18.2429 316.116C20.4285 357.192 37.032 396.622 62.0099 429.077C82.4235 455.601 107.864 480.398 136.023 498.613C129.912 502.662 74.3535 497.353 68.0232 501.074C60.8075 500.652 53.2963 501.113 46.0524 501.111L0 501.053L0 211.858L0 0Z"/>
	<path fill="#FDE431" d="M89.2588 90.8448C91.1853 90.8909 92.3042 91.7853 93.8137 92.8526L94.4626 93.3155C95.8984 92.4916 97.9081 91.1797 99.5909 91.2806C100.254 91.3203 100.417 91.4591 100.78 92.1342C101.33 93.1545 101.002 95.4415 100.856 96.5684L100.734 97.4697L101.513 97.6378C102.773 96.8828 103.667 96.3008 105.184 96.2241C106.109 96.6437 106.713 96.9029 107.391 97.6942C108.889 99.4421 106.335 101.303 106.104 103.205C107.771 103.741 109.081 104.169 110.071 105.705C110.241 107.114 110.287 107.733 109.691 109.079C108.809 109.847 108.257 110.041 107.13 110.205C106.184 110.343 105.915 110.383 105.02 110.838C105.553 112.796 106.255 113.842 105.847 115.869C104.198 117.615 102.707 117.58 100.404 117.774C99.8168 118.673 99.5707 119.065 99.5474 120.18C99.5418 120.449 99.5678 120.717 99.5779 120.985C98.5065 121.982 96.7471 121.976 95.3496 122.185C94.3635 121.537 93.4825 120.642 92.5931 119.864C91.2037 119.678 90.7862 121.373 89.3086 121.872C89.1286 121.763 88.9384 121.671 88.7686 121.547C84.2468 118.255 88.2593 116.798 88.0153 114.551C86.8735 115.541 86.1431 116.2 84.5993 116.488C83.4075 116.137 82.8091 115.627 82.0485 114.679C80.6501 112.935 81.2911 110.773 81.572 108.731C81.1127 108.36 80.3751 107.852 80.0001 107.369C79.0997 106.208 79.1755 105.816 79.258 104.43C80.1754 103.313 80.9823 103.531 82.3592 103.343C82.6656 101.769 80.8953 100.34 80.9078 98.3068C81.5696 97.0493 82.0626 96.5234 83.235 95.7225C85.16 95.7175 86.0025 96.6171 87.6348 97.5067L87.8725 96.992C87.1042 96.0144 86.6414 95.5252 86.3547 94.2732C87.0301 92.7354 88.0301 91.9227 89.2588 90.8448Z"/>
	<path fill="#2B9E5C" d="M50.4317 61.3164C58.143 61.6182 66.4646 61.4295 73.671 64.4827C76.4162 70.728 85.8719 86.6564 85.7807 92.6711C84.8802 94.08 83.4637 94.4898 81.9931 95.1239C81.1358 96.4239 80.3444 97.5218 79.2098 98.593C70.4705 96.1672 60.3353 91.476 53.1232 85.9744C50.9873 78.0377 50.7313 69.5009 50.4317 61.3164Z"/>
	<path fill="#2B9E5C" d="M116.671 62.1888C122.286 61.8285 127.969 62.0125 133.594 62.0282C133.674 71.0999 134.386 80.1354 133.239 89.1669C128.004 91.8382 122.214 93.8334 116.753 96.0269C114.404 96.8825 111.967 97.5453 109.574 98.2743C108.355 96.7844 107.713 95.9504 105.835 95.3967C104.732 95.0712 103.898 94.7771 102.898 94.2119C101.909 92.4836 101.104 91.6843 99.3695 90.7056C102.676 84.1159 106.639 68.7772 110.189 64.3524C111.758 62.3978 114.377 62.4556 116.671 62.1888Z"/>
	<path fill="#2B9E5C" d="M90.5907 46.4607C91.9414 46.6021 93.1494 47.3602 94.3384 47.9813C101.231 51.5817 105.703 56.611 108.013 64.0474C105.768 72.9149 101.958 81.9592 98.2274 90.308L93.8866 90.7054C91.6812 90.4558 89.402 90.5081 87.1814 90.4515C84.6704 83.9182 74.4549 66.8258 75.6515 61.1873C77.0736 54.4864 85.2275 49.911 90.5907 46.4607Z"/>
	<path fill="#2B9E5C" d="M37.6216 94.4135C42.6329 90.2607 45.5098 88.3447 51.9999 86.885C56.2553 89.4501 60.5193 92.0773 65.0519 94.1285C69.0908 95.9563 73.5183 97.3744 77.4004 99.4838C78.4988 100.081 79.024 100.314 79.7371 101.363C79.4079 102.513 78.226 103.964 78.0492 104.932C77.8393 106.082 78.4224 107.884 78.0907 108.95C78.0422 109.105 77.0794 109.743 76.9794 109.802C75.4137 110.722 73.3696 111.336 71.6726 112.025C64.9108 114.968 52.976 123.991 45.9064 121.055C40.1878 118.68 34.4205 110.031 31.8226 104.609C33.5127 101.288 36.4414 97.8105 37.6216 94.4135Z"/>
	<path fill="#2B9E5C" d="M95.4594 123.234C97.3523 123.059 99.0157 123.003 100.713 122.091C101.203 121.209 101.242 120.624 101.271 119.624C103.605 117.729 106.494 118.798 107.008 114.962C107.129 114.064 107.114 113.119 107.129 112.213C108.076 111.067 109.228 110.537 110.514 109.861C111.198 108.917 111.593 107.732 111.343 106.547C110.887 104.378 109.044 103.14 108.937 100.917C110.557 98.5069 126.325 93.4285 130.243 91.7125C117.772 106.42 106.216 122.012 93.1617 136.204C89.0746 139.547 83.214 149.124 79.4593 153.732C76.0221 151.152 73.1857 147.876 70.377 144.652C63.6675 146.199 57.3841 147.019 50.4973 147.212C50.4741 139.134 51.2851 130.879 53.2752 123.052C61.5253 118.093 69.7595 113.3 78.9737 110.331C79.1451 110.892 79.3357 111.434 79.5213 111.989C79.9965 113.412 80.5999 114.371 81.5705 115.503C83.1492 117.345 87.7042 123.149 90.2314 122.619C91.384 122.378 91.3221 121.863 92.6896 121.959C94.5592 125.585 91.8784 130.672 91.7597 134.559C91.75 134.874 91.7481 135.189 91.7424 135.504C93.4397 131.49 94.3026 127.414 95.4594 123.234Z"/>
	<path fill="#E21818" d="M0 0L180.649 0C180.007 6.0158 179.015 11.8512 177.111 17.6089C170.205 38.4944 150.364 70.55 135.191 86.4125C135.054 77.9109 135.093 69.3659 134.728 60.8732C128.291 61.0643 114.058 60.0489 109.09 63.3588C105.236 53.7511 99.641 49.837 90.8268 45.1901C83.1996 50.7276 77.0269 54.3278 73.296 63.5388C65.8114 60.2253 56.9313 60.7983 48.8978 60.0121C49.7085 68.8244 49.8962 77.6339 51.9806 86.2753C46.9424 87.2554 41.3034 88.4973 38.2843 93.1331Q37.8932 93.7424 37.6216 94.4135C34.7028 96.8522 32.6049 101.281 30.678 104.544C35.1428 112.132 39.7665 120.211 48.998 122.472C50.0201 122.723 51.061 122.9 52.0986 123.072Q50.7497 129.358 50.0721 135.751Q49.3945 142.144 49.3958 148.573C56.3297 147.991 63.1407 147.096 70.0382 146.208C72.8808 149.225 75.8438 151.925 79.0155 154.593C72.8857 162.89 66.1469 170.776 60.3985 179.346C55.5881 186.517 50.8914 193.87 46.4812 201.293C44.4099 204.78 42.6116 208.489 40.4117 211.886C26.9518 212.14 13.4629 211.919 0 211.858L0 0Z"/>
	<path fill="#231F1F" d="M768.813 0L900.357 0L902.282 0L1022.72 0L1024 0L1024 2.04514L1024 13.7912L1024 496.352L1024 518.067C1023.42 516.278 1023.47 514.224 1023.36 512.355L1022.83 511.511Q1022.73 506.507 1022.81 501.503C1022.06 506.778 1023.01 511.924 1022.4 517.134C1021.43 512.079 1021.99 506.18 1022.05 501.027L854.56 501.109L799.164 501.059C788.786 501.046 778.244 501.44 767.891 500.807L767.031 500.412C766.603 499.822 766.494 499.477 766.452 498.742C766.008 491.077 766.476 483.161 766.487 475.469Q766.48 449.293 766.76 423.118L766.985 290.365C766.921 276.362 767.39 262.351 767.098 248.349C766.189 237.699 766.968 226.308 766.919 215.595C767.339 210.315 767.081 204.819 767.103 199.515L767.21 169.888L767.477 67.6819C767.515 45.2014 766.761 22.3984 768.813 0Z"/>
	<path fill="#373433" d="M1024 13.7912C1023.96 13.647 1023.9 13.505 1023.87 13.3587C1023.27 10.8993 1022.78 4.18398 1024 2.04514L1024 13.7912Z"/>
	<path fill="#D9C4AE" d="M1024 496.352L1024 518.067C1023.42 516.278 1023.47 514.224 1023.36 512.355C1023.4 507.086 1023.11 501.556 1024 496.352Z"/>
	<path fill="#FDE431" d="M886.751 367.431C893.464 367.905 900.247 368.22 906.919 369.101C906.616 380.275 910.035 388.205 915.779 397.658C913.53 396.804 911.302 395.253 909.12 394.177C902.715 391.016 896.692 389.004 889.652 387.815C888.118 381.256 887.806 374.125 886.751 367.431Z"/>
	<path fill="#FDE431" d="M967.307 368.22C968.331 368.052 969.193 368.113 970.222 368.216C971.47 371.795 969.296 384.647 968.375 388.717C958.891 389.394 949.51 393.346 941.747 398.678C941.137 399.146 940.7 399.363 940.004 399.66C940.458 397.2 943.001 394.434 944.276 392.19C948.246 385.203 950.124 377.529 950.663 369.568C956.202 368.948 961.748 368.585 967.307 368.22Z"/>
	<path fill="#FDE431" d="M918.92 421.058C918.635 422.865 916.201 425.388 915.169 426.989C910.272 434.587 907.911 441.222 907.346 450.225C900.902 451.501 894.245 451.991 887.715 452.694C887.446 445.433 888.459 437.69 888.878 430.414C900.937 429.801 908.588 427.437 918.92 421.058Z"/>
	<path fill="#FDE431" d="M939.63 422.248C941.793 422.962 943.903 424.326 945.961 425.339C953.335 428.966 959.953 431.319 968.275 430.615C969.908 437.394 970.663 444.484 971.713 451.378C965.287 452.532 956.021 451.738 949.656 450.188C947.464 439.205 945.037 432.023 939.63 422.248Z"/>
	<path fill="#FDE431" d="M928.389 412.274C929.313 412.687 929.046 412.48 929.753 413.107C941.047 423.131 947.289 436.05 948.428 451.127C944.361 459.583 936.615 464.454 929.24 469.772C920.69 464.509 912.67 458.692 908.192 449.461C909.362 433.809 918.568 423.587 928.389 412.274Z"/>
	<path fill="#FDE431" d="M965.062 390.135C966.65 389.991 967.955 389.953 969.481 390.488C977.672 393.358 983.542 404.539 987.205 411.778C983.311 416.994 978.736 423.702 973.188 427.173C967.292 430.862 961.202 429.768 954.879 428.181C944.424 424.878 937.264 418.703 929.573 411.214C940.242 400.219 949.596 392.99 965.062 390.135Z"/>
	<path fill="#FDE431" d="M889.382 389.113C889.677 389.106 889.971 389.092 890.266 389.092C893.051 389.09 896.318 390.063 898.98 390.873C911.694 394.74 918.859 401.883 927.921 411.112C922.048 418.817 915.05 422.68 906.301 426.546C900.668 428.762 894.91 429.056 888.929 429.242C880.044 424.407 875.826 417.725 870.214 409.632C872.083 407.232 873.718 404.67 875.411 402.145C879.182 396.523 882.235 390.519 889.382 389.113Z"/>
	<path fill="#FDE431" d="M928.417 352.372C935.812 357.223 942.866 362.183 949.66 367.858C949.405 385.472 940.907 397.954 929.032 410.147C926.224 408.374 922.959 404.676 920.726 402.167C911.963 392.315 907.383 380.613 908.084 367.463C913.294 361.258 921.553 356.598 928.417 352.372Z"/>
	<path fill="#E21818" d="M768.813 0L900.357 0C889.406 10.0476 877.956 19.7027 867.442 30.208C834.389 63.2337 805.559 105.078 803.467 153.242Q803.157 159.341 803.217 165.447Q803.276 171.553 803.705 177.645Q804.133 183.737 804.929 189.791Q805.725 195.846 806.886 201.841C792.514 216.355 780.502 232.966 767.098 248.349C766.189 237.699 766.968 226.308 766.919 215.595C767.339 210.315 767.081 204.819 767.103 199.515L767.21 169.888L767.477 67.6819C767.515 45.2014 766.761 22.3984 768.813 0Z"/>
	<path fill="#FEFEFE" d="M902.282 0L1022.72 0C1020.81 16.5393 967.039 50.2591 952.136 60.8474C942.172 67.9261 932.365 75.4373 922.832 83.0841C908.682 94.4355 894.859 107.322 883.547 121.54C870.03 138.53 860.26 157.739 855.51 178.984C846.765 218.096 856.465 263.359 873.594 298.985C878.393 308.967 884.256 318.357 890.166 327.705C880.39 318.392 870.681 308.927 861.777 298.769C824.325 256.045 800.667 209.977 804.669 151.759C809.224 85.4944 855.388 41.1018 902.282 0Z"/>
	<path fill="#231F1F" d="M753.118 811.55L753.766 812.555C770.3 812.201 787.055 811.623 803.571 812.599L800.956 811.698C824.002 811.297 847.136 811.842 870.19 811.94C890.792 812.027 911.457 811.607 932.049 812.136C932.051 818.543 931.919 824.983 932.087 831.386C944.374 828.987 957.234 824.893 968.666 832.372Q969.171 832.701 969.658 833.056Q970.145 833.41 970.614 833.789Q971.082 834.167 971.531 834.569Q971.98 834.971 972.408 835.395Q972.836 835.819 973.242 836.264Q973.647 836.71 974.03 837.175Q974.413 837.64 974.772 838.124Q975.13 838.608 975.464 839.11Q975.798 839.611 976.106 840.129Q976.413 840.647 976.695 841.18Q976.976 841.713 977.23 842.259Q977.484 842.805 977.71 843.364Q977.935 843.922 978.133 844.492Q978.33 845.061 978.498 845.639Q978.666 846.218 978.805 846.804Q978.943 847.39 979.052 847.983C980.895 857.606 977.793 867.588 974.44 876.509C977.497 876.584 980.439 876.775 983.396 875.865C989.955 873.845 1017.13 860.773 1023 856.651L1024 857.969L1024 1023.67L1024 1024L0 1024L0 1023.67L0 833.076C13.8994 835.728 28.0335 837.813 42.0757 839.559L43.788 840.532C46.7121 844.858 49.3132 849.413 52.7385 853.381C61.3167 863.319 80.4107 876.332 93.1967 879.304C93.7211 879.425 93.8562 879.414 94.3305 879.434C95.0795 880.201 95.4121 880.697 96.4219 881.071L96.9479 881.553C99.4518 883.891 101.31 887.058 103.719 889.544C111.521 897.594 120.909 902.885 131.332 906.724L130.402 907.351L130.538 908.226L129.366 908.502C131.484 908.764 133.73 908.869 135.795 909.397Q160.187 909.62 184.58 909.462C200.445 909.472 216.345 909.749 232.204 909.4C233.141 909.158 232.854 909.192 233.635 909.106C234.982 908.958 236.175 908.763 237.486 908.411L237.539 908.056L236.494 908.562L236.304 907.505L235.141 907.211C239.592 905.449 243.729 903.599 247.573 900.706C273.513 881.18 264.78 845.159 268.51 817.335C269.378 816.847 270.028 816.286 270.76 815.614C274.117 821.494 276.893 827.809 280.539 833.504Q284.262 839.226 288.254 844.763Q292.246 850.3 296.499 855.64Q300.751 860.98 305.255 866.109Q309.758 871.239 314.502 876.148Q319.246 881.056 324.22 885.732Q329.193 890.407 334.385 894.84Q339.576 899.272 344.974 903.45Q350.372 907.629 355.964 911.544C375.958 911.956 395.996 911.607 415.994 911.564L518.53 911.516L609.352 911.654C624.781 911.654 640.362 912.097 655.767 911.516C676.951 898.32 696.184 880.125 711.779 860.72C715.268 856.38 723.031 843.697 725.658 841.419L726.476 841.676L727.769 840.815C728.009 840.784 728.141 840.773 728.419 840.659C733.31 838.658 750.372 816.367 753.118 811.55Z"/>
	<path fill="#0A41EF" d="M842.445 924.44C841.558 924.092 840.653 923.744 839.81 923.298C837.91 922.292 836.243 920.574 835.719 918.448C835.329 916.865 835.605 915.443 836.515 914.079C837.414 912.732 839.158 911.915 840.725 911.751C843.26 911.485 845.378 912.317 847.334 913.858C847.818 916.339 848.274 918.624 847.285 921.042C846.342 921.503 845.846 921.808 845.213 922.653L842.445 924.44Z"/>
	<path fill="#FDE431" d="M836.534 922.488C838.416 923.42 840.276 924.606 842.445 924.44L845.213 922.653C845.799 922.602 846.239 922.719 846.81 922.839C849.151 926.058 852.033 929.555 853.119 933.429C853.832 935.967 853.564 938.431 852.2 940.7C850.669 943.248 847.952 945.043 845.091 945.735C841.347 946.641 836.949 945.929 833.676 943.892C831.607 942.604 830.111 940.686 829.613 938.277C828.316 932.003 833.299 927.219 836.534 922.488Z"/>
	<path fill="#FDE431" d="M810.956 912.585C813.231 909.337 815.781 906.452 819.895 905.766C823.41 905.181 826.82 906.638 829.599 908.695C831.44 910.058 832.985 911.614 834.529 913.289C834.201 916.157 833.644 918.943 835.567 921.426C836.019 922.009 836.066 922.029 836.534 922.488C836.219 922.565 835.901 922.634 835.588 922.719C829.412 924.395 824.077 932.03 816.767 927.892C813.883 926.26 811.37 922.275 810.532 919.14C809.907 916.803 810.128 914.821 810.956 912.585Z"/>
	<path fill="#FDE431" d="M847.334 913.858C850.471 909.95 853.586 906.23 858.924 905.722C862.329 905.398 865.634 906.661 868.15 908.936C870.455 911.02 872.187 913.905 872.348 917.063C872.491 919.882 871.305 922.468 869.4 924.498C867.704 926.304 863.94 929.22 861.351 929.234C854.901 929.268 852.333 923.595 847.433 922.026L847.285 921.042C848.274 918.624 847.818 916.339 847.334 913.858Z"/>
	<path fill="#373433" d="M0 1023.67C18.1668 1023.19 36.4535 1023.73 54.6332 1023.71Q108.205 1023.33 161.778 1023.57L433.347 1023.51L1024 1023.67L1024 1024L0 1024L0 1023.67Z"/>
	<path fill="#FDE431" d="M839.976 887.089C843.049 886.904 846.221 887.738 848.696 889.644C851.021 891.433 852.277 894.492 852.458 897.364C852.7 901.186 850.097 908.011 847.211 910.677C845.769 912.011 841.9 911.074 840.004 910.944C838.448 911.44 837.211 912.317 835.862 913.206C833.577 908.98 829.991 904.913 828.952 900.145C828.394 897.583 828.678 894.864 830.134 892.641C832.232 889.441 836.433 887.917 839.976 887.089Z"/>
	<path fill="#FDE431" d="M931.627 850.868C938.27 849.389 950.742 844.574 956.994 848.644C959.293 850.14 960.455 852.556 960.956 855.183C962.173 861.572 958.441 867.98 955.05 873.12Q943.792 871.576 932.566 869.81C932.535 864.897 932.259 860.087 931.845 855.197L931.627 850.868Z"/>
	<path fill="#FEFEFE" d="M949.125 829.67C955.618 828.723 962.892 829.994 968.341 833.708C973.55 837.257 976.835 842.703 977.785 848.908C979.693 861.373 974.743 875.704 967.522 885.743C960.501 895.504 939.239 915.079 927.153 916.511C926.134 916.632 926.533 916.725 925.759 916.088L926.257 914.382C927.85 909.018 929.149 903.523 930.609 898.117C940.431 891.888 949.135 883.317 955.877 873.877C959.897 868.248 963.582 861.298 962.188 854.165C961.618 851.246 960.397 849.047 957.844 847.423C951.026 843.089 939.804 847.416 932.564 849.141C932.285 843.691 932.304 838.206 932.21 832.749C937.844 832.071 943.497 830.566 949.125 829.67Z"/>
	<path fill="#FEFEFE" d="M232.204 909.4C241.976 909.649 251.831 909.346 261.612 909.347Q293.56 909.261 325.506 909.596C318.841 923.401 309.677 936.598 295.242 942.987C291.801 944.511 288.147 945.599 284.377 945.85C274.821 946.486 264.857 945.87 255.254 945.847L202.84 945.936L121.575 945.948C107.027 945.952 92.3866 946.298 77.8482 945.888C74.45 945.793 69.9756 945.881 66.7972 944.583C51.2996 938.257 36.8836 925.434 30.2843 909.86C37.6723 909.482 45.1832 909.77 52.5931 909.643Q94.1935 909.289 135.795 909.397Q160.187 909.62 184.58 909.462C200.445 909.472 216.345 909.749 232.204 909.4Z"/>
	<path fill="#FDE431" d="M355.98 913.032L655.006 913.021C655.016 918.67 655.923 941.455 654.44 945.217L653.125 945.509L355.948 945.532C355.784 934.711 355.963 923.856 355.98 913.032Z"/>
	<path fill="#FEFEFE" d="M703.915 949.26C717.8 948.921 731.757 949.343 745.651 949.368L814.016 949.248L1000.53 949.028C997.132 957.611 992.116 965.056 986.134 972.034C982.443 975.873 977.938 979.124 973.378 981.845C969.621 984.086 966.04 985.668 961.616 986.045C950.457 986.994 938.699 986.396 927.494 986.422L860.597 986.413L783.397 986.464C771.954 986.474 749.673 987.868 739.687 985.235C724.928 981.344 711.621 968.736 704.14 955.756C703.15 954.038 701.571 951.569 702.118 949.567L703.915 949.26Z"/>
	<path fill="#E21818" d="M753.766 812.555C770.3 812.201 787.055 811.623 803.571 812.599C808.993 813.337 814.943 812.924 820.439 812.945L852.801 813.056C878.708 813.18 904.71 814.355 930.607 813.847C930.35 826.096 930.736 838.648 931.627 850.868L931.845 855.197C931.403 855.228 931.704 855.168 931.082 855.712C931.008 863.03 931.624 870.286 931.297 877.628C930.409 897.554 925.987 922.61 910.521 936.622C897.222 948.672 882.122 948.016 865.32 948.021C857.429 948.024 849.502 948.176 841.622 947.758C844.527 947.184 847.221 946.744 849.68 944.961C852.109 943.2 853.826 940.739 854.199 937.718C854.892 932.115 851.654 927.48 848.454 923.267C850.929 925.752 853.387 928.376 856.786 929.556C859.802 930.603 862.771 930.336 865.605 928.897C870.177 926.575 872.729 922.147 874.217 917.444C873.313 914.654 872.369 912.162 870.555 909.795C868.44 907.036 865.516 904.932 861.998 904.508C856.68 903.866 852.493 907.028 848.474 910.006C850.031 907.916 851.983 905.652 852.926 903.212C854.2 899.914 854.439 896.436 852.839 893.207C851.296 890.092 848.267 887.779 844.983 886.754C841.244 885.587 837.23 886.251 833.849 888.146C830.923 889.785 828.487 892.427 827.741 895.764C826.575 900.986 829.544 905.139 832.277 909.232C830.123 907.707 827.69 905.965 825.166 905.14C821.951 904.088 818.574 904.233 815.62 905.955C811.945 908.099 809.969 911.95 808.873 915.901C809.427 918.891 809.975 921.51 811.635 924.133C813.468 927.028 816.116 929.222 819.557 929.83C824.829 930.762 828.875 928.034 832.909 925.113C831.433 927.434 829.774 929.938 828.921 932.563C828.065 935.199 827.989 938.058 829.3 940.556C830.91 943.623 834.327 945.807 837.541 946.831C838.654 947.185 839.756 947.567 840.864 947.937C829.336 947.988 800.447 949.597 791.022 946.223C777.599 941.417 767.52 928.37 761.635 915.905Q760.148 912.68 758.903 909.354Q757.658 906.027 756.662 902.618Q755.667 899.209 754.926 895.735Q754.185 892.262 753.703 888.743C752.479 880.039 751.506 818.872 753.766 812.555Z"/>
	<path fill="#FDE431" d="M893.641 852.15C892.831 852.269 893.284 852.302 892.32 851.823L892.159 849.587C889.621 846.237 887.392 842.725 887.297 838.384Q887.283 837.842 887.322 837.301Q887.362 836.76 887.455 836.226Q887.548 835.692 887.693 835.169Q887.839 834.647 888.036 834.142Q888.233 833.636 888.479 833.153Q888.726 832.67 889.019 832.214Q889.312 831.757 889.649 831.332Q889.986 830.907 890.363 830.518C892.516 828.293 895.558 827.12 898.638 827.137C902.93 827.161 906.042 829.037 908.992 831.955C909.253 832.7 909.512 833.437 909.722 834.198C911.514 840.71 907.846 845.579 904.764 850.991L903.77 851.312L899.813 849.256C897.564 849.993 895.481 850.577 893.641 852.15Z"/>
	<path fill="#FDE431" d="M783.938 852.209C783.865 852.051 783.794 851.892 783.72 851.734C781.24 846.49 774.859 839.979 777.2 833.714C778.259 830.879 780.99 828.851 783.721 827.778C787.221 826.402 791.258 826.618 794.656 828.199C797.218 829.391 799.255 831.359 800.243 834.037C801.155 836.509 801.258 839.533 800.113 841.936C798.506 845.311 795.402 847.779 794.743 851.493C794.696 851.76 794.49 852.417 794.398 852.721C793.018 852.176 791.689 851.766 790.217 851.539C787.78 851.163 785.969 850.737 783.938 852.209Z"/>
	<path fill="#FDE431" d="M905.332 851.256C909.496 847.831 913.793 844.335 919.554 844.798C921.949 844.99 924.204 845.894 925.777 847.76C927.923 850.305 928.862 854.271 928.493 857.54C928.094 861.083 925.943 864.485 923.044 866.532C921.071 867.925 918.789 868.55 916.391 868.13C910.984 867.182 906.855 862.936 902.285 860.179C905.503 864.536 910.773 870.018 910.07 875.79C909.707 878.776 907.991 881.516 905.604 883.313C902.637 885.546 899.657 885.908 896.068 885.339C893.235 884.89 890.164 883.857 888.522 881.338C886.858 878.785 886.754 875.291 887.488 872.417C888.33 869.128 892.23 864.625 892.193 861.634C891.472 862.047 891.712 861.872 891.124 862.334C887.082 865.506 884.159 867.442 879.116 868.649Q878.394 868.45 877.678 868.233C874.204 867.166 871.332 865.191 869.689 861.851Q869.422 861.305 869.215 860.734Q869.007 860.163 868.861 859.574Q868.715 858.984 868.632 858.382Q868.549 857.781 868.53 857.174Q868.51 856.566 868.555 855.961Q868.6 855.355 868.708 854.757Q868.817 854.159 868.988 853.577Q869.159 852.994 869.39 852.432C870.611 849.399 873.087 846.752 876.175 845.589C878.947 844.546 881.89 844.801 884.516 846.133C888.036 847.918 890.844 850.527 892.034 854.323C893.003 853.489 893.508 853.472 893.641 852.15C895.481 850.577 897.564 849.993 899.813 849.256L903.77 851.312L904.764 850.991L905.332 851.256Z"/>
	<path fill="#0A41EF" d="M899.813 849.256L903.77 851.312L904.764 850.991L905.332 851.256C904.803 852.002 904.58 852.011 904.648 852.958C904.855 855.817 904.524 859.24 902.579 861.556C901.726 862.571 900.549 862.964 899.267 863.005C899.053 863.012 898.273 862.947 898.088 862.937C897.821 862.923 897.553 862.918 897.285 862.904C895.287 862.8 894.057 862.485 892.362 861.428C891.205 858.812 891.183 857.028 892.034 854.323C893.003 853.489 893.508 853.472 893.641 852.15C895.481 850.577 897.564 849.993 899.813 849.256Z"/>
	<path fill="#FDE431" d="M794.904 853.705C797.786 849.891 801.152 845.525 806.158 844.668C809.463 844.103 813.034 845.103 815.688 847.116C818.383 849.16 820.228 852.267 820.538 855.651Q820.59 856.205 820.586 856.762Q820.582 857.319 820.521 857.872Q820.461 858.426 820.344 858.97Q820.228 859.515 820.056 860.045Q819.885 860.575 819.661 861.084Q819.437 861.594 819.163 862.078Q818.888 862.563 818.566 863.017Q818.244 863.471 817.877 863.89C815.601 866.521 812.47 867.953 809.003 868.025C804.426 868.12 800.609 866.095 797.377 862.971C796.62 862.238 796.039 861.317 795.475 860.433L794.983 860.435C794.582 861.406 794.584 861.497 794.973 862.45C796.902 867.175 803.067 871.566 801.256 877.341C800.266 880.502 796.351 884.175 793.313 885.4C790.439 886.559 787.433 886.284 784.649 885.01C781.833 883.722 779.909 881.685 777.889 879.428C776.955 875.107 776.923 872.108 779.376 868.254C780.501 866.487 781.875 864.839 783.175 863.198L782.934 862.493C782.773 862.517 782.613 862.544 782.452 862.566C777.792 863.204 775.022 868.278 769.981 868.518C767.051 868.657 763.364 866.645 761.294 864.677C758.913 862.413 757.403 859.176 757.439 855.867C757.472 852.809 758.997 850.057 761.237 848.039C763.541 845.964 766.648 844.696 769.77 844.871C775.098 845.169 779.384 849.278 782.839 852.964L783.324 853.234L783.938 852.209C785.969 850.737 787.78 851.163 790.217 851.539C791.689 851.766 793.018 852.176 794.398 852.721L794.904 853.705Z"/>
	<path fill="#0A41EF" d="M783.938 852.209C785.969 850.737 787.78 851.163 790.217 851.539C791.689 851.766 793.018 852.176 794.398 852.721L794.904 853.705C795.523 855.962 796.115 858.372 794.633 860.465C793.506 862.057 791.613 862.515 789.785 862.666C787.14 862.885 785.119 862 782.767 860.906C781.626 858.234 781.787 855.63 782.839 852.964L783.324 853.234L783.938 852.209Z"/>
	<path fill="#FEFEFE" d="M640.75 499.576C641.221 499.812 641.772 499.931 642.163 500.284C642.963 501.005 645.307 508.803 645.881 510.386C655.648 537.322 673.015 559.691 690.687 581.814C693.932 585.876 696.819 590.444 700.147 594.36C700.476 593.656 700.397 593.44 701.132 593.107L700.297 593.84C702.301 588.672 703.52 583.214 705.712 578.118C715.809 554.638 733.307 537.995 756.59 527.718C779.303 517.691 806.225 517.584 829.266 526.592C851.124 535.138 870.021 552.443 879.297 574.173C889.734 598.62 886.842 626.007 876.928 650.126C862.418 685.425 834.154 712.668 806.5 737.905C795.148 748.264 782.684 758.755 773.529 771.144C764.629 783.189 759.198 797.93 753.118 811.55C750.372 816.367 733.31 838.658 728.419 840.659C728.141 840.773 728.009 840.784 727.769 840.815L726.476 841.676L725.658 841.419C723.031 843.697 715.268 856.38 711.779 860.72C696.184 880.125 676.951 898.32 655.767 911.516C640.362 912.097 624.781 911.654 609.352 911.654L518.53 911.516L415.994 911.564C395.996 911.607 375.958 911.956 355.964 911.544Q350.372 907.629 344.974 903.45Q339.576 899.272 334.385 894.84Q329.193 890.407 324.22 885.732Q319.246 881.056 314.502 876.148Q309.758 871.239 305.255 866.109Q300.751 860.98 296.499 855.64Q292.246 850.3 288.254 844.763Q284.262 839.226 280.539 833.504C276.893 827.809 274.117 821.494 270.76 815.614C269.048 807.594 269.968 790.566 269.909 781.665L259.757 781.955C257.519 762.808 253.555 744.744 254.471 725.267C256.694 677.963 280.72 635.678 309.998 599.843C334.653 569.668 364.372 540.286 372.01 500.553C379.802 499.644 387.845 500.059 395.686 500.098L434.945 500.243L583.545 500.047L620.635 500.088C627.028 500.093 634.501 500.805 640.75 499.576Z"/>
	<path fill="#191818" d="M725.628 628.106C726.572 610.116 730.153 594.649 740.933 579.869Q741.91 578.517 742.952 577.215Q743.994 575.913 745.1 574.665Q746.205 573.416 747.371 572.223Q748.536 571.031 749.76 569.897Q750.983 568.763 752.26 567.691Q753.538 566.62 754.867 565.612Q756.196 564.605 757.574 563.664Q758.951 562.724 760.373 561.853Q761.795 560.981 763.258 560.181Q764.721 559.381 766.223 558.655Q767.724 557.928 769.259 557.276Q770.794 556.625 772.359 556.05Q773.925 555.475 775.517 554.978Q777.109 554.481 778.723 554.063Q780.338 553.645 781.971 553.308Q783.604 552.97 785.252 552.714C802.446 550.067 820.769 554.185 834.81 564.656C846.841 573.629 854.693 588.002 856.801 602.76C858.377 613.786 856.255 625.14 852.571 635.551C840.889 668.556 812.292 694.753 787.393 718.093C776.711 728.106 766.222 737.338 757.433 749.171C756.608 754.848 756.406 760.598 755.471 766.283C751.043 793.221 741.521 817.328 727.769 840.815L726.476 841.676L725.658 841.419C728.14 836.597 731.237 832.076 733.742 827.241Q735.59 823.752 737.293 820.19Q738.996 816.629 740.552 813Q742.108 809.372 743.514 805.683Q744.92 801.994 746.174 798.25Q747.428 794.507 748.528 790.715Q749.628 786.923 750.571 783.09Q751.515 779.256 752.3 775.387Q753.086 771.518 753.713 767.62C760.354 727.733 754.97 689.086 738.419 652.292C734.761 644.158 730.824 635.373 725.628 628.106Z"/>
	<path fill="#2B9E5C" d="M764.102 561.015L764.48 561.324C765.585 565.107 764.453 594.059 764.453 600.169L764.921 684.25C764.999 702.117 764.556 720.073 765.198 737.925L757.595 746.72C758.359 737.449 758.024 728.146 757.441 718.877C753.396 683.205 743.774 658.444 726.909 627.237C727.182 620.471 727.722 613.64 729.328 607.046C734.252 586.84 746.49 571.611 764.102 561.015Z"/>
	<path fill="#2B9E5C" d="M789.373 553.21C791.101 552.623 793.891 552.802 795.773 552.762C810.594 552.446 828.47 559.457 839.067 569.819Q840.074 570.808 841.031 571.845Q841.989 572.882 842.893 573.965Q843.798 575.048 844.649 576.175Q845.499 577.301 846.293 578.468Q847.086 579.635 847.821 580.84Q848.556 582.045 849.231 583.285Q849.906 584.524 850.519 585.796Q851.131 587.067 851.681 588.367Q852.23 589.667 852.714 590.993Q853.199 592.319 853.617 593.667Q854.036 595.015 854.387 596.382Q854.738 597.748 855.022 599.131Q855.305 600.514 855.52 601.909Q855.735 603.303 855.881 604.707Q856.027 606.111 856.103 607.52Q856.179 608.93 856.186 610.341C856.2 647.233 826.128 678.888 801.6 703.16C790.204 714.168 778.073 724.569 766.962 735.83L766.434 602.895C766.427 588.391 766.864 573.861 766.698 559.363Q769.384 558.141 772.161 557.14Q774.937 556.139 777.786 555.366Q780.634 554.593 783.536 554.053Q786.437 553.513 789.373 553.21Z"/>
	<path fill="#2B9E5C" d="M430.784 533.414C430.903 533.534 431.02 533.655 431.14 533.773C437.043 539.547 444.667 543.933 450.932 549.491C474.992 570.839 496.322 600.737 497.129 634.017C497.505 649.5 493.004 663.155 483.155 675.164C494.981 695.164 503.736 718.717 508.9 741.348C519.521 719.462 534.526 691.744 549.293 672.338C538.548 656.039 535.019 639.503 538.934 620.211C545.687 586.934 571.658 553.521 600.194 535.344C600.847 534.928 601.505 534.571 602.188 534.207C602.794 539.828 603.789 545.509 604.19 551.137C612.801 553.415 619.64 554.742 625.601 561.958Q631.341 556.545 637.192 551.252C639.503 560.595 641.458 569.892 642.371 579.49C651.226 578.993 660.187 577.857 668.598 574.924Q668.62 588.366 668.068 601.796C675.228 600.499 682.221 600.035 689.494 600.352C689.409 600.516 689.322 600.679 689.24 600.845C685.485 608.419 683.746 617.461 680.648 625.411C669.452 654.143 649.417 679.054 619.586 689.568C607.315 693.893 594.592 694.518 581.768 692.816C570.717 716.472 561.549 740.922 552.626 765.445C550.153 772.244 547.321 778.941 544.971 785.777C569.804 754.993 598.372 737.373 634.842 722.854C631.936 747.492 626.161 767.752 613.187 789.16C634.611 774.513 658.87 758.09 683.707 749.976C680.278 789.342 658.266 824.285 628.411 849.404C592.422 879.684 539.299 895.311 492.755 891.395C450.883 887.873 407.055 866.524 380.094 834.184C353.915 802.784 345.297 766.698 342.971 726.8C369.099 744.161 391.838 765.209 414.35 786.88C401.877 760.847 396.829 730.682 398.195 701.911C421.287 716.032 447.407 737.576 463.304 759.629Q459.014 737.005 454.976 714.335C453.812 707.405 453.221 700.335 451.919 693.444C431.43 697.472 411.155 690.112 394.212 678.79C372.161 664.054 361.234 646.295 351 622.549C348.034 615.668 344.918 608.623 342.815 601.422C352.664 601.744 356.956 601.404 365.424 595.656C364.655 592.226 364.027 588.937 363.785 585.428C363.123 583.372 362.725 578.993 363.318 576.949C366.666 573.224 377.541 579.901 383.036 579.483C385.807 579.273 390.011 576.654 392.71 575.546C392.023 569.255 392.086 561.743 393.266 555.541C393.354 554.095 393.138 553.207 394.069 552.043C396.665 552.112 399.855 555.418 402.416 556.518C404.346 557.083 406.532 557.892 408.541 558.016C413.484 558.32 417.709 554.891 421.99 552.979C424.02 552.073 426.182 551.428 428.275 550.681C429.096 544.931 429.814 539.14 430.784 533.414Z"/>
	<path fill="#0055A5" d="M365.507 597.014C368.873 599.633 371.195 604.604 374.184 607.78C374.885 608.525 375.207 608.844 375.692 609.766C374.114 608.641 371.235 608.081 369.379 607.4Q361.858 605.029 354.374 602.545C358.411 601.101 361.85 599.224 365.507 597.014Z"/>
	<path fill="#0055A5" d="M604.401 552.579C607.321 553.309 610.248 554.037 613.104 554.989C617.91 556.592 622.113 558.904 624.423 563.582L611.177 576.852L601.073 586.932C604.753 573.91 605.682 566.13 604.401 552.579Z"/>
	<path fill="#0055A5" d="M393.266 555.541C393.354 554.095 393.138 553.207 394.069 552.043C396.665 552.112 399.855 555.418 402.416 556.518L402.476 557.415C406.545 559.086 409.243 560.709 413.658 558.842C417.111 557.381 424.454 551.769 427.863 552.408C428.675 554.487 427.652 562.191 427.783 565.025C428.156 573.072 430.008 580.687 432.195 588.405C423.025 581.926 415.607 573.375 407.488 565.682C404.985 563.312 402.396 560.536 399.559 558.599C398.243 557.509 397.532 555.919 396.276 554.782C395.483 554.064 395.529 554.093 394.397 554.138L393.266 555.541Z"/>
	<path fill="#0055A5" d="M666.362 577.128L667.002 577.221C668.14 579.599 667.329 598.431 666.839 601.901C656.095 605.13 646.424 608.642 637.552 615.656L637.074 615.719C636.573 614.498 637.462 612.882 637.862 611.632C641.768 599.432 642.91 593.898 642.509 580.748C650.738 580.725 658.469 579.406 666.362 577.128Z"/>
	<path fill="#E21818" d="M600.538 536.448C601.042 536.652 600.696 536.476 601.379 537.256C603.282 557.354 607.339 571.86 597.567 590.993C611.425 579.533 623.242 565.443 636.817 553.523C640.675 569.698 643.721 586.182 639.726 602.647Q638.671 607.131 637.105 611.462C636.304 613.614 633.719 617.028 634.139 619.183C637.281 617.974 641.353 613.631 644.684 611.669C658.63 603.455 672.252 601.887 688.038 601.504C685.406 606.823 684.239 612.885 682.258 618.473C677.04 633.186 670.109 646.526 660.428 658.783C653.947 666.44 647.252 673.289 638.867 678.898C622.494 689.849 601.125 695.53 581.56 691.553C567.528 688.7 555.423 679.846 547.634 667.941C538.235 653.575 536.472 636.006 540.034 619.459C547.175 586.287 572.279 554.775 600.538 536.448Z"/>
	<path fill="#E21818" d="M431.701 535.914C454.128 552.656 472.396 569.113 485.366 594.637C490.032 603.819 493.72 613.52 495.235 623.748C497.729 640.579 494.818 657.913 484.514 671.757Q483.725 672.831 482.882 673.864Q482.04 674.896 481.147 675.886Q480.254 676.875 479.313 677.818Q478.372 678.762 477.384 679.657Q476.397 680.552 475.366 681.396Q474.335 682.241 473.263 683.032Q472.191 683.824 471.081 684.561Q469.97 685.298 468.825 685.979Q467.679 686.659 466.5 687.282Q465.322 687.904 464.113 688.466Q462.905 689.029 461.67 689.53Q460.436 690.031 459.177 690.47Q457.919 690.909 456.64 691.284Q455.361 691.659 454.065 691.969Q452.769 692.28 451.459 692.525Q450.15 692.771 448.829 692.95C427.115 695.986 405.972 686.71 389.04 673.713C364.804 655.11 354.219 629.928 343.946 602.279C356.232 603.349 368.357 607.718 379.729 612.36C382.803 613.614 389.697 617.589 392.496 617.815C390.978 615.664 379.562 610.92 376.1 608.093C370.528 603.543 365.944 595.141 365.233 588.004C365.14 587.072 364.962 586.32 364.604 585.441L363.785 585.428C363.123 583.372 362.725 578.993 363.318 576.949C366.666 573.224 377.541 579.901 383.036 579.483C385.807 579.273 390.011 576.654 392.71 575.546C392.023 569.255 392.086 561.743 393.266 555.541L394.397 554.138C395.529 554.093 395.483 554.064 396.276 554.782C397.532 555.919 398.243 557.509 399.559 558.599C403.579 565.096 427.955 586.637 434.991 591.741C426.739 574.524 427.671 554.136 431.701 535.914Z"/>
	<path fill="#0055A5" d="M363.785 585.428C363.123 583.372 362.725 578.993 363.318 576.949C366.666 573.224 377.541 579.901 383.036 579.483C385.807 579.273 390.011 576.654 392.71 575.546C393.696 592.461 394.922 607.5 402.105 623.182C398.835 621.498 395.666 619.68 392.496 617.815C390.978 615.664 379.562 610.92 376.1 608.093C370.528 603.543 365.944 595.141 365.233 588.004C365.14 587.072 364.962 586.32 364.604 585.441L363.785 585.428Z"/>
	<path fill="#231F1F" d="M367.868 0L369.239 0L512.267 0L513.623 0L678.196 0L679.258 0L767.661 0L768.813 0C766.761 22.3984 767.515 45.2014 767.477 67.6819L767.21 169.888L767.103 199.515C767.081 204.819 767.339 210.315 766.919 215.595L766.232 216.009C764.485 225.212 765.479 237.183 765.448 246.686L765.515 311.277L669.604 422.35L638.893 458.121C634.497 463.294 628.462 468.995 625.168 474.89L625.392 475.666L624.94 476.579C618.741 473.151 613.196 468.541 606.902 465.167C578.508 449.943 552.125 445.987 520.521 444.532C520.304 442.849 520.08 441.272 519.578 439.648C512.911 442.506 506.562 443.125 499.443 441.256C494.659 444.233 488.854 441.899 484.486 444.447C448.557 446.635 406.837 455.587 382.084 483.806Q380.572 485.517 379.205 487.344Q377.837 489.172 376.623 491.105Q375.409 493.038 374.356 495.063Q373.303 497.089 372.418 499.193C371.403 500.009 369.986 500.041 368.728 500.11C360.59 500.551 352.231 500.102 344.068 500.181L277.375 500.348C272.641 500.342 258.418 499.54 254.98 500.484C254.006 500.752 254.197 500.616 253.885 501.283C245.763 501.898 195.793 500.922 193.953 502.193L193.166 503.2C183.567 494.453 168.556 468.197 162.533 455.989C133.184 396.492 125.625 336.084 157.739 275.728C166.662 258.96 178.283 243.258 190.381 228.662C205.923 209.91 223.63 192.945 240.583 175.499C292.065 122.525 343.536 71.6017 367.868 0Z"/>
	<path fill="#E21818" d="M658.678 315.843C660.813 316.501 662.917 317.948 664.95 318.92C672.763 322.655 679.547 324.307 688.223 323.563Q688.505 334.361 688.352 345.161C681.356 345.516 674.252 345.334 667.242 345.396C668.439 334.169 665.189 324.908 658.678 315.843Z"/>
	<path fill="#E21818" d="M634.362 315.034C634.236 315.914 634.355 315.769 634.008 316.383C628.388 326.317 624.349 333.635 625.962 345.417C619.142 345.066 612.263 345.184 605.433 345.149L604.648 344.683C603.424 338.883 604.443 330.097 604.511 323.982C617.633 324.084 622.824 320.401 634.362 315.034Z"/>
	<path fill="#E21818" d="M670.872 260.252C676.644 259.981 682.452 260.051 688.231 259.998C687.978 267.376 688.127 274.793 688.137 282.176C681.229 281.979 675.487 283.023 669.271 286.045C665.434 287.889 661.794 290.46 658.107 292.62C664.466 281.202 667.803 273.724 666.064 260.52L670.872 260.252Z"/>
	<path fill="#E21818" d="M286.604 328.412C294.397 328.528 302.161 329.467 309.97 329.559Q309.549 331.488 309.219 333.434C307.642 343.121 313.154 352.52 318.534 360.046C317.398 360.263 316.939 359.693 316.015 359.101C307.313 353.532 298.649 350.943 288.355 351.075C287.904 343.512 286.767 335.989 286.604 328.412Z"/>
	<path fill="#E21818" d="M318.409 383.429C319.422 384.397 314.687 391.023 313.886 392.439C310.078 399.179 308.991 405.838 309.991 413.472Q298.763 413.896 287.527 413.987L286.978 413.656C285.893 410.515 287.739 395.848 287.999 391.822C300.683 392.38 307.778 390.414 318.409 383.429Z"/>
	<path fill="#E21818" d="M341.907 384.765C343.981 385.425 346.111 386.856 348.1 387.825C356.544 391.94 362.72 392.531 371.868 390.794L373.543 413.833C366.284 414.897 356.882 413.598 349.547 412.914C350.061 401.697 347.598 394.377 341.907 384.765Z"/>
	<path fill="#E21818" d="M603.977 260.035L625.918 260.082C623.728 272 627.642 280.24 632.93 290.674C630.817 289.875 628.95 288.548 626.88 287.632C619.727 284.467 612.029 282.526 604.185 283.514C603.88 275.71 604.022 267.847 603.977 260.035Z"/>
	<path fill="#E21818" d="M349.383 328.077Q360.952 328.241 372.518 328.55C372.341 336.054 371.437 343.601 370.714 351.068C365.811 350.963 361.331 350.963 356.536 352.114C350.385 353.852 345.358 357.498 340.275 361.236C348.85 349.637 350.177 342.12 349.383 328.077Z"/>
	<path fill="#E21818" d="M330.073 373.286C335.516 375.446 342.442 387.202 344.852 392.24C348.303 399.454 350.304 407.987 347.374 415.74C344.579 423.137 336.823 429.137 329.798 432.286C325.715 430.376 321.743 427.707 318.484 424.585C313.826 420.123 310.572 414.507 310.527 407.907C310.435 394.517 321.12 382.111 330.073 373.286Z"/>
	<path fill="#E21818" d="M328.334 314.596C333.866 314.519 338.46 316.414 342.491 320.216C346.818 324.297 348.808 329.085 348.867 335.008C349.015 349.892 340.148 361.451 330.193 371.661C321.866 363.806 313.628 353.807 310.83 342.49C309.353 336.517 309.774 329.98 313.138 324.7C316.556 319.336 322.257 316.004 328.334 314.596Z"/>
	<path fill="#E21818" d="M683.34 283.214C685.037 283.004 686.789 283.178 688.456 283.546C694.034 284.78 698.35 289.13 701.08 293.956C703.683 298.558 704.808 303.863 703.192 308.995C701.62 313.985 697.76 318.522 693.091 320.877C686.788 324.056 678.836 322.987 672.318 320.962C662.325 318.397 654.699 311.16 647.747 303.991C657.808 293.775 668.478 284.543 683.34 283.214Z"/>
	<path fill="#E21818" d="M604.501 283.974C623.459 283.361 633.122 291.989 646.205 304.083C639.062 310.538 633.387 314.389 624.884 318.94L624.193 319.249C617.258 322.317 608.562 324.59 601.247 321.528C595.791 319.245 590.617 313.765 588.567 308.206C587.151 304.365 587.96 300.633 589.72 297.054C592.703 290.988 598.05 286.037 604.501 283.974Z"/>
	<path fill="#E21818" d="M360.806 352.07Q362.098 351.985 363.392 351.925C370.149 351.599 375.609 352.344 380.775 357.244C384.6 360.872 387.381 365.98 387.291 371.351C387.209 376.297 384.711 380.864 381.211 384.25C375.189 390.077 367.614 391.076 359.65 391.01C347.093 389.015 339.531 380.943 331.009 372.343C340.43 362.728 347.184 355.146 360.806 352.07Z"/>
	<path fill="#E21818" d="M287.723 352.016C289.583 351.957 291.474 351.871 293.333 351.991C308.21 352.955 319.694 361.612 329.005 372.508C323.395 378.977 317.27 383.498 309.752 387.537C302.499 390.438 294.091 392.63 286.372 390.196C280.95 388.486 275.99 384.517 273.5 379.361C271.425 375.063 271.305 370.206 273.049 365.774C275.672 359.109 281.438 354.865 287.723 352.016Z"/>
	<path fill="#E21818" d="M646.945 304.924C646.975 304.947 647.007 304.968 647.035 304.994C656.468 313.387 664.882 323.902 666.338 336.848C667.025 342.951 665.998 349.033 661.948 353.843C658.296 358.179 652.355 361.113 646.756 361.683C646.482 361.669 646.208 361.659 645.934 361.641C639.824 361.237 634.696 357.218 630.927 352.646C627.192 348.116 626.085 343.202 626.625 337.434C627.944 323.351 636.434 313.52 646.945 304.924Z"/>
	<path fill="#E21818" d="M644.784 244.004C650.439 244.084 654.964 247.699 658.776 251.568C663.457 256.317 666.125 261.684 665.904 268.463C665.452 282.363 656.621 293.906 647.038 303.11C638.512 296.662 632.186 289.273 628.507 279.145C626.08 272.462 624.676 264.429 627.968 257.815C631.18 251.363 638.1 246.361 644.784 244.004Z"/>
	<path fill="#FEFEFE" d="M499.443 441.256C493.501 439.399 488.411 436.497 484.45 431.531C479.844 425.755 478.112 418.534 478.992 411.269Q479.085 410.55 479.214 409.837Q479.343 409.124 479.507 408.418Q479.671 407.713 479.87 407.016Q480.07 406.319 480.303 405.633Q480.537 404.947 480.805 404.274Q481.073 403.601 481.373 402.942Q481.674 402.282 482.008 401.639Q482.341 400.996 482.706 400.37Q483.071 399.744 483.467 399.137Q483.863 398.53 484.289 397.943Q484.714 397.357 485.169 396.792Q485.623 396.228 486.105 395.687Q486.587 395.146 487.095 394.629Q487.604 394.113 488.137 393.623Q488.671 393.132 489.228 392.669Q489.785 392.206 490.365 391.771Q490.926 391.354 491.507 390.966Q492.088 390.578 492.688 390.219Q493.287 389.86 493.904 389.531Q494.52 389.202 495.152 388.904Q495.785 388.606 496.431 388.34Q497.077 388.074 497.735 387.84Q498.394 387.607 499.063 387.406Q499.733 387.205 500.411 387.037Q501.09 386.87 501.775 386.736Q502.461 386.603 503.153 386.503Q503.845 386.404 504.541 386.339Q505.236 386.274 505.934 386.244Q506.633 386.213 507.331 386.217Q508.03 386.222 508.728 386.26Q509.426 386.299 510.121 386.373Q510.816 386.446 511.506 386.554Q512.194 386.662 512.875 386.804Q513.557 386.946 514.23 387.122Q514.904 387.299 515.568 387.509Q516.231 387.719 516.884 387.963Q517.536 388.206 518.175 388.482Q518.814 388.758 519.439 389.066Q520.063 389.374 520.671 389.713Q521.28 390.052 521.87 390.421Q522.46 390.79 523.031 391.189Q523.602 391.587 524.152 392.014Q524.702 392.441 525.23 392.895Q525.757 393.349 526.262 393.829Q526.766 394.309 527.245 394.814Q527.725 395.319 528.178 395.848Q528.631 396.376 529.057 396.927Q529.483 397.477 529.881 398.049Q530.277 398.62 530.643 399.211Q531.01 399.801 531.348 400.409Q531.685 401.017 531.991 401.641Q532.298 402.265 532.573 402.903Q532.848 403.541 533.092 404.192Q533.335 404.843 533.546 405.506Q533.756 406.168 533.934 406.84Q534.112 407.512 534.256 408.192Q534.4 408.872 534.51 409.558Q534.62 410.245 534.696 410.936Q534.772 411.627 534.814 412.32Q534.856 413.014 534.863 413.709Q534.87 414.404 534.843 415.099Q534.816 415.794 534.754 416.486Q534.693 417.178 534.597 417.867Q534.501 418.555 534.371 419.238C532.674 428.363 527.043 434.587 519.578 439.648C512.911 442.506 506.562 443.125 499.443 441.256Z"/>
	<path fill="#0055A5" d="M513.623 0L678.196 0C675.884 14.2551 669.403 27.868 661.924 40.1073C644.516 68.5967 619.974 92.1908 595.209 114.291C572.054 134.953 547.261 155.63 530.742 182.347C522.194 196.17 517.189 211.24 513.245 226.907L513.623 0Z"/>
	<path fill="#FEFEFE" d="M679.258 0L767.661 0C766.653 12.5235 761.386 25.2251 755.715 36.3079C730.838 84.9256 673.513 130.41 631.532 164.877C603.322 188.038 573.546 212.408 554.649 244.163C537.595 272.822 531.772 303.978 540.088 336.615C523.635 311.214 512.69 282.208 512.413 251.635C512.021 208.228 533.387 173.738 563.522 144.323C574.849 133.267 587.013 123.165 598.718 112.53C621.122 92.1766 643.051 71.0323 659.608 45.5159C668.806 31.3396 676.137 16.7394 679.258 0Z"/>
	<path fill="#FDE431" d="M369.239 0L512.267 0L512.073 212.477L206.96 212.298C256.455 157.242 316.065 108.312 351.253 41.913C358.42 28.388 364.04 14.3819 369.239 0Z"/>
	<path fill="#E21818" d="M427.746 48.8264C428.628 48.8305 429.297 48.9019 430.132 49.2198C437.42 51.997 443.883 59.0276 446.905 66.0295L470.77 65.9175C470.68 73.1518 470.703 80.4029 470.093 87.6159C476.286 90.8921 481.548 95.0585 484.632 101.561C486.395 105.277 486.854 108.988 485.39 112.884C482.976 119.309 477.082 123.765 471.051 126.562L471.017 149.195L448.429 149.175C447.109 151.71 445.692 153.945 443.761 156.075C439.743 160.507 434.622 164.864 428.395 165.134C427.092 164.913 425.822 164.631 424.578 164.175C417.619 161.62 412.65 155.746 409.524 149.245C401.648 149.172 393.762 149.424 385.887 149.56C386.641 141.902 386.267 134.076 385.904 126.404C379.585 123.146 374.284 118.866 371.371 112.178C369.79 108.549 369.566 104.758 371.124 101.081C373.855 94.6341 380.231 90.6203 386.491 88.173C386.459 80.6927 385.39 73.2659 385.428 65.755L409.402 65.8924C413.097 58.1314 420.054 52.3668 427.746 48.8264Z"/>
</svg>
