<?xml version="1.0" encoding="utf-8" ?>
<svg xmlns="http://www.w3.org/2000/svg" xmlns:xlink="http://www.w3.org/1999/xlink" width="1024" height="1024">
	<path fill="#1C1D1B" d="M0 0L97.2966 0L107.781 0L252.225 0L266.611 0L267.607 0L342.358 0L343.329 0L682.009 0L775.473 0L849.722 0L851.173 0L936.194 0L1024 0L1024 0.483702L1024 84.9416L1024 86.0605L1024 170.528L1024 251.248L1024 252.605L1024 339.949L1024 682.082L1024 682.961L1024 1024L1023.32 1024L786.582 1024L772.982 1024L714.611 1024L507.774 1024L506.274 1024L461.773 1024L454.451 1024L403.488 1024L401.964 1024L224.823 1024L223.97 1024L222.749 1024L132.082 1024L92.9183 1024L2.08133 1024L0 1024L0 683.034L0 681.982L0 351.731L0 338.115L0 336.766L0 260.981L0 86.0709L0 84.9285L0 27.7842L0 1.20014L0 0Z"/>
	<path fill="#24675C" d="M455.745 1023.56C456.026 1017.49 457.351 1007.53 461.508 1002.84C463.674 1002.38 466.316 1005.15 468.479 1005.97C476.203 1008.93 485.055 1007.91 492.328 1004.25C498.444 1009.29 505.178 1015.66 506.274 1024L461.773 1024C459.739 1023.7 457.801 1023.56 455.745 1023.56Z"/>
	<path fill="#F6A2A1" d="M617.236 387.073C621.155 386.56 624.705 386.847 628.153 388.937C632.019 391.281 634.175 395.039 635.149 399.365C636.371 404.794 637.022 413.086 633.819 417.868C631.082 421.954 627.047 423.488 622.463 424.505C619.209 424.491 616.515 424.134 613.558 422.693Q612.747 422.295 611.981 421.819Q611.214 421.342 610.499 420.792Q609.783 420.241 609.126 419.622Q608.47 419.002 607.878 418.321Q607.286 417.639 606.765 416.901Q606.245 416.164 605.8 415.378Q605.356 414.593 604.992 413.766Q604.628 412.94 604.348 412.082C602.706 407.117 602.876 401.201 605.247 396.495C607.807 391.415 612.026 388.799 617.236 387.073Z"/>
	<path fill="#24675C" d="M719.455 997.713C720.753 998.496 721.858 999.644 723.175 1000.45C731.552 1005.55 747.344 1001.86 756.442 999.454C761.603 1004.79 770.619 1015.44 770.955 1023.21Q743.546 1023.48 716.136 1023.44C714.402 1014.52 715.926 1005.95 719.455 997.713Z"/>
	<path fill="#F7F1EC" d="M575.569 529.293C578.139 531.558 580.321 534.299 582.894 536.617C589.494 542.564 596.728 547.241 604.385 551.675C602.232 557.88 600.737 564.026 601.107 570.633C601.882 584.456 608.712 593.992 618.721 602.91C619.063 603.292 619.334 603.818 619.609 604.254L619.224 605.049C616.837 604.818 581.325 579.987 575.616 576.519L575.569 529.293Z"/>
	<path fill="#24675C" d="M690.443 671.622C692.886 673.25 695.206 675.852 697.287 677.918C704.16 684.741 708.295 693.362 708.278 703.144C708.268 709.163 704.706 731.588 700.518 735.453C696.416 739.238 681.959 740.884 676.45 740.749C672.007 740.64 669.661 738.709 666.626 735.629C661.209 730.648 656.56 725.322 652.961 718.88C645.501 705.527 646.669 694.196 650.67 680.035C652.667 681.88 655.244 684.076 657.964 684.649C664.294 685.984 681.104 682.378 686.384 678.804C689.288 676.839 689.756 674.952 690.443 671.622Z"/>
	<path fill="#24675C" d="M452.119 938.207C452.36 938.365 452.602 938.521 452.842 938.682C456.525 941.157 460.382 942.818 464.775 943.56C472.651 944.892 480.482 942.698 486.899 938.125C493.533 944.615 499.403 953.84 501.654 962.901C504.733 975.29 501.172 989.411 494.628 1000.1C492.115 1002.72 489.802 1004.26 486.284 1005.29C479.369 1007.32 470.85 1006.27 464.647 1002.69C455.079 997.179 447.767 986.281 444.866 975.779C441.146 962.313 445.427 949.892 452.119 938.207Z"/>
	<path fill="#24675C" d="M703.355 734.37C709.047 739.089 714.36 745.154 717.825 751.712C725.924 767.043 720.359 782.819 715.653 798.282C707.505 802.949 695.957 804.324 686.733 803.976C684.888 802.916 683.269 801.791 681.629 800.435C674.617 793.186 667.884 784.873 664.472 775.256C660.014 762.695 662.067 750.532 667.598 738.752C671.623 741.364 674.295 742.378 679.266 742.163C686.839 741.834 698.032 740.142 703.355 734.37Z"/>
	<path fill="#24675C" d="M432.335 546.894C432.987 547.141 433.046 547.122 433.697 547.612C439.723 552.146 445.09 565.946 446.21 573.287C447.686 582.967 444.91 597.928 438.877 605.734C434.85 610.944 428.525 612.914 422.223 613.576C412.997 614.545 406.721 613.443 399.324 607.509C390.913 599.568 384.438 587.575 383.164 576.015C382.153 566.843 385.587 558.941 391.145 551.902C395.068 554.356 398.508 555.876 403.184 556.338C413.552 557.36 424.37 553.386 432.335 546.894Z"/>
	<path fill="#24675C" d="M478.556 873.517C478.746 873.636 478.948 873.739 479.127 873.876C487.274 880.089 493.949 891.263 495.121 901.457C496.29 911.616 493.619 927.508 486.978 935.554C483.233 940.09 477.522 942.029 471.815 942.497C464.831 943.069 458.152 941.173 452.783 936.633C444.731 929.104 437.32 918.937 435.358 907.881C433.049 894.873 437.464 884.25 444.775 873.716C448.365 877.059 452.706 879.19 457.591 879.772C465.429 880.707 472.408 878.176 478.556 873.517Z"/>
	<path fill="#24675C" d="M459.437 739.935C459.52 740.007 459.606 740.075 459.686 740.15C468.859 748.75 475.213 760.759 475.56 773.496C475.823 783.176 473.308 800.233 466.217 807.29C462.381 811.106 457.025 812.639 451.724 812.703C444.849 812.786 440.233 811.099 435.326 806.29C426.435 798.697 419.3 788.554 417.13 776.926C414.845 764.686 419.355 754.08 426.162 744.111C430.182 746.288 434.821 747.322 439.383 747.369C446.693 747.444 454.181 745.134 459.437 739.935Z"/>
	<path fill="#24675C" d="M469.072 806.538C469.664 806.864 470.186 807.219 470.694 807.667C479.012 815.015 485.415 827.321 486.025 838.461C486.567 848.337 484.082 865.077 477.101 872.552C473.286 876.638 467.781 878.252 462.334 878.476C454.696 878.791 449.99 877.086 444.411 871.882C444.222 871.724 444.031 871.568 443.843 871.408C435.171 864.016 426.705 851.398 425.823 839.778Q425.747 838.74 425.722 837.699Q425.697 836.658 425.723 835.617Q425.75 834.576 425.828 833.538Q425.907 832.5 426.036 831.467Q426.166 830.434 426.346 829.409Q426.527 828.383 426.758 827.368Q426.989 826.353 427.27 825.35Q427.551 824.348 427.881 823.361Q428.212 822.373 428.591 821.404Q428.97 820.434 429.396 819.484Q429.823 818.534 430.296 817.607Q430.769 816.679 431.287 815.776Q431.805 814.873 432.368 813.997Q432.93 813.121 433.535 812.274Q434.14 811.427 434.787 810.61Q435.433 809.794 436.119 809.011C440.695 812.511 445.687 814.225 451.476 814.131C458.353 814.019 464.371 811.563 469.072 806.538Z"/>
	<path fill="#24675C" d="M717.02 798.782C721.521 802.048 729.311 812.695 731.941 817.747C739.302 831.893 734.423 849.196 729.959 863.582C720.611 867.214 709.775 868.765 699.782 868.432C697.648 867.209 695.95 865.892 694.122 864.269C687.578 857.448 681.018 849.44 677.435 840.634C671.831 826.858 674.639 814.167 680.171 800.92C681.99 802.497 683.935 803.998 686.279 804.693C694.477 807.123 709.532 802.737 717.02 798.782Z"/>
	<path fill="#24675C" d="M449.095 674.962C456.192 681.935 462.188 690.512 464.624 700.269C467.236 710.734 464.862 728.375 459.178 737.404C456.271 742.02 451.309 744.38 446.12 745.474C438.181 747.148 430.449 745.427 423.783 740.915C415.026 733.335 406.718 722.982 404.623 711.284C402.473 699.277 406.874 688.986 413.591 679.333C420.871 681.909 427.849 683.357 435.586 682.152C440.88 681.328 445.841 679.366 449.095 674.962Z"/>
	<path fill="#24675C" d="M705.022 930.442C706.329 931.467 707.646 932.551 709.039 933.457C717.091 938.698 734.547 933.348 743.67 931.612C749.48 935.906 754.643 943.576 757.873 949.981C765.839 965.777 762.277 980.432 757.064 996.499C756.52 997.187 756.019 997.836 755.271 998.316C751.483 1000.75 731.789 1002.36 727.141 1001.06C720.003 999.079 707.967 981.267 704.534 974.688C696.64 959.556 700.167 945.854 705.022 930.442Z"/>
	<path fill="#24675C" d="M438.215 608.94C438.388 608.981 438.566 609.002 438.732 609.063C444.358 611.121 451.389 624.476 453.435 629.79C458.292 642.405 455.189 659.223 449.617 671.181C447.556 675.604 444.219 678.461 439.577 679.947C431.209 682.625 421.045 681.085 413.277 677.298Q412.148 676.333 411.065 675.317C401.738 666.538 393.681 653.45 393.41 640.34Q393.398 639.384 393.432 638.429Q393.465 637.474 393.544 636.522Q393.623 635.569 393.747 634.622Q393.871 633.674 394.04 632.733Q394.209 631.793 394.422 630.861Q394.636 629.93 394.893 629.009Q395.151 628.089 395.452 627.182Q395.753 626.275 396.097 625.383Q396.441 624.491 396.827 623.617Q397.212 622.743 397.639 621.888Q398.066 621.033 398.534 620.199Q399.001 619.365 399.507 618.554Q400.013 617.744 400.558 616.958Q401.102 616.173 401.683 615.414Q402.264 614.655 402.88 613.925Q403.497 613.194 404.147 612.494C406.243 613.378 408.491 614.132 410.725 614.566Q411.609 614.738 412.5 614.866Q413.391 614.994 414.287 615.078Q415.183 615.162 416.082 615.202Q416.982 615.242 417.882 615.238Q418.782 615.234 419.681 615.185Q420.579 615.136 421.475 615.043Q422.37 614.95 423.26 614.814Q424.15 614.677 425.031 614.496Q425.913 614.316 426.785 614.092Q427.657 613.868 428.517 613.602Q429.377 613.336 430.223 613.027Q431.068 612.719 431.898 612.37Q432.727 612.02 433.539 611.63Q434.35 611.24 435.141 610.81Q435.932 610.381 436.701 609.913Q437.47 609.445 438.215 608.94Z"/>
	<path fill="#24675C" d="M729.255 865.029C730.536 864.899 731.195 865.279 732.138 866.076C739.22 872.061 749.86 885.827 750.558 895.555C750.989 901.55 747.726 926.211 744.041 929.748C740.72 932.936 718.499 934.55 713.133 934.456C711.25 933.405 709.567 932.218 707.85 930.915C699.73 923.449 692.143 913.608 688.478 903.129C684.002 890.329 687.355 877.318 693.111 865.526C694.37 866.45 695.659 867.352 697.025 868.113C705.326 872.737 720.649 867.537 729.255 865.029Z"/>
	<path fill="#24675C" d="M620.351 605.317C625.227 607.722 628.255 612.903 633.201 615.214C640.384 618.57 652.03 617.313 659.339 614.654C664.117 612.916 667.133 610.914 669.367 606.309C673.23 610.867 677.722 614.853 681.401 619.587C694.118 635.95 691.84 651.412 689.376 670.748C688.931 673.114 688.655 675.553 686.848 677.321C682.793 681.29 666.165 683.931 660.638 683.855C654.679 683.773 650.815 678.236 646.999 674.271C633.41 660.157 628.576 650.557 628.959 630.896C625.144 625.105 619.097 612.284 620.351 605.317Z"/>
	<path fill="#24675C" d="M650.008 539.449C660.974 548.727 670.155 558.44 671.836 573.327C672.667 580.682 670.961 603.402 666.234 608.923C661.99 613.881 654.58 615.216 648.38 615.716C639.835 616.406 634.035 614.979 627.479 609.352C618.13 601.137 608.373 592.713 604.371 580.535C601.227 570.968 601.332 561.394 605.927 552.338C615.454 555.598 623.58 555.103 633.068 551.83C640.086 549.409 646.599 546.413 650.008 539.449Z"/>
	<path fill="#24675C" d="M626.688 454.776C630.229 457.651 632.093 474.601 632.654 479.6C639.51 488.293 646.38 496.711 649.326 507.621C651.734 516.537 652.294 533.258 647.443 541.258C643.648 547.516 634.652 550.397 627.94 552.137C619.509 554.322 610.866 554.175 603.196 549.67C593.169 543.658 582.369 536.722 575.805 526.786C575.453 522.7 575.522 518.683 576.16 514.632C599.176 499.429 614.477 479.151 626.688 454.776Z"/>
	<path fill="#F6A2A1" d="M323.856 256.682C329.368 255.535 336.381 256.4 342.024 256.553L341.96 337.201L274.25 337.22Q264.93 337.178 255.614 337.449C254.952 319.519 259.727 301.29 270.68 286.921C284.027 269.413 302.145 259.597 323.856 256.682Z"/>
	<path fill="#299BDF" d="M401.637 796.492C409.218 796.634 416.773 796.729 424.354 796.514C427.771 800.664 431.215 804.651 435.168 808.313C427.875 817.543 422.949 829.134 424.443 841.11C426.013 853.698 435.051 864.717 443.872 873.192C436.464 883.408 431.839 894.35 433.89 907.188C435.759 918.895 443.061 928.977 451.303 937.139C444.381 949.549 439.457 962.342 443.617 976.617C446.466 986.39 452.756 995.232 460.688 1001.55C456.941 1009.08 455.343 1015.14 454.34 1023.47L454.451 1024L403.488 1024L403.477 1023.61C403.648 1007.49 405.644 991.086 406.86 974.995Q410.676 928.888 413.33 882.7C414.422 864.319 416.72 846.166 414.122 827.791C412.591 816.966 408.46 805.144 401.637 796.492Z"/>
	<path fill="#3A51A1" d="M403.477 1023.61C420.409 1023.17 437.4 1023.52 454.34 1023.47L454.451 1024L403.488 1024L403.477 1023.61Z"/>
	<path fill="#FCDEC9" d="M441.511 478.385C445.357 481.55 449.721 487.788 453.494 491.621Q454.779 492.949 456.106 494.235Q457.433 495.521 458.801 496.764Q460.169 498.006 461.576 499.205Q462.983 500.403 464.427 501.555Q465.872 502.708 467.353 503.813Q468.834 504.919 470.349 505.976Q471.865 507.033 473.414 508.042Q474.963 509.05 476.543 510.008Q478.123 510.966 479.733 511.873Q481.344 512.779 482.982 513.634Q484.621 514.489 486.286 515.29Q487.951 516.092 489.641 516.84Q491.331 517.587 493.044 518.28Q494.757 518.974 496.492 519.611Q498.226 520.249 499.98 520.831Q501.734 521.413 503.506 521.938C527.225 528.821 552.784 527.042 574.514 515.123C573.176 525.208 576.287 575.969 573.683 579.94C570.205 582.731 566.652 584.3 562.286 585.087C552.826 586.793 542.405 584.806 533.315 582.151C510.487 575.484 487.029 562.386 465.836 551.505C457.23 547.087 447.838 542.992 439.862 537.533C450.152 516.547 447.441 500.194 441.511 478.385Z"/>
	<path fill="#F7F1EC" d="M349.28 338.234C356.357 338.125 363.496 338.502 370.553 339.024C361.539 367.764 359.274 397.821 365.913 427.357C368.295 437.955 372.584 448.358 373.491 459.24C374.602 472.568 369.804 485.503 369.39 498.806C368.734 519.857 375.81 536.083 390.093 551.311C383.107 560.471 380.853 568.305 382.233 579.784C375.24 587.918 368.766 596.724 362.288 605.271C354.085 615.929 346.412 626.999 338.621 637.959C338.069 627.78 338.389 617.575 338.502 607.387L339.361 552.296L343.097 338.361L349.28 338.234Z"/>
	<path fill="#FCDEC9" d="M382.318 581.371C383.591 582.695 384.427 586.325 385.145 588.109C388.999 597.678 394.648 605.5 402.853 611.788C396.364 620.671 391.776 629.371 392.174 640.667C392.697 655.522 402.08 668.631 412.579 678.438C405.938 687.751 401.689 697.848 403.087 709.503C404.725 723.164 414.628 735.574 425.125 743.812C420.67 749.28 417.28 756.036 415.826 762.954C413.389 774.555 417.155 785.617 423.389 795.319C415.826 795.588 408.239 795.425 400.672 795.371C394.846 787.528 387.65 780.591 380.625 773.836C354.956 750.369 322.817 733.927 288.085 729.863C292.495 720.26 296.799 710.55 301.696 701.183C323.981 658.552 352.205 618.769 382.318 581.371Z"/>
	<path fill="#24675C" d="M318.618 166.794C326.434 166.366 334.305 166.503 342.132 166.483Q342.803 210.977 342.061 255.469Q337.231 255.154 332.391 255.085Q330.487 255.079 328.586 255.165Q326.684 255.251 324.789 255.43Q322.894 255.609 321.01 255.88Q319.126 256.151 317.257 256.514Q315.389 256.876 313.54 257.329Q311.691 257.783 309.866 258.325Q308.042 258.868 306.246 259.499Q304.45 260.13 302.687 260.848Q300.924 261.566 299.198 262.369Q297.472 263.172 295.788 264.058Q294.103 264.944 292.463 265.911Q290.824 266.878 289.233 267.924Q287.643 268.97 286.105 270.092Q284.568 271.214 283.087 272.41Q281.606 273.606 280.185 274.872Q278.764 276.139 277.406 277.473C260.865 293.765 254.459 314.441 254.243 337.306C247.001 336.787 239.455 337.229 232.183 337.242L190.125 337.279C181.562 337.512 172.974 337.425 164.408 337.468C164.444 315.592 166.017 298.255 180.316 280.552C190.33 268.153 203.795 258.387 219.667 255.303C224.276 254.407 229.084 254.366 233.748 253.833C246.154 252.417 255.606 243.818 258.709 231.848C259.981 226.941 259.928 221.772 261.273 216.854C263.742 207.825 268.22 198.797 274.122 191.517C284.778 178.373 301.725 168.589 318.618 166.794Z"/>
	<path fill="#F7F1EC" d="M341.704 46.3555C343.245 53.1863 342.112 74.2269 342.094 82.5487L342.196 165.337C332.803 165.347 322.864 164.784 313.597 166.525C288.406 171.258 266.809 191.464 260.204 216.174C256.81 228.869 259.019 237.895 247.433 247.303C239.095 254.072 230.146 252.44 220.358 254.09C207.647 256.234 195.335 263.221 186.2 272.187C166.917 291.115 163.186 311.501 163.043 337.44C145.475 337.534 127.902 337.956 110.336 337.928C87.7755 337.893 65.2155 337.436 42.6574 337.934L42.4057 337.796L42.5507 337.271C47.3838 336.139 51.9425 335.056 56.389 332.767C70.2453 325.635 81.2094 310.95 83.3044 295.417C84.1812 288.916 83.7025 282.33 85.8199 276.025Q85.9994 275.482 86.1968 274.946Q86.3942 274.409 86.6094 273.879Q86.8245 273.35 87.0572 272.828Q87.2899 272.305 87.5398 271.791Q87.7897 271.277 88.0566 270.771Q88.3235 270.266 88.6071 269.769Q88.8907 269.273 89.1907 268.786Q89.4906 268.299 89.8066 267.823Q90.1226 267.346 90.4542 266.881Q90.7859 266.415 91.1329 265.961Q91.4799 265.506 91.8418 265.064Q92.2037 264.621 92.5801 264.191Q92.9566 263.761 93.3471 263.343Q93.7377 262.926 94.1419 262.521Q94.5462 262.117 94.9636 261.726Q95.3811 261.336 95.8113 260.959Q96.2416 260.583 96.6841 260.221Q97.1266 259.859 97.5809 259.512Q98.0353 259.165 98.5009 258.833Q98.9665 258.501 99.4429 258.185Q99.9194 257.869 100.406 257.569Q100.893 257.269 101.389 256.985Q101.885 256.702 102.391 256.435Q102.897 256.168 103.411 255.918Q103.925 255.668 104.447 255.435Q104.969 255.202 105.499 254.987Q106.029 254.772 106.565 254.574Q107.102 254.377 107.644 254.197Q108.187 254.018 108.736 253.856Q109.284 253.695 109.838 253.552Q110.391 253.409 110.949 253.284Q111.507 253.16 112.069 253.054C123.91 250.941 130.691 253.114 142.521 247.009Q143.187 246.672 143.842 246.315Q144.498 245.958 145.142 245.582Q145.786 245.205 146.419 244.81Q147.052 244.414 147.673 244Q148.293 243.585 148.901 243.153Q149.509 242.72 150.104 242.269Q150.698 241.818 151.279 241.35Q151.86 240.881 152.426 240.395Q152.993 239.909 153.545 239.407Q154.096 238.904 154.633 238.385Q155.169 237.867 155.689 237.332Q156.21 236.797 156.714 236.247Q157.218 235.697 157.706 235.132Q158.193 234.567 158.664 233.987Q159.134 233.408 159.587 232.815Q160.039 232.221 160.474 231.615Q160.909 231.008 161.325 230.389Q161.741 229.769 162.139 229.138Q162.536 228.506 162.914 227.863Q163.293 227.22 163.652 226.565Q164.01 225.911 164.35 225.246Q164.689 224.582 165.008 223.907Q165.326 223.232 165.625 222.548Q165.924 221.864 166.201 221.172Q166.479 220.479 166.736 219.779Q166.993 219.078 167.229 218.37Q167.465 217.662 167.679 216.947Q167.894 216.232 168.087 215.511Q168.279 214.791 168.451 214.064Q168.622 213.338 168.771 212.607Q168.92 211.875 169.048 211.14Q169.175 210.405 169.28 209.666C170.15 203.119 169.667 196.522 171.718 190.154C175.374 178.799 184.448 170.855 196.234 168.874C209.297 166.679 216.334 169.474 229.527 162.471C243.409 155.102 255.284 140.68 257.39 124.788C258.296 117.955 257.791 111.126 259.93 104.464C263.307 93.9437 272.11 86.1061 283.1 84.3656C288.654 83.4862 294.407 83.8848 300.004 83.1311Q302.217 82.8438 304.395 82.3597Q306.573 81.8757 308.7 81.1987Q310.826 80.5218 312.883 79.6574Q314.94 78.793 316.912 77.7481C329.628 70.9867 337.526 59.8775 341.704 46.3555Z"/>
	<path fill="#24675C" d="M504.874 240.231C518.864 238.241 544.109 243.316 557.652 248.225C586.739 258.768 609.278 279.224 622.344 307.322C626.057 315.304 629.62 323.89 631.926 332.392C635.518 345.634 639.771 377.212 635.101 389.833C634.09 388.926 632.099 374.384 631.615 372.044C630.408 366.207 628.555 360.517 626.597 354.895C624.193 347.993 621.582 341.38 617.467 335.291C601.569 311.763 569.594 302.948 545.463 290.353C538.759 286.854 531.975 282.989 525.799 278.624C519.95 274.49 514.54 269.802 508.528 265.887L508.671 268.252C508.742 269.414 508.831 270.579 508.77 271.745C507.126 303.242 463.978 328.654 442.623 347.406C423.928 363.824 416.282 379.439 414.679 404.09C412.601 402.366 410.434 400.708 408.12 399.308C402.4 395.849 396.646 395.221 390.234 396.829C390.094 396.857 389.952 396.877 389.815 396.914C384.281 398.373 378.819 401.991 375.753 406.874C372.365 412.271 371.444 419.258 372.969 425.407C375.095 433.979 380.664 440.527 388.072 445.106C399.545 452.198 411.795 453.469 424.755 450.456C435.947 469.632 442.645 477.661 445.512 501.284C447.171 514.95 444.352 530.457 435.571 541.378C429.153 549.359 420.075 553.896 409.933 554.856C402.689 555.541 395.981 554.331 390.256 549.525C385.195 545.277 381.173 539.201 378.078 533.425C370.824 519.886 369.253 504.043 371.505 489.001C373.142 478.067 375.352 467.704 374.333 456.537C373.673 449.306 371 442.145 369.164 435.137Q367.231 427.983 365.946 420.685Q364.66 413.387 364.032 406.003C360.763 366.183 371.16 322.919 397.56 292.104C426.975 257.768 460.623 243.501 504.874 240.231Z"/>
	<path fill="#24675C" d="M267.607 0L342.358 0C340.11 27.452 349.05 50.2648 324.785 70.9837C316.123 78.3798 305.971 81.8997 294.671 82.5136C290.175 82.7579 285.385 82.5889 280.982 83.616C267.262 86.817 258.57 98.2859 257.311 111.98C256.899 116.464 256.928 121.085 256.216 125.528C254.428 136.681 247.334 147.538 238.827 154.768C232.71 159.966 225.672 163.856 217.831 165.707C211.096 167.298 204.338 166.649 197.561 167.567C180.884 169.824 170.479 182.295 169.065 198.691C167.541 216.371 165.773 227.543 151.363 239.741Q149.984 240.927 148.517 242.001Q147.05 243.076 145.503 244.032Q143.956 244.989 142.34 245.823Q140.724 246.656 139.047 247.361Q137.371 248.065 135.644 248.637Q133.918 249.209 132.152 249.645Q130.386 250.08 128.592 250.377Q126.798 250.673 124.986 250.829C120.603 251.205 116.034 251.107 111.724 252.022C94.7112 255.634 84.5817 268.961 83.0532 285.79C81.5589 302.242 78.0175 314.852 64.7526 325.879C49.5168 338.544 25.0869 339.519 6.13857 337.758C4.36949 337.593 2.63437 337.271 0.891849 336.934L0 336.766L0 260.981C7.78149 252.759 16.5254 246.129 28.2048 245.142C32.5679 244.773 36.98 245.074 41.35 244.779C56.903 243.726 70.5582 232.591 73.696 217.115C75.1002 210.189 74.5983 203.146 76.6334 196.268C78.8741 188.695 83.3295 181.787 88.5078 175.893Q89.2517 175.035 90.0336 174.211Q90.8156 173.387 91.6339 172.6Q92.4521 171.812 93.3051 171.063Q94.1581 170.313 95.0441 169.602Q95.9301 168.892 96.8472 168.222Q97.7644 167.552 98.7108 166.924Q99.6573 166.296 100.631 165.712Q101.605 165.127 102.604 164.588Q103.603 164.048 104.626 163.553Q105.648 163.059 106.692 162.612Q107.736 162.164 108.799 161.764Q109.862 161.364 110.942 161.012Q112.022 160.661 113.116 160.358Q114.211 160.056 115.318 159.803Q116.425 159.55 117.543 159.348Q118.66 159.145 119.786 158.993C123.23 158.532 126.726 158.602 130.189 158.367C145.182 157.35 158.248 146.268 162.072 131.826C163.819 125.23 163.708 118.364 165.855 111.796Q166.42 110.083 167.093 108.409Q167.766 106.736 168.544 105.108Q169.322 103.481 170.202 101.906Q171.082 100.331 172.059 98.8151Q173.037 97.2993 174.11 95.8486Q175.182 94.3979 176.344 93.0181Q177.506 91.6384 178.753 90.3353Q180 89.0321 181.328 87.8108C203.284 67.8014 218.616 80.2032 236.133 67.3583Q238.269 65.7871 240.171 63.9388Q242.073 62.0906 243.704 59.9999C252.498 48.9022 250.503 39.2276 253.323 26.3963C255.605 16.0176 260.735 7.93424 267.607 0Z"/>
	<path fill="#F7F1EC" d="M0 0L97.2966 0L107.781 0L252.225 0L266.611 0L267.607 0C260.735 7.93424 255.605 16.0176 253.323 26.3963C250.503 39.2276 252.498 48.9022 243.704 59.9999Q242.073 62.0906 240.171 63.9388Q238.269 65.7871 236.133 67.3583C218.616 80.2032 203.284 67.8014 181.328 87.8108Q180 89.0321 178.753 90.3353Q177.506 91.6384 176.344 93.0181Q175.182 94.3979 174.11 95.8486Q173.037 97.2993 172.059 98.8151Q171.082 100.331 170.202 101.906Q169.322 103.481 168.544 105.108Q167.766 106.736 167.093 108.409Q166.42 110.083 165.855 111.796C163.708 118.364 163.819 125.23 162.072 131.826C158.248 146.268 145.182 157.35 130.189 158.367C126.726 158.602 123.23 158.532 119.786 158.993Q118.66 159.145 117.543 159.348Q116.425 159.55 115.318 159.803Q114.211 160.056 113.116 160.358Q112.022 160.661 110.942 161.012Q109.862 161.364 108.799 161.764Q107.736 162.164 106.692 162.612Q105.648 163.059 104.626 163.553Q103.603 164.048 102.604 164.588Q101.605 165.127 100.631 165.712Q99.6573 166.296 98.7108 166.924Q97.7644 167.552 96.8472 168.222Q95.9301 168.892 95.0441 169.602Q94.1581 170.313 93.3051 171.063Q92.4521 171.812 91.6339 172.6Q90.8156 173.387 90.0336 174.211Q89.2517 175.035 88.5078 175.893C83.3295 181.787 78.8741 188.695 76.6334 196.268C74.5983 203.146 75.1002 210.189 73.696 217.115C70.5582 232.591 56.903 243.726 41.35 244.779C36.98 245.074 32.5679 244.773 28.2048 245.142C16.5254 246.129 7.78149 252.759 0 260.981L0 86.0709L0 84.9285L0 27.7842L0 1.20014L0 0Z"/>
	<path fill="#F6A2A1" d="M97.2966 0L107.781 0C104.483 0.677739 100.827 0.691404 97.4751 0.458818L97.2966 0Z"/>
	<path fill="#A29896" d="M252.225 0L266.611 0C262.974 1.35917 256.039 0.697323 252.225 0Z"/>
	<path fill="#299BDF" d="M0 0L97.2966 0L97.4751 0.458818C95.6022 25.9228 87.4809 47.9697 67.7303 65.0133C46.7617 83.108 26.8856 86.6271 0 86.0709L0 84.9285L0 27.7842L0 1.20014L0 0Z"/>
	<path fill="#24675C" d="M0 0L97.2966 0L97.4751 0.458818C95.6022 25.9228 87.4809 47.9697 67.7303 65.0133C46.7617 83.108 26.8856 86.6271 0 86.0709L0 84.9285C28.0275 85.4645 48.2314 81.7347 69.339 61.8353C86.792 45.3813 95.249 24.2731 95.9646 0.453388C73.0689 1.02406 50.0362 0.510976 27.1251 0.483861C20.676 0.476229 5.83867 -0.534171 0.55218 0.944588C0.565973 7.67547 1.60723 21.961 0 27.7842L0 1.20014L0 0Z"/>
	<path fill="#FCDEC9" d="M510.628 268.686C519.807 275.186 528.056 282.265 537.986 287.739C564.651 302.437 603.876 312.904 619.337 340.466C610.843 336.852 602.807 334.561 593.486 335.066C584.593 335.549 572.274 339.331 566.337 346.415C565.667 347.214 565.503 347.304 565.64 348.365C567.875 347.775 571.43 343.456 573.839 341.943C577.027 339.94 580.635 338.702 584.252 337.719Q585.37 337.408 586.502 337.153Q587.633 336.897 588.776 336.699Q589.92 336.5 591.071 336.358Q592.223 336.217 593.38 336.132Q594.537 336.048 595.697 336.021Q596.857 335.994 598.017 336.025Q599.177 336.056 600.333 336.144Q601.49 336.232 602.641 336.378Q603.792 336.524 604.935 336.727Q606.077 336.929 607.208 337.188Q608.339 337.447 609.456 337.762Q610.573 338.077 611.672 338.447Q612.772 338.817 613.852 339.241Q614.932 339.665 615.989 340.143Q617.047 340.62 618.079 341.149Q619.112 341.678 620.117 342.258C628.345 356.308 631.457 375.398 633.242 391.434C629.61 388.28 625.85 385.566 620.819 385.488C616.049 385.414 610.856 387.878 607.509 391.199C603.86 394.819 602.246 399.594 602.202 404.671C602.151 410.499 604.111 416.107 608.259 420.278C611.699 423.737 616.43 425.887 621.348 425.713C627.172 425.507 631.406 422.379 635.276 418.355Q635.048 419.999 634.781 421.638Q634.514 423.276 634.207 424.907Q633.901 426.538 633.555 428.162Q633.209 429.785 632.825 431.4Q632.44 433.015 632.016 434.62Q631.593 436.225 631.131 437.819Q630.669 439.413 630.168 440.996Q629.668 442.579 629.13 444.149Q628.591 445.719 628.016 447.276Q627.44 448.833 626.826 450.375Q626.213 451.918 625.563 453.445Q624.912 454.972 624.226 456.483Q623.539 457.994 622.816 459.488Q622.093 460.983 621.334 462.459Q620.575 463.935 619.781 465.393Q618.987 466.85 618.158 468.288Q617.329 469.726 616.465 471.144Q615.602 472.562 614.704 473.958Q613.807 475.355 612.876 476.729Q611.946 478.103 610.982 479.455Q610.019 480.807 609.023 482.135Q608.027 483.463 607 484.766Q605.972 486.07 604.914 487.349Q603.855 488.627 602.766 489.88Q601.677 491.132 600.558 492.358Q599.439 493.585 598.291 494.783Q597.143 495.982 595.966 497.153Q594.789 498.324 593.585 499.466Q592.38 500.608 591.148 501.721Q589.917 502.833 588.659 503.916Q587.401 504.999 586.117 506.051Q584.833 507.103 583.524 508.124C581.013 509.927 578.479 511.647 575.812 513.214C554.847 525.533 529.086 527.675 505.795 521.417C481.793 514.968 458.457 499.014 443.702 478.987C436.817 469.644 431.269 458.945 425.448 448.903C422.796 449.544 420.159 450.122 417.446 450.431C405.852 451.755 393.749 448.51 384.611 441.171C378.621 436.36 374.296 429.454 373.578 421.699C373.029 415.769 374.509 409.568 378.525 405.055C382.618 400.456 389.193 397.58 395.314 397.328C403.558 396.989 409.672 401.607 415.425 406.84C416.181 399.794 416.785 392.786 418.637 385.913C427.633 352.523 459.492 337.22 483.493 315.651C497.012 303.502 509.594 287.576 510.628 268.686Z"/>
	<path fill="#F6A2A1" d="M572.127 443.75C576.343 442.879 584.273 442.482 588.063 444.542C588.481 445.196 588.869 445.449 588.737 446.268C588.029 450.66 580.918 456.073 577.377 458.499C563.164 468.237 547.631 469.05 531.193 465.98C528.9 464.961 526.446 464.298 524.129 463.315C521.017 461.995 514.805 459.294 513.964 455.727C513.789 454.985 513.836 454.417 514.376 453.883C519.64 448.671 563.343 443.685 572.127 443.75Z"/>
	<path fill="#1C1D1B" d="M478.145 373.68C480.717 373.394 483.617 373.642 486.144 374.189C495.748 376.27 504.033 383.684 509.166 391.788C501.663 400.887 492.689 404.798 481.116 405.968C468.771 405.43 458.271 401.069 449.806 391.968C458.087 381.835 464.675 375.377 478.145 373.68Z"/>
	<path fill="#F7F1EC" d="M477.712 375.179L478.461 375.113L478.748 375.659C477.666 378.821 476.951 381.872 476.567 385.196C476.067 389.518 477.16 393.997 480.003 397.398C483.685 401.803 488.856 402.093 494.158 402.62C486.072 404.577 479.345 405.172 471.153 403.48C463.622 401.271 457.015 397.686 451.447 392.131C452.693 390.395 453.929 388.64 455.268 386.974C461.036 379.799 468.707 376.226 477.712 375.179Z"/>
	<path fill="#F6A2A1" d="M470.352 410.055C473.9 409.189 478.23 410.147 481.441 411.757C487.03 414.56 491.251 420.004 493.014 425.954C494.812 432.02 494.254 438.923 491.102 444.457C487.903 450.075 483.076 452.537 477.125 454.245C471.153 454.417 466.239 453.962 461.186 450.335C456.226 446.773 453.081 441.341 452.111 435.34C451.122 429.216 452.618 422.657 456.473 417.756Q456.791 417.359 457.128 416.977Q457.465 416.596 457.82 416.232Q458.175 415.867 458.547 415.52Q458.92 415.173 459.308 414.845Q459.697 414.517 460.102 414.208Q460.506 413.899 460.925 413.61Q461.344 413.321 461.776 413.053Q462.208 412.784 462.653 412.538Q463.098 412.291 463.555 412.066Q464.011 411.841 464.478 411.638Q464.945 411.436 465.421 411.256Q465.897 411.077 466.382 410.92Q466.866 410.764 467.357 410.632Q467.848 410.499 468.346 410.391Q468.843 410.283 469.345 410.199Q469.847 410.115 470.352 410.055Z"/>
	<path fill="#1C1D1B" d="M590.011 354.587C596.394 354.274 602.244 355.606 608.048 358.21C611.372 359.701 620.73 363.495 621.685 367.398C622.087 369.045 621.342 370.96 620.559 372.389C615.543 381.537 605.397 387.878 595.664 390.734C594.517 391.056 593.405 391.314 592.228 391.509C580.606 393.439 571.822 390.238 562.48 383.51C563.593 379.008 565.287 374.796 567.751 370.86C572.872 362.678 580.575 356.767 590.011 354.587Z"/>
	<path fill="#F7F1EC" d="M581.998 358.437C582.875 359.475 582.484 361.096 582.487 362.442C582.497 367.629 583.358 373.188 587.308 376.924C590.005 379.474 594.736 381.7 598.5 381.426C602.61 381.127 606.983 379.075 609.639 375.896C613.188 371.645 612.877 366.829 612.302 361.688C615.591 363.384 618.479 365.352 621.198 367.86C619.04 372.879 616.314 376.37 612.657 380.398C605.991 386.467 597.862 390.328 588.816 390.969C579.221 391.648 571.306 388.965 564.021 382.727C564.052 382.562 564.081 382.396 564.114 382.232C566.197 371.796 573.497 364.209 581.998 358.437Z"/>
	<path fill="#FCDEC9" d="M439.254 538.288Q439.977 538.847 440.735 539.357C448.53 544.602 457.729 548.455 466.069 552.826C489.776 565.253 535.956 591.324 562.814 586.239C568.373 585.187 573.008 582.982 576.243 578.241Q589.844 587.145 603.274 596.305C608.316 599.742 613.296 603.575 618.623 606.53C620.006 616.156 621.996 622.943 627.51 631.004C627.07 653.965 634.333 663.329 649.665 679.288C647.659 685.898 645.773 692.465 645.939 699.441C646.319 715.438 655.571 727.118 666.663 737.646C663.945 743.496 661.824 749.716 661.026 756.137C659.122 771.457 665.721 783.515 674.813 795.199C670.183 795.409 665.511 795.306 660.875 795.324C642.442 794.81 623.944 795.149 605.501 795.18Q539.439 795.587 473.377 795.172C475.409 788.893 476.763 782.278 476.729 775.659C476.656 761.507 470.248 748.884 460.325 739.081C463.84 730.076 466.872 720.075 466.921 710.352C466.994 695.875 459.86 684.193 449.986 674.144C453.908 662.73 458.208 650.792 456.833 638.543C455.517 626.816 448.547 615.074 439.36 607.778C443.965 600.473 446.885 591.248 447.649 582.662C448.923 568.343 442.514 556.464 433.676 545.763C435.739 543.359 437.539 540.952 439.254 538.288Z"/>
	<path fill="#299BDF" d="M605.961 714.551C612.195 710.129 618.082 706.902 626.058 708.149C629.524 708.69 632.749 710.148 634.767 713.123Q635.051 713.533 635.291 713.972Q635.53 714.41 635.721 714.871Q635.912 715.332 636.053 715.811Q636.194 716.29 636.284 716.782Q636.373 717.273 636.41 717.771Q636.446 718.269 636.43 718.768Q636.413 719.267 636.344 719.761Q636.275 720.256 636.153 720.74C635.385 723.852 633.071 726.484 630.271 727.967C625.998 730.228 620.575 730.119 616.049 728.701C612.256 727.514 609.527 725.114 606.08 723.389C607.314 720.179 605.846 717.761 605.961 714.551Z"/>
	<path fill="#299BDF" d="M605.593 723.675Q606.49 724.856 607.328 726.08C611.211 731.803 612.986 738.076 611.489 744.988C610.783 748.251 609.082 751.926 606.135 753.738C604.124 754.975 601.788 755.057 599.571 754.38C596.636 753.485 594.208 751.602 592.845 748.828C588.537 740.06 593.535 731.644 596.51 723.519L596.029 723.222C591.08 726.955 585.321 729.407 579.046 729.494C575.162 729.548 571.568 728.591 568.85 725.674C566.847 723.525 565.746 720.526 565.962 717.589C566.136 715.24 567.166 713.047 569.034 711.578C573.419 708.128 583.639 707.219 588.531 709.581C591.119 710.831 593.389 713.646 596.309 714.057L596.819 713.532C594.022 710.101 591.963 706.44 590.936 702.098C589.704 696.89 591.262 689.762 594.583 685.465C595.699 684.021 598.03 683.304 599.758 683.101C602.223 682.81 605.14 683.717 607.047 685.288C610.155 687.847 611.346 692.281 611.704 696.131C612.306 702.599 610.061 708.875 605.835 713.742L605.409 714.224L605.961 714.551C605.846 717.761 607.314 720.179 606.08 723.389L605.593 723.675Z"/>
	<path fill="#F89F1D" d="M605.409 714.224L605.961 714.551C605.846 717.761 607.314 720.179 606.08 723.389L605.593 723.675L604.695 722.957C603.194 723.306 601.567 723.8 600.037 723.955C598.843 724.076 597.786 723.824 596.912 722.937C595.837 721.843 595.16 719.464 595.327 717.97C595.488 716.523 596.341 715.424 597.54 714.657C599.78 713.224 602.937 713.72 605.409 714.224Z"/>
	<path fill="#299BDF" d="M516.518 644.509C511.155 647.222 506.972 650.686 500.828 651.686C496.07 652.461 491.471 651.673 487.573 648.74C485.313 647.039 483.302 644.434 483.041 641.513C482.864 639.522 484.012 637.167 485.224 635.65C487.757 632.481 491.836 631.009 495.77 630.643C501.075 630.15 507.2 631.622 511.37 635.014C512.329 635.795 513.226 636.454 514.279 637.103L515.182 636.871L515.278 636.017C513.344 633.825 511.526 631.5 510.344 628.806C508.151 623.809 507.451 617.447 509.662 612.332C510.964 609.319 513.515 606.519 516.652 605.391C518.844 604.602 521.135 604.851 523.186 605.921C526.833 607.824 529.246 611.752 530.261 615.638C532.329 623.561 528.64 629.951 524.914 636.582L525.072 636.85C528.4 634.943 530.893 632.471 534.66 631.225C539.119 629.75 544.546 629.783 548.763 631.986C551.721 633.532 554.323 636.319 555.202 639.591Q555.321 640.015 555.394 640.45Q555.468 640.884 555.496 641.324Q555.523 641.764 555.505 642.204Q555.487 642.644 555.423 643.08Q555.359 643.516 555.25 643.943Q555.141 644.37 554.987 644.783Q554.834 645.196 554.639 645.591Q554.444 645.986 554.208 646.358C552.547 649.014 549.815 650.647 546.805 651.332C538.472 653.227 531.744 650.054 525.003 645.689L524.387 646.149L524.336 647.154C526.182 649.298 527.649 651.301 528.726 653.948C530.846 659.16 531.571 665.545 529.086 670.77C527.79 673.495 525.669 675.564 522.781 676.518C520.277 677.345 517.729 677.267 515.41 675.945C512.129 674.074 510.154 670.352 509.389 666.764C507.513 657.956 511.839 651.438 516.518 644.509Z"/>
	<path fill="#F89F1D" d="M525.072 636.85C525.118 639.854 525.52 643.759 523.388 646.202C522.572 647.138 521.672 647.753 520.387 647.769C519.035 647.787 517.698 647.069 516.75 646.137Q516.519 645.911 516.31 645.664Q516.102 645.417 515.918 645.15Q515.735 644.884 515.578 644.601Q515.421 644.318 515.292 644.021Q515.164 643.725 515.064 643.417Q514.965 643.109 514.896 642.793Q514.827 642.477 514.789 642.156Q514.751 641.834 514.744 641.511C514.702 638.927 515.681 637.594 517.438 635.817L524.914 636.582L525.072 636.85Z"/>
	<path fill="#299BDF" d="M287.672 730.836C296.199 732.047 304.501 733.381 312.776 735.87C346.121 745.898 379.09 768.51 400.114 796.399Q401.356 798.08 402.494 799.833Q403.631 801.587 404.66 803.406Q405.689 805.225 406.606 807.104Q407.522 808.982 408.323 810.913Q409.123 812.843 409.805 814.819Q410.487 816.795 411.047 818.808Q411.608 820.822 412.045 822.866Q412.482 824.909 412.794 826.976C415.977 848.403 412.797 870.909 411.515 892.416Q407.317 958.25 401.964 1024L224.823 1024L224.933 1023.45C227.538 1009.57 227.905 993.4 229.93 979.063C237.163 927.855 244.265 876.542 256.039 826.142C263.668 793.487 272.77 761.019 287.672 730.836Z"/>
	<path fill="#299BDF" d="M472.935 796.192C493.723 795.625 514.632 796.094 535.434 796.09L638.405 795.986C650.946 796.005 663.531 796.607 676.061 796.367L679.271 800.15C673.547 812.227 670.681 826.349 675.277 839.292C678.616 848.696 685.18 857.487 692.009 864.646C686.047 876.083 682.796 890.47 686.839 903.07C690.085 913.184 697.049 921.948 704.151 929.652C698.859 944.464 695.046 958.901 702.17 973.826C706.018 981.888 712.134 989.97 718.422 996.325C714.604 1005.38 713.195 1014.22 714.611 1024L507.774 1024C504.63 1015.16 501.261 1008.96 493.475 1003.42C501.308 994.41 504.596 980.913 503.845 969.159C503.101 957.508 496.307 945.056 487.584 937.427C494.814 926.652 498.365 911.19 495.841 898.37C493.756 887.785 487.077 879.603 479.759 872.062C485.967 858.205 490.46 841.391 484.913 826.578C481.838 818.368 476.243 810.947 469.797 805.073C470.846 802.127 472.011 799.178 472.935 796.192Z"/>
	<path fill="#F7F1EC" d="M0 683.034L309.998 682.991C306.337 690.65 302.041 697.968 298.233 705.55Q284.595 732.502 273.831 760.724C256.754 806.506 247.667 855.8 239.977 903.948C235.636 931.127 231.328 958.463 227.964 985.78C226.397 998.504 225.353 1011.26 223.97 1024L222.749 1024L132.082 1024L92.9183 1024L2.08133 1024L0 1024L0 683.034Z"/>
	<path fill="#A29896" d="M92.8196 1023.51C105.91 1023.47 119.102 1023.85 132.179 1023.52L132.082 1024L92.9183 1024L92.8196 1023.51Z"/>
	<path fill="#F6A2A1" d="M2.08133 1024C4.24193 1022.88 83.5112 1023.36 92.8196 1023.51L92.9183 1024L2.08133 1024Z"/>
	<path fill="#FCDEC9" d="M132.179 1023.52C147.069 1022.77 162.289 1023.51 177.222 1023.52C191.554 1023.54 206.128 1022.83 220.422 1023.34C221.341 1023.37 221.98 1023.47 222.749 1024L132.082 1024L132.179 1023.52Z"/>
	<path fill="#24675C" d="M115.539 764.911C116.854 764.968 118.059 765.019 119.273 765.58C125.317 768.368 127.398 777.898 129.561 783.637C131.075 778.532 132.633 772.18 136.139 768.063C137.465 766.505 139.467 765.109 141.602 765.133C142.839 765.147 143.87 765.789 144.72 766.626C152.767 774.549 157.571 808.241 157.576 819.455C157.591 849.557 143.166 877.842 122.113 898.768C122.462 909.626 122.091 920.563 122.082 931.43L122.086 996.721C127.136 981.824 137.277 966.105 147.359 954.231C160.54 938.709 179.521 922.389 200.68 920.609C200.243 927.301 199.049 933.531 196.655 939.812C183.288 974.889 150.377 1003.3 116.723 1018.52C109.256 1018.88 77.8679 995.236 70.3968 988.791C50.9456 972.011 31.4179 947.243 29.4579 920.711C34.4266 920.852 38.84 921.766 43.4773 923.559C73.9585 935.347 96.8205 968.111 109.528 996.998C108.761 987.264 109.012 977.435 109.004 967.677L109.005 924.077C109.016 915.152 110.048 904.708 108.218 895.997C100.508 885.808 92.6601 875.807 87.0026 864.277C72.6708 835.07 74.1251 804.924 84.5785 774.791C85.6776 771.623 87.4513 766.911 90.8614 765.677C92.3136 765.151 93.8585 765.413 95.1721 766.174C100.37 769.185 102.705 778.973 104.368 784.335C107.017 776.89 108.452 769.559 115.539 764.911Z"/>
	<path fill="#F6A2A1" d="M115.559 766.507C116.797 766.492 118.075 766.517 119.231 767.018C124.587 769.335 125.298 776.941 127.262 781.733C127.793 783.031 128.591 784.652 129.94 785.24C131.307 784.107 134.293 772.248 137.318 768.594C138.254 767.463 139.539 766.307 141.096 766.316C142.337 766.322 143.418 767.179 144.217 768.06C152.435 777.114 156.233 809.752 156.086 821.85C155.702 853.348 139.552 880.172 117.485 901.618L116.255 901.901C113.853 900.994 112.066 898.867 110.452 896.938C87.8993 869.979 74.6487 843.499 78.2561 807.526C79.0424 799.685 84.093 771.803 90.2458 767.547C91.1817 766.9 92.0698 766.693 93.1944 766.879C99.0552 767.845 101.323 780.932 104.24 785.431C107.121 785.299 107.15 772.183 115.559 766.507Z"/>
	<path fill="#F7F1EC" d="M703.581 683.033L1024 682.961L1024 1024L1023.32 1024L786.582 1024L772.982 1024L772.896 1023.5C772.323 1022.64 772.51 1023.02 772.147 1022.08C768.555 1012.74 763.957 1005.72 757.359 998.32C760.678 990.246 763.002 981.357 763.659 972.639C764.96 955.395 756.139 943.566 745.428 931.13C749.037 922.18 751.222 910.989 751.557 901.353C752.118 885.205 741.838 874.515 731.554 863.409C733.755 854.732 736.031 845.814 736.749 836.875C738.134 819.638 727.796 809.11 717.273 796.885C720.003 787.264 723.097 777.343 722.988 767.251C722.83 752.592 713.752 742.609 703.857 732.925C708.529 714.716 713.242 700.577 703.581 683.033Z"/>
	<path fill="#F6A2A1" d="M772.896 1023.5C777.48 1023.47 782.107 1023.63 786.684 1023.49L786.582 1024L772.982 1024L772.896 1023.5Z"/>
	<path fill="#FCDEC9" d="M786.684 1023.49C804.301 1022.34 822.581 1023.5 840.245 1023.7C867.567 1024 894.934 1023.79 922.259 1023.74L992.76 1023.4C1002.65 1023.41 1013.61 1022.38 1023.32 1024L786.582 1024L786.684 1023.49Z"/>
	<path fill="#24675C" d="M898.256 700.75C898.83 700.784 899.342 700.974 899.891 701.134C904.173 705.225 907.684 713.407 910.075 718.865Q915.567 709.81 921.494 701.034C929.661 710.726 935.268 726.645 938.039 738.917C944.528 767.645 936.598 797.497 920.638 821.798C916.238 828.497 910.57 834.403 906.353 841.181C906.262 841.327 906.175 841.474 906.086 841.62C905.835 862.782 906.033 883.96 906.055 905.123C906.066 915.917 906.733 927.169 905.604 937.895Q910.967 928.36 916.769 919.085C932.672 893.901 953.457 869.49 983.74 862.643C983.84 874.252 981.036 884.781 975.432 894.98C961.699 919.976 930.251 948.449 902.601 956.621C901.255 956.992 900.155 957.059 898.785 956.835C876.678 953.219 844.341 925.111 831.666 907.166C824.003 896.317 818.549 884.415 816.341 871.281C815.927 868.818 815.191 866.247 815.616 863.757C817.092 863.101 818.458 863.582 819.947 864.046C853.379 874.473 877.896 907.247 893.401 937.132C891.499 904.716 892.347 871.773 892.422 839.294C878.145 822.178 867.954 803.196 863.264 781.265C857.175 752.789 859.694 725.799 875.672 701.074C880.981 705.762 886.052 712.359 888.656 718.979C891.299 712.498 893.695 706.148 898.256 700.75Z"/>
	<path fill="#F6A2A1" d="M898.899 701.9C903.992 706.457 907.192 715.911 909.857 722.184C913.816 715.809 917.558 709.312 921.578 702.967C933.398 721.318 939.94 742.984 938.812 764.869C937.519 789.952 926.207 813.068 911.083 832.68C907.839 836.886 904.524 841.406 900.582 844.976C900.442 844.89 900.297 844.81 900.16 844.719C895.968 841.926 892.783 837.638 889.696 833.739C876.617 817.223 868.01 798.93 863.956 778.218C858.854 752.149 861.14 725.373 876.134 702.926C881.861 709.782 885.77 715.278 888.968 723.67C890.386 716.134 894.353 708.024 898.899 701.9Z"/>
	<path fill="#F7F1EC" d="M343.329 0L682.009 0L682.367 174.409Q682.464 197.181 682.303 219.952C682.259 228.94 681.809 238.172 682.441 247.131C681.889 256.703 682.414 266.265 682.273 275.838Q681.779 327.027 682.146 378.215L682.095 477.907C682.078 494.556 681.381 511.47 682.067 528.096L682.005 617.967C677.919 613.428 673.572 609.141 669.506 604.574C672.071 595.622 673.885 585.923 673.287 576.577C672.164 558.995 662.857 549.038 650.236 538.004C651.169 534.57 651.658 530.971 651.931 527.429C653.502 507.04 646.617 494.342 633.725 479.294C632.613 469.772 630.207 460.91 627.641 451.703Q628.965 448.218 630.203 444.701C633.751 434.431 636.867 422.64 637.083 411.715C637.182 406.714 636.503 401.727 636.665 396.715C636.916 388.973 637.905 381.282 638.047 373.51Q638.123 369.061 637.934 364.616Q637.744 360.17 637.289 355.744Q636.834 351.317 636.116 346.926Q635.397 342.535 634.418 338.194Q633.439 333.854 632.202 329.58Q630.965 325.305 629.475 321.113Q627.985 316.92 626.248 312.824Q624.51 308.727 622.531 304.742C608.822 276.613 585.558 256.518 556.01 246.387C519.309 233.803 476.585 237.644 441.984 254.834C408.323 271.557 383.005 302.494 371.072 337.859Q357.068 337.007 343.041 337.26L343.224 99.4418L343.239 34.9522C343.172 23.5056 342.062 11.3416 343.329 0Z"/>
	<path fill="#299BDF" d="M509.642 45.9446C511.156 45.9158 512.619 45.9253 514.077 46.3883C518.946 47.9348 522.346 52.3891 524.478 56.8109C530.837 69.9995 530.834 89.0311 527.106 102.951C525.765 107.956 523.545 112.747 521.81 117.632C531.581 105.308 541.218 95.1567 555.778 88.4957C565.011 84.2716 578.207 81.1633 588.019 85.1195C590.835 86.2548 593.554 88.1923 594.614 91.1498C595.721 94.2401 594.721 97.5509 593.362 100.392C585.764 116.277 563.742 128.13 547.345 132.08C542.904 133.149 536.278 132.832 532.904 133.955L532.937 134.586C536.175 135.098 539.477 134.963 542.732 135.434C552.969 136.916 563.342 141.363 572.023 146.905C580.253 152.16 592.17 162.019 594.093 172.186C594.583 174.778 594.187 177.33 592.575 179.466C589.962 182.928 585.447 184.134 581.336 184.562C565.756 186.181 546.773 176.203 535.577 166.08C531.482 162.377 528.148 157.466 523.916 154.06C523.202 153.486 523.335 153.392 522.399 153.487C522.88 155.71 524.561 157.963 525.354 160.184C528.102 167.89 529.716 176.459 529.417 184.655C528.973 196.826 525.695 209.147 516.605 217.693C514.562 219.124 512.544 219.961 510.238 220.838C510.077 220.78 509.914 220.724 509.754 220.662L508.955 220.35C508.328 220.109 507.702 219.881 507.094 219.592C501.136 216.755 496.959 208.849 494.783 202.916C487.9 184.155 492.827 166.45 500.777 149.14C497.036 152.6 494.205 157.259 490.803 161.088C481.522 171.533 467.152 180.131 453.52 183.263C447.02 184.757 438.955 185.835 433.087 181.948C430.541 180.261 428.748 177.772 428.273 174.728C427.529 169.965 429.998 165.017 432.792 161.327C442.106 149.023 459.59 139.282 474.601 136.353C480.257 135.249 486.051 135.248 491.753 134.458C486.118 133.927 480.389 133.538 474.856 132.305C462.374 129.524 449.479 122.226 440.18 113.522C434.855 108.538 428.641 101.683 428.574 93.9563C428.552 91.3476 429.198 88.7513 431.199 86.9605C434.733 83.7969 440.746 82.8748 445.331 82.9884C465.624 83.4909 483.565 97.644 496.951 111.56C491.16 94.4626 489.282 76.929 496.724 59.957C499.454 53.7312 503.105 48.5014 509.642 45.9446Z"/>
	<path fill="#F6A2A1" d="M508.239 113.758C512.857 113.435 517.49 114.006 521.559 116.349C526.436 119.157 529.947 124.223 531.195 129.678C532.43 135.075 531.279 140.648 528.321 145.293C524.991 150.525 520.684 153.08 514.836 154.485C509.698 154.634 505.28 154.185 500.798 151.374Q500.345 151.087 499.906 150.777Q499.468 150.468 499.045 150.137Q498.623 149.806 498.217 149.454Q497.812 149.103 497.424 148.732Q497.036 148.361 496.668 147.971Q496.299 147.581 495.95 147.173Q495.601 146.765 495.273 146.341Q494.944 145.916 494.637 145.476Q494.331 145.035 494.046 144.58Q493.761 144.125 493.5 143.657Q493.238 143.188 493 142.707Q492.762 142.226 492.548 141.734Q492.334 141.242 492.144 140.74Q491.955 140.238 491.791 139.727Q491.627 139.216 491.488 138.697Q491.35 138.179 491.237 137.654Q491.138 137.167 491.064 136.675Q490.99 136.183 490.941 135.688Q490.891 135.193 490.866 134.696Q490.842 134.2 490.842 133.702Q490.842 133.205 490.867 132.708Q490.892 132.211 490.941 131.717Q490.991 131.222 491.065 130.73Q491.14 130.238 491.238 129.751Q491.337 129.263 491.46 128.781Q491.583 128.299 491.73 127.824Q491.877 127.349 492.047 126.882Q492.217 126.415 492.411 125.956Q492.604 125.498 492.821 125.05Q493.037 124.602 493.275 124.166Q493.513 123.729 493.773 123.305Q494.032 122.881 494.313 122.47C497.663 117.497 502.482 114.906 508.239 113.758Z"/>
	<path fill="#F7F1EC" d="M0.574085 338.44C12.8256 339.813 25.6502 338.938 37.9715 338.826C54.4011 338.676 70.8537 338.887 87.287 338.878L258.739 338.429L311.597 338.236C321.726 338.202 331.921 337.921 342.04 338.377L337.477 639.284C328.93 653.796 319.338 667.674 310.877 682.246C286.329 681.208 261.465 682.142 236.875 682.095L81.3787 682.088L28.1571 682.142C19.1141 682.149 9.64235 682.731 0.659013 681.955L0 681.982L0 351.731L0 338.115L0.574085 338.44Z"/>
	<path fill="#A29896" d="M0 338.115L0.574085 338.44C0.531986 342.758 0.221882 347.25 0.542272 351.548L0 351.731L0 338.115Z"/>
	<path fill="#FCDEC9" d="M0 351.731L0.542272 351.548C0.942929 362.832 0.539755 374.193 0.554428 385.487L0.331997 474.939L0.349606 630.317Q0.217523 646.66 0.283533 663.003C0.347935 669.307 0.762969 675.659 0.659013 681.955L0 681.982L0 351.731Z"/>
	<path fill="#299BDF" d="M155.575 412.945C156.821 412.882 158.05 412.857 159.283 413.086C163.479 413.863 167.038 417.328 169.213 420.823C177.168 433.604 177.65 453.343 174.13 467.55C172.631 473.598 169.926 479.275 168.484 485.342L168.327 486.021C171.234 482.641 173.457 478.541 176.193 474.981C184.018 464.803 195.429 455.915 207.536 451.504C214.396 449.004 224.725 446.917 231.537 450.339C234.295 451.723 236.454 454.129 237.327 457.11C238.61 461.493 236.964 466.14 234.877 469.992C225.121 487.998 205.343 496.353 186.759 501.941C204.434 506.097 223.642 516.394 233.375 532.258C235.992 536.522 238.461 541.841 237.03 546.925C236.371 549.267 234.913 551.126 232.771 552.285C226.254 555.809 216.019 554.012 209.239 552.126C194.584 548.05 178.816 536.239 171.352 522.905C170.751 521.831 170.114 520.863 169.403 519.856L168.831 520.202C168.57 522.909 171.001 526.227 171.926 528.923Q174.237 535.784 175.323 542.942C177.469 556.8 176.127 574.259 167.339 585.825C164.315 589.805 161.269 591.724 156.351 592.38C151.626 590.383 148.175 586.939 145.639 582.516C137.79 568.826 137.192 550.852 140.879 535.827C142.328 529.925 144.632 524.28 146.211 518.409C143.191 523.005 140.266 527.88 136.623 532.01C127.757 542.059 112.312 550.747 99.2791 553.695C93.1456 555.083 85.2406 555.364 79.8481 551.669C77.744 550.227 76.795 548.037 76.4311 545.562C75.5399 539.5 79.0524 533.57 82.6615 528.973C96.0942 511.864 111.251 504.5 132.352 501.975Q130.608 501.88 128.868 501.725C111.609 500.148 93.9341 488.284 83.1422 475.191C79.3412 470.579 75.4051 464.687 76.2216 458.43C76.5815 455.673 77.632 453.347 79.9544 451.741C84.4751 448.613 91.7438 448.956 96.9695 449.885C111.789 452.518 127.747 462.4 137.95 473.264C141.478 477.019 144.405 481.327 147.349 485.541C140.438 466.238 135.54 446.948 143.255 426.949C145.714 420.573 149.173 415.756 155.575 412.945Z"/>
	<path fill="#F6A2A1" d="M157.625 481.247L158.144 481.316L159.007 481.444C163.333 482.053 166.992 483.468 170.385 486.311Q170.769 486.633 171.137 486.973Q171.504 487.313 171.855 487.671Q172.206 488.028 172.538 488.403Q172.871 488.777 173.185 489.168Q173.499 489.558 173.793 489.963Q174.088 490.368 174.362 490.787Q174.636 491.207 174.89 491.639Q175.143 492.071 175.375 492.515Q175.607 492.959 175.817 493.413Q176.027 493.868 176.214 494.333Q176.402 494.797 176.566 495.27Q176.731 495.743 176.872 496.224Q177.013 496.705 177.13 497.192Q177.247 497.679 177.341 498.171Q177.434 498.663 177.503 499.159Q177.572 499.655 177.617 500.154C178.054 505.536 176.109 511.026 172.601 515.101C168.776 519.543 163.932 521.588 158.222 522.078C153.6 521.659 149.435 520.593 145.653 517.788C140.959 514.307 138.141 508.96 137.501 503.193C136.894 497.727 138.562 492.587 142.124 488.409C146.205 483.62 151.518 481.696 157.625 481.247Z"/>
	<path fill="#F7F1EC" d="M682.009 0L775.473 0L849.722 0L851.173 0L936.194 0L1024 0L1024 0.483702L1024 84.9416L1024 86.0605L1024 170.528L1024 251.248L1024 252.605L1024 339.949L1024 682.082L802.619 682.054C769.398 682.034 736.109 681.547 702.896 682.157C698.849 677.985 694.702 673.913 690.819 669.583C693.354 648.824 695.013 637.567 683.006 619.281L682.963 515.883C682.519 519.932 682.743 524.096 682.067 528.096C681.381 511.47 682.078 494.556 682.095 477.907L682.146 378.215Q681.779 327.025 682.273 275.838C682.414 266.265 681.889 256.703 682.441 247.131C681.809 238.172 682.259 228.94 682.303 219.952Q682.464 197.181 682.367 174.409L682.009 0Z"/>
	<path fill="#FCDEC9" d="M775.473 0L849.722 0C849.141 0.338752 848.674 0.529207 847.991 0.55075C834.451 0.978309 820.646 0.365482 807.085 0.302532C796.541 0.253587 786.002 0.722943 775.455 0.649298L775.473 0Z"/>
	<path fill="#FCDEC9" d="M1024 170.528L1024 251.248C1023.5 250.522 1023.41 250.155 1023.35 249.249C1022.76 240.168 1023.44 230.558 1023.52 221.443L1023.48 170.57L1024 170.528Z"/>
	<path fill="#24675C" d="M851.173 0L936.194 0L1024 0L1024 0.483702L1024 84.9416L1024 86.0605L1024 170.528L1023.48 170.57C1020.9 170.77 1018.3 170.971 1015.7 171.003C982.359 171.414 953.627 149.607 942.431 118.739C939.114 109.595 940.06 96.3992 932.364 89.6509C926.062 84.1246 916.705 85.3864 909.029 83.4753C896.254 80.2947 883.641 72.6792 874.317 63.468C862.164 51.4634 854.147 33.8559 851.931 17.0057C851.19 11.3697 851.226 5.67463 851.173 0Z"/>
	<path fill="#F6A2A1" d="M936.194 0L1024 0L1024 0.483702L1024 84.9416L1024 86.0605C1001.07 86.1893 981.122 80.6773 963.714 64.977C942.736 46.0577 937.601 27.1592 936.194 0Z"/>
	<path fill="#1C1D1B" d="M936.194 0L1024 0L1024 0.483702C995.258 0.550683 966.323 1.27191 937.603 0.382201C938.079 25.7314 944.209 44.6328 962.859 62.5498C979.84 78.8635 1000.89 85.1976 1024 84.9416L1024 86.0605C1001.07 86.1893 981.122 80.6773 963.714 64.977C942.736 46.0577 937.601 27.1592 936.194 0Z"/>
	<path fill="#24675C" d="M682.009 0L775.473 0L775.455 0.649298C775.708 24.7032 770.258 45.3216 752.925 62.9474Q752.226 63.6494 751.509 64.3339Q750.793 65.0183 750.06 65.6849Q749.327 66.3515 748.577 66.9997Q747.828 67.648 747.063 68.2775Q746.298 68.907 745.517 69.5175Q744.737 70.1279 743.941 70.7188Q743.146 71.3098 742.336 71.8809Q741.527 72.452 740.703 73.0029Q739.88 73.5539 739.043 74.0843Q738.206 74.6147 737.356 75.1242Q736.506 75.6338 735.644 76.1222Q734.782 76.6106 733.908 77.0775Q733.034 77.5445 732.149 77.9897Q731.264 78.4349 730.368 78.8581Q729.472 79.2813 728.566 79.6822Q727.66 80.0831 726.744 80.4615Q725.828 80.8399 724.904 81.1955Q723.979 81.5512 723.045 81.8839Q722.112 82.2166 721.171 82.5261Q720.23 82.8356 719.281 83.1218Q718.332 83.4079 717.377 83.6706Q716.422 83.9332 715.46 84.1721Q714.498 84.411 713.531 84.6261Q712.564 84.8412 711.592 85.0324Q710.62 85.2235 709.643 85.3905Q708.666 85.5576 707.686 85.7004Q706.705 85.8432 705.722 85.9618Q704.738 86.0804 703.752 86.1746Q702.765 86.2688 701.777 86.3387Q700.788 86.4085 699.799 86.4538Q698.809 86.4992 697.818 86.5201Q696.828 86.541 695.837 86.5374C691.724 86.5463 687.593 86.2776 683.492 85.9814L683.448 166.55C707.636 165.877 727.952 169.41 746.147 186.81C755.029 195.305 762.702 207.114 765.962 219.032C768.292 227.546 767.775 239.01 773.846 245.863C781.123 254.077 798.986 252.648 809.54 256.265C832.005 263.963 848.535 281.658 856.367 303.859C858.443 309.745 860.118 316.091 860.407 322.351Q861.261 330.649 860.897 338.982L903.119 338.937C911.155 338.917 919.288 338.632 927.313 338.996C929.963 338.769 932.652 338.715 935.31 338.59C934.26 332.322 934.309 326.052 935.098 319.76Q935.223 318.787 935.372 317.817Q935.521 316.847 935.695 315.881Q935.868 314.916 936.065 313.954Q936.262 312.993 936.483 312.037Q936.704 311.081 936.949 310.131Q937.194 309.181 937.462 308.237Q937.73 307.293 938.022 306.357Q938.314 305.42 938.629 304.49Q938.943 303.561 939.281 302.64Q939.619 301.719 939.98 300.806Q940.341 299.894 940.724 298.99Q941.107 298.087 941.513 297.194Q941.918 296.3 942.346 295.417Q942.774 294.534 943.223 293.662Q943.673 292.79 944.144 291.929Q944.615 291.068 945.107 290.22Q945.599 289.371 946.113 288.535Q946.626 287.699 947.16 286.875Q947.694 286.052 948.248 285.242Q948.802 284.433 949.376 283.637Q949.951 282.841 950.544 282.06Q951.138 281.279 951.751 280.513Q952.364 279.747 952.996 278.996Q953.628 278.246 954.278 277.511Q954.929 276.776 955.597 276.058Q956.265 275.339 956.951 274.638Q957.637 273.937 958.341 273.252Q959.044 272.568 959.764 271.902Q960.484 271.235 961.221 270.587Q961.957 269.938 962.709 269.308Q963.462 268.679 964.23 268.068Q964.997 267.457 965.78 266.865C982.937 253.704 1002.97 249.873 1024 252.605L1024 339.949C999.614 340.239 975.201 340.071 950.812 340.034C936.795 340.014 922.681 340.406 908.675 339.952C885.096 340.445 861.447 340.079 837.862 340.072L683.372 339.986L683.344 461.359L683.268 498.449C683.232 504.075 683.684 510.336 682.963 515.883C682.519 519.932 682.743 524.096 682.067 528.096C681.381 511.47 682.078 494.556 682.095 477.907L682.146 378.215Q681.779 327.025 682.273 275.838C682.414 266.265 681.889 256.703 682.441 247.131C681.809 238.172 682.259 228.94 682.303 219.952Q682.464 197.181 682.367 174.409L682.009 0Z"/>
	<path fill="#F6A2A1" d="M683.504 255.394Q688.379 255.525 693.246 255.834C716.123 258.148 735.62 265.733 750.461 284.048C757.861 293.181 762.519 303.283 764.922 314.749C765.477 317.399 765.637 322.019 766.847 324.349Q767.379 331.591 767.476 338.851C755.844 338.626 744.182 338.884 732.546 338.851Q708.063 338.551 683.579 338.644L683.504 255.394Z"/>
	<path fill="#F7F1EC" d="M683.372 339.986L837.862 340.072C861.447 340.079 885.096 340.445 908.675 339.952C922.681 340.406 936.795 340.014 950.812 340.034C975.201 340.071 999.614 340.239 1024 339.949L1024 682.082L802.619 682.054C769.398 682.034 736.109 681.547 702.896 682.157C698.849 677.985 694.702 673.913 690.819 669.583C693.354 648.824 695.013 637.567 683.006 619.281L682.963 515.883C683.684 510.336 683.232 504.075 683.268 498.449L683.344 461.359L683.372 339.986Z"/>
	<path fill="#F6A2A1" d="M855.121 409.218C858.56 409.619 864.137 412.075 866.328 414.904C866.961 415.723 866.796 415.317 866.644 416.448C863.755 417.073 861.779 411.411 858.518 410.727C856.513 410.306 853.751 410.926 852.128 412.153C846.925 416.084 842.206 425.05 840.611 431.239C839.543 435.388 839.165 439.869 838.45 444.101C836.486 455.737 840.498 469.52 845.697 479.867C846.851 479.924 846.487 480.02 847.472 479.688C848.78 479.247 850.06 478.697 851.384 478.305C856.522 476.784 863.167 478.873 867.737 481.249C875.861 465.254 877.076 443.685 870.966 426.865C870.111 424.512 866.906 419.787 867.165 417.732C867.611 418.092 867.789 418.199 868.168 418.721C875.932 429.422 877.213 449.165 875.124 461.854C874.522 465.516 873.023 469.015 872.401 472.705C872.277 473.44 872.226 474.024 871.861 474.696C871.786 474.832 871.689 474.955 871.603 475.084C876.606 468.628 881.892 460.969 889.256 456.988C887.592 460.423 881.08 465.176 878.283 468.446C874.669 472.67 871.678 477.221 868.742 481.922C874.315 485.998 875.054 490.554 877.413 496.518C877.557 496.564 877.698 496.625 877.846 496.658C885.077 498.27 903.677 492.41 910.293 488.916C917.314 485.207 932.287 473.325 934.203 465.406C935.206 461.261 936.971 457.675 935.08 453.474C933.835 450.706 931.299 448.886 928.49 447.921C924.059 446.398 914.219 446.252 909.919 448.346C908.407 449.081 901.247 451.546 899.964 451.623L899.927 451.05C902.877 448.885 907.723 447.913 911.25 447.077C917.673 445.556 925.762 444.414 931.615 448.215C934.139 449.855 936.821 452.39 937.37 455.471C938.177 459.998 933.123 470.481 930.214 474.253C922.13 484.733 907.795 492.815 895.035 495.798C889.365 497.123 883.313 497.543 877.53 498.205L877.351 498.595C879.309 499.543 882.848 499.633 885.124 500.049C896.674 502.163 905.799 504.3 915.732 511.096C924.181 516.876 934.322 527.503 936.012 537.98C936.375 540.228 936.677 542.685 935.28 544.632L934.942 544.154C935.45 540.927 935.206 538.185 934.133 535.063C929.671 522.076 918.042 512.967 906.305 506.885C898.858 503.027 886.228 500.304 877.674 500.243C876.635 500.996 876.209 503.415 875.847 504.71C874.337 510.114 871.864 510.7 869.334 514.844C869.252 514.979 869.186 515.123 869.112 515.262C875.826 526.17 884.45 535.963 895.776 542.18C905.861 547.715 918.861 552.014 930.352 548.599C930.487 548.559 930.619 548.515 930.753 548.474L931.139 548.849C930.759 549.202 930.666 549.33 930.135 549.587C924.491 552.309 915.151 550.456 909.341 548.833C894.79 544.768 878.677 533.867 871.269 520.394C870.846 519.627 870.396 518.963 869.892 518.245C869.781 520.018 870.511 521.696 871.162 523.303C874.036 530.39 874.925 537.071 875.23 544.71C875.509 551.731 874.291 568.691 869.301 574.088C875.683 553.066 876.366 536.315 867.114 515.964Q864.4 517.008 861.59 517.756C857.811 518.768 853.157 519.271 849.661 517.183C848.988 516.781 848.594 516.505 847.81 516.301C847.17 516.134 846.663 516.328 846.133 516.733C841.389 520.349 838.404 536.248 838.022 542.066C837.011 557.473 840.059 572.515 850.346 584.284C850.097 584.208 849.832 584.171 849.599 584.055C844.626 581.573 841.651 573.6 840.012 568.659C837.511 561.12 835.683 550.627 836.528 542.74C836.736 540.802 837.557 538.992 837.786 537.004C838.167 533.692 838.185 530.062 839.729 527.038C840.693 525.151 841.811 523.24 842.145 521.129C840.028 522.715 838.366 525.529 836.721 527.609C835.543 529.099 831.393 534.486 829.688 534.681C831.781 531.69 834.22 529.16 836.511 526.344C839.587 522.562 842.035 518.893 845.56 515.445C842.625 512.922 840.133 510.447 838.447 506.88C837.449 504.767 836.764 502.005 835.158 500.298C827.445 498.667 809.95 505.966 802.734 509.175L802.658 508.934C806.309 506.786 809.972 505.078 813.829 503.347C819.803 500.665 827.885 499.15 834.403 498.745L835.127 498.704L835.266 498.451C832.247 497.714 828.361 498.006 825.611 496.902C822.357 495.596 818.625 495.101 815.239 494.097C808.322 492.046 797.516 487.522 792.934 481.739L793.472 481.305C796.009 482.934 798.31 484.88 800.898 486.455C811.544 492.933 822.912 495.297 835.139 496.666C836.207 495.879 838.451 486.877 841.523 483.835C844.416 480.971 841.882 482.178 842.429 479.369C842.526 479.394 842.636 479.387 842.719 479.443C843.5 479.97 843.679 480.367 844.626 480.748C844.035 477.698 841.918 475.015 840.975 472.038C836.986 459.445 836.122 448.553 838.844 435.546C839.421 432.792 839.829 429.851 840.732 427.184C843.111 420.156 848.552 412.702 855.121 409.218Z"/>
</svg>
