<?xml version="1.0" encoding="utf-8" ?>
<svg xmlns="http://www.w3.org/2000/svg" xmlns:xlink="http://www.w3.org/1999/xlink" width="1024" height="1024">
	<path fill="#050100" d="M0 0L254.656 0L255.28 0L1022.96 0L1024 0L1024 258.674L1024 513.456L1024 1024L1023.07 1024L766.918 1024L511.082 1024L0 1024L0 1023.02L0 768.027L0 766.785L0 512.899L0 511.349L0 257.026L0 256.066L0 0.825438L0 0Z"/>
	<path fill="#D7CD3F" d="M759.565 672.008C761.365 671.927 762.993 671.802 764.747 672.265C764.74 673.761 762.395 675.695 761.358 676.856C760.552 677.918 759.608 678.847 758.682 679.801Q759.187 675.912 759.565 672.008Z"/>
	<path fill="#DF8D3C" d="M274.72 722.086C286.071 721.718 296.896 723.674 308.162 723.879L308.131 730.074C295.727 730.191 284.425 731.37 274.72 722.086Z"/>
	<path fill="#DF8D3C" d="M754.634 632.165L761.937 629.428C761.618 633.156 761.814 644.542 759.892 647.132C755.912 648.211 751.949 649.828 748.042 651.175C747.996 645.607 747.957 640.054 748.15 634.488L754.634 632.165Z"/>
	<path fill="#DF8D3C" d="M755.573 615.128L763.252 611.949L761.921 628.183Q757.934 629.901 753.895 631.491L748.031 633.477C748.021 628.42 747.923 623.373 748.517 618.343C750.808 617.149 753.207 616.163 755.573 615.128Z"/>
	<path fill="#DF8D3C" d="M749.799 600.035C754.792 598.421 759.624 596.228 764.65 594.761C764.33 600.176 764.158 605.647 763.515 611.033C760.636 612.147 757.706 613.201 754.871 614.421L748.311 617.186C748.323 613.865 747.548 603.667 748.738 601.131C748.954 600.671 749.446 600.4 749.799 600.035Z"/>
	<path fill="#DF8D3C" d="M651.075 570.507L651.825 570.677C653.544 574.707 652.071 582.883 651.848 587.311C646.844 589.318 641.797 591.251 636.93 593.576L636.361 593.435C635.158 591.198 635.746 580.109 635.55 576.944C640.644 574.654 645.908 572.637 651.075 570.507Z"/>
	<path fill="#DF8D3C" d="M651.083 663.958L651.755 664.325C652.615 669.668 651.959 676.103 651.907 681.568C646.823 683.105 641.892 685.085 636.974 687.076L636.216 686.67C635.082 681.634 635.921 674.57 635.952 669.326Q643.611 666.905 651.083 663.958Z"/>
	<path fill="#DF8D3C" d="M651.112 644.978L651.7 645.239C652.955 650.059 652.026 657.524 651.994 662.616C647.3 664.755 642.106 666.745 637.112 668.033L636.218 667.472C635.386 662.077 635.907 655.819 635.909 650.329Q643.536 647.726 651.112 644.978Z"/>
	<path fill="#DF8D3C" d="M667.919 638.968C668.323 638.977 668.773 639.136 669.167 639.231C670.452 643.877 669.484 651.399 669.502 656.406C664.279 657.803 659.202 659.796 654.118 661.627L653.489 661.758C652.015 659.054 652.936 647.964 652.963 644.38L667.919 638.968Z"/>
	<path fill="#DF8D3C" d="M635.703 688.103C641.073 686.206 646.482 684.064 651.957 682.517Q651.674 691.596 651.643 700.679C646.644 702.572 641.546 704.341 636.661 706.513L635.527 706.108C636.342 700.397 636.017 693.858 635.703 688.103Z"/>
	<path fill="#DF8D3C" d="M668.584 563.497L669.322 563.632C670.585 567.667 669.484 576.376 669.821 581.17C664.829 583.347 659.287 584.855 654.109 586.586L653.33 586.738C652.066 584.3 652.891 573.201 652.922 569.832C657.836 567.341 663.442 565.526 668.584 563.497Z"/>
	<path fill="#DF8D3C" d="M651.417 626.082C652.953 628.666 651.918 640.39 651.857 643.93C646.927 645.92 641.744 647.594 636.625 649.015C634.994 647.267 635.883 633.526 635.895 630.324Q643.69 628.328 651.417 626.082Z"/>
	<path fill="#DF8D3C" d="M667.998 677.001L668.93 677.192C670.278 680.579 669.497 690.523 669.524 694.626C664.19 696.243 658.994 698.04 653.787 700.03L653.039 699.71C651.794 695.562 652.814 686.646 652.897 681.99L667.998 677.001Z"/>
	<path fill="#DF8D3C" d="M667.006 657.995C667.756 657.982 668.244 658.032 668.963 658.175C670.775 662.066 669.507 671.151 669.468 675.684C664.525 677.165 659.663 678.822 654.792 680.521C653.943 680.729 654.419 680.681 653.357 680.564C651.894 676.64 652.907 667.533 653.011 663.004Q660.03 660.56 667.006 657.995Z"/>
	<path fill="#DF8D3C" d="M748.586 582.361L766.583 575.582C766.117 581.623 765.713 587.721 764.88 593.725C759.635 595.4 754.461 597.197 749.45 599.501L748.631 598.822C747.996 595.404 748.428 591.41 748.482 587.917L748.586 582.361Z"/>
	<path fill="#DF8D3C" d="M668.907 582.525L669.353 582.864C670.546 586.934 669.718 595.463 669.722 600.013Q661.392 603.155 652.799 605.479Q652.66 596.722 652.853 587.967C658.152 586.029 663.557 584.32 668.907 582.525Z"/>
	<path fill="#DF8D3C" d="M668.309 601.471C668.994 601.406 668.592 601.372 669.468 601.815C670.53 606.699 669.694 613.462 669.819 618.555Q662.266 621.5 654.604 624.15L653.435 624.257C651.904 621.413 652.837 610.027 652.842 606.351C658.049 604.842 663.197 603.284 668.309 601.471Z"/>
	<path fill="#DF8D3C" d="M668.369 619.985L669.385 620.201C670.671 622.932 669.728 633.932 669.666 637.619L654.404 643.058L653.396 642.911C651.865 639.995 652.927 629.203 653.007 625.502C658.027 623.469 663.26 621.795 668.369 619.985Z"/>
	<path fill="#DF8D3C" d="M709.439 546.057C710.32 548.169 709.171 559.6 709.412 563.141C703.644 565.545 697.666 567.586 691.845 569.885L691.305 569.551C690.149 564.908 690.947 558.569 690.952 553.724C696.897 550.805 703.288 548.528 709.439 546.057Z"/>
	<path fill="#DF8D3C" d="M708.585 564.507L708.853 564.636C709.814 565.959 709.251 579.424 709.277 581.821Q700.809 584.522 692.448 587.539L691.653 587.528C690.525 585.587 691.311 573.972 691.342 570.975C697.024 568.636 702.806 566.585 708.585 564.507Z"/>
	<path fill="#DF8D3C" d="M708.584 583.069C709.861 584.433 709.132 597.33 709.127 600.117C703.203 601.868 697.377 603.949 691.535 605.952L691.146 605.566C690.207 600.593 690.945 594.063 690.997 588.943C696.75 586.75 702.729 584.981 708.584 583.069Z"/>
	<path fill="#DF8D3C" d="M753.226 562.702L768.14 556.625Q767.599 565.553 766.64 574.446C760.563 576.678 754.413 578.793 748.508 581.458C748.559 576.971 748.692 572.47 748.611 567.984C748.709 567.155 748.736 565.955 749.058 565.197C749.719 563.642 751.786 563.284 753.226 562.702Z"/>
	<path fill="#DF8D3C" d="M708.183 619.986L708.695 620.182C709.981 623.214 709.07 634.048 709.045 637.901C703.228 639.557 697.534 641.447 691.825 643.445L691.315 643.243C690.093 639.198 690.975 630.546 691.001 626.005Q699.619 623.073 708.183 619.986Z"/>
	<path fill="#DF8D3C" d="M708.001 601.59L708.616 601.662C709.681 603.28 709.123 616.009 709.137 618.8L691.965 625.033L691.216 624.483C690.526 618.831 690.983 612.621 691.012 606.907Q699.466 604.12 708.001 601.59Z"/>
	<path fill="#DF8D3C" d="M652.784 701.257C658.219 699.025 663.914 697.226 669.517 695.462Q669.545 704.79 669.709 714.117C664.921 717.264 658.222 719.224 652.828 721.256Q652.748 711.257 652.784 701.257Z"/>
	<path fill="#DF8D3C" d="M636.789 706.999C641.842 705.486 646.77 703.561 651.714 701.729L652.096 721.737C646.677 724.152 641.188 726.353 635.674 728.541L635.659 728.127C635.572 725.413 634.879 709.619 635.76 708.098C636.011 707.663 636.446 707.365 636.789 706.999Z"/>
	<path fill="#DF8D3C" d="M691.121 664.441C697.07 662.792 702.798 659.877 708.897 658.845Q709.094 668.04 708.993 677.236Q699.935 680.177 690.999 683.473C690.969 677.183 690.649 670.707 691.121 664.441Z"/>
	<path fill="#DF8D3C" d="M748.863 547.201C753.391 544.167 764.454 539.762 769.879 538.015C769.421 543.819 769.122 549.698 768.385 555.472C763.11 557.668 757.807 559.816 752.562 562.081C751.455 562.5 750.428 562.832 749.265 563.086C748.249 558.421 749.012 552.059 748.863 547.201Z"/>
	<path fill="#DF8D3C" d="M759.914 647.91C760.311 651.054 758.666 678.781 757.12 680.955L748.014 683.807Q748.009 667.899 748.238 651.992C752.19 650.865 756.053 649.317 759.914 647.91Z"/>
	<path fill="#DF8D3C" d="M770.707 520.063L771.636 520.563C771.638 525.836 770.823 531.625 769.999 536.842C762.941 539.528 756.159 543.29 748.992 545.565C748.93 540.204 748.995 534.835 749.007 529.473L770.707 520.063Z"/>
	<path fill="#DF8D3C" d="M498.969 723.836Q529.208 724.05 559.446 723.743L559.41 729.954C539.34 730.448 519.109 730.003 499.025 730.021L498.969 723.836Z"/>
	<path fill="#DF8D3C" d="M560.571 723.624Q590.712 724.108 620.851 723.555L620.699 729.851C613.771 730.306 606.612 729.981 599.66 729.985L560.485 729.996L560.571 723.624Z"/>
	<path fill="#DF8D3C" d="M491.983 723.779C493.703 723.598 496.057 723.074 497.531 724.133C498.464 725.879 498.071 728.119 497.984 730.043L442.375 730.015C440.853 730.101 439.354 730.339 437.909 729.749C437.61 729.29 437.454 729.128 437.34 728.519C437.085 727.167 437.3 725.3 437.932 724.109C443.809 723.331 450.121 723.832 456.066 723.849C468.032 723.884 480.021 724.067 491.983 723.779Z"/>
	<path fill="#DF8D3C" d="M373.68 723.931L436.235 723.901C436.326 725.938 436.231 727.996 436.197 730.034L373.771 730.023C373.588 728.011 373.676 725.951 373.68 723.931Z"/>
	<path fill="#DF8D3C" d="M690.766 645.036C695.855 642.042 703.333 640.498 709.029 638.67C709.04 643.697 709.881 652.982 708.745 657.498L708.409 657.816L708.897 658.845C702.798 659.877 697.07 662.792 691.121 664.441L690.182 663.681C688.548 659.83 689.563 649.484 690.002 645.048L690.766 645.036Z"/>
	<path fill="#63220F" d="M690.766 645.036C691.027 651.208 690.895 657.431 690.902 663.611C696.692 661.556 702.46 659.372 708.409 657.816L708.897 658.845C702.798 659.877 697.07 662.792 691.121 664.441L690.182 663.681C688.548 659.83 689.563 649.484 690.002 645.048L690.766 645.036Z"/>
	<path fill="#DF8D3C" d="M708.135 678.573L708.311 678.629C709.632 680.125 709.044 695.344 709.04 698.389Q700.167 702.068 691.365 705.914L691.153 705.776C689.966 703.87 690.85 687.91 690.883 684.368C696.682 682.548 702.245 680.129 708.135 678.573Z"/>
	<path fill="#DF8D3C" d="M308.917 723.963L372.534 723.867L372.525 730.019C351.471 730.034 330.251 730.621 309.217 729.856C308.499 728.213 308.883 725.768 308.917 723.963Z"/>
	<path fill="#E6733A" d="M435.798 484.014C438.118 483.952 440.249 484.323 442.523 484.709C444.116 486.206 445.613 487.827 446.693 489.744C448.705 493.312 449.671 497.649 448.359 501.626C447.089 505.481 444.183 507.606 440.656 509.255C439.866 509.357 439.096 509.423 438.298 509.436C433.803 509.506 431.357 507.983 428.221 504.88C428.033 502.887 427.755 500.781 427.97 498.786C428.385 494.934 431.209 492.939 433.976 490.66C433.892 489.338 433.377 487.776 433.492 486.465C433.624 484.973 434.686 484.686 435.798 484.014Z"/>
	<path fill="#DF8D3C" d="M601.075 405.882L601.677 406.118C601.699 406.249 601.739 406.379 601.743 406.513C601.799 408.265 573.719 471.326 571.394 474.532C570.03 475.34 567.968 475.109 566.398 475.126C565.879 474.978 566.218 475.112 565.502 474.496C566.163 470.665 574.767 453.406 576.833 448.751C582.581 435.794 587.573 422.336 594.066 409.735C596.357 408.388 598.743 407.16 601.075 405.882Z"/>
	<path fill="#DF8D3C" d="M746.563 652.538L746.896 652.786C748.033 655.575 747.018 678.941 746.972 684.102L731.83 689.695L731.163 689.46C730.123 680.632 730.995 667.539 730.999 658.309C736.252 656.655 741.334 654.32 746.563 652.538Z"/>
	<path fill="#DF8D3C" d="M611.845 400.95L612.502 401.742Q596.695 438.627 579.71 474.984L573.651 475.02L573.225 474.115C574.624 470.692 576.453 467.461 577.956 464.079L588.468 439.797C593.521 428.133 598.049 415.097 604.646 404.267C606.977 403.063 609.456 402.04 611.845 400.95Z"/>
	<path fill="#DF8D3C" d="M651.488 588.533C652.599 593.415 651.475 600.752 651.824 606.054C648.701 607.186 645.531 608.23 642.584 609.777Q647.24 608.56 651.835 607.133C652.012 613.106 651.918 619.11 651.938 625.086C648.985 625.888 646.091 626.817 643.188 627.778C640.766 628.485 638.472 629.053 635.957 629.367L635.926 612.592L640.379 610.878C638.936 611.015 637.312 611.408 635.978 610.724C635.374 605.82 635.859 600.249 635.866 595.277L636.064 595.16C640.945 592.213 646.093 590.326 651.488 588.533Z"/>
	<path fill="#DF8D3C" d="M731.021 537.031Q739.452 533.231 748.078 529.899L748.146 546.275C745.916 547.121 743.249 547.84 741.343 549.283C743.712 548.765 745.895 547.947 748.152 547.087L748.003 564.048C742.372 566.176 736.756 568.328 731.042 570.227C731.294 559.18 731.058 548.083 731.021 537.031Z"/>
	<path fill="#DF8D3C" d="M731.079 571.301C736.611 568.985 742.341 566.901 748.019 564.97C747.736 567.251 747.682 569.517 747.615 571.811L747.56 581.669C744.416 582.906 741.129 584.003 738.252 585.796C741.376 584.847 744.445 583.837 747.505 582.698L747.522 587.936C747.188 592.054 747.342 596.248 747.344 600.378C741.818 602.284 736.403 604.577 731.005 606.816Q731.137 589.059 731.079 571.301Z"/>
	<path fill="#DF8D3C" d="M623.036 395.909C623.628 396.019 623.316 395.886 623.87 396.493C622.859 401.85 618.006 410.543 615.637 415.847C606.856 435.504 598.203 455.802 588.235 474.881L581.998 474.986L581.365 474.484C581.479 473.724 613.213 402.823 614.943 399.941C617.606 398.537 620.338 397.245 623.036 395.909Z"/>
	<path fill="#DF8D3C" d="M634.663 390.436L635.177 390.558C635.244 390.832 635.386 391.097 635.379 391.378C635.355 392.281 599.978 470.019 597.389 474.952L590.509 474.9L589.931 474.723C589.801 472.745 597.197 459.084 598.738 455.844Q613.036 425.528 625.932 394.589C628.759 393.074 631.756 391.793 634.663 390.436Z"/>
	<path fill="#DF8D3C" d="M645.705 385.492L646.318 385.952C644.493 390.605 642.097 395.082 640.082 399.663C635.453 410.188 630.934 420.731 626.156 431.195C619.507 445.755 613.241 460.509 606.323 474.943L599.969 474.989L599.318 474.771C599.014 473.103 616.712 436.25 618.844 431.448C625.068 417.426 630.342 402.89 637.583 389.348L645.705 385.492Z"/>
	<path fill="#DF8D3C" d="M656.796 379.999C656.844 380.046 656.915 380.079 656.941 380.142C657.058 380.426 657.22 380.714 657.219 381.022C657.212 382.214 618.958 466.693 614.688 475.003L608.129 475.002C608.073 474.897 607.979 474.803 607.96 474.685C607.849 473.975 607.871 473.844 608.128 473.294C621.628 444.386 636.139 414.346 647.761 384.701C650.674 382.984 653.78 381.529 656.796 379.999Z"/>
	<path fill="#DF8D3C" d="M668.399 375.044L668.743 375.546C667.859 378.915 665.767 382.159 664.287 385.332L656.483 402.508C645.613 426.569 634.431 450.589 624.404 475.014L617.011 475.019L616.631 474.718C616.51 472.334 622.266 461.6 623.519 458.807C630.739 442.721 638.342 426.783 645.418 410.638C649.755 400.742 653.886 387.965 659.605 379.079C662.41 377.553 665.481 376.35 668.399 375.044Z"/>
	<path fill="#DF8D3C" d="M745.732 601.887L746.904 602.05C748.232 604.711 747.485 614.077 747.479 617.647C743.962 618.916 740.703 620.263 737.429 622.074C740.793 621.132 744.094 619.889 747.394 618.74C747.246 623.716 747.19 628.633 747.391 633.612C742.963 635.316 738.204 636.907 734.221 639.521C738.641 638.319 742.945 636.483 747.228 634.862L747.217 638.875C747.167 643.001 747.219 647.133 747.227 651.26C741.686 652.852 736.345 655.301 731.017 657.489Q731.251 632.731 731.001 607.973L745.732 601.887Z"/>
	<path fill="#DF8D3C" d="M679.633 369.955L680.117 370.121C680.11 372.537 678.197 375.732 677.219 377.974C674.014 385.326 670.269 392.44 666.94 399.736C655.584 424.623 644.309 449.763 633.872 475.046L626.485 475.042L625.897 474.775C625.729 472.179 665.939 383.768 670.817 374.175L679.633 369.955Z"/>
	<path fill="#DF8D3C" d="M701.972 359.999L702.323 360.36C702.425 362.891 700.034 367.037 699 369.421L652.029 475.077L644.698 475.066L644.487 474.898C644.373 472.922 682.827 388.721 686.432 380.393C688.723 375.1 690.702 369.691 692.67 364.272C695.755 362.815 698.871 361.42 701.972 359.999Z"/>
	<path fill="#DF8D3C" d="M690.498 365.053L690.873 365.739C689.694 372.553 684.496 382.267 681.542 388.748L668.229 418.024C659.689 436.97 651.872 456.303 642.9 475.043L635.976 475.04L635.677 474.81C634.855 471.883 677.855 379.193 682.125 368.774L681.628 369.017L690.498 365.053Z"/>
	<path fill="#DF8D3C" d="M713.414 355.043C713.433 355.065 713.463 355.081 713.471 355.109C713.557 355.394 713.695 355.676 713.695 355.973C713.694 356.721 664.878 464.866 660.642 475.068L654.069 475.137C654.017 475.077 653.939 475.031 653.912 474.956C652.924 472.14 699.254 373.086 703.878 359.347L713.414 355.043Z"/>
	<path fill="#DF8D3C" d="M723.699 350.492L724.292 350.776C722.416 357.065 719.273 363.279 716.678 369.335C708.999 387.251 700.391 404.754 692.38 422.522L678.091 454.927C675.245 461.41 672.736 468.702 668.708 474.523C666.985 475.374 664.834 475.096 662.951 475.076L662.394 474.879C662.316 474.586 662.173 474.302 662.159 473.998C662.07 471.966 709.914 367.249 715.515 354.311L723.699 350.492Z"/>
	<path fill="#DAB540" d="M673.181 714.509C676.817 712.009 682.799 710.78 686.99 709.053C710.02 699.566 733.027 689.606 756.844 682.204C747.629 693.178 737.663 703.78 728.857 715.056C719.989 714.201 710.771 714.503 701.853 714.364C692.425 714.217 682.543 713.474 673.181 714.509Z"/>
	<path fill="#DF8D3C" d="M734.387 345.962L735.32 346.27C734.703 350.768 719.931 381.011 716.964 387.558C703.769 416.674 691.274 446.218 677.376 475.006L670.968 475.065C670.388 474.871 670.706 475.048 670.172 474.318C672.5 469.044 675.273 463.912 677.666 458.646C683.348 446.145 688.587 433.448 694.297 420.958C705.143 397.23 716.306 373.798 726.058 349.585C728.77 348.269 731.613 347.15 734.387 345.962Z"/>
	<path fill="#DF8D3C" d="M746.167 341.525L746.771 341.699C747.167 344.614 735.235 367.846 733.323 371.772C724.928 389.009 717.291 406.525 709.43 424.004C701.805 440.96 693.966 457.837 686.963 475.064L679.884 475.075L678.913 474.673C679.653 471.14 687.347 455.915 689.377 451.415L720.874 381.731C724.99 372.726 734.799 353.557 736.936 344.992C739.94 343.697 743.095 342.655 746.167 341.525Z"/>
	<path fill="#DF8D3C" d="M753.572 338.428L754.207 338.752C755.88 342.282 753.87 348.727 752.616 352.288C751.391 355.768 749.432 359.253 747.864 362.618L737.559 384.736Q724.261 413.013 711.814 441.674C707.035 452.705 702.058 463.846 698.134 475.215C695.394 475.077 692.62 475.101 689.875 475.048C689.397 475.04 688.772 474.864 688.297 474.774C688.81 470.838 701.973 443.166 704.292 438.178C711.809 422.007 718.504 405.452 726.065 389.306C733.623 373.166 742.383 357.275 748.587 340.555L753.572 338.428Z"/>
	<path fill="#E6733A" d="M882.041 544.082C886.768 543.874 891.171 544.388 895.395 546.717C900.457 549.509 904.4 554.46 905.874 560.06C907.285 565.425 906.234 570.95 903.43 575.685C899.811 581.798 894.471 584.884 887.803 586.664C883.944 587.153 878.899 585.872 875.449 584.178C870.171 581.587 866.351 577.03 864.575 571.438C862.824 565.92 863.552 560.069 866.418 555.061C869.956 548.879 875.371 545.822 882.041 544.082Z"/>
	<path fill="#C0D046" d="M937.75 598.188C942.036 597.714 946.551 598 950.839 598.36C949.038 604.517 946.455 609.942 942.512 615.03C931.546 629.18 916.125 636.507 898.623 638.763C894.584 639.254 890.511 639.518 886.455 639.843C887.403 632.349 891.172 625.414 895.84 619.549C906.016 606.765 921.809 599.906 937.75 598.188Z"/>
	<path fill="#C0D046" d="M819.598 597.575C836.547 596.962 852.066 599.334 865.896 609.935C874.965 616.887 883.863 628.321 885.347 639.942C872.527 639.292 859.639 637.233 848.15 631.224C834.245 623.95 824.288 612.578 819.598 597.575Z"/>
	<path fill="#DAB540" d="M502.409 531.624C507.678 530.995 513.073 531.28 517.814 533.904C523.145 536.854 527.114 542.623 528.659 548.459C530.179 554.204 528.765 560.429 525.739 565.452C522.585 570.687 517.773 574.27 511.877 575.789L511.368 575.865L510.519 575.98C504.81 576.782 499.883 576.121 494.979 572.896Q494.476 572.568 493.99 572.215Q493.504 571.863 493.036 571.487Q492.568 571.11 492.12 570.711Q491.671 570.312 491.243 569.892Q490.815 569.471 490.408 569.029Q490.001 568.588 489.617 568.127Q489.232 567.665 488.871 567.186Q488.51 566.706 488.174 566.209Q487.837 565.712 487.525 565.198Q487.214 564.685 486.928 564.157Q486.642 563.629 486.383 563.088Q486.124 562.546 485.892 561.992Q485.66 561.438 485.456 560.874Q485.252 560.309 485.076 559.735Q484.9 559.161 484.753 558.579Q484.606 557.997 484.488 557.408Q484.384 556.863 484.307 556.314Q484.229 555.764 484.179 555.212Q484.128 554.659 484.104 554.105Q484.081 553.551 484.084 552.996Q484.087 552.441 484.118 551.887Q484.148 551.333 484.205 550.782Q484.262 550.23 484.346 549.682Q484.43 549.133 484.541 548.59Q484.651 548.046 484.788 547.508Q484.925 546.971 485.088 546.44Q485.251 545.91 485.44 545.388Q485.628 544.866 485.842 544.354Q486.055 543.842 486.294 543.341Q486.532 542.84 486.794 542.352Q487.057 541.863 487.342 541.387Q487.628 540.912 487.937 540.451C491.453 535.297 496.461 532.839 502.409 531.624Z"/>
	<path fill="#050100" d="M506.207 544.053C507.503 544.149 508.763 544.267 509.989 544.727C512.146 545.535 514.038 547.142 514.913 549.305C515.709 551.273 515.6 553.394 514.78 555.335C513.459 558.467 510.948 559.71 507.942 560.882C506.364 560.92 504.601 560.66 503.196 559.911C501.203 558.849 499.622 556.983 498.983 554.812Q498.861 554.405 498.781 553.988Q498.701 553.571 498.664 553.147Q498.627 552.724 498.634 552.3Q498.64 551.875 498.691 551.453Q498.741 551.031 498.834 550.617Q498.927 550.202 499.062 549.799Q499.197 549.397 499.372 549.01Q499.548 548.623 499.762 548.256C501.224 545.755 503.539 544.792 506.207 544.053Z"/>
	<path fill="#DF8D3C" d="M621.502 577.564C625.767 577.785 629.912 578.121 634.157 577.502C634.321 577.479 634.486 577.464 634.65 577.445C635.879 620.865 634.445 664.349 634.623 707.771Q634.55 718.634 634.616 729.496C630.404 729.605 626.18 729.577 621.967 729.612L621.867 610.848C622.045 599.798 622.184 588.596 621.502 577.564Z"/>
	<path fill="#E6733A" d="M340.097 455.384C342.121 458.619 343.517 462.311 345.425 465.647C352.448 477.929 361.1 487.257 373.137 494.662C363.144 501.601 353.303 509.968 347.788 521.103C345.972 524.768 344.56 529.698 341.714 532.63C341.467 532.583 341.218 532.543 340.972 532.489C340.442 532.375 339.369 532.136 338.952 531.717C336.704 529.462 334.298 522.416 332.777 519.314C327.799 509.16 317.24 499.63 307.688 493.801C322.9 484.343 332.81 471.595 340.097 455.384Z"/>
	<path fill="#DF8D3C" d="M670.898 562.49Q680.46 558.138 690.108 553.981Q690.082 562.478 690.165 570.975C688.405 571.391 686.838 571.824 685.193 572.582C686.93 572.685 688.611 572.014 690.254 571.513C690.28 575.489 690.557 579.612 690.367 583.57C690.275 585.49 690.03 587.844 688.428 589.125C688.103 589.384 687.747 589.603 687.428 589.87L689.847 589.601C690.913 593.604 690.033 601.962 690.014 606.414Q685.638 607.946 681.303 609.591L689.987 607.646L689.982 625.597C687.615 626.294 685.331 626.992 683.071 628.003C685.282 628.106 687.86 627.088 690.001 626.514L690 644.073C687.744 644.766 685.591 645.402 683.493 646.51C685.652 646.542 687.935 645.642 690.002 645.048C689.563 649.484 688.548 659.83 690.182 663.681C689.979 663.808 689.779 663.94 689.574 664.063C687.686 665.194 685.382 665.163 683.568 666.426C685.739 666.054 687.866 665.663 690 665.105L689.93 683.64C688.612 684.089 685.4 684.747 684.576 685.726C686.394 685.434 688.18 685.115 689.974 684.694Q689.865 695.691 689.454 706.68C684.116 708.806 676.246 710.877 671.722 714.221L670.851 713.621Q670.504 663.301 670.874 612.982L670.721 581.548C670.678 575.23 670.314 568.787 670.898 562.49Z"/>
	<path fill="#E6733A" d="M729.563 537.507C730.171 538.205 730.081 538.244 730.12 539.121C730.881 556.004 730.073 573.316 730.056 590.245L729.955 690.511C725.482 692.26 714.549 697.42 710.325 697.45C709.46 663.539 710.028 629.437 710.276 595.514L710.466 564.706C710.502 558.285 710.202 551.72 710.971 545.339C717.117 542.611 723.436 540.297 729.563 537.507Z"/>
	<path fill="#C0D046" d="M444.057 484.845C449.957 485.262 455.864 486.201 461.458 488.166C477.952 493.959 488.438 505.339 495.856 520.773C493.982 524.782 492.302 528.851 490.632 532.946C462.154 533.052 433.604 532.538 405.125 532.164Q393.916 532.051 382.706 532.09C389.358 516.008 400.556 499.746 417.239 492.878C420.259 491.635 427.619 489.022 430.643 490.285C431.277 492.128 427.085 496.337 426.543 499.097C426.028 501.718 426.637 504.218 428.207 506.371C430.024 508.864 432.745 510.323 435.796 510.657Q436.443 510.725 437.094 510.729Q437.745 510.733 438.393 510.674Q439.042 510.614 439.681 510.491Q440.32 510.369 440.944 510.184Q441.568 509.999 442.171 509.754Q442.774 509.509 443.35 509.206Q443.927 508.903 444.47 508.545Q445.014 508.188 445.52 507.778C448.482 505.363 449.894 501.733 450.136 497.985C450.472 492.775 447.264 488.542 444.057 484.845Z"/>
	<path fill="#DAB540" d="M899.03 716.568C906.675 717.514 914.798 717.182 922.504 717.272Q948.151 717.486 973.796 717.062C961.075 734.194 946.141 750.152 932.087 766.22C931.234 766.996 930.559 767.04 929.439 767.117C921.663 767.654 913.52 767.145 905.709 767.115Q882.069 766.95 858.429 767.093C862.947 762.389 866.937 756.864 871.029 751.781C880.423 740.112 889.56 728.155 899.03 716.568Z"/>
	<path fill="#C0D046" d="M847.391 672.148C876.24 671.304 905.296 672.018 934.173 671.963C930.011 677.277 901.634 713.865 899.631 715.022C899.299 715.213 898.885 715.201 898.513 715.29Q855.16 714.999 811.808 715.516C823.821 701.194 835.368 686.473 847.391 672.148Z"/>
	<path fill="#DAB540" d="M728.968 716.593L809.665 716.884C804.702 722.656 770.481 765.974 768.009 767.13C767.579 767.331 767.086 767.349 766.625 767.458C739.401 766.576 711.925 767.081 684.679 767.226C698.615 749.686 714.747 733.938 728.968 716.593Z"/>
	<path fill="#DCA43C" d="M720.589 313.172C726.035 312.795 731.99 314.008 736.905 316.362C746.127 320.779 750.953 328.054 754.288 337.433C736.068 343.032 718.283 351.664 700.838 359.334Q651.244 381.211 602.197 404.291L594.704 408.314C595.487 406.395 596.311 404.323 596.544 402.253C597.14 396.97 594.914 391.501 591.703 387.406C586.512 380.788 580.425 378.946 572.502 377.879C607.204 363.181 641.291 346.938 675.707 331.582C686.925 326.577 709.786 314.437 720.589 313.172Z"/>
	<path fill="#DF8D3C" d="M258.649 577.026C274.964 578.217 291.733 577.477 308.101 577.459L308.062 723.077C301.053 723.35 293.864 721.669 286.865 721.213C283.292 720.98 276.426 721.717 273.474 720.599C273.168 720.483 272.928 720.237 272.655 720.056C271.222 717.531 270.401 714.724 269.894 711.875C267.669 699.385 267.098 683.339 265.946 670.383Q261.601 623.759 258.649 577.026Z"/>
	<path fill="#DF8D3C" d="M498.989 576.517C506.549 578.5 508.969 576.461 515.921 576.673C530.548 577.12 544.371 578.007 559.107 577.606Q558.974 585.985 559.013 594.364L554.14 595.282C555.774 595.357 557.408 595.457 559.044 595.44L559.026 667.614C559.059 677.137 558.216 691.449 559.455 700.565Q559.396 711.836 559.477 723.107L498.988 723.038L498.97 702.912C503.219 702.941 507.57 703.057 511.782 702.46C507.516 702.058 503.23 702.156 498.951 702.178Q498.982 696.335 498.875 690.493C498.979 689.603 500.146 688.521 500.142 688.193C500.139 687.971 499.111 687.334 498.97 686.997C498.36 685.54 498.992 673.376 499.013 670.929Q512.724 670.158 526.452 670.512C536.058 670.741 545.892 671.55 555.451 670.309C536.708 668.525 517.793 669.251 499.014 670.076L499.078 644.252L499.127 643.674C498.906 638.431 498.991 633.18 499.018 627.933C506.188 627.845 552.121 629.324 554.005 628.438C542.182 626.063 529.367 627.137 517.392 627.381C511.265 627.505 505.151 627.184 499.033 627.623L499.002 614.211C508.333 614.621 546.385 616.934 552.92 614.853C543.508 612.822 532.32 614.035 522.682 613.976C514.789 613.927 506.892 613.353 499.003 613.608L498.953 596.93C501.087 596.952 503.221 597.008 505.352 596.886L498.969 596.144C498.97 589.604 498.897 583.056 498.989 576.517Z"/>
	<path fill="#E6733A" d="M499.127 643.674C503.822 642.372 509.106 641.373 513.954 640.839C519.063 640.276 541.385 639.37 545.435 641.324L545.474 641.944L544.978 641.559L544.768 642.331C544.513 642.27 544.263 642.186 544.003 642.148C541.756 641.816 538.963 642.27 536.629 642.254C532.254 642.223 527.812 641.973 523.446 642.281C519.003 642.594 514.634 643.685 510.195 644.137C506.452 644.518 502.815 644.231 499.078 644.252L499.127 643.674Z"/>
	<path fill="#DF8D3C" d="M559.937 577.551Q590.19 577.325 620.443 577.598C621.042 585.801 620.642 594.248 620.66 602.488L620.668 655.356L620.779 722.966L586 722.892C577.507 722.798 569.032 722.404 560.535 722.554Q560.625 712.74 560.571 702.925C568.327 702.945 576.391 703.085 584.086 702.074C576.374 701.618 568.224 701.843 560.507 702.282C560.456 699.188 559.532 691.698 560.93 689.25C563.598 688.195 566.838 688.377 569.683 688.251L560.078 688.174C560.766 683.713 560.376 678.894 560.332 674.379Q567.097 674.787 573.872 674.968C569.277 674.452 564.831 673.657 560.194 673.449L560.212 658.31Q566.695 658.339 573.177 658.204C568.803 657.649 564.49 657.563 560.09 657.509L560.066 642.633C563.185 642.485 566.244 642.408 569.365 642.528C566.318 641.942 563.157 641.95 560.062 641.813L560.094 627.065C565.621 626.746 571.677 628.083 577.041 626.692L560.11 626.519L560.135 610.468Q574.004 610.106 587.877 610.026C594.61 610.03 611.192 611.136 616.74 609.616C613.971 607.724 567.806 609.492 560.145 609.426L560.158 594.615C563.082 594.54 567.732 594.864 570.407 594.039C570.622 593.973 570.806 593.832 571.006 593.729C572.14 593.9 571.681 593.982 572.402 593.749C568.307 593.496 564.184 593.509 560.082 593.441L559.937 577.551Z"/>
	<path fill="#DF8D3C" d="M436.821 577.058C443.63 577.964 451.057 577.378 457.944 577.373Q477.956 577.436 497.966 577.19L497.968 655.328C497.96 669.749 497.412 684.43 498.103 698.822C497.541 706.748 498.023 715.053 498.019 723.014Q467.702 723.294 437.385 723.063Q437.181 712.535 437.19 702.004Q452.722 701.785 468.254 701.981C474.012 702.018 482.316 703.077 487.825 701.532C480.927 699.594 447.009 701.355 437.116 701.592C437.285 697.63 435.937 690.683 437.362 687.178C437.596 686.601 437.993 686.589 438.537 686.343C437.862 685.692 438.101 685.886 437.452 685.379C437.317 685.273 437.178 685.17 437.041 685.065C436.752 680.377 437.331 675.788 437.336 671.113C437.342 666.574 436.972 662.017 436.966 657.457L441.364 656.779L436.946 656.442L436.928 642.638C438.874 642.526 440.74 642.286 442.66 641.951C440.95 641.394 438.786 641.663 436.981 641.67L436.975 610.854C442.987 610.76 449.009 610.421 455.021 610.474C466.204 610.573 476.951 611.129 488.147 610.198C477.79 608.954 467.605 609.736 457.246 610.095C450.5 610.329 443.748 610.311 436.999 610.557C436.996 599.401 436.54 588.206 436.821 577.058Z"/>
	<path fill="#DF8D3C" d="M373.843 577.077Q404.703 577.297 435.563 577.181L435.823 594.655C423.384 592.846 410.816 591.387 398.266 592.729Q417.144 593.1 435.92 595.089C436.24 610.571 435.792 626.054 435.826 641.532L436.231 723.075L416.242 723.091L373.733 723.048L373.807 703.235Q379.225 703.051 384.639 702.777L383.732 702.897C381.278 701.854 376.689 702.221 373.925 702.09L373.935 689.801L379.748 689.78L373.946 689.697L373.925 678.565L381.642 677.867L373.969 677.384C373.92 673.101 373.104 666.91 374.428 662.871L376.551 662.709L376.458 663.05L375.961 662.576L375.029 662.452C373.073 660.303 373.873 654.253 373.929 651.362C375.576 651.367 377.221 651.272 378.866 651.2L373.962 651.09C374.017 646.905 373.479 642.697 373.849 638.527L375.095 637.782C374.204 634.865 373.145 630.236 373.967 627.281C374.695 627.074 375.369 626.884 376.051 626.546C376.2 626.472 376.345 626.388 376.491 626.31L376.375 626.69L376.074 625.639C375.348 625.534 374.746 625.372 374.048 625.159C373.297 622.579 372.952 614.924 374.105 612.524C374.993 612.359 375.31 612.289 376.087 611.774C375.135 611.302 374.45 610.919 373.705 610.157C373.279 606.275 373.065 601.387 373.698 597.529C373.883 596.403 373.902 595.383 373.863 594.242L373.843 593.767C375.695 591.815 390.712 593.401 394.52 592.684C387.74 591.658 380.482 592.195 373.613 592.188C373.604 587.158 373.472 582.095 373.843 577.077Z"/>
	<path fill="#DF8D3C" d="M356.617 577.259L372.569 577.057C372.63 582.657 373.087 588.576 372.271 594.121C371.3 594.917 369.826 594.469 368.588 594.389L368.459 594.666L369.393 595.329C370.591 595.424 371.431 595.376 372.422 596.127Q373.236 659.589 372.545 723.053L308.971 723.016L308.974 703.539C313.546 703.676 318.074 703.443 322.639 703.451L323.202 703.456L323.555 702.215L324.915 702.718L324.902 702.806C320.558 702.084 313.111 703.746 309.431 702.145C309.271 702.075 309.13 701.969 308.979 701.88L308.938 691.525L313.799 690.759L308.939 690.156C308.996 686.809 307.879 682.159 309.685 679.26C311.745 678.37 314.187 678.949 316.414 679.202C316.71 679.236 317.005 679.276 317.301 679.312L317.195 679.008C314.392 678.57 311.715 678.014 308.98 677.259L308.974 663.45C312.317 663.446 315.631 663.508 318.945 663.004C315.681 662.335 312.271 662.527 308.954 662.525L309.053 649.995C311.896 649.979 314.864 650.218 317.572 649.258L317.5 649.014L309.026 649.565C308.949 645.611 308.798 641.652 309.146 637.708C310.261 636.553 311.683 637.594 313.034 636.877L312.955 636.605L310.079 636.049C307.926 633.275 308.857 626.866 308.928 623.365L314.728 623.449L314.748 623.254L316.475 623.387C316.151 623.385 315.824 623.42 315.503 623.38C313.344 623.112 311.17 623.108 308.968 623.069L308.952 610.196L314.309 609.682L308.992 609.168C308.883 604.481 308.424 599.504 309.128 594.863C309.991 594.086 310.95 594.057 312.054 593.883L312.591 593.801L311.906 593.777L312.391 593.663C311.012 593.384 310.597 593.411 309.594 592.458C308.134 588.019 308.849 582.183 308.93 577.499L356.617 577.259Z"/>
	<path fill="#050100" d="M339.524 644.207C347.649 643.604 356.176 643.65 364.243 644.747C361.829 645.168 359.454 645.34 357.014 645.485C348.701 645.69 340.03 645.564 331.731 645.061Q335.624 644.603 339.524 644.207Z"/>
	<path fill="#C0D046" d="M324.593 351.991L352.958 351.968C353.576 364.416 354.042 377.277 355.926 389.599C358.052 417.958 377.72 421.281 380.884 435.085C383.181 445.107 381.722 480.119 381.533 492.293C381.454 497.399 380.741 503.246 381.711 508.227C383.145 506.622 382.929 502.673 382.974 500.511C383.137 500.462 383.302 500.417 383.464 500.365C393.325 497.22 404.233 485.76 415.49 490.25L415.989 491.03C411.714 493.999 406.996 496.738 403 500.06C393.376 508.061 385.645 520.295 381.422 531.986L343.88 532.005C351.267 516.372 359.934 502.955 375.734 494.692C357.931 485.021 348.095 469.633 339.633 451.821C335.4 469.775 320.458 484.796 305.236 494.249C318.981 499.974 330.229 514.798 335.797 528.228Q336.579 530.121 337.326 532.028L295.337 532.096C295.046 502.694 295.373 473.247 294.828 443.856C294.65 422.827 310.153 423.405 316.995 405.433C322.982 389.706 323.04 368.842 324.593 351.991Z"/>
	<path fill="#DCA43C" d="M765.047 475.779C768.118 477.433 770.535 479.453 772.742 482.148C777.408 487.845 779.585 494.85 778.701 502.212C777.912 508.789 775.266 515.288 769.993 519.501C759.498 523.291 749.231 527.974 738.944 532.308Q715.489 542.294 691.928 552.028C680.404 556.923 669.083 562.085 657.398 566.607C649.679 569.594 641.656 574.177 633.678 576.153C628.744 577.376 608.999 576.093 602.421 576.08Q576.195 576.018 549.97 576.269C539.137 576.326 527.461 576.96 516.717 575.592C519.911 573.285 522.902 571.129 525.263 567.91C528.499 563.497 529.561 558.209 531.766 553.302C534.577 547.047 537.88 541.148 540.497 534.762C544.492 535.149 548.765 534.875 552.788 534.876C562.528 534.877 572.261 534.633 582 534.586L612.922 534.577C618.357 534.577 624.508 535.156 629.815 534.077C640.361 531.934 657.511 523.076 667.914 518.431L733.73 489.147C744.071 484.635 754.452 479.617 765.047 475.779Z"/>
	<path fill="#DAB540" d="M255.086 576.111C255.76 576.286 256.871 576.582 257.26 577.235C258.296 578.974 258.712 598.986 258.945 602.554C260.596 627.868 263.248 653.281 265.539 678.553L267.306 698.502C267.692 703.408 267.744 708.632 268.768 713.448C269.586 717.295 271.226 720.443 274.013 723.234Q274.809 724.02 275.665 724.74Q276.522 725.46 277.433 726.108Q278.344 726.757 279.304 727.331Q280.265 727.905 281.268 728.4Q282.271 728.895 283.311 729.307Q284.35 729.72 285.42 730.049Q286.489 730.377 287.582 730.618Q288.674 730.86 289.782 731.013C300.665 732.426 312.674 731.448 323.67 731.394L389.554 731.116L630.443 730.948C623.523 736.054 617.782 743.282 612.122 749.705L596.915 766.901L255.207 766.966L255.086 576.111Z"/>
	<path fill="#DCA43C" d="M491.657 533.991C493.535 527.248 496.843 520.701 499.679 514.314Q506.268 499.597 512.703 484.811L538.72 425.401C543.371 414.749 547.549 402.937 553.36 392.917C555.885 388.562 559.231 384.998 563.616 382.485C568.045 379.946 573.729 378.481 578.784 379.808C584.777 381.381 590.082 386.058 593.047 391.406C595.176 395.246 596.195 399.746 594.957 404.045C593.076 410.573 589.251 416.981 586.508 423.207Q577.78 443.544 568.746 463.746C558.478 486.857 549.559 510.588 539.891 533.957C537.053 540.347 534.368 546.83 530.624 552.755C529.021 545.292 526.087 537.987 519.376 533.641C513.927 530.113 506.986 529.462 500.756 530.921C497.504 531.683 494.566 533.053 491.645 534.63C486.379 539.829 482.827 545.752 482.914 553.413C482.99 560.198 486.121 566.404 491.018 571.002C493.283 573.13 495.909 574.694 498.634 576.155C491.424 576.086 483.834 575.568 476.653 576.125L327.665 576.175L282.184 576.222C274.406 576.212 265.933 576.849 258.243 575.789C254.008 575.205 250.527 573.778 247.344 570.863C243.035 566.917 240.306 561.377 240.168 555.503Q240.156 554.971 240.17 554.438Q240.184 553.906 240.225 553.375Q240.266 552.844 240.333 552.315Q240.4 551.787 240.494 551.263Q240.587 550.739 240.707 550.22Q240.826 549.701 240.971 549.188Q241.116 548.676 241.287 548.171Q241.458 547.667 241.653 547.171Q241.848 546.676 242.068 546.191Q242.288 545.706 242.532 545.232Q242.776 544.759 243.043 544.298Q243.31 543.837 243.6 543.39Q243.89 542.943 244.201 542.512Q244.513 542.08 244.846 541.664Q245.178 541.248 245.531 540.849Q245.884 540.451 246.257 540.07C249.532 536.709 253.915 534.29 258.6 533.692C265.651 532.79 273.54 533.516 280.702 533.545L321.966 533.515L491.657 533.991Z"/>
	<path fill="#DAB540" d="M827.14 512.81C835.602 513.07 844.157 512.751 852.627 512.705L898.641 512.532L1023.07 512.562L1023.13 513.054C1022.47 555.652 1023.01 598.336 1022.97 640.946C1022.93 683.032 1022.29 725.236 1023.02 767.312C1014.95 766.332 1002.65 767.157 994.217 767.159Q963.397 767.078 932.578 767.319C940.105 758.253 948.097 749.502 955.757 740.539C967.569 726.715 979.163 712.698 991.107 698.986C998.059 691.005 1010.41 679.617 1015.23 670.949L886.87 671.02C886.17 661.107 886.516 651.021 886.514 641.083C900.473 639.89 913.427 638.319 925.8 631.197C938.889 623.662 948.195 612.028 952.142 597.483C940.878 595.448 929.053 597.396 918.567 601.797C903.79 607.999 893.163 618.2 887.063 632.982C886.404 618.126 886.697 602.846 886.976 587.97C890.613 587.067 893.892 585.986 897.047 583.864Q897.548 583.527 898.031 583.165Q898.515 582.804 898.98 582.419Q899.445 582.034 899.89 581.626Q900.335 581.218 900.76 580.789Q901.184 580.359 901.586 579.909Q901.989 579.459 902.368 578.989Q902.747 578.519 903.103 578.031Q903.458 577.543 903.789 577.038Q904.12 576.533 904.425 576.012Q904.731 575.491 905.01 574.956Q905.288 574.42 905.54 573.872Q905.792 573.323 906.016 572.762Q906.24 572.202 906.436 571.631Q906.632 571.06 906.8 570.48Q906.967 569.899 907.105 569.312Q907.243 568.724 907.352 568.13C908.299 562.656 906.837 557.191 903.587 552.721Q903.239 552.246 902.868 551.79Q902.498 551.333 902.105 550.895Q901.712 550.456 901.299 550.038Q900.885 549.62 900.451 549.222Q900.017 548.825 899.565 548.449Q899.112 548.073 898.641 547.72Q898.171 547.367 897.683 547.038Q897.196 546.708 896.693 546.403Q896.19 546.098 895.672 545.818Q895.155 545.537 894.625 545.283Q894.094 545.028 893.552 544.8Q893.009 544.572 892.456 544.371Q891.904 544.17 891.341 543.996Q890.779 543.822 890.209 543.676Q889.639 543.53 889.063 543.412Q888.487 543.294 887.905 543.205C881.968 542.329 876.243 543.924 871.565 547.674C866.673 551.595 863.256 557.469 862.741 563.76C862.275 569.436 864.408 575.748 868.167 580.016C872.411 584.835 878.773 587.191 885.072 587.49L885.709 587.515C885.699 603.037 886.02 618.619 885.405 634.129Q884.533 632.264 883.633 630.412C876.335 615.434 864.409 604.959 848.619 599.574C842.722 597.563 824.379 594.038 818.79 596.781C818.747 596.933 818.684 597.08 818.662 597.236C818.035 601.696 825.878 613.718 828.964 617.432C843.533 634.966 863.901 639.124 885.427 641.077Q885.333 656.042 885.538 671.005L759.673 671.014C761.438 640.766 764.646 610.474 767.331 580.293L770.577 544.041C771.273 536.278 771.778 528.285 773.021 520.602C773.25 519.191 773.598 518.05 774.356 516.817C775.208 515.432 775.926 513.966 776.691 512.53C793.513 512.595 810.31 512.89 827.14 512.81Z"/>
	<path fill="#DAB540" d="M0 512.899L254.504 512.491L254.611 532.923C247.564 537.189 241.576 541.516 239.553 550.035Q239.425 550.555 239.324 551.08Q239.223 551.606 239.148 552.135Q239.073 552.665 239.025 553.198Q238.977 553.731 238.955 554.266Q238.934 554.801 238.939 555.336Q238.944 555.871 238.977 556.405Q239.009 556.939 239.068 557.471Q239.127 558.003 239.212 558.531Q239.298 559.06 239.409 559.583Q239.521 560.106 239.659 560.624Q239.797 561.141 239.961 561.65Q240.124 562.16 240.313 562.66Q240.502 563.161 240.716 563.651Q240.93 564.142 241.168 564.621Q241.406 565.101 241.668 565.567Q241.93 566.034 242.215 566.487C245.161 571.17 249.148 573.853 253.946 576.287L254.044 766.959L86.3229 766.888C57.5643 766.869 28.754 767.154 0 766.785L0 512.899Z"/>
	<path fill="#C0D046" d="M108.088 615.255C105.167 609.884 104.727 603.059 102.642 597.289C101.306 593.592 99.7722 579.508 101.25 575.599C102.067 573.437 102.739 571.203 103.703 569.1C105.943 564.212 110.389 559.846 115.519 558.115C120.121 556.562 124.989 557.144 129.241 559.426C134.666 562.338 138.672 567.902 140.304 573.779C142.675 582.312 139.899 604.326 135.829 611.789C133.255 613.695 132.56 618.138 129.82 620.515C123.244 617.44 117.989 618.1 111.297 620.459C109.653 618.907 109.902 616.466 108.088 615.255Z"/>
	<path fill="#C0D046" d="M113.075 659.549C118.208 658.255 122.648 661.459 129.842 658.056C131.962 659.722 134.217 667.195 135.859 667.39C139.141 678.785 144.053 693.729 140.886 705.441C139.268 711.424 135.224 716.784 129.731 719.717C125.136 722.171 119.871 722.781 114.916 721.076C109.769 719.304 105.755 715.369 103.408 710.51C97.1424 697.539 102.42 679.332 106.632 666.385L107.421 666.452C108.3 663.905 108.957 662.017 110.844 660.026C111.438 659.931 112.012 659.827 112.596 659.678C112.756 659.637 112.915 659.592 113.075 659.549Z"/>
	<path fill="#E6733A" d="M135.829 611.789C136.01 611.65 136.193 611.515 136.371 611.373C138.648 609.562 140.639 606.434 142.491 604.169C151.272 593.435 160.638 581.128 176.292 582.87C182.634 583.575 187.146 587.046 190.895 591.994C193.898 595.956 194.654 600.126 193.878 605.047C192.765 612.101 188.749 617.246 183.049 621.229C173.329 628.022 160.358 632.718 149.52 637.468C148.326 637.992 145.126 638.695 144.366 639.365C144.155 639.552 144.059 639.839 143.905 640.076C146.355 642.161 151.346 643.13 154.395 644.226C168.428 649.273 192.631 657.627 194.34 674.998C194.857 680.258 192.766 685.311 189.288 689.191C185.047 693.922 179.034 696.393 172.725 696.517C164.071 696.688 157.482 691.945 151.609 686.13C145.727 680.305 141.358 673.467 135.859 667.39C134.217 667.195 131.962 659.722 129.842 658.056Q130.367 657.855 130.883 657.632Q131.332 657.436 131.771 657.218Q132.21 657 132.637 656.76Q133.064 656.52 133.478 656.259Q133.893 655.997 134.293 655.715Q134.694 655.433 135.08 655.131Q135.466 654.829 135.836 654.508Q136.206 654.187 136.559 653.847Q136.912 653.507 137.248 653.15Q137.583 652.793 137.9 652.42Q138.217 652.046 138.515 651.657Q138.812 651.268 139.09 650.864Q139.368 650.46 139.624 650.043Q139.881 649.625 140.116 649.196Q140.351 648.766 140.565 648.325Q140.778 647.883 140.968 647.432Q141.159 646.981 141.326 646.52Q141.501 646.042 141.651 645.555Q141.801 645.069 141.927 644.575Q142.052 644.082 142.153 643.583Q142.253 643.084 142.328 642.58Q142.403 642.077 142.453 641.57Q142.502 641.063 142.526 640.555Q142.55 640.046 142.548 639.537Q142.546 639.028 142.519 638.519Q142.491 638.011 142.438 637.505Q142.385 636.998 142.306 636.495Q142.227 635.992 142.123 635.494Q142.019 634.996 141.89 634.503Q141.761 634.011 141.607 633.525Q141.453 633.04 141.275 632.563Q141.097 632.086 140.894 631.619Q140.692 631.151 140.467 630.695C138.453 626.511 134.286 622.116 129.82 620.515C132.56 618.138 133.255 613.695 135.829 611.789Z"/>
	<path fill="#E6733A" d="M106.632 666.385C103.116 669.462 96.8826 679.611 92.7917 684.13C87.2145 690.292 79.9617 696.213 71.2666 696.486C65.4886 696.667 58.0794 694.179 53.9783 689.99C50.5575 686.496 48.9734 681.504 49.0707 676.673C49.3823 661.206 65.2113 654.995 77.042 649.758C79.8782 648.502 82.5508 646.615 85.3515 645.483C89.3516 643.867 95.261 643.389 98.3712 640.389C98.7875 638.205 95.6489 637.803 94.0244 637.38C91.58 636.744 89.0419 636.203 86.6766 635.307C84.9928 634.668 83.549 633.487 81.9061 632.717C73.8782 628.952 64.8264 625.719 57.7071 620.365C55.4368 618.657 53.5417 616.617 52.0688 614.182C49.1169 609.302 48.0248 603.318 49.5305 597.775Q49.6604 597.291 49.8142 596.815Q49.9679 596.338 50.1451 595.87Q50.3223 595.401 50.5224 594.942Q50.7226 594.483 50.9453 594.035Q51.168 593.586 51.4126 593.149Q51.6573 592.712 51.9233 592.288Q52.1893 591.864 52.476 591.453Q52.7627 591.043 53.0694 590.647Q53.3761 590.251 53.7021 589.871Q54.028 589.491 54.3724 589.127Q54.7168 588.764 55.0788 588.418Q55.4408 588.072 55.8195 587.744Q56.1982 587.416 56.5927 587.108Q56.9872 586.799 57.3965 586.511Q57.8058 586.222 58.2289 585.954Q58.652 585.687 59.0878 585.44C84.1576 571.38 102.195 613.667 108.088 615.255C109.902 616.466 109.653 618.907 111.297 620.459C117.989 618.1 123.244 617.44 129.82 620.515C134.286 622.116 138.453 626.511 140.467 630.695Q140.692 631.151 140.894 631.619Q141.097 632.086 141.275 632.563Q141.453 633.04 141.607 633.525Q141.761 634.011 141.89 634.503Q142.019 634.996 142.123 635.494Q142.227 635.992 142.306 636.495Q142.385 636.998 142.438 637.505Q142.491 638.011 142.519 638.519Q142.546 639.028 142.548 639.537Q142.55 640.046 142.526 640.555Q142.502 641.063 142.453 641.57Q142.403 642.077 142.328 642.58Q142.253 643.084 142.153 643.583Q142.052 644.082 141.927 644.575Q141.801 645.069 141.651 645.555Q141.501 646.042 141.326 646.52Q141.159 646.981 140.968 647.432Q140.778 647.883 140.565 648.325Q140.351 648.766 140.116 649.196Q139.881 649.625 139.624 650.043Q139.368 650.46 139.09 650.864Q138.812 651.268 138.515 651.657Q138.217 652.046 137.9 652.42Q137.583 652.793 137.248 653.15Q136.912 653.507 136.559 653.847Q136.206 654.187 135.836 654.508Q135.466 654.829 135.08 655.131Q134.694 655.433 134.293 655.715Q133.893 655.997 133.478 656.259Q133.064 656.52 132.637 656.76Q132.21 657 131.771 657.218Q131.332 657.436 130.883 657.632Q130.367 657.855 129.842 658.056C122.648 661.459 118.208 658.255 113.075 659.549C112.915 659.592 112.756 659.637 112.596 659.678C112.012 659.827 111.438 659.931 110.844 660.026C108.957 662.017 108.3 663.905 107.421 666.452L106.632 666.385Z"/>
	<path fill="#DAB540" d="M111.297 620.459C117.989 618.1 123.244 617.44 129.82 620.515C134.286 622.116 138.453 626.511 140.467 630.695Q140.692 631.151 140.894 631.619Q141.097 632.086 141.275 632.563Q141.453 633.04 141.607 633.525Q141.761 634.011 141.89 634.503Q142.019 634.996 142.123 635.494Q142.227 635.992 142.306 636.495Q142.385 636.998 142.438 637.505Q142.491 638.011 142.519 638.519Q142.546 639.028 142.548 639.537Q142.55 640.046 142.526 640.555Q142.502 641.063 142.453 641.57Q142.403 642.077 142.328 642.58Q142.253 643.084 142.153 643.583Q142.052 644.082 141.927 644.575Q141.801 645.069 141.651 645.555Q141.501 646.042 141.326 646.52Q141.159 646.981 140.968 647.432Q140.778 647.883 140.565 648.325Q140.351 648.766 140.116 649.196Q139.881 649.625 139.624 650.043Q139.368 650.46 139.09 650.864Q138.812 651.268 138.515 651.657Q138.217 652.046 137.9 652.42Q137.583 652.793 137.248 653.15Q136.912 653.507 136.559 653.847Q136.206 654.187 135.836 654.508Q135.466 654.829 135.08 655.131Q134.694 655.433 134.293 655.715Q133.893 655.997 133.478 656.259Q133.064 656.52 132.637 656.76Q132.21 657 131.771 657.218Q131.332 657.436 130.883 657.632Q130.367 657.855 129.842 658.056C122.648 661.459 118.208 658.255 113.075 659.549C109.29 657.575 106.273 655.684 103.627 652.238Q103.311 651.819 103.016 651.384Q102.722 650.95 102.451 650.5Q102.179 650.051 101.931 649.588Q101.683 649.126 101.46 648.651Q101.236 648.176 101.037 647.69Q100.838 647.204 100.665 646.709Q100.491 646.213 100.343 645.709Q100.196 645.206 100.074 644.695Q99.9524 644.184 99.8574 643.668Q99.7624 643.152 99.6941 642.631Q99.6259 642.111 99.5846 641.587Q99.5433 641.064 99.529 640.539Q99.5148 640.014 99.5277 639.49Q99.5405 638.965 99.5805 638.441Q99.6204 637.918 99.6873 637.397Q99.7542 636.877 99.8479 636.36C101.139 629.092 105.529 624.545 111.297 620.459Z"/>
	<path fill="#DAB540" d="M0 257.026L254.518 257.023L254.495 405.18C254.5 440.51 254.941 475.898 254.495 511.222L72.3884 511.154C48.3039 511.143 24.0673 511.853 0 511.349L0 257.026Z"/>
	<path fill="#C0D046" d="M111.772 333.208C110.082 332.838 109.003 331.498 107.77 330.377C103.367 326.373 99.7742 320.288 97.9937 314.581C96.6566 310.296 96.0225 305.704 98.3014 301.607Q98.5691 301.127 98.8846 300.677Q99.2002 300.226 99.5603 299.811Q99.9203 299.396 100.321 299.019Q100.722 298.643 101.159 298.31Q101.597 297.977 102.066 297.69Q102.535 297.404 103.031 297.167Q103.527 296.93 104.045 296.745Q104.563 296.561 105.097 296.43C108.826 295.488 112.764 296.253 116.008 298.27C125.904 304.426 130.168 321.574 132.561 332.351C132.086 332.79 131.72 333.389 131.136 333.667C129.517 334.439 116.571 333.732 114.294 333.664C113.376 333.636 112.644 333.468 111.772 333.208Z"/>
	<path fill="#C0D046" d="M132.828 333.043C132.97 332.898 133.119 332.759 133.253 332.606C135.447 330.091 136.721 326.751 138.845 324.118C146.569 314.539 160.714 301.706 173.506 300.318C176.623 299.98 180.781 300.424 183.26 302.53C184.864 303.893 185.556 305.893 185.661 307.95C185.964 313.933 182.201 316.934 179.248 321.579C176.614 325.723 163.673 336.54 159.337 338.333C156.316 338.381 139.233 352.098 133.967 354.293C131.677 355.248 129.888 355.394 127.583 354.494C122.079 348.609 134.119 339.355 132.828 333.043Z"/>
	<path fill="#E6733A" d="M111.772 333.208C112.644 333.468 113.376 333.636 114.294 333.664C116.571 333.732 129.517 334.439 131.136 333.667C131.72 333.389 132.086 332.79 132.561 332.351L132.828 333.043C134.119 339.355 122.079 348.609 127.583 354.494C129.888 355.394 131.677 355.248 133.967 354.293C139.233 352.098 156.316 338.381 159.337 338.333C159.984 338.99 159.681 338.77 160.466 339.229C160.894 339.48 161.327 339.719 161.753 339.971C177.882 349.496 186.97 361.258 191.608 379.61C195.699 395.799 192.648 414.228 184.009 428.437C176.674 440.504 165.367 450.985 152.064 456.109C147.35 457.925 142.136 458.963 137.219 460.102C124.087 463.143 105.889 459.123 94.5681 452.04C77.9699 441.655 67.9112 429.415 63.5577 409.943C59.7393 392.864 63.0417 375.799 72.5053 361.152C79.2962 350.642 89.7441 341.764 101.409 337.082C103.024 336.434 104.719 336.227 106.353 335.698C107.823 335.222 109.148 334.5 110.675 334.198C110.955 334.143 111.236 334.096 111.517 334.045L111.772 333.208Z"/>
	<path fill="#C0D046" d="M0 768.027L253.994 768.068L254.028 932.142L254.145 994.549C254.213 1004.09 254.03 1013.75 254.457 1023.28C245.996 1022.36 236.845 1023.02 228.328 1023.04L177.539 1023.11L0 1023.02L0 768.027Z"/>
	<path fill="#E6733A" d="M203.584 815.908C204.121 815.787 204.519 816.211 204.982 816.479C205.035 816.706 205.096 816.931 205.142 817.16C206.731 825.031 200.123 840.701 195.872 847.375C184.318 865.512 169.436 869.107 149.753 873.469L148.726 872.919C148.539 872.358 148.495 872.32 148.447 871.632C148.314 869.697 148.976 867.086 149.311 865.168C150.986 855.578 154.142 846.356 160.235 838.624C170.154 826.038 187.831 817.702 203.584 815.908Z"/>
	<path fill="#E6733A" d="M148.736 918.044C154.693 919.075 160.789 920.225 166.483 922.293C180.114 927.244 192.435 937.027 198.861 950.293C200.459 953.59 201.121 957.34 202.75 960.605C205.039 965.19 204.942 971.447 205.402 976.548C204.73 976.953 204.408 977.091 203.62 977.08C191.709 976.914 173.015 967.413 164.527 958.848C153.73 947.955 148.739 933.202 148.736 918.044Z"/>
	<path fill="#E6733A" d="M105.735 918.634L106.881 919.129C107.332 920.227 107.283 920.947 107.113 922.108C105.211 935.1 102.064 946.132 93.1859 956.249C83.0916 967.754 67.6816 975.566 52.3735 976.545C51.7056 976.623 51.199 976.498 50.5433 976.377C50.1538 975.782 49.8864 975.28 49.832 974.554C49.6743 972.45 50.3364 970.351 50.7133 968.299C52.6333 957.845 56.1806 947.878 63.0072 939.568C74.0295 926.15 88.799 920.339 105.735 918.634Z"/>
	<path fill="#E6733A" d="M49.8365 814.385C63.4094 816.28 76.4157 820.556 87.0613 829.451C101.666 841.655 105.888 853.626 107.476 872.087L107.239 873.558C106.829 873.752 106.599 873.9 106.099 873.918C104.45 873.978 102.191 873.228 100.567 872.879C91.0231 870.829 81.2579 867.853 73.2888 862.017C65.9229 856.623 60.5856 849.573 56.1537 841.687C55.3312 840.223 54.0666 838.342 53.8615 836.656C52.9433 829.105 49.6345 822.236 49.8365 814.385Z"/>
	<path fill="#DAB540" d="M255.861 0.689073C275.495 1.58822 295.375 1.002 315.034 0.998381L422.583 0.927021L480.524 1.01315C490.145 1.02809 500.772 1.9525 510.269 0.569857C509.048 8.13828 509.935 17.1717 509.942 24.87L509.988 75.9905L510.051 256.095C480.907 255.537 451.672 256.006 422.518 256.004L255.811 256.008C256.5 195.59 255.804 135.091 255.873 74.661L255.812 27.7073C255.763 18.7811 255.202 9.58724 255.861 0.689073Z"/>
	<path fill="#050100" d="M376.268 75.6527C381.722 75.2107 388.102 77.3283 392.331 80.692Q392.752 81.0304 393.156 81.3891Q393.56 81.7477 393.946 82.1257Q394.332 82.5037 394.699 82.9001Q395.066 83.2965 395.413 83.7104Q395.76 84.1242 396.087 84.5546Q396.413 84.985 396.718 85.4308Q397.023 85.8766 397.306 86.3368Q397.589 86.7971 397.849 87.2706Q398.109 87.7441 398.346 88.2297Q398.582 88.7154 398.795 89.212Q399.007 89.7087 399.195 90.2151Q399.383 90.7216 399.546 91.2366Q399.709 91.7517 399.846 92.2741Q399.984 92.7964 400.096 93.3249Q400.208 93.8534 400.294 94.3868Q400.379 94.9201 400.439 95.457Q400.5 96.0068 400.533 96.5588Q400.565 97.1109 400.571 97.664Q400.576 98.217 400.554 98.7696Q400.531 99.3223 400.481 99.8731Q400.431 100.424 400.354 100.971Q400.276 101.519 400.172 102.062Q400.067 102.605 399.935 103.142Q399.803 103.68 399.645 104.209Q399.486 104.739 399.301 105.261Q399.117 105.782 398.906 106.293Q398.695 106.805 398.459 107.305Q398.223 107.805 397.963 108.293Q397.702 108.78 397.417 109.255Q397.132 109.729 396.824 110.188Q396.516 110.647 396.185 111.091Q395.855 111.534 395.502 111.96C391.138 117.314 385.643 119.429 379.01 120.254Q378.921 143.307 379.15 166.357C380.075 164.168 381.008 161.978 382.081 159.857C389.175 145.845 400.502 135.165 415.648 130.33C421.478 128.47 437.949 126.411 443.048 129.287C443.975 129.81 444.427 130.278 444.55 131.39C445.214 137.364 435.443 150.624 431.22 154.877C416.902 169.299 398.37 172.061 378.99 172.032C378.751 186.092 378.962 200.185 378.983 214.248L379.753 214.519L378.708 214.655C378.718 214.938 378.732 215.525 378.77 215.778C378.946 216.948 378.955 217.503 378.707 218.705L377.987 218.756Q377.837 195.461 377.949 172.165C358.825 172.499 341.519 170.107 326.611 157.038C318.383 149.824 313.038 140.983 312.281 129.963C323.737 126.944 335.768 128.563 346.622 133.13C362.425 139.779 372.225 153.351 378.436 168.814C377.649 162.748 378.003 156.353 378.001 150.232L378.014 120.573C373.4 119.919 369.248 118.99 365.264 116.394C360.384 113.214 356.713 108.157 355.582 102.407C354.415 96.4747 355.897 90.1047 359.406 85.2019C363.537 79.4292 369.424 76.6604 376.268 75.6527Z"/>
	<path fill="#E6733A" d="M376.528 76.6475C381.169 76.1953 386.686 77.9256 390.465 80.5385Q390.905 80.8431 391.329 81.1699Q391.752 81.4967 392.159 81.8448Q392.565 82.193 392.953 82.5616Q393.341 82.9302 393.709 83.3182Q394.078 83.7063 394.426 84.1128Q394.774 84.5193 395.1 84.9432Q395.427 85.3671 395.731 85.8072Q396.036 86.2473 396.317 86.7024Q396.599 87.1576 396.856 87.6267Q397.114 88.0957 397.347 88.5774Q397.58 89.0591 397.788 89.5521Q397.996 90.0451 398.178 90.5482Q398.361 91.0512 398.517 91.563Q398.673 92.0748 398.803 92.594Q398.933 93.1131 399.035 93.6382Q399.138 94.1634 399.214 94.6931C400.077 100.469 398.724 106.407 395.137 111.055C391.077 116.316 385.621 118.485 379.235 119.313C374.369 119.402 369.374 118.064 365.356 115.284Q364.934 114.995 364.527 114.686Q364.12 114.376 363.728 114.047Q363.336 113.719 362.961 113.371Q362.586 113.023 362.229 112.657Q361.871 112.292 361.532 111.909Q361.193 111.526 360.873 111.127Q360.553 110.728 360.253 110.314Q359.953 109.9 359.674 109.471Q359.394 109.043 359.136 108.601Q358.878 108.16 358.642 107.706Q358.406 107.252 358.193 106.788Q357.979 106.323 357.789 105.848Q357.599 105.373 357.432 104.89Q357.265 104.407 357.122 103.916Q356.979 103.425 356.86 102.927Q356.741 102.43 356.647 101.927Q356.557 101.393 356.493 100.855Q356.43 100.318 356.394 99.7773Q356.357 99.237 356.348 98.6956Q356.339 98.1542 356.357 97.613Q356.375 97.0718 356.421 96.5322Q356.466 95.9926 356.538 95.456Q356.61 94.9194 356.71 94.387Q356.809 93.8547 356.935 93.3281Q357.061 92.8014 357.213 92.2817Q357.365 91.762 357.543 91.2507Q357.721 90.7393 357.924 90.2375Q358.128 89.7357 358.356 89.2448Q358.585 88.7538 358.838 88.275Q359.091 87.7962 359.367 87.3307Q359.644 86.8652 359.943 86.4141Q360.243 85.9631 360.565 85.5277C364.552 80.078 370.077 77.7023 376.528 76.6475Z"/>
	<path fill="#C0D046" d="M427.351 129.203C431.378 128.845 438.305 128.598 442.06 130.213C443.01 130.622 442.857 130.744 443.252 131.614C442.899 137.206 438.535 144.336 435.21 148.778C425.633 161.573 411.09 168.071 395.615 170.369C390.341 170.92 385.02 171.074 379.725 171.326C381.622 162.666 384.882 155.414 390.52 148.497C399.698 137.24 413.01 130.597 427.351 129.203Z"/>
	<path fill="#C0D046" d="M322.481 129.213C333.149 129.627 344.014 131.928 353.186 137.601C365.014 144.915 374.043 157.549 377.263 171.021L369.259 171.069C353.729 171.096 338.975 166.468 327.236 156.083C319.727 149.441 313.933 140.961 313.331 130.723C316.407 129.921 319.316 129.484 322.481 129.213Z"/>
	<path fill="#C0D046" d="M767.077 257.172C796.713 256.255 826.608 257.028 856.268 257.041L1022.96 257.049C1022.98 266.427 1022.77 275.87 1023.07 285.239C1024.54 279.934 1022.22 261.586 1024 258.674L1024 513.456L1023.13 513.054L1023.07 512.562L1023.21 511.27C994.055 510.363 964.631 511.063 935.452 511.045C902.858 511.026 869.995 510.379 837.424 511.531C830.192 511.027 822.645 511.449 815.377 511.46Q796.363 511.537 777.353 511.182C779.512 505.389 780.854 499.741 779.645 493.544C778.16 485.937 773.268 479.729 766.999 475.436L767.077 257.172Z"/>
	<path fill="#F8EEC4" d="M1024 258.674L1024 513.456L1023.13 513.054L1023.07 512.562L1023.21 511.27C1022.57 499.292 1023.07 487.087 1023.06 475.082L1023.05 403.439L1022.98 326.22C1022.96 312.603 1022.47 298.832 1023.07 285.239C1024.54 279.934 1022.22 261.586 1024 258.674Z"/>
	<path fill="#DAB540" d="M832.223 300.352C849.105 316.313 871.847 322.297 894.638 321.919C915.724 321.569 941.004 315.908 956.238 300.257L956.741 415.103L956.738 447.354C956.741 452.718 957.09 458.228 956.692 463.568L956.066 463.571C943.286 450.135 924.031 442.286 905.799 440.28C874.496 436.834 856.174 444.342 832.211 463.667L832.223 300.352Z"/>
	<path fill="#E6733A" d="M894.316 352.14C895.058 352.71 895.05 352.533 895.357 353.185C905.229 374.082 904.73 369.878 923.045 380.948L922.878 381.698C918.727 382.478 914.503 384.968 911.047 387.357C905.496 391.193 902.675 395.443 899.285 401.14C898.206 402.953 896.634 404.732 896.267 406.843C895.993 408.414 895.713 410.587 894.585 411.764C893.721 410.845 893.835 410.52 893.604 409.321C889.945 400.78 882.337 392.231 874.347 387.478C870.453 385.161 865.975 383.465 861.836 381.618L861.906 381.014C865.591 380.326 868.899 378.956 872.189 377.202C882.406 371.754 890.89 363.377 894.316 352.14Z"/>
	<path fill="#E6733A" d="M0 0L254.656 0L254.389 0.654353C255.351 43.2082 254.453 85.8659 254.477 128.435C254.5 170.925 255.427 213.55 254.555 256.024L88.522 255.998C59.0268 256.004 29.4914 255.712 0 256.066L0 0.825438L0 0Z"/>
	<path fill="#FBD8BB" d="M0 0L254.656 0L254.389 0.654353C247.525 1.95143 239.085 0.989867 232.004 0.970342L184.476 0.897013C123 0.922526 61.4665 1.5984 0 0.825438L0 0Z"/>
	<path fill="#C0D046" d="M120.814 43.2491C130.285 43.0211 138.608 45.3733 145.615 51.9749C153.078 59.0068 155.764 67.1189 156.083 77.1968Q157.659 75.7875 159.414 74.6102Q161.17 73.433 163.072 72.5105C170.039 69.0993 177.417 68.358 184.818 70.9731Q185.609 71.2529 186.386 71.5709Q187.163 71.889 187.923 72.2445Q188.684 72.6001 189.426 72.9923Q190.168 73.3845 190.89 73.8124Q191.612 74.2403 192.312 74.7029Q193.013 75.1655 193.69 75.6618Q194.367 76.158 195.019 76.6866Q195.671 77.2152 196.296 77.775Q196.922 78.3348 197.519 78.9245Q198.116 79.5141 198.684 80.1322Q199.252 80.7502 199.789 81.3952Q200.327 82.0402 200.832 82.7107Q201.337 83.3811 201.808 84.0754Q202.28 84.7697 202.717 85.4861Q203.155 86.2025 203.557 86.9394Q203.959 87.6764 204.324 88.432C208.017 96.2472 209.019 104.597 206.063 112.806C204.067 118.347 198.307 127.321 192.788 129.772C191.891 130.17 191.634 130.261 191.041 131.007L191.568 131.623C192.488 131.869 193.417 132.126 194.301 132.486C200.905 135.171 206.872 141.551 209.639 148.057C212.931 155.801 212.762 165.169 209.643 172.932C206.536 180.668 199.683 187.316 192.035 190.533C181.414 195 171.947 192.889 161.708 188.644C163.139 196.17 161.435 203.894 157.328 210.307C152.384 218.027 145.381 222.484 136.49 224.388C134.934 224.713 133.385 224.88 131.798 224.988Q130.999 225.039 130.198 225.051Q129.397 225.063 128.596 225.034Q127.796 225.006 126.998 224.938Q126.2 224.87 125.406 224.763Q124.612 224.655 123.825 224.508Q123.037 224.361 122.258 224.175Q121.479 223.989 120.71 223.764Q119.941 223.54 119.185 223.277Q118.428 223.015 117.685 222.715Q116.942 222.415 116.215 222.079Q115.488 221.742 114.779 221.37Q114.07 220.998 113.38 220.591Q112.69 220.184 112.021 219.743Q111.352 219.303 110.706 218.829Q110.06 218.356 109.439 217.85Q108.817 217.345 108.221 216.81C100.622 210.003 98.0076 201.368 97.3949 191.474C95.8308 192.663 94.2725 193.721 92.5374 194.64Q91.8393 195.011 91.1233 195.345Q90.4073 195.68 89.6753 195.978Q88.9433 196.276 88.1971 196.536Q87.4509 196.797 86.6925 197.019Q85.934 197.241 85.1653 197.425Q84.3966 197.609 83.6196 197.753Q82.8425 197.898 82.0592 198.003Q81.2758 198.107 80.4882 198.172Q79.7005 198.238 78.9106 198.263Q78.1206 198.288 77.3304 198.273Q76.5402 198.258 75.7518 198.203Q74.9633 198.148 74.1787 198.053Q73.3941 197.958 72.6153 197.823Q71.8364 197.689 71.0654 197.515Q70.2944 197.341 69.5332 197.129Q68.772 196.916 68.0226 196.665Q67.2298 196.393 66.4515 196.082Q65.6732 195.771 64.9112 195.421Q64.1493 195.072 63.4055 194.685Q62.6618 194.299 61.9381 193.876Q61.2145 193.453 60.5126 192.994Q59.8108 192.536 59.1326 192.044Q58.4543 191.551 57.8012 191.026Q57.1482 190.5 56.522 189.943Q55.8958 189.386 55.2979 188.798Q54.7001 188.211 54.132 187.594Q53.564 186.978 53.0272 186.334Q52.4904 185.69 51.9862 185.021Q51.4819 184.351 51.0115 183.658Q50.541 182.964 50.1054 182.248Q49.6699 181.532 49.2704 180.795Q48.8708 180.058 48.5083 179.302C44.5552 171.149 44.3807 162.211 47.4588 153.727C49.2992 148.654 54.3653 141.039 59.3895 138.835C60.3186 138.428 60.8741 138.035 61.6194 137.316L60.9998 136.661C60.0919 136.518 59.387 136.316 58.5508 135.909C52.2075 132.825 46.5546 125.828 44.2177 119.334C41.3253 111.298 41.3477 102.183 45.1714 94.4542C49.0684 86.5771 56.1086 80.8266 64.4235 78.1658C74.0408 75.0883 82.5193 76.6918 91.3607 81.3155C90.7298 71.9132 91.1786 64.2719 96.9379 56.4597C102.913 48.3542 111.106 44.7925 120.814 43.2491Z"/>
	<path fill="#DAB540" d="M123.873 96.7497C132.997 96.7102 141.242 98.6933 148.616 104.214C156.47 110.094 162.194 119.049 163.545 128.829Q163.683 129.771 163.775 130.719Q163.866 131.667 163.91 132.618Q163.954 133.569 163.95 134.521Q163.946 135.473 163.895 136.424Q163.844 137.375 163.746 138.322Q163.647 139.269 163.502 140.21Q163.356 141.151 163.164 142.084Q162.971 143.016 162.733 143.938Q162.494 144.86 162.21 145.769Q161.926 146.677 161.596 147.571Q161.267 148.464 160.894 149.34Q160.521 150.216 160.104 151.072Q159.687 151.929 159.229 152.763Q158.77 153.597 158.27 154.408Q157.77 155.218 157.231 156.003Q156.691 156.787 156.113 157.544C149.946 165.516 140.43 170.501 130.501 171.733C120.569 172.126 111.651 170.303 103.582 164.164C95.6629 158.138 90.3702 148.731 89.076 138.881C87.8203 129.324 90.579 118.915 96.496 111.291C103.753 101.94 112.423 98.2499 123.873 96.7497Z"/>
	<path fill="#DAB540" d="M1022.96 0L1024 0L1024 258.674C1022.22 261.586 1024.54 279.934 1023.07 285.239C1022.77 275.87 1022.98 266.427 1022.96 257.049L1023.12 256.009C989.102 255.339 954.954 255.915 920.928 255.928L767.499 255.988L767.906 84.7413L768.018 29.3584C768.036 19.7851 768.685 9.65864 767.732 0.156742C775.174 2.20574 798.13 1.02545 806.865 1.0179L884.976 0.994121L973.622 0.973022C989.877 0.988029 1006.6 1.77203 1022.81 0.731735L1022.96 0Z"/>
	<path fill="#FAFCDE" d="M1022.96 0L1024 0L1024 258.674C1022.22 261.586 1024.54 279.934 1023.07 285.239C1022.77 275.87 1022.98 266.427 1022.96 257.049L1023.12 256.009C1022.53 249.39 1022.95 242.412 1022.97 235.754L1023.02 198.08L1022.97 65.6997L1023 24.6425C1023.01 16.7221 1023.36 8.63144 1022.81 0.731735L1022.96 0Z"/>
	<path fill="#E6733A" d="M914.472 102.223C914.655 102.082 914.843 101.946 915.023 101.799C917.372 99.8821 919.512 94.3122 921.122 91.5669C927.79 80.1897 940.003 64.2707 954.789 64.9486Q955.294 64.9721 955.797 65.0208Q956.299 65.0695 956.799 65.1432Q957.299 65.2169 957.794 65.3156Q958.29 65.4142 958.78 65.5375Q959.27 65.6607 959.753 65.8083Q960.236 65.9559 960.711 66.1274Q961.186 66.2989 961.652 66.494Q962.118 66.689 962.574 66.9071Q963.03 67.1252 963.474 67.3658Q963.918 67.6064 964.349 67.8689Q964.781 68.1314 965.199 68.4151Q965.617 68.6988 966.02 69.0031Q966.424 69.3073 966.811 69.6314Q967.199 69.9554 967.57 70.2984Q967.941 70.6413 968.294 71.0024Q968.647 71.3635 968.982 71.7418C972.426 75.59 974.696 80.6755 974.379 85.9036Q974.35 86.3789 974.297 86.8522Q974.244 87.3254 974.168 87.7955Q974.091 88.2656 973.992 88.7312Q973.892 89.1969 973.77 89.6571Q973.647 90.1173 973.502 90.5708Q973.357 91.0243 973.189 91.4701Q973.021 91.9158 972.832 92.3527Q972.642 92.7895 972.432 93.2165Q972.22 93.6434 971.989 94.0593Q971.757 94.4752 971.504 94.8791Q971.252 95.283 970.98 95.6738Q970.708 96.0647 970.417 96.4415Q970.126 96.8184 969.816 97.1803Q969.507 97.5422 969.18 97.8884Q968.852 98.2345 968.509 98.5639Q968.165 98.8933 967.805 99.2053C957.002 108.55 937.459 113.952 923.738 117.23C923.704 117.04 923.673 116.85 923.637 116.661C922.482 110.651 918.915 105.975 913.863 102.604L914.472 102.223Z"/>
	<path fill="#E6733A" d="M890.89 138.331C888.245 141.803 886.474 146.026 884.29 149.811C879.468 158.165 872.093 167.418 863.836 172.604C858.28 176.094 851.47 177.798 844.993 176.207Q844.513 176.093 844.04 175.955Q843.566 175.817 843.1 175.656Q842.634 175.494 842.177 175.31Q841.719 175.125 841.272 174.917Q840.825 174.71 840.388 174.48Q839.952 174.251 839.527 174Q839.103 173.748 838.692 173.476Q838.281 173.204 837.884 172.911Q837.486 172.619 837.105 172.307Q836.723 171.994 836.357 171.663Q835.991 171.333 835.643 170.984Q835.294 170.635 834.964 170.269Q834.633 169.903 834.321 169.521Q834.009 169.139 833.717 168.742Q833.425 168.344 833.153 167.933Q832.881 167.522 832.63 167.097Q832.383 166.684 832.157 166.259Q831.932 165.835 831.729 165.398Q831.526 164.962 831.345 164.516Q831.165 164.07 831.008 163.616Q830.851 163.161 830.718 162.699Q830.585 162.237 830.477 161.768Q830.368 161.299 830.283 160.826Q830.199 160.352 830.139 159.875Q830.079 159.398 830.044 158.918Q830.01 158.438 830 157.957Q829.99 157.476 830.005 156.996Q830.02 156.515 830.06 156.036Q830.099 155.556 830.164 155.079Q830.229 154.603 830.318 154.13Q830.408 153.658 830.521 153.19Q830.635 152.723 830.773 152.262C835.151 137.794 856.662 130.194 869.885 127.255C873.03 126.556 878.622 126.697 881.19 125.3C881.005 124.074 880.762 122.78 880.716 121.539C880.655 119.892 880.972 119.313 882.053 118.13C882.29 125.578 882.996 130.984 888.682 136.423C889.385 137.095 890.135 137.718 890.89 138.331Z"/>
	<path fill="#E6733A" d="M882.398 117.714C880.13 116.11 875.734 116.229 872.926 115.536C861.741 112.775 838.525 103.323 832.948 93.5311C830.35 88.9697 829.34 84.9528 830.768 79.7668C833.087 71.3514 836.818 70.2089 843.587 66.45C844.504 65.9405 845.582 65.1757 846.626 64.975C848.144 64.6832 850.256 65.0208 851.8 65.14C866.739 66.2925 879.171 80.8823 886.295 93.1532C887.776 95.7051 888.672 100.571 891.195 102.122L892.253 101.082L893.329 101.008L894.141 101.819Q893.18 102.31 892.27 102.889Q891.36 103.468 890.509 104.131Q889.657 104.794 888.872 105.534Q888.088 106.275 887.376 107.086Q886.665 107.897 886.034 108.772Q885.402 109.647 884.857 110.577Q884.311 111.508 883.855 112.486Q883.4 113.464 883.039 114.481C882.659 115.54 882.497 116.599 882.398 117.714Z"/>
	<path fill="#C0D046" d="M892.488 139.14C898.897 141.737 906.404 142.851 912.946 139.906C913.175 139.803 913.399 139.691 913.626 139.583C915.563 144.316 917.506 149.08 919.047 153.959C922.67 165.429 926.541 181.094 920.383 192.411Q920.132 192.881 919.857 193.338Q919.582 193.795 919.284 194.237Q918.987 194.679 918.666 195.105Q918.346 195.531 918.004 195.941Q917.662 196.35 917.3 196.741Q916.938 197.132 916.556 197.504Q916.174 197.875 915.773 198.227Q915.372 198.579 914.954 198.91Q914.536 199.24 914.101 199.549Q913.667 199.858 913.217 200.144Q912.767 200.43 912.303 200.692Q911.839 200.955 911.362 201.193Q910.885 201.431 910.397 201.645Q909.908 201.858 909.409 202.046Q908.91 202.234 908.402 202.396Q907.895 202.558 907.379 202.694C902.184 204.019 896.798 202.795 892.339 199.931C887.089 196.558 884.098 191.088 882.867 185.073C880.343 172.735 885.523 149.561 892.488 139.14Z"/>
	<path fill="#C0D046" d="M892.253 101.082C886.791 87.6932 877.92 65.97 883.739 51.6539Q883.928 51.1864 884.141 50.729Q884.353 50.2716 884.588 49.8253Q884.823 49.3791 885.08 48.9452Q885.337 48.5113 885.616 48.0908Q885.894 47.6704 886.194 47.2643Q886.493 46.8583 886.812 46.4678Q887.131 46.0773 887.469 45.7032Q887.808 45.3291 888.164 44.9725Q888.521 44.6158 888.895 44.2775Q889.269 43.9391 889.659 43.6199Q890.05 43.3007 890.456 43.0014Q890.862 42.7021 891.282 42.4235Q891.703 42.1449 892.137 41.8878Q892.57 41.6306 893.017 41.3954Q893.463 41.1603 893.92 40.9478Q894.378 40.7353 894.845 40.5459Q895.335 40.3394 895.835 40.1582Q896.335 39.977 896.844 39.8216Q897.353 39.6663 897.868 39.5371Q898.384 39.4079 898.906 39.3053Q899.428 39.2027 899.955 39.1269Q900.481 39.0511 901.01 39.0023Q901.54 38.9535 902.072 38.9319Q902.603 38.9102 903.135 38.9158Q903.667 38.9213 904.198 38.9541Q904.729 38.9868 905.257 39.0467Q905.786 39.1065 906.31 39.1933Q906.835 39.2801 907.355 39.3936Q907.874 39.5071 908.387 39.647Q908.9 39.7869 909.406 39.9529Q909.911 40.1188 910.407 40.3104Q910.903 40.502 911.389 40.7187C916.683 43.0687 920.647 47.5234 922.656 52.9262C927.017 64.6547 921.677 80.1224 917.883 91.3252C916.723 94.7505 914.907 98.6531 914.472 102.223L913.863 102.604C913.51 102.413 913.157 102.22 912.793 102.053C906.927 99.3541 900.114 99.6143 894.141 101.819L893.329 101.008L892.253 101.082Z"/>
	<path fill="#E6733A" d="M894.141 101.819C900.114 99.6143 906.927 99.3541 912.793 102.053C913.157 102.22 913.51 102.413 913.863 102.604C918.915 105.975 922.482 110.651 923.637 116.661C923.673 116.85 923.704 117.04 923.738 117.23L923.887 117.655C925.111 118.924 925.302 119.528 925.328 121.305C925.348 122.659 925.087 124.119 924.923 125.465C928.959 126.675 933.363 126.664 937.501 127.526C948.734 129.866 965.977 135.337 972.001 146.006C974.575 150.564 975.305 155.944 973.777 160.974C972.232 166.06 968.831 171.53 963.961 173.908C962.24 174.748 960.387 175.397 958.598 176.078C954.181 177.759 949.348 176.44 945.216 174.512C934.589 169.554 926.071 159.653 920.616 149.458C918.786 146.039 917.339 141.84 914.615 139.061L913.626 139.583C913.399 139.691 913.175 139.803 912.946 139.906C906.404 142.851 898.897 141.737 892.488 139.14L890.89 138.331C890.135 137.718 889.385 137.095 888.682 136.423C882.996 130.984 882.29 125.578 882.053 118.13L882.398 117.714C882.497 116.599 882.659 115.54 883.039 114.481Q883.4 113.464 883.855 112.486Q884.311 111.508 884.856 110.577Q885.402 109.647 886.034 108.772Q886.665 107.897 887.376 107.086Q888.088 106.275 888.872 105.534Q889.657 104.794 890.509 104.131Q891.36 103.468 892.27 102.889Q893.18 102.31 894.141 101.819Z"/>
	<path fill="#DAB540" d="M894.141 101.819C900.114 99.6143 906.927 99.3541 912.793 102.053C913.157 102.22 913.51 102.413 913.863 102.604C918.915 105.975 922.482 110.651 923.637 116.661C923.673 116.85 923.704 117.04 923.738 117.23L923.887 117.655C924.373 123.948 923.65 129.924 919.261 134.832C917.931 136.32 916.24 137.909 914.615 139.061L913.626 139.583C913.399 139.691 913.175 139.803 912.946 139.906C906.404 142.851 898.897 141.737 892.488 139.14L890.89 138.331C890.135 137.718 889.385 137.095 888.682 136.423C882.996 130.984 882.29 125.578 882.053 118.13L882.398 117.714C882.497 116.599 882.659 115.54 883.039 114.481Q883.4 113.464 883.855 112.486Q884.311 111.508 884.856 110.577Q885.402 109.647 886.034 108.772Q886.665 107.897 887.376 107.086Q888.088 106.275 888.872 105.534Q889.657 104.794 890.509 104.131Q891.36 103.468 892.27 102.889Q893.18 102.31 894.141 101.819Z"/>
	<path fill="#C0D046" d="M255.231 768.084L509.98 768.049L509.99 956.591L509.986 1001.64C509.981 1007.94 509.034 1016.78 510.375 1022.78L511.287 1023.18L511.156 1023.53L511.082 1024L0 1024L0 1023.02L177.539 1023.11L228.328 1023.04C236.845 1023.02 245.996 1022.36 254.457 1023.28L255.513 1023.06L255.354 873.908Q254.888 820.996 255.231 768.084Z"/>
	<path fill="#F8EEC4" d="M0 1023.02L177.539 1023.11L228.328 1023.04C236.845 1023.02 245.996 1022.36 254.457 1023.28L255.513 1023.06L432.754 1023.03L484.394 1023.06C493.098 1023.06 502.558 1022.3 511.156 1023.53L511.082 1024L0 1024L0 1023.02Z"/>
	<path fill="#DAB540" d="M380.558 895.937C382.227 896.693 406.069 919.652 406.581 921.001C406.881 921.793 405.296 925.954 404.949 926.988L387.988 977.001C385.674 983.9 384.131 991.438 381.305 998.102C379.599 995.518 355.657 924.111 355.173 921.171C362.432 912.04 372.234 904.14 380.558 895.937Z"/>
	<path fill="#DAB540" d="M380.976 791.585C384.367 798.323 405.275 864.807 405.608 870.047C401.066 876.683 387.143 888.445 380.75 894.755C375.295 889.146 369.455 883.834 363.776 878.451C360.987 875.807 357.881 873.341 355.639 870.2C355.477 868.698 355.754 867.498 356.14 866.042C359.843 852.062 365.437 837.949 370.129 824.244C373.835 813.415 376.82 802.241 380.976 791.585Z"/>
	<path fill="#DAB540" d="M407.374 870.621C410.718 872.616 424.783 875.926 429.428 877.275C451.007 883.543 472.588 890.114 494.309 895.852L494.517 896.477L495.236 896.287L494.894 896.574C493.608 896.753 492.24 896.884 491.023 897.348C480.387 901.404 468.389 903.41 457.387 906.537C440.883 911.114 424.236 915.472 407.818 920.323C399.346 911.72 390.416 903.641 381.745 895.25C389.987 886.794 398.915 878.877 407.374 870.621Z"/>
	<path fill="#DAB540" d="M353.738 870.812C356.599 872.015 375.476 891.252 379.755 895.25C376.555 898.493 355.389 919.599 353.817 920.018C350.892 920.797 309.143 909.105 303.954 907.07C298.183 906.145 291.623 904.386 285.996 902.754C284.395 902.29 282.956 901.439 281.329 901.027C276.108 899.705 269.224 899.689 264.545 897.192L264.735 896.603C269.945 894.015 276.914 892.895 282.542 891.295L326.276 878.889C334.582 876.618 345.234 874.757 352.917 871.205C353.192 871.078 353.464 870.943 353.738 870.812Z"/>
	<path fill="#DAB540" d="M1024 513.456L1024 1024L1023.07 1024L1023.08 1023.58C1007.07 1022.9 990.834 1023.3 974.795 1023.31L875.467 1023.49L804.424 1023.18C792.422 1023.14 779.544 1022.1 767.648 1023.42C768.963 1016.96 768.049 1008.59 768.041 1001.94L768.005 956.41L767.898 768.107C793.905 767.383 820.1 768.027 846.126 768.036L1022.96 768.226L1023.02 767.312C1022.29 725.236 1022.93 683.032 1022.97 640.946C1023.01 598.336 1022.47 555.652 1023.13 513.054L1024 513.456Z"/>
	<path fill="#FAFCDE" d="M1024 513.456L1024 1024L1023.07 1024L1023.08 1023.58L1022.96 768.226L1023.02 767.312C1022.29 725.236 1022.93 683.032 1022.97 640.946C1023.01 598.336 1022.47 555.652 1023.13 513.054L1024 513.456Z"/>
	<path fill="#C0D046" d="M892.355 803.065C896.382 801.845 902.793 802.622 906.779 803.839C917.159 807.01 926.068 816.157 927.545 827.114C927.897 829.721 926.941 833.454 928.132 835.699C929.964 835.655 931.744 833.915 933.305 832.995C939.093 829.586 945.9 829.342 952.271 831.033C961.126 833.383 969.637 839.629 974.144 847.652C978.249 854.959 978.936 864.465 976.624 872.491C973.888 881.984 967.721 888.407 959.091 892.896C958.96 892.964 958.825 893.024 958.692 893.088C958.787 894.056 963.404 896.57 964.515 897.339Q965.561 898.068 966.546 898.878Q967.531 899.688 968.449 900.573Q969.366 901.459 970.211 902.414Q971.055 903.37 971.821 904.389Q972.587 905.409 973.269 906.486Q973.952 907.563 974.547 908.691Q975.141 909.819 975.645 910.991Q976.148 912.162 976.557 913.37Q976.786 914.08 976.979 914.8Q977.171 915.521 977.328 916.25Q977.484 916.979 977.603 917.715Q977.723 918.451 977.805 919.192Q977.887 919.933 977.932 920.677Q977.976 921.422 977.983 922.167Q977.991 922.913 977.96 923.658Q977.93 924.403 977.862 925.146Q977.794 925.888 977.689 926.627Q977.584 927.365 977.442 928.097Q977.3 928.829 977.121 929.553Q976.942 930.277 976.727 930.991Q976.512 931.705 976.261 932.407Q976.01 933.109 975.725 933.798Q975.439 934.487 975.119 935.16Q974.799 935.833 974.445 936.49C970.026 944.766 962.08 951.376 953.109 954.034C942.578 957.154 937.62 955.176 928.361 950.149C926.579 950.365 927.288 955.861 926.946 957.699C925.791 963.908 923.374 969.703 919.082 974.406C916.438 977.304 909.935 982.452 905.861 982.63C902.77 983.8 899.286 984.232 895.994 984.255Q895.244 984.254 894.495 984.216Q893.747 984.177 893.001 984.101Q892.255 984.025 891.514 983.911Q890.773 983.797 890.039 983.647Q889.304 983.496 888.578 983.308Q887.852 983.12 887.137 982.896Q886.422 982.672 885.718 982.412Q885.015 982.152 884.326 981.858Q883.637 981.562 882.963 981.233Q882.29 980.904 881.634 980.541Q880.978 980.178 880.341 979.783Q879.704 979.387 879.088 978.96Q878.471 978.533 877.878 978.075Q877.284 977.618 876.714 977.131Q876.144 976.644 875.599 976.129Q875.054 975.614 874.536 975.072C867.277 967.515 865.558 959.298 865.807 949.055C859.091 953.632 852.001 955.795 843.853 954.543C835.316 953.231 827.453 948.153 822.417 941.183C817.284 934.079 814.721 925.302 816.236 916.588C818.031 906.261 824.139 899.48 832.496 893.667C827.045 889.981 821.035 884.569 818.479 878.344C814.739 869.237 814.305 860.011 818.332 850.969Q818.676 850.202 819.058 849.452Q819.44 848.703 819.858 847.974Q820.277 847.244 820.731 846.537Q821.185 845.829 821.674 845.144Q822.163 844.46 822.685 843.801Q823.207 843.141 823.761 842.509Q824.315 841.876 824.9 841.272Q825.484 840.667 826.098 840.093Q826.712 839.518 827.354 838.974Q827.996 838.431 828.663 837.92Q829.331 837.409 830.024 836.931Q830.716 836.454 831.431 836.012Q832.146 835.569 832.883 835.163Q833.619 834.757 834.374 834.387Q835.13 834.018 835.903 833.686Q836.676 833.355 837.464 833.062C847.046 829.515 854.791 830.892 863.831 835.198C863.989 835.274 864.142 835.359 864.298 835.439C865.343 835.095 865.195 833.768 865.406 832.733C866.781 825.992 868.511 820.279 872.853 814.807C877.745 808.642 884.398 804.012 892.355 803.065Z"/>
	<path fill="#DAB540" d="M891.872 855.742C901.58 855.435 909.922 856.556 918.252 861.917Q919.035 862.427 919.792 862.975Q920.549 863.523 921.277 864.109Q922.006 864.694 922.704 865.315Q923.403 865.935 924.07 866.59Q924.737 867.245 925.37 867.932Q926.004 868.619 926.602 869.336Q927.201 870.054 927.763 870.801Q928.325 871.547 928.85 872.321Q929.374 873.094 929.859 873.893Q930.344 874.692 930.789 875.513Q931.234 876.335 931.638 877.178Q932.041 878.021 932.402 878.883Q932.763 879.745 933.081 880.624Q933.399 881.503 933.673 882.396Q933.946 883.29 934.175 884.196Q934.404 885.102 934.588 886.018Q934.773 886.912 934.913 887.815Q935.054 888.717 935.149 889.625Q935.245 890.534 935.295 891.446Q935.346 892.358 935.352 893.271Q935.357 894.184 935.318 895.097Q935.278 896.009 935.194 896.918Q935.109 897.828 934.98 898.732Q934.851 899.636 934.677 900.533Q934.503 901.429 934.286 902.316Q934.068 903.203 933.806 904.078Q933.545 904.953 933.241 905.814Q932.937 906.675 932.59 907.521Q932.244 908.366 931.856 909.193Q931.468 910.019 931.04 910.826Q930.612 911.633 930.145 912.418Q929.677 913.202 929.172 913.963Q928.624 914.779 928.036 915.567Q927.448 916.355 926.821 917.112Q926.195 917.869 925.531 918.594Q924.867 919.319 924.168 920.01Q923.468 920.701 922.735 921.356Q922.003 922.011 921.238 922.629Q920.473 923.247 919.678 923.825Q918.883 924.404 918.061 924.942Q917.238 925.48 916.39 925.976Q915.541 926.472 914.669 926.925Q913.796 927.378 912.902 927.787Q912.008 928.196 911.095 928.56Q910.182 928.924 909.252 929.241Q908.321 929.559 907.376 929.83Q906.431 930.1 905.474 930.323Q904.516 930.546 903.549 930.721C893.916 931.123 885.376 930.211 877.041 924.926Q876.237 924.423 875.458 923.881Q874.68 923.338 873.93 922.757Q873.18 922.176 872.461 921.558Q871.741 920.94 871.053 920.286Q870.365 919.633 869.711 918.946Q869.057 918.258 868.439 917.539Q867.82 916.82 867.239 916.07Q866.657 915.321 866.114 914.543Q865.571 913.765 865.068 912.961Q864.565 912.157 864.102 911.328Q863.64 910.5 863.22 909.649Q862.8 908.798 862.424 907.928Q862.047 907.057 861.715 906.168Q861.383 905.28 861.096 904.376Q860.808 903.471 860.567 902.554Q860.326 901.636 860.131 900.708C858.063 890.747 860.24 880.638 865.838 872.187C872.032 862.837 881.048 857.866 891.872 855.742Z"/>
	<path fill="#DAB540" d="M511.082 768.069L766.89 768.523L766.971 933.101L766.963 990.695C766.966 1000.59 766.691 1010.59 767.026 1020.48C767.065 1021.64 767.047 1022.4 767.648 1023.42C779.544 1022.1 792.422 1023.14 804.424 1023.18L875.467 1023.49L974.795 1023.31C990.834 1023.3 1007.07 1022.9 1023.08 1023.58L1023.07 1024L766.918 1024L511.082 1024L511.156 1023.53L511.287 1023.18C511.989 1014.73 511.407 1005.91 511.325 997.424Q511.034 973.729 511.033 950.033L511.082 768.069Z"/>
	<path fill="#F8EEC4" d="M511.287 1023.18C527.926 1022.39 544.895 1023.29 561.574 1023.32L661.056 1023.13Q697.323 1022.99 733.589 1023.32C743.099 1023.35 757.864 1022.25 766.843 1023.71L767.648 1023.42C779.544 1022.1 792.422 1023.14 804.424 1023.18L875.467 1023.49L974.795 1023.31C990.834 1023.3 1007.07 1022.9 1023.08 1023.58L1023.07 1024L766.918 1024L511.082 1024L511.156 1023.53L511.287 1023.18Z"/>
	<path fill="#E6733A" d="M629.313 885.578C623.399 884.086 617.975 882.363 613.492 877.95C609.374 873.896 606.832 868.325 606.911 862.505C606.996 856.284 610.012 850.424 614.595 846.304C619.057 842.294 625.258 839.908 631.284 840.456C637.512 841.021 644.062 844.256 647.951 849.203C651.538 853.767 653.325 859.791 652.62 865.576C651.689 873.214 645.7 879.734 638.757 882.681C636.263 883.739 633.29 884.389 631.124 886.027C630.29 889.16 630.305 927.521 631.192 930.998L631.548 930.852C631.636 932.241 631.786 933.607 631.559 934.988L630.862 935.333C630.771 938.485 630.924 941.883 630.064 944.922C629.793 941.717 629.947 938.381 629.265 935.251L629.116 930.946L629.647 930.663C628.769 925.462 629.253 919.734 629.262 914.452L629.313 885.578Z"/>
	<path fill="#C0D046" d="M629.265 935.251C609.96 935.453 592.396 932.16 578.004 918.304C571.576 912.114 563.838 901.158 563.699 891.869C564.082 891.153 563.99 890.974 564.801 890.672C568.322 889.362 583.32 891.293 586.922 892.296C590.563 893.309 594.494 895.118 597.942 896.675C613.386 903.648 623.097 915.241 629.116 930.946L629.265 935.251Z"/>
	<path fill="#C0D046" d="M631.548 930.852C633.847 919.283 643.982 907.329 653.569 900.908C658.734 897.449 665.845 893.585 671.874 892.063C674.774 891.331 677.949 891.487 680.909 891.037C684.968 890.42 687.847 889.736 692.071 890.518C693.527 890.788 694.545 891.144 695.613 892.211C696.508 898.063 691.347 906.69 687.936 911.281C678.042 924.6 664.06 932.175 647.758 934.526C642.501 935.285 636.84 935.665 631.559 934.988C631.786 933.607 631.636 932.241 631.548 930.852Z"/>
	<path fill="#C0D046" d="M255.28 0L1022.96 0L1022.81 0.731735C1006.6 1.77203 989.877 0.988029 973.622 0.973022L884.976 0.994121L806.865 1.0179C798.13 1.02545 775.174 2.20574 767.732 0.156742L766.974 0.930206L766.51 256.001L511.14 256.034L511.045 0.848264L510.269 0.569857C500.772 1.9525 490.145 1.02809 480.524 1.01315L422.583 0.927021L315.034 0.998381C295.375 1.002 275.495 1.58822 255.861 0.689073L255.28 0Z"/>
	<path fill="#F8EEC4" d="M255.28 0L1022.96 0L1022.81 0.731735C1006.6 1.77203 989.877 0.988029 973.622 0.973022L884.976 0.994121L806.865 1.0179C798.13 1.02545 775.174 2.20574 767.732 0.156742L766.974 0.930206C753.095 1.41091 739.066 0.977827 725.172 0.973238L646.619 1.0248L560.109 1.03731C543.777 1.03578 527.368 1.36632 511.045 0.848264L510.269 0.569857C500.772 1.9525 490.145 1.02809 480.524 1.01315L422.583 0.927021L315.034 0.998381C295.375 1.002 275.495 1.58822 255.861 0.689073L255.28 0Z"/>
	<path fill="#E6733A" d="M632.895 41.6399C634.804 41.4755 636.733 41.2919 638.65 41.2974C647.427 41.3227 655.967 44.4186 662.168 50.7554C669.203 57.9443 670.543 65.9606 670.482 75.6796C675.725 72.3062 680.895 69.5755 687.142 68.7494C695.548 67.6377 703.902 70.2633 710.545 75.4342Q711.186 75.9378 711.801 76.4723Q712.416 77.0069 713.003 77.5712Q713.591 78.1355 714.151 78.7281Q714.71 79.3207 715.239 79.9402Q715.769 80.5596 716.267 81.2045Q716.765 81.8494 717.231 82.518Q717.696 83.1867 718.128 83.8775Q718.56 84.5684 718.958 85.2797Q719.355 85.991 719.717 86.7211Q720.079 87.4511 720.405 88.1982Q720.73 88.9452 721.018 89.7074Q721.306 90.4696 721.557 91.2451Q721.807 92.0206 722.018 92.8075Q722.23 93.5944 722.402 94.3908Q722.575 95.1871 722.708 95.9911Q722.841 96.795 722.934 97.6045C724.074 107.854 720.586 116.463 714.367 124.413C711.41 128.193 706.864 129.376 703.826 132.757C709.213 136.694 714.037 140.179 717.573 145.977C721.97 153.184 723.074 161.563 721.043 169.733C718.834 178.626 712.965 186.045 705.086 190.636C697.442 195.089 686.819 196.628 678.659 192.713C676.258 191.561 673.947 188.994 671.468 188.321C669.757 192.098 671.715 198.059 668.346 205.001C664.268 213.408 656.051 218.932 647.483 222.017C641.475 222.833 635.677 223.351 629.744 221.722C621.825 219.549 614.685 214.307 610.608 207.143C608.441 203.335 605.619 196.42 606.839 192.128C607.087 191.255 607.308 190.666 607.342 189.737C607.371 188.978 607.378 189.223 606.832 188.611C604.811 188.14 601.304 190.999 599.367 192.027C593.418 195.185 586.636 195.474 580.266 193.504C571.154 190.686 563.65 183.872 559.353 175.432Q558.984 174.712 558.651 173.975Q558.318 173.238 558.022 172.485Q557.726 171.732 557.467 170.966Q557.209 170.199 556.988 169.421Q556.767 168.643 556.585 167.855Q556.403 167.066 556.26 166.27Q556.117 165.474 556.014 164.672Q555.91 163.869 555.846 163.063Q555.782 162.257 555.758 161.448Q555.734 160.64 555.75 159.831Q555.765 159.022 555.821 158.215Q555.876 157.408 555.972 156.605Q556.067 155.801 556.202 155.004Q556.336 154.206 556.51 153.416Q556.684 152.626 556.897 151.846Q557.109 151.065 557.36 150.296C560.218 141.772 565.838 135.492 573.857 131.519C571.146 129.715 568.393 127.94 566.042 125.669C559.444 119.296 555.434 110.644 555.289 101.431C555.15 92.652 558.572 84.6317 564.7 78.3814C573.267 69.6423 586.468 65.1799 598.19 69.9647C600.258 70.809 604.241 73.764 606.114 73.7462C607.411 70.7996 606.294 67.143 607.458 64.0316C608.472 61.3225 609.633 58.6778 611.185 56.2306C616.248 48.2515 623.807 43.6771 632.895 41.6399Z"/>
	<path fill="#DAB540" d="M634.872 94.7381C645.933 94.4333 655.822 96.9915 664.496 104.203C671.85 110.319 676.299 119.45 677.097 128.938C677.947 139.049 674.954 148.867 668.375 156.608C662.65 163.345 654.48 168.515 645.517 169.246C645.356 169.29 645.197 169.343 645.035 169.38C637.003 171.209 627.02 168.877 620.168 164.502Q619.336 163.98 618.53 163.418Q617.725 162.855 616.949 162.253Q616.173 161.651 615.427 161.012Q614.682 160.372 613.97 159.695Q613.258 159.019 612.58 158.308Q611.903 157.596 611.261 156.852Q610.62 156.108 610.017 155.333Q609.413 154.558 608.849 153.754Q608.286 152.95 607.763 152.118Q607.24 151.287 606.759 150.43Q606.278 149.574 605.84 148.694Q605.403 147.815 605.01 146.914Q604.617 146.014 604.269 145.095Q603.922 144.177 603.62 143.242Q603.319 142.307 603.065 141.358Q602.811 140.409 602.604 139.449C600.612 129.753 602.448 119.918 607.995 111.705C614.302 102.367 623.965 96.8761 634.872 94.7381Z"/>
	<path fill="#DAB540" d="M255.695 257.069L766.181 257.149C765.739 266.883 765.975 276.735 765.939 286.485L765.866 338.552L765.945 474.839C743.761 475.22 721.507 474.887 699.316 474.888C703.092 463.566 708.404 452.406 713.156 441.444C724.645 414.941 737.128 388.961 748.933 362.614C753.269 352.937 758.102 343.714 753.958 333.118C750.688 324.758 744.057 318.266 735.815 314.806C726.468 310.883 718.149 311.337 708.934 315.265C701.822 318.297 694.868 321.807 687.82 324.999Q659.835 337.449 632.026 350.287L594.678 367.075C585.173 371.285 575.558 375.269 566.295 380.001C563.048 381.659 558.688 383.856 556.296 386.66C549.253 394.916 539.744 420.238 534.896 431.299C528.548 445.782 521.882 460.107 515.964 474.776Q481.066 474.432 446.168 474.677C434.109 474.735 420.788 473.741 408.939 475.902C399.779 477.573 391.263 481.505 382.953 485.56C382.78 473.638 384.561 443.724 381.746 434.049C380.425 429.508 377.375 426.222 374.138 422.953C363.06 411.768 359.062 404.834 356.868 389.079C355.77 377.177 354.466 364.946 354.456 352.989C355.032 352.342 355.851 352.348 356.158 351.99C357.086 350.913 356.515 331.669 356.521 328.96L320.392 329.056C320.353 333.02 319.414 349.587 321.018 351.861L322.747 352.237C323.921 355.13 319.769 389.889 318.814 394.682Q317.653 400.687 315.256 406.313C312.018 413.846 307.499 418.249 301.587 423.715C298.647 426.433 296.28 429.323 294.917 433.154C292.386 440.271 293.242 465.033 293.923 473.125C293.441 477.612 293.788 482.447 293.819 486.969L294.039 512.622C280.779 515.941 267.434 524.956 255.93 532.194L255.695 257.069Z"/>
</svg>
