<?xml version="1.0" encoding="utf-8" ?>
<svg xmlns="http://www.w3.org/2000/svg" xmlns:xlink="http://www.w3.org/1999/xlink" width="1024" height="1024">
	<path d="M0 0L324.331 0L445.34 0L454.789 0L463.898 0L520.5 0L672.209 0L699.077 0L700.378 0L1024 0L1024 258.013L1024 340.499L1024 341.618L1024 341.872L1024 441.998L1024 442.979L1024 511.208L1024 513.15L1024 513.456L1024 653.554L1024 654.62L1024 744.953L1024 1023.48L1024 1024L1017.92 1024L809.082 1024L686.01 1024L503 1024L340.475 1024L220.799 1024L213.988 1024L7.58167 1024L0 1024L0 1023.59L0 743.658L0 655.191L0 654.205L0 513.324L0 511.588L0 430.988L0 345.886L0 344.564L0 258.276L0 0Z"/>
	<path fill="#323835" d="M1017.83 1023.67C1019.89 1023.59 1021.94 1023.49 1024 1023.48L1024 1024L1017.92 1024L1017.83 1023.67Z"/>
	<path fill="#FEFEFE" d="M645.348 678.051L646.985 680.148C646.823 681.646 645.845 682.167 644.81 683.205C643.863 682.101 643.163 681.704 643.124 680.22L645.348 678.051Z"/>
	<path fill="#FEFEFE" d="M926.366 139.512L926.673 140.14C925.938 143.137 925.048 149.122 922.312 150.897C921.643 151.331 920.339 150.697 919.596 150.489L918.416 149.772C918.662 147.211 924.557 141.888 926.366 139.512Z"/>
	<path fill="#FEB624" d="M872.731 285.115C873.039 289.613 874.285 294.163 875.239 298.566C874.07 297.558 873.637 296.664 873.55 295.108C873.507 294.357 873.469 293.812 873.294 293.086L873.341 294.279L873.184 293.663C873.061 295.198 872.789 296.653 872.478 298.161L872.073 294.314C871.353 294.871 871.281 296.323 871.175 297.201C871.013 298.526 871.041 299.926 871.012 301.261C870.571 299.539 870.356 297.75 870.077 295.994L870.634 296.03L869.801 294.906C868.823 296.073 868.58 298.955 867.837 300.55L867.246 300.125Q869.399 292.405 872.731 285.115Z"/>
	<path fill="#FEFEFE" d="M314.937 472.313C316.983 468.979 319.268 464.357 322.42 461.942L322.435 472.086C319.958 472.12 317.395 472.019 314.937 472.313Z"/>
	<path fill="#323835" d="M7.67761 1023.57L114.328 1023.61Q146.52 1023.35 178.713 1023.5C190.429 1023.48 202.299 1023.07 214.003 1023.47L213.988 1024L7.58167 1024L7.67761 1023.57Z"/>
	<path fill="#737373" d="M809.142 1023.59C818.14 1023.1 827.277 1023.43 836.289 1023.45L883.586 1023.49L1017.83 1023.67L1017.92 1024L809.082 1024L809.142 1023.59Z"/>
	<path fill="#737373" d="M503 1023.47L684.129 1023.34L686.01 1024L503 1024L340.475 1024L340.412 1023.62L446.113 1023.46C465.052 1023.46 484.073 1023.08 503 1023.47Z"/>
	<path fill="#FEFEFE" d="M699.777 107.326C701.404 112.114 700.353 129.004 700.358 134.693C695.932 135.845 691.605 137.015 687.094 137.816L686.578 137.428L686.699 137.489C690.815 127.349 695.614 117.471 699.777 107.326Z"/>
	<path fill="#B3CCDC" d="M916.419 150.9L922.172 152.77C918.21 160.72 912.806 168.317 907.528 175.449L902.75 173.987L894.704 171.271C902.634 165.162 909.566 158.157 916.419 150.9Z"/>
	<path fill="#B3CCDC" d="M819.517 107.911C824.406 122.221 830.696 134.487 841.189 145.568C837.384 147.605 833.768 149.829 830.147 152.174C825.766 141.819 818.137 118.849 818.67 108.099L819.517 107.911Z"/>
	<path fill="#FEFEFE" d="M702.072 480.763C705.879 483.519 717.604 506.959 720.26 512.775C715.322 512.637 710.248 512.932 705.396 511.922C701.006 502.568 702.298 490.933 702.072 480.763Z"/>
	<path fill="#FEFEFE" d="M314.937 472.313C317.214 473.407 320.035 473.214 322.515 473.291L322.514 494.156C318.317 493.674 314.085 493.42 309.873 493.094L300.594 492.468C305.418 485.834 309.633 478.556 314.937 472.313Z"/>
	<path fill="#E88F27" d="M347.2 689.946C348.419 689.927 349.306 689.825 350.236 690.723C352.855 693.253 352.688 698.336 352.494 701.677C352.012 710.013 348.362 715.495 342.297 720.885L338.957 723.58Q338.984 709.739 339.37 695.904C341.809 693.263 343.891 691.431 347.2 689.946Z"/>
	<path fill="#E88F27" d="M670.688 877.786Q671.694 877.972 672.679 878.253Q673.663 878.533 674.617 878.905Q675.57 879.276 676.485 879.736Q677.399 880.196 678.266 880.74Q679.133 881.284 679.945 881.907Q680.757 882.53 681.507 883.226Q682.257 883.923 682.938 884.687Q683.619 885.451 684.225 886.276C684.221 889.948 685.169 906.771 683.575 908.46C677.202 905.714 672.289 902.591 669.701 895.77C667.314 889.475 667.947 883.752 670.688 877.786Z"/>
	<path fill="#B3CCDC" d="M846.696 108.995L881.221 108.942C879.485 113.044 876.542 116.529 873.805 119.992C871.264 122.765 868.453 125.308 865.726 127.899C858.204 122.422 852.406 116.273 846.696 108.995Z"/>
	<path fill="#E88F27" d="M669.601 690.516C673.629 690.314 678.257 691.025 681.307 693.898C684.3 696.717 683.481 702.34 683.487 706.194C683.493 709.3 684.363 722.807 682.596 724.581C675.893 719.681 671.377 712.166 669.217 704.213C668.061 699.955 667.341 694.464 669.601 690.516Z"/>
	<path fill="#E88F27" d="M339.411 885.498C341.753 881.402 347.098 879.238 351.468 877.974C354.106 885.425 355.351 895.304 351.713 902.626C349.062 907.96 344.334 910.249 339.303 912.839C340.171 904.073 339.742 894.316 339.411 885.498Z"/>
	<path fill="#B3CCDC" d="M841.362 146.351C844.463 147.111 851.631 153.409 854.809 155.409C857.067 156.83 859.46 158.042 861.837 159.247C857.569 162.869 853.011 166.166 848.547 169.54L842.665 173.793C838.434 167.335 833.613 160.565 831.001 153.271C834.54 151.067 837.975 148.784 841.362 146.351Z"/>
	<path fill="#B3CCDC" d="M875.005 42.1855C879.043 42.243 883.112 42.7179 886.074 45.801C890.199 50.095 889.716 55.7555 889.461 61.2134L877.581 61.1504Q870.319 61.1896 863.062 60.9274C862.547 56.1631 862.579 51.59 865.487 47.5213C867.843 44.2266 871.134 42.8173 875.005 42.1855Z"/>
	<path fill="#E88F27" d="M661.664 721.169C669.799 719.964 676.584 721.931 683.261 726.517L683.366 736.874C680.028 738.03 676.796 738.603 673.292 738.931C670.462 738.571 667.742 738.165 665.023 737.268C658.383 735.077 652.896 730.97 649.661 724.673C653.618 722.617 657.284 721.769 661.664 721.169Z"/>
	<path fill="#E88F27" d="M355.781 907.585C357.665 907.423 359.532 907.426 361.421 907.456C364.75 907.509 368.345 907.449 370.817 909.995C371.227 911.313 371.363 912.031 370.863 913.361C368.858 918.689 360.9 923.588 355.933 925.673C350.192 927.197 345.653 927.082 339.915 925.987C339.578 922.219 339.584 918.407 339.5 914.626C344.783 911.06 349.525 908.945 355.781 907.585Z"/>
	<path fill="#E88F27" d="M635.354 813.159C639.554 812.825 646.096 812.077 649.924 814.133C650.8 814.603 651.595 815.375 651.844 816.354C652.292 818.118 651.558 819.653 650.583 821.087C646.704 826.794 639.939 830.117 633.363 831.374C626.841 831.729 621.759 830.415 615.714 828.142Q617.35 824.645 619.622 821.523C623.731 815.983 628.769 814.093 635.354 813.159Z"/>
	<path fill="#E88F27" d="M666.402 906.184C673.094 905.706 678.087 907.468 684.214 909.701C684.097 914.094 684.218 918.497 684.277 922.89C679.817 924.449 675.856 924.949 671.147 924.85C666.372 924.383 661.233 922.826 657.155 920.247C655.127 918.965 652.709 916.978 652.455 914.402C652.321 913.034 652.811 911.94 653.668 910.916C656.436 907.609 662.333 906.628 666.402 906.184Z"/>
	<path fill="#E88F27" d="M637.814 624.651C641.204 624.419 645.341 624.438 648.664 625.153C650.469 625.542 651.754 626.121 652.745 627.757C652.979 629.438 652.54 630.592 651.606 631.956C647.173 638.435 638.95 643.044 631.391 644.382C625.178 644.811 620.599 643.736 614.915 641.394C623.068 632.74 624.34 626.779 637.814 624.651Z"/>
	<path fill="#E88F27" d="M338.784 725.318C344.692 720.247 349.956 717.678 358.003 718.378C363.641 718.869 368.854 721.024 373.104 724.762C368.482 731.107 362.234 736.065 354.319 737.446C349.197 738.34 343.983 737.495 339.146 735.703C339.2 732.238 338.963 728.776 338.784 725.318Z"/>
	<path fill="#E88F27" d="M381.899 813.169C384.72 812.849 387.887 812.777 390.688 813.253C398.347 814.551 402.805 819.455 407.189 825.374C403.547 829.65 401.129 831.368 395.508 832.368C393.172 832.61 390.703 832.666 388.403 832.142C382.478 830.792 375.027 825.647 371.94 820.206C371.098 818.723 371.048 817.726 371.569 816.077C373.809 813.959 378.912 813.643 381.899 813.169Z"/>
	<path fill="#E88F27" d="M414.692 831.682Q417.453 831.459 420.221 831.586Q420.873 831.619 421.522 831.684Q422.172 831.749 422.817 831.846Q423.462 831.943 424.102 832.071Q424.742 832.2 425.375 832.36Q426.008 832.52 426.632 832.71Q427.256 832.901 427.87 833.123Q428.483 833.344 429.086 833.596Q429.688 833.847 430.277 834.128Q430.866 834.409 431.441 834.718Q432.015 835.027 432.574 835.365Q433.133 835.702 433.674 836.067Q434.215 836.431 434.738 836.822Q435.261 837.213 435.764 837.629Q436.267 838.045 436.748 838.485Q437.23 838.925 437.689 839.389Q438.149 839.852 438.585 840.338C441.496 843.616 444.034 847.156 443.688 851.712C442.751 853.288 442.049 853.251 440.37 853.878C438.065 854.078 435.778 854.233 433.465 854.068C426.99 853.606 420.661 850.517 416.46 845.548C413.568 842.125 410.912 837.782 411.394 833.166C412.491 831.876 413.069 832.006 414.692 831.682Z"/>
	<path fill="#E88F27" d="M605.602 829.185C607.869 828.988 610.211 829.037 612.489 828.973C610.954 834.671 609.469 839.829 605.445 844.386C600.294 850.22 593.955 852.209 586.479 852.809C583.765 852.637 581.252 852.189 578.6 851.622C579.112 847.25 580.481 843.418 583.208 839.922C588.911 832.61 596.775 830.191 605.602 829.185Z"/>
	<path fill="#E88F27" d="M602.08 643.136C605.797 642.834 609.593 643.005 613.322 643.035C610.786 647.027 609.783 651.802 607.131 655.805C602.81 662.328 596.075 664.944 588.746 666.394C586.661 666.592 583.404 667.096 581.406 666.565C579.672 666.105 579.041 665.463 578.195 663.922C577.998 661.012 579.533 658.716 581.21 656.446C586.351 649.481 593.445 644.488 602.08 643.136Z"/>
	<path fill="#E88F27" d="M480.884 733.119C485.2 732.883 489.451 733.111 493.575 734.545C501.641 737.35 506.846 744.495 510.409 751.901C508.137 752.786 505.756 753.461 503.434 754.21C497.255 755.549 491.708 754.377 486.296 751.225C482.136 748.802 476.072 743.497 475.017 738.689C474.67 737.11 475.002 736.028 475.919 734.704C477.444 733.598 479.061 733.441 480.884 733.119Z"/>
	<path fill="#E88F27" d="M475.84 549.71C480.863 549.178 485.698 549.203 490.631 550.395C496.967 551.926 502.507 555.183 505.819 560.973C507.021 563.074 509.432 568.392 508.794 570.686L507.624 570.918C503.188 571.124 498.602 571.465 494.193 570.741C487.539 569.647 481.144 564.626 477.288 559.308C475.644 557.039 473.904 553.943 474.549 551.054C474.765 550.086 475.054 550.179 475.84 549.71Z"/>
	<path fill="#FEFEFE" d="M299.601 493.849C307.15 493.893 314.882 494.449 322.374 495.379C322.471 496.74 322.586 498.122 322.572 499.488C322.535 503.054 321.175 510.156 318.55 512.724C316.737 512.548 314.947 512.464 313.125 512.433Q300.461 512.604 287.799 512.291Q293.408 502.883 299.601 493.849Z"/>
	<path fill="#E88F27" d="M411.472 641.964C420.477 642.491 430.232 642.396 436.86 649.531C440.672 653.634 444.979 661.229 444.84 666.872C439.251 667.73 432.768 667.355 427.562 665.032C417.815 660.682 414.975 651.084 411.472 641.964Z"/>
	<path fill="#E88F27" d="M376.27 995.705Q379.175 995.556 382.065 995.889Q384.956 996.222 387.751 997.027C393.197 998.628 401.446 1003.65 404.098 1009.02C404.653 1010.15 404.902 1011.39 404.336 1012.57C403.239 1014.86 400.242 1015.73 398.018 1016.38C392.817 1017.32 387.732 1016.47 382.964 1014.25C377.851 1011.87 370.775 1006.31 369.041 1000.77C368.547 999.193 368.838 998.274 369.598 996.871C371.629 995.838 374.029 995.884 376.27 995.705Z"/>
	<path fill="#E88F27" d="M534.259 734.145C537.309 734.057 542.752 733.302 545.339 735.233C546.451 736.063 546.833 736.703 547.008 738.087C547.236 739.897 545.601 742.404 544.597 743.767C539.586 750.572 532.931 754.057 524.706 755.382C521.877 755.553 515.922 755.436 513.568 753.675C512.525 752.895 511.993 752.014 511.972 750.692C511.941 748.733 513.589 746.435 514.721 744.972C519.724 738.505 526.227 735.171 534.259 734.145Z"/>
	<path fill="#E88F27" d="M378.683 623.662C382.54 623.204 386.865 623.716 390.573 624.858C398.114 627.18 403.032 631.518 406.625 638.408C403.447 640.204 400.326 641.993 396.941 643.376C391.719 643.94 386.865 643.93 381.939 641.733C375.179 638.718 371.134 633.178 368.446 626.52C371.774 624.852 375.043 624.18 378.683 623.662Z"/>
	<path fill="#E88F27" d="M638.902 997.149C642.396 996.787 649.064 996.335 651.97 998.453C653.109 999.283 653.721 1000.16 653.972 1001.55C654.292 1003.34 653.249 1005.47 652.298 1006.9C648.269 1012.97 641.989 1015.71 635.11 1016.93C630.863 1017.37 625.122 1017.86 621.209 1015.94C620.075 1015.38 619.076 1014.53 618.761 1013.25C618.309 1011.42 619.374 1009.47 620.41 1008.04C624.835 1001.92 631.61 998.41 638.902 997.149Z"/>
	<path fill="#E88F27" d="M533.126 918.139C536.374 917.893 541.373 917.636 544.175 919.492C545.072 920.086 545.574 920.903 545.745 921.939C546.191 924.63 544.1 927.552 542.546 929.571C537.541 936.077 531.48 939.258 523.465 940.344C518.696 940.582 514.405 939.712 509.777 938.644C511.667 935.029 513.72 931.341 516.137 928.051C520.567 922.022 525.835 919.252 533.126 918.139Z"/>
	<path fill="#E88F27" d="M536.968 549.175C540.974 548.73 544.796 549.144 548.761 549.718C547.697 553.806 546.26 557.512 543.789 560.961C538.856 567.848 532.264 570.215 524.277 571.47C519.786 571.606 515.598 571.156 511.213 570.202C513.787 566.117 516.084 561.622 519.055 557.821C523.867 551.663 529.608 550.209 536.968 549.175Z"/>
	<path fill="#E88F27" d="M477.562 917.138C481.459 916.899 485.27 916.967 489.07 917.927C499.611 920.589 504 928.029 509.026 936.716C507.434 937.789 505.72 938.711 504.061 939.676C499.931 940.682 496.439 940.714 492.337 939.476C484.99 937.259 477.735 931.165 474.213 924.31C473.168 922.276 472.878 920.637 473.604 918.47C474.982 917.335 475.824 917.402 477.562 917.138Z"/>
	<path fill="#E88F27" d="M510.085 705.919C511.465 705.762 512.586 705.786 513.832 706.486C516.392 707.926 518.387 712.457 519.179 715.116C522.685 726.887 516.787 738.148 511.426 748.261L510.745 748.749C510.314 748.474 510.129 748.393 509.76 747.951C504.312 741.427 501.683 730.518 502.523 722.208C503.15 715.999 505.13 709.984 510.085 705.919Z"/>
	<path fill="#E88F27" d="M620.652 779.826C621.4 780.097 621.962 780.416 622.616 780.888C625.65 783.074 627.414 787.265 627.987 790.833C629.965 803.138 623.772 813.714 616.765 823.253L616.197 823.873L615.479 823.511C611.826 815.938 609.276 807.032 610.324 798.588C611.232 791.264 614.787 784.36 620.652 779.826Z"/>
	<path fill="#E88F27" d="M586.89 988.122C587.683 988.099 588.46 988.081 589.253 988.127C596.336 988.542 604.107 991.987 608.667 997.462C611.611 1001 616.365 1007.7 615.892 1012.44C615.034 1013.68 614.669 1013.81 613.286 1014.47C609.399 1014.66 605.427 1014.35 601.705 1013.15C593.888 1010.63 588.036 1005.17 584.515 997.847C583.509 995.757 582.506 992.464 583.646 990.233C584.367 988.823 585.545 988.631 586.89 988.122Z"/>
	<path fill="#E88F27" d="M580.07 799.617Q581.733 799.527 583.397 799.593Q585.061 799.659 586.711 799.879Q588.362 800.099 589.984 800.473Q591.607 800.846 593.188 801.369C603.123 804.738 608.29 811.585 612.866 820.599C613.33 821.514 613.934 822.496 614.222 823.486C614.683 825.07 614.337 825.654 613.56 827.035C612.218 827.493 610.933 827.744 609.511 827.714C601.641 827.55 593.607 823.457 588.296 817.738C584.039 813.155 579.847 806.029 580.07 799.617Z"/>
	<path fill="#E88F27" d="M401.783 779.755C407.03 782.429 410.08 787.766 412.075 793.123C416.401 804.742 412.319 812.699 407.461 823.119C400.843 816.961 395.206 807.708 394.878 798.492C394.637 791.721 397.266 784.769 401.783 779.755Z"/>
	<path fill="#E88F27" d="M580.909 611.016Q583.294 610.983 585.653 611.334Q588.011 611.685 590.283 612.411C598.77 615.095 605.747 621.468 609.771 629.342C611.347 632.426 614.277 638.051 613.164 641.466C607.903 640.969 602.862 640.155 598 638.006C590.918 634.875 585.329 629.436 582.527 622.132C581.303 618.942 579.474 614.284 580.909 611.016Z"/>
	<path fill="#E88F27" d="M509.951 526.485C511.918 526.403 513.515 526.312 515.304 527.278C518.482 528.994 520.199 532.088 521.059 535.496C524.125 547.631 518.415 556.533 512.362 566.497L511.261 567.859C510.328 567.732 510.292 567.699 509.765 566.942C508.757 565.492 508.249 563.452 507.487 561.839C503.629 553.68 501.167 546.075 503.24 536.952C504.267 532.43 505.987 528.999 509.951 526.485Z"/>
	<path fill="#B3CCDC" d="M865.433 129.906C871.43 133.493 877.663 136.424 884.058 139.21C877.327 145.929 870.717 152.493 863.212 158.357C855.962 155.145 849.565 150.592 843.392 145.68C851.181 141.013 858.422 135.658 865.433 129.906Z"/>
	<path fill="#E88F27" d="M432.132 801.65C434.522 801.398 438.488 801.005 440.658 802.111C441.808 802.697 442.564 803.669 442.8 804.947C443.313 807.735 440.771 811.617 439.286 813.889C434.202 821.667 427.416 825.519 418.463 827.394C414.599 827.832 410.844 827.892 406.957 827.842C408.745 822.319 411.617 815.757 415.046 811.083C419.358 805.206 425.118 802.685 432.132 801.65Z"/>
	<path fill="#E88F27" d="M400.541 592.282C400.994 592.37 401.382 592.423 401.814 592.599C406.65 594.573 410.542 600.855 412.534 605.533C418.009 618.387 413.033 624.674 408.373 636.392L407.768 636.933C407.629 636.865 407.481 636.815 407.352 636.73C403.63 634.266 395.973 617.73 395.213 612.74C394.084 605.33 396.192 598.245 400.541 592.282Z"/>
	<path fill="#E88F27" d="M624.368 594.342C625.104 594.431 625.343 594.354 625.92 594.74C628.17 596.243 629.094 601.696 629.438 604.266C631.324 618.363 623.116 628.914 615.03 639.381C611.613 631.107 608.128 621.011 610.212 612.039C612.103 603.897 617.477 598.48 624.368 594.342Z"/>
	<path fill="#E88F27" d="M433.856 989.198C436.047 988.981 440.227 988.884 442.206 989.981C443.241 990.555 443.88 991.333 444.01 992.525C444.254 994.779 442.119 997.642 440.85 999.345C434.899 1007.33 426.933 1011.94 417.121 1013.36C412.838 1013.72 409.943 1013.52 406.06 1011.46C407.415 1006.86 409.572 1002.38 412.641 998.656C418.167 991.952 425.641 990.003 433.856 989.198Z"/>
	<path fill="#E88F27" d="M509.687 890.752C510.716 890.878 511.398 890.976 512.33 891.482C515.937 893.44 518.917 900.508 519.934 904.354C522.937 915.716 516.813 924.545 511.292 933.791L510.443 934.663C509.531 934.699 509.733 934.882 509.159 934.297C503.745 928.784 501.28 918.149 501.528 910.633C501.78 902.997 504.021 896.116 509.687 890.752Z"/>
	<path fill="#E88F27" d="M401.603 963.314C402.391 963.375 402.831 963.499 403.526 963.914C407.719 966.418 410.526 973.555 411.831 978.099C415.435 990.645 411.153 997.849 405.265 1008.52C399.125 1002.19 394.339 994.976 393.673 985.975C393.035 977.347 396.051 969.807 401.603 963.314Z"/>
	<path fill="#E88F27" d="M621.166 964.347C621.958 964.743 622.66 965.124 623.336 965.705C627.609 969.378 629.445 975.255 629.963 980.706C631.134 993.032 625.96 1000.1 618.548 1009.2C618.048 1009.84 618.393 1009.57 617.398 1009.84C616.98 1009.41 616.828 1009.29 616.466 1008.72C611.616 1001.1 609.876 989.082 611.67 980.294C612.948 974.027 615.691 967.978 621.166 964.347Z"/>
	<path fill="#E88F27" d="M439.801 611.19C440.859 611.222 442.021 611.14 442.973 611.662C443.667 612.043 443.989 613.091 444.075 613.827C444.659 618.82 440.212 626.132 437.037 629.828C431.063 636.781 422.437 640.032 413.494 640.714C411.906 640.682 410.709 640.704 409.263 639.935C409.091 639.473 409.026 639.397 409.026 638.829C409.028 634.464 414.806 623.882 417.831 620.323C423.504 613.649 431.545 611.998 439.801 611.19Z"/>
	<path fill="#B3CCDC" d="M883.024 108.881C892.437 108.741 901.877 108.912 911.293 108.929C905.661 118.294 897.824 126.23 890.092 133.871C888.483 135.437 886.82 136.934 885.149 138.431C878.594 135.941 872.343 132.379 866.211 129.004C873.174 123.565 878.275 116.224 883.024 108.881Z"/>
	<path fill="#FEFEFE" d="M699.958 135.494C701.207 140.438 700.113 161.503 700.093 167.577C690.075 170.064 679.931 171.464 669.733 172.944C669.855 169.793 683.301 144.1 685.67 139.231C690.458 138.118 695.319 137.135 699.958 135.494Z"/>
	<path fill="#B3CCDC" d="M892.758 172.392C896.886 172.42 902.505 175.176 906.508 176.453Q905.775 177.48 905.015 178.488C901.446 183.213 878.894 208.661 874.665 209.267Q866.756 202.556 859.837 194.828C871.506 188.653 882.107 180.153 892.758 172.392Z"/>
	<path fill="#B3CCDC" d="M885.562 139.437C895.37 143.329 905.522 146.463 915.258 150.484C908.357 157.559 901.469 164.09 893.598 170.094L892.987 170.382C885.103 168.914 872.074 162.619 864.614 158.883C872.02 152.784 878.799 146.236 885.562 139.437Z"/>
	<path fill="#B3CCDC" d="M161.459 49.2283C165.897 48.9984 172.638 48.4595 176.228 51.5365C179.085 53.9852 180.059 57.9072 180.432 61.4944C180.934 66.3125 180.589 71.7773 177.301 75.6033C175.089 78.1768 172.725 78.165 169.594 78.4956C164.568 78.5979 156.105 79.4652 151.948 76.2378C149.835 74.597 149.013 71.9711 148.758 69.4025C148.296 64.7669 148.044 55.9987 151.415 52.3403C154.139 49.384 157.749 49.4395 161.459 49.2283Z"/>
	<path fill="#B3CCDC" d="M863.155 159.902C866.477 160.788 870.072 163.012 873.282 164.404Q882.428 168.348 891.85 171.577C883.835 177.55 875.742 183.548 867.394 189.047C864.598 190.769 861.89 192.413 858.856 193.685C852.79 188.542 847.293 181.364 842.913 174.751C849.919 170.234 856.517 164.941 863.155 159.902Z"/>
	<path fill="#B3CCDC" d="M821.069 108.972L845.321 109.015C850.519 117.122 857.164 122.962 864.533 128.999L856.214 135.759Q849.462 140.685 842.211 144.843C832.255 134.236 825.893 122.597 821.069 108.972Z"/>
	<path fill="#FEFEFE" d="M264.351 476.44C268.43 476.37 271.891 478.079 275.686 479.341C281.025 486.985 286.548 494.984 293.044 501.692C290.829 505.178 288.696 508.67 286.702 512.287C281.761 512.236 276.808 512.354 271.866 512.396L253.233 512.236C250.588 509.33 244.701 502.948 245.281 498.782C246.086 493.003 259.105 498.169 262.73 493.819C265.51 490.483 262.406 485.902 262.074 482.313C261.846 479.854 262.786 478.228 264.351 476.44Z"/>
	<path fill="#B3CCDC" d="M922.3 108.788L930.871 108.332C930.59 117.582 930.881 130.543 925.848 138.502C923.257 142.6 919.566 146.035 916.201 149.498L901.872 144.281Q894.434 141.394 886.912 138.732C895.987 129.9 906.389 120.19 912.215 108.849L922.3 108.788Z"/>
	<path fill="#FEFEFE" d="M699.252 169.163L699.659 169.194C700.789 171.023 700.096 198.013 700.104 202.317C686.404 204.173 673.976 204.356 660.367 201.654L655.98 200.546L668.254 174.414C678.522 172.431 688.955 171.108 699.252 169.163Z"/>
	<path fill="#FEFEFE" d="M317.439 442.062C318.859 442.25 320.85 442.262 321.797 443.478C324.362 446.767 322.862 455.317 322.662 459.493C318.475 464.22 315.179 469.655 311.567 474.819Q302.529 487.573 293.678 500.457C290.865 497.708 288.442 494.794 286.044 491.681C282.719 487.284 279.468 482.886 276.409 478.296L279.78 475.77C279.514 472.089 278.486 466.05 281.074 463.098C285.304 458.273 289.369 465.18 293.807 464.776C297.333 462.321 295.702 457.904 297.56 454.456C300.864 448.328 305.144 454.324 309.369 452.788C312.754 451.557 312.524 447.877 313.73 445.075C314.528 443.224 315.68 442.702 317.439 442.062Z"/>
	<path fill="#00547E" d="M519.369 459.239C520.399 459.179 520.954 459.254 521.905 459.655C523.342 463.892 522.451 516.158 522.516 525.451C517.722 525.438 512.925 525.137 508.125 525.103C506.4 525.114 504.112 525.415 502.59 524.567C501.679 517.267 502.363 509.236 502.387 501.867L502.41 459.675Q510.891 459.502 519.369 459.239Z"/>
	<path fill="#00547E" d="M477.903 457.25C485.626 458.961 493.142 459.555 501.026 459.72L501.047 525.144C493.36 524.974 485.641 525.141 477.951 525.162C477.558 502.551 477.928 479.868 477.903 457.25Z"/>
	<path fill="#00547E" d="M546.03 456.609C546.644 456.668 546.282 456.565 546.982 457.214L547.159 525.51L525.097 525.386L524.697 525.31C523.3 523.758 523.974 466.418 523.978 459.555C531.42 459.597 538.82 458.359 546.03 456.609Z"/>
	<path fill="#00547E" d="M573.615 454.447C580.373 454.334 587.101 453.407 592.818 457.871C595.298 459.808 596.299 463.629 596.711 466.599C597.457 471.974 596.946 477.942 596.919 483.399C596.852 497.237 596.221 511.632 597.809 525.377C589.877 525.988 581.624 525.503 573.656 525.466C573.235 501.823 573.615 478.098 573.615 454.447Z"/>
	<path fill="#00547E" d="M452.849 453.998C461.019 453.928 468.289 453.931 476.046 456.853L475.992 503.864C475.993 510.654 476.784 518.575 475.775 525.243L452.864 525.338C452.11 501.668 452.672 477.688 452.849 453.998Z"/>
	<path fill="#00547E" d="M558.159 454.738L571.972 454.527L572.007 525.491L563.884 525.477L548.88 525.502C547.779 502.433 548.566 478.903 548.489 455.782C551.754 455.162 554.837 454.835 558.159 454.738Z"/>
	<path fill="#00547E" d="M437.754 454.6C442.215 454.141 446.74 454.377 451.218 454.465C451.502 478.084 451.284 501.782 451.286 525.408L442.25 525.389L427.191 525.427C427.1 516.113 426.768 465.145 428.497 461.535C430.328 457.714 433.975 455.946 437.754 454.6Z"/>
	<path fill="#FEFEFE" d="M1024 442.979L1024 511.208Q1009.07 511.592 994.126 511.433C991.608 502.21 991.218 493.337 993.241 483.962C997.266 465.313 1008.45 453.077 1024 442.979Z"/>
	<path fill="#FEFEFE" d="M701.987 447.306C705.86 448.066 709.626 448.934 712.559 451.773C716.323 455.416 716.66 460.373 716.86 465.273C717.325 464.922 717.786 464.587 718.27 464.262C721.099 462.36 724.164 461.383 727.577 462.194C730.223 462.822 732.412 464.586 733.787 466.904C735.94 470.533 735.845 473.691 734.924 477.637C736.976 476.844 739.072 475.965 741.287 475.795C744.72 475.531 748.122 476.39 750.682 478.773C755.245 483.022 755.316 489.05 755.453 494.812C758.663 493.754 761.232 493.272 764.481 494.578C766.676 495.461 768.321 497.132 769.198 499.327C771.015 503.878 769.377 507.916 767.508 512.069C761.703 512.554 755.849 512.421 750.028 512.429C740.693 512.23 731.368 512.822 722.032 512.495C720.356 508.331 717.784 504.268 715.709 500.264C721.117 496.891 726.283 492.098 729.75 486.719C728.08 487.12 717.74 497.294 715.143 499.309C711.003 491.802 706.394 484.698 701.968 477.372L701.987 447.306Z"/>
	<path fill="#FEFEFE" d="M991.937 258.279C1002.57 257.799 1013.34 258.063 1024 258.013L1024 340.499C1021.65 339.316 1019.32 338.118 1017.06 336.767C1001.67 327.556 991.027 314.088 986.806 296.522C983.852 284.228 985.309 269.216 991.937 258.279Z"/>
	<path fill="#FEFEFE" d="M994.851 744.546C992.931 741.782 991.405 738.653 990.141 735.54Q989.56 734.1 989.049 732.633Q988.538 731.166 988.099 729.676Q987.661 728.186 987.295 726.677Q986.929 725.168 986.636 723.642Q986.344 722.117 986.127 720.579Q985.909 719.041 985.766 717.494Q985.623 715.948 985.556 714.396Q985.488 712.845 985.496 711.291Q985.504 709.738 985.588 708.187Q985.671 706.636 985.83 705.091Q985.989 703.546 986.222 702.011Q986.456 700.475 986.764 698.953Q987.072 697.431 987.453 695.925Q987.835 694.42 988.289 692.934Q988.743 691.449 989.269 689.988Q989.795 688.526 990.391 687.092C997.048 671.518 1008.47 660.904 1024 654.62L1024 744.953Q1009.42 745.042 994.851 744.546Z"/>
	<path fill="#E88F27" d="M137.801 72.1885C139.842 71.9281 142.014 72.0091 144.076 71.9495C139.815 74.1177 135.938 76.4919 132.164 79.4358C112.7 94.6188 101.321 116.031 98.5037 140.478C95.6726 165.044 99.6512 185.424 115.124 204.813C109.479 205.181 104.841 204.784 99.4943 202.73Q95.5353 200.854 92.1092 198.124C81.2214 189.386 76.1638 176.329 74.7506 162.74Q74.6289 161.655 74.5342 160.567Q74.4394 159.479 74.3717 158.389Q74.304 157.299 74.2633 156.208Q74.2226 155.117 74.209 154.025Q74.1954 152.933 74.2088 151.841Q74.2223 150.749 74.2629 149.658Q74.3034 148.566 74.371 147.477Q74.4386 146.387 74.5332 145.299Q74.6278 144.211 74.7494 143.126Q74.871 142.04 75.0194 140.959Q75.1678 139.877 75.3431 138.799Q75.5183 137.721 75.7202 136.648Q75.9221 135.575 76.1505 134.507Q76.379 133.439 76.6338 132.377Q76.8887 131.315 77.1698 130.26Q77.4509 129.205 77.7581 128.157Q78.0653 127.109 78.3984 126.069Q78.7315 125.029 79.0903 123.998Q79.4491 122.966 79.8333 121.944Q80.2176 120.922 80.6271 119.91Q81.0365 118.897 81.471 117.895Q81.9054 116.894 82.3646 115.903Q82.8238 114.912 83.3074 113.933Q83.791 112.954 84.2987 111.987Q84.8065 111.02 85.338 110.066Q85.8696 109.112 86.4246 108.172Q86.9797 107.232 87.5579 106.305Q88.1361 105.379 88.7371 104.467Q89.3381 103.555 89.9615 102.659Q90.5849 101.762 91.2304 100.881Q91.8758 100.001 92.5429 99.1361Q93.21 98.2715 93.8984 97.4238C104.86 84.164 120.381 73.8257 137.801 72.1885Z"/>
	<path fill="#E88F27" d="M186.444 71.0605Q187.274 71.1729 188.102 71.3026C209.738 74.6271 227.816 84.9626 240.784 102.758C254.035 120.942 258.408 143.997 254.77 166.023C252.354 180.652 246.767 191.794 234.607 200.514C227.762 204.888 222.044 205.442 214.136 205.289C215.914 203.17 217.735 201.049 219.33 198.787C232.059 180.742 233.191 152.804 229.355 131.679C224.092 102.702 209.784 87.1439 186.444 71.0605Z"/>
	<path fill="#E88F27" d="M181.873 70.0562C182.143 70.1749 182.415 70.29 182.683 70.4122C186.02 71.9309 189.284 74.3358 192.268 76.4515C207.014 86.9063 218.088 100.299 224.239 117.399C231.807 138.438 232.628 170.31 222.795 190.77C218.743 199.202 212.536 207.253 203.467 210.466Q202.348 210.783 201.209 211.017Q200.069 211.251 198.916 211.4Q197.762 211.549 196.601 211.612Q195.439 211.676 194.277 211.653Q193.114 211.631 191.956 211.522Q190.798 211.414 189.651 211.22Q188.504 211.027 187.374 210.749Q186.245 210.471 185.139 210.111Q187.231 207.817 189.198 205.416C204.166 186.776 207.287 158.497 204.78 135.54C202.332 113.131 194.075 92.9115 176.209 78.6338C178.976 75.9829 180.368 73.5101 181.873 70.0562Z"/>
	<path fill="#E88F27" d="M146.114 71.1823C148.381 72.3598 150.064 76.6454 152.419 78.5217C133.776 95.5952 125.678 119.457 124.453 144.285C123.319 167.271 129.097 192.554 144.841 209.882C138.478 212.221 132.793 212.502 126.301 210.348C120.995 207.993 116.823 204.899 113.149 200.399C100.077 184.386 97.5012 161.545 99.6406 141.613C102.097 118.723 112.192 97.4152 130.009 82.6068C134.996 78.4621 140.775 75.5637 145.714 71.5178C145.849 71.4076 145.981 71.2941 146.114 71.1823Z"/>
	<path fill="#FEFEFE" d="M692.881 87.1379C695.273 86.9824 697.683 87.4837 700.047 87.8275C700.13 93.4861 700.091 99.1523 700.106 104.812C695.72 111.22 693.255 120.177 690.094 127.343C686.379 135.765 682.159 143.995 678.121 152.266C674.636 159.403 671.36 166.767 667.323 173.611C663.777 170.006 648.589 150.806 646.327 150.181C652.231 158.595 659.209 167.898 666.841 174.779L663.315 182.622C660.523 188.46 657.606 194.092 655.299 200.152C642.848 190.084 631.917 174.781 629.39 158.687C628.715 154.393 628.623 149.424 631.456 145.831C634.404 142.091 637.81 141.925 642.191 141.517C644.899 137.842 646.017 133.582 648.266 129.697C654.743 118.508 662.067 127.902 670.207 125.544C678.85 123.041 674.941 104.486 681.07 94.865C683.83 90.5332 687.974 88.2232 692.881 87.1379Z"/>
	<path fill="#FEFEFE" d="M701.54 258.522C722.416 258.121 743.369 258.48 764.254 258.48C764.678 262.237 765.024 266.036 765.067 269.818C765.288 289.45 758.067 308.06 744.251 322.056C731.975 333.911 718.499 340.127 701.868 343.228C701.989 314.993 701.121 286.756 701.54 258.522Z"/>
	<path fill="#FEFEFE" d="M0.533669 430.76C0.710914 430.797 0.887739 430.837 1.06541 430.873C5.89352 431.838 10.8593 431.647 15.72 432.561C30.7129 435.382 44.8245 445.07 53.4075 457.601C62.6599 471.109 66.7799 488.833 63.7154 504.993C63.3038 507.163 62.8494 509.347 62.2336 511.47L0 511.588L0 430.988L0.533669 430.76Z"/>
	<path fill="#FEFEFE" d="M0 258.276C19.744 258.184 39.8328 257.35 59.5291 258.487C65.818 274.051 66.107 289.285 59.4951 304.847Q58.8768 306.336 58.1835 307.792Q57.4903 309.248 56.724 310.667Q55.9577 312.086 55.1203 313.464Q54.2828 314.842 53.3765 316.176Q52.4701 317.51 51.4972 318.796Q50.5242 320.082 49.4871 321.317Q48.4501 322.552 47.3516 323.732Q46.2532 324.913 45.0961 326.036Q43.9391 327.16 42.7265 328.223Q41.5139 329.286 40.2488 330.286Q38.9838 331.286 37.6695 332.22Q36.3553 333.155 34.9953 334.021Q33.6352 334.888 32.2329 335.684Q30.8306 336.48 29.3897 337.204Q27.9487 337.928 26.4729 338.578Q24.997 339.228 23.49 339.802C15.8604 342.795 8.14401 344.093 0 344.564L0 258.276Z"/>
	<path fill="#FEFEFE" d="M730.324 515.254C740.417 514.85 750.026 514.719 759.682 518.187C770.952 522.235 779.895 530.967 784.948 541.768Q785.361 542.67 785.73 543.591Q786.099 544.512 786.422 545.45Q786.746 546.387 787.023 547.34Q787.3 548.292 787.53 549.257Q787.761 550.222 787.944 551.197Q788.127 552.172 788.262 553.155Q788.398 554.138 788.485 555.126Q788.572 556.114 788.611 557.105Q788.65 558.096 788.64 559.088Q788.631 560.08 788.573 561.071Q788.515 562.061 788.409 563.047Q788.302 564.034 788.148 565.014Q787.994 565.994 787.792 566.965Q787.59 567.936 787.341 568.896Q787.092 569.857 786.797 570.804Q786.501 571.751 786.16 572.682C781.907 584.129 773.768 592.501 762.741 597.516C755.844 600.533 749.574 601.075 742.153 600.349C737.339 588.457 731.138 577.187 725.694 565.586Q719.98 553.574 715.203 541.161Q710.425 528.747 706.612 516.004C714.501 516.106 722.42 515.339 730.324 515.254Z"/>
	<path fill="#E88F27" d="M818.67 108.099C817.694 107.015 816.367 106.276 815.389 105.11C812.621 101.811 811.251 97.2455 811.641 92.9745C812.325 85.4904 817.213 78.3244 823.024 73.7867C837.869 62.1948 858.74 62.2992 876.595 62.4471C884.119 62.5095 891.774 62.4278 899.251 63.3566C910.813 64.7928 924.809 68.7424 932.129 78.5198C935.799 83.4206 938.365 90.4856 937.403 96.6255C936.702 101.102 934.517 103.942 930.987 106.602C919.835 108.748 905.963 107.601 894.456 107.617Q865.63 107.567 836.808 108.048C831.522 108.11 824.516 106.604 819.517 107.911L818.67 108.099Z"/>
	<path fill="#00547E" d="M662.611 30.8074C663.202 31.0879 663.313 31.0965 663.858 31.5901C666.468 33.9533 667.073 41.8519 667.289 45.3034C668.528 65.1033 660.636 83.9558 647.57 98.5653C618 131.625 567.96 141.885 525.625 144.463L518.418 144.742C547.325 125.055 576.839 106.302 604.347 84.6358Q619.931 72.3238 634.518 58.8466Q649.106 45.3694 662.611 30.8074Z"/>
	<path fill="#FEFEFE" d="M0 655.191C15.16 652.666 29.7073 655.686 42.2974 664.746Q43.4271 665.571 44.5153 666.45Q45.6034 667.329 46.6476 668.26Q47.6917 669.191 48.6894 670.171Q49.687 671.152 50.6357 672.18Q51.5845 673.208 52.4821 674.28Q53.3797 675.353 54.2241 676.469Q55.0685 677.584 55.8576 678.739Q56.6467 679.894 57.3787 681.086Q58.1107 682.278 58.7838 683.504Q59.457 684.73 60.0697 685.988Q60.6824 687.245 61.2332 688.531Q61.784 689.817 62.2716 691.128Q62.7592 692.439 63.1824 693.772Q63.6057 695.106 63.9636 696.458Q64.3214 697.81 64.6131 699.178Q64.9048 700.546 65.1296 701.927C67.6261 717.915 62.5988 729.468 55.6626 743.492Q27.832 743.716 0 743.658L0 655.191Z"/>
	<path fill="#00547E" d="M624.85 24.1663Q627.211 23.8548 629.589 23.7129Q631.967 23.571 634.349 23.5993Q636.73 23.6277 639.104 23.8262Q641.478 24.0246 643.831 24.3922Q646.185 24.7598 648.506 25.2947Q650.827 25.8295 653.104 26.5289Q655.381 27.2282 657.602 28.0885Q659.823 28.9488 661.977 29.9656C655.231 37.982 647.03 45.4066 639.378 52.571C609.338 80.695 576.407 104.497 542.189 127.215Q529.933 135.169 518.088 143.722C529.731 119.439 541.976 96.4049 558.133 74.7228C574.056 53.3556 597.358 28.1818 624.85 24.1663Z"/>
	<path fill="#FEFEFE" d="M254.757 258.481C277.599 258.179 300.476 258.273 323.32 258.372Q323.098 285.685 323.191 312.997C323.18 322.84 323.518 332.842 322.858 342.664C321.863 343.743 320.789 343.605 319.379 343.838C310.929 344.396 301.967 342.688 294.067 339.737C277.749 333.641 263.411 320.993 256.3 304.996C249.59 289.902 248.873 273.912 254.757 258.481Z"/>
	<path fill="#FEFEFE" d="M363.142 45.87C363.378 46.0995 363.698 46.3906 363.911 46.6594C366.509 49.9382 368.244 55.1786 369.91 59.0616C379.948 82.4604 383.07 105.477 381.163 130.708C375.505 124.712 369.646 118.493 365.642 111.229C363.799 107.886 362.681 104.224 360.651 100.973L360.141 101.359C361.176 110.567 374.582 125.991 381.214 131.985C378.671 150.11 373.653 167.775 365.239 184.075C357.2 180.371 348.675 172.466 344.043 164.949C342.217 161.985 340.729 158.478 338.297 155.99L338.154 156.528C339.463 159.404 340.871 162.041 342.572 164.705C347.718 173.391 356.07 179.771 364.387 185.183C358.7 196.532 350.435 206.519 342.768 216.574C335.095 207.798 326.524 194.216 324.742 182.492C323.603 174.992 324.447 166.241 324.453 158.622L324.495 121.811C328.116 123.119 331.551 124.442 335.474 123.683C338.477 123.102 340.814 121.294 342.478 118.77C349.747 107.743 346.693 89.8121 343.957 77.9171C345.057 78.9408 346.157 79.9825 347.307 80.9485C349.077 82.4354 351.257 83.3186 353.605 83.0058C355.841 82.708 357.561 81.1431 358.82 79.3682C365.91 69.3696 365.023 57.2436 363.142 45.87Z"/>
	<path fill="#E88F27" d="M867.246 300.125L867.837 300.55C868.58 298.955 868.823 296.073 869.801 294.906L870.634 296.03L870.077 295.994C870.356 297.75 870.571 299.539 871.012 301.261C871.267 307.361 870.79 313.556 870.667 319.668C870.526 326.663 870.68 333.682 870.404 340.67C870.168 340.698 869.925 340.689 869.696 340.752C869.548 340.793 869.427 340.902 869.292 340.977C870.927 356.658 869.881 372.693 869.647 388.449C869.524 396.801 870.059 405.148 869.944 413.487C864.073 408.579 842.019 385.276 839.502 379.569C837.788 375.682 838.481 370.073 836.521 366.646L836.168 366.798Q836.812 372.946 838.136 378.985C833.14 373.006 828.05 367.066 823.305 360.885C818.08 354.076 808.219 339.78 802.085 334.792L802.071 334.806C802.202 334.91 802.339 335.006 802.463 335.117C803.191 335.769 802.746 335.386 803.25 336.504C805.116 340.644 812.055 347.96 815.043 351.73C832.074 373.219 848.597 393.698 867.769 413.385C867.183 414.178 867.545 413.977 866.516 414.133C861.802 414.844 853.215 412.558 848.376 411.779C838.261 410.149 828.102 408.805 817.984 407.202C807.721 405.576 786.617 401.36 776.917 402.25C777.261 402.648 854.113 412.807 863.342 415.334C851.729 420.444 812.846 438.77 806.167 446.906C824.371 435.212 850.241 419.576 871.2 414.298C865.694 419.721 859.519 425.186 853.1 429.493C840.093 438.219 816.546 448.033 801.505 453.006L798.363 453.533L798.197 453.06L798.868 453.71L798.26 452.799C803.521 441.208 813.368 430.664 816.678 418.757C814.291 418.69 811.751 418.716 809.424 418.154C801.622 416.27 794.235 411.509 787.051 408.005C782.096 405.587 776.963 403.47 771.936 401.202C780.486 397.043 789.661 396.097 798.392 392.724C802.185 391.259 805.483 389.051 808.953 386.971C811.114 387.829 814.391 389.378 816.734 389.003C818.061 388.791 818.278 388.504 819.045 387.522C819.715 377.594 810.097 376.177 806.454 368.76C803.412 362.57 804.903 354.834 803.733 348.173C802.492 341.101 800.011 334.392 797.297 327.774C803.146 331.569 809.166 335.078 815.533 337.94C820.787 340.302 829.34 342.208 833.617 345.701C836.683 348.206 839.334 352.745 841.885 355.849Q842.976 355.435 844.052 354.985C857.923 349.143 849.444 332.652 853.384 322.422C854.781 318.793 858.635 316.714 860.866 313.636C863.686 309.744 865.426 304.555 867.246 300.125Z"/>
	<path fill="#E88F27" d="M872.478 298.161C872.789 296.653 873.061 295.198 873.184 293.663L873.341 294.279L873.294 293.086C873.469 293.812 873.507 294.357 873.55 295.108C873.637 296.664 874.07 297.558 875.239 298.566C877.78 303.414 878.385 309.372 881.067 314.282C883.696 319.094 888.344 322.312 889.458 328.021C890.713 334.45 885.87 347.87 889.624 352.775C890.153 353.467 890.738 353.988 891.609 354.094C897.195 354.774 906.38 344.511 910.781 341.206L911.301 340.821C913.887 341.169 916.644 341.674 919.246 341.328C929.092 340.021 944.793 329.483 954.422 324.57C951.591 328.571 948.726 332.568 946.123 336.722C942.372 342.706 937.067 351.517 937.691 358.856C937.888 361.18 938.567 363.573 939.094 365.845C934.908 372.326 927.608 375.196 923.197 381.066C922.385 382.147 922.574 382.439 922.726 383.726C925.97 387.966 935.003 385.856 939.798 386.454C946.582 387.3 954.649 393.73 960.989 396.574C965.413 398.559 970.118 399.873 974.756 401.256C966.344 403.771 958.799 407.616 950.753 411.033C945.559 413.239 940.053 414.966 934.996 417.454C931.931 418.963 929.05 420.765 927.903 424.125C928.041 428.456 940.554 444.213 943.797 448.637C937.989 445.728 932.596 442.945 926.465 440.73C910.385 434.918 881.124 429.043 870.974 414.862C882.574 413.704 894.289 413.348 905.851 411.901C925.773 409.408 946.481 405.315 966.504 402.18C955.032 401.285 942.748 404.651 931.48 406.701C923.599 408.134 915.729 409.294 907.79 410.353C896.081 411.914 883.499 411.315 872.17 414.562C880.213 404.059 889.349 394.247 898.23 384.449C905.117 376.85 911.813 369.097 918.898 361.677C928.605 351.512 939.088 341.542 947.674 330.415L947.628 330.15C921.924 357.889 894.968 384.622 871.034 413.968C870.266 390.467 870.659 366.556 871.271 343.048C874.623 339.658 877.634 332.732 879.384 328.245C875.975 330.984 873.437 337.961 871.474 341.932C871.489 334.055 871.751 326.155 871.803 318.271C871.844 311.957 871.156 304.297 872.478 298.161Z"/>
	<path fill="#FEFEFE" d="M361.431 37.9248C364 40.1259 366.18 43.5855 368.339 46.229C374.532 53.813 384.155 64.1986 394.38 65.7874C399.053 66.5136 402.722 63.1491 406.277 63.8559C410.633 67.4418 406.347 78.3685 407.519 83.6658C410.314 96.294 425.622 92.1132 433.393 97.8351C443.286 105.121 426.604 124.651 428.246 134.739C429.585 142.964 439.297 141.343 444.439 145.201C445.867 146.272 446.437 147.616 446.559 149.378C447.2 158.656 439.713 168.838 433.971 175.449C410.534 202.429 378.736 214.612 343.81 216.943C347.586 212.381 351.062 207.626 354.55 202.843C358.7 197.328 362.215 191.639 365.502 185.586C378.765 183.912 397.01 182.452 407.206 172.84C403.352 173.668 399.362 176.896 395.52 178.376C386.132 181.993 376.417 183.096 366.502 184.164C374.403 168.062 379.008 151.304 382.173 133.743C382.437 133.658 382.69 133.513 382.966 133.488C387.853 133.043 389.779 132.837 394.293 130.675C398.67 128.578 410.49 120.767 411.715 116.194C411.925 115.41 411.809 115.602 411.288 114.869C409.358 115.863 407.966 119.075 406.439 120.719C402.553 124.901 396.875 128.695 391.534 130.712C389.056 131.649 385.246 132.915 382.76 131.772C382.168 126.816 382.861 121.439 382.846 116.423C382.805 102.014 381.26 88.4139 376.949 74.5914Q373.326 63.1388 368.259 52.2478C366.147 47.7281 362.682 43.267 361.533 38.4013C361.496 38.2432 361.465 38.0836 361.431 37.9248Z"/>
	<path fill="#E88F27" d="M153.733 78.8592C161.048 79.3379 167.398 79.8834 174.746 79.2191C184.436 84.9436 191.452 95.9967 195.945 106.007C206.52 129.568 207.458 162.059 198.192 186.185C193.876 197.425 187.455 209.562 175.957 214.692C171.693 216.068 167.513 216.857 163.012 216.518C155.225 215.933 148.425 212.532 143.292 206.635C128.802 189.989 124.248 162.414 125.871 141.076C127.642 117.789 135.531 94.4236 153.733 78.8592Z"/>
	<path fill="#B3CCDC" d="M913.139 796.159C916.111 795.927 920.185 795.133 922.631 797.268C925.965 800.179 924.599 807.416 924.716 811.447C925.157 826.67 939.783 825.084 947.242 832.656C957.305 842.871 933.32 853.825 933.649 864.338C933.951 874.012 947.794 876.29 953.533 881.905C955.143 883.48 956.204 885.226 956.122 887.544C955.864 894.913 934.934 906.602 929.294 912.359C919.171 922.693 926.331 924.383 926.003 934.492C925.936 936.557 925.131 938.671 923.419 939.926C920.127 942.339 915.462 943.424 911.667 944.765C902.672 947.944 895.646 952.545 888.666 959.014C889.841 943.994 892.722 928.787 894.85 913.859C899.911 908.293 923.992 891.542 925.744 887.139C924.809 887.155 924.392 887.45 923.667 887.991C919.212 891.317 915.093 895.416 910.872 899.064C905.82 903.429 900.51 907.415 895.106 911.331C896.753 897.182 898.015 882.717 900.591 868.717C904.696 864.293 923.833 848.909 925.229 845.571C922.628 845.843 903.745 864.174 900.34 867.14C901.913 854.913 902.853 842.425 903.751 830.126C903.845 829.462 903.869 829.845 903.446 829.016C901.298 833.049 899.687 860.8 899.104 866.953C896.138 861.846 888.71 848.157 884.884 844.679L884.681 844.995Q891.651 857.337 899.129 869.377C897.419 883.542 895.814 897.729 893.936 911.872C888.469 906.156 879.78 889.682 874.665 886.244L874.252 886.807C880.597 895.963 886.805 905.275 893.659 914.061C892.42 926.328 890.255 938.558 888.511 950.766C887.723 956.28 887.569 962.06 886.467 967.498C886.296 968.343 886.011 968.957 885.535 969.668L885.037 969.139C884.907 965.786 886.541 961.81 887.068 958.385C883.458 951.794 879.361 945.869 873.647 940.917C870.195 937.926 861.362 933.476 859.363 929.93C857.217 926.125 863.148 920.387 864.081 916.621C867.517 902.743 848.359 896.832 842.807 887.243C841.94 885.745 841.448 884.014 841.958 882.308C843.826 876.056 851.162 874.612 856.134 871.719C860.177 869.367 862.172 866.646 863.444 862.185L863.632 861.505C861.796 851.471 852.45 845.654 851.042 837.176C850.758 835.463 851.106 833.833 852.148 832.433C856.462 826.631 870.96 829.212 877.74 827.967C893.21 825.128 888.631 813.445 895.426 804.048C899.523 798.383 906.697 797.162 913.139 796.159Z"/>
	<path fill="#E88F27" d="M116.171 396.102C118.088 396.101 120.24 396.363 121.962 395.414C122.686 394.238 122.835 393.641 122.518 392.257C120.452 383.235 93.0813 377.369 104.056 356.154C105.498 353.366 107.721 351.37 110.738 350.448C116.773 348.604 129.716 355.368 133.47 348.743C134.462 346.993 134.227 344.931 133.545 343.118C131.374 337.348 126.915 332.136 129.552 325.576C130.452 323.336 132.246 321.988 134.446 321.117C141.139 318.469 149.574 324.342 152.45 318.561C155.103 313.227 154.639 302.494 161.081 300.106C163.152 299.338 165.713 299.19 167.762 300.105C170.302 301.241 171.613 303.759 172.453 306.275C173.788 310.272 172.939 318.391 176.184 320.969C182.752 323.007 193.427 310.143 198.37 318.857C199.918 321.587 200.007 324.765 199.099 327.719C197.08 334.285 185.926 344.252 187.581 349.125C189.886 351.741 193.278 352.121 196.59 352.322C203.175 352.722 213.005 351.507 217.815 356.917C220.362 359.782 220.819 362.989 220.51 366.711C220.096 371.702 217.5 375.597 213.67 378.685C208.975 382.472 195.004 387.721 193.342 392.883C193.62 394.286 193.504 394.842 194.789 395.649C198.91 398.237 206.829 395.516 208.977 401.712C209.716 403.842 209.319 406.327 208.279 408.286C203.78 416.767 192.374 418.128 186.259 425.026C188.567 429.153 190.665 432.595 189.201 437.504C187.202 444.206 173.57 453.955 168.311 459.849C166.078 462.541 163.82 465.188 161.463 467.773C160.036 455.472 160.852 442.375 160.822 429.986L181.682 410.839C184.431 408.282 187.478 404.532 190.549 402.559C190.728 402.444 190.95 402.416 191.151 402.345L191.02 402.006L191.888 401.222L191.542 401.135C186.057 403.745 166.91 422.883 160.936 428.209C160.32 413.494 160.464 398.771 160.512 384.047C169.392 378.122 176.422 369.918 184.76 363.31C185.496 362.727 185.514 362.745 185.886 361.812C185.653 361.782 185.414 361.657 185.188 361.722C183.881 362.099 164.052 379.754 160.381 382.531C161.117 374.92 164.278 348.106 162.597 342.696C160.46 355.088 160.477 368.283 159.307 380.849C155.915 376.175 140.091 352.603 138.169 351.178L138.051 352.163C143.336 361.224 152.577 375.118 159.583 382.772C158.329 397.543 159.093 412.831 159.448 427.645C151.195 419.815 143.97 410.296 136.67 401.584C134.309 398.765 131.993 395.543 129.36 392.99C128.809 392.456 129.091 392.516 128.589 392.525C129.067 396.569 154.378 423.741 159.557 429.42Q159.567 449.075 160.078 468.723C155.802 464.106 151.622 459.368 147.151 454.939C141.963 449.802 133.292 444.388 130.249 437.662C128.33 433.42 132.249 430.153 133.428 426.431C133.715 425.525 133.751 424.721 133.27 423.859C131.178 420.11 115.698 415.09 110.984 404.449C110.402 403.136 110.112 401.556 110.778 400.211C111.854 398.036 113.958 396.804 116.171 396.102Z"/>
	<path fill="#E88F27" d="M127.061 779.067C128.734 778.876 130.638 778.545 132.199 779.371C136.776 781.795 137.905 790.602 139.137 795.133C142.49 807.469 148.9 810.116 160.702 811.993C163.224 812.394 165.901 812.684 168.116 814.054C175.239 818.462 166.147 830.908 167.813 837.804C169.864 846.289 180.257 842.181 185.796 845.698C187.221 846.602 188.18 848.042 188.536 849.687C189.779 855.421 174.736 867.007 171.25 873.203C164.032 886.032 180.531 885.765 182.425 893.935C182.867 895.84 182.382 897.692 181.614 899.442C178.249 907.109 163.05 917.519 156.932 925.684C148.221 937.311 145.068 951.086 138.006 963.428C137.742 942.549 139.04 921.153 136.371 900.416C139.213 897.778 148.83 886.804 149.473 883.479L149.114 884.265L148.929 883.881C144.465 888.368 140.672 893.73 136.628 898.607C135.204 885.847 134.775 872.87 133.799 860.058C136.93 854.494 147.544 841.694 148.04 836.276L147.506 836.278C142.78 843.352 138.8 850.686 133.719 857.578C131.629 842.956 131.961 823.356 127.815 809.591C126.907 813.415 129.835 829.808 130.392 834.886Q131.37 846.228 132.59 857.547C126.277 851.309 120.165 843.307 113.088 838.063L113.315 838.409C113.442 838.6 113.573 838.789 113.698 838.981C118.548 846.406 125.94 853.174 132.657 858.946C132.749 872.139 134.465 885.731 135.382 898.918C130.56 895.064 114.633 878.955 110.071 878.204C112.776 881.159 116.074 883.618 119.082 886.264C124.52 891.047 129.853 895.917 135.378 900.603C137.736 920.949 136.983 943.149 137.049 963.668C129.89 954.198 124.657 940.114 114.572 933.502C108.86 929.756 94.0033 929.405 90.7148 924.843C87.6554 920.598 101.571 913.402 101.587 905.665C101.612 893.405 81.839 890.083 74.9717 882.787C73.4779 881.2 72.521 879.211 72.672 876.998C73.221 868.947 88.9022 867.025 94.2565 862.302C96.012 860.753 97.0604 858.668 97.1537 856.319C97.3829 850.548 91.0521 845.106 87.5417 841.108C86.0888 839.453 84.1211 836.926 84.59 834.548C85.6967 828.935 99.2605 828.533 103.737 826.01C115.511 819.373 114.079 804.484 117.077 793.255C118.733 787.05 121.435 782.369 127.061 779.067Z"/>
	<path fill="#FEFEFE" d="M510.034 243.73C512.974 244.966 523.519 259.158 527.179 262.894C533.198 269.037 540.1 274.992 546.812 280.378C565.041 295.003 588.47 307.482 612.216 308.323C621.413 308.649 630.571 306.976 639.253 310.943C644.586 313.379 648.619 317.289 650.511 322.919C652.172 327.859 652.634 333.678 650.294 338.461C643.948 351.436 631.269 358.712 618.104 363.264C615.553 386.663 604.168 411.541 587.706 428.508C573.674 442.969 555.685 454.735 535.376 457.265C528.566 458.113 521.37 457.836 514.501 457.915C495.133 458.158 480.77 458.713 462.722 450.088Q459.539 448.553 456.492 446.765Q453.445 444.976 450.553 442.945Q447.662 440.914 444.945 438.654Q442.229 436.394 439.706 433.92C424.148 418.831 413.731 399.518 408.26 378.633C406.941 373.599 405.524 368.149 405.437 362.922Q401.574 361.855 397.908 360.236Q394.242 358.617 390.851 356.482C382.76 351.487 374.066 343.683 372.008 333.968C370.906 328.765 372.407 323.396 375.286 319.016C383.856 305.983 397.469 308.636 410.728 308.583C415.587 308.563 420.346 307.855 425.078 306.787C456.727 299.646 492.753 270.867 510.034 243.73Z"/>
	<path d="M482.345 387.052C493.107 389.257 532.619 389.329 542.542 386.896C540.159 389.788 537.267 392.035 534.293 394.279C531.953 395.874 529.485 397.43 526.941 398.675C518.517 402.799 509.939 403.45 501.069 400.3C495.065 398.167 485.172 393.087 482.345 387.052Z"/>
	<path fill="#E88F27" d="M537.396 389.29L537.72 389.492L537.428 390.217C532.795 393.694 527.028 397.654 521.482 399.43C511.651 402.578 502.485 400.102 493.664 395.44C490.764 393.653 488.261 391.712 485.712 389.454C502.907 390.042 520.218 390.392 537.396 389.29Z"/>
	<path d="M569.677 312.073C573.093 311.789 576.469 311.843 579.649 313.288C583.084 314.849 585.701 317.577 586.882 321.187C587.97 324.515 587.777 328.238 586.152 331.359C584.163 335.177 580.835 337.14 576.889 338.463C573.496 339.003 570.874 339.153 567.689 337.68Q567.017 337.369 566.381 336.992Q565.744 336.615 565.148 336.176Q564.553 335.737 564.005 335.24Q563.457 334.743 562.961 334.193Q562.466 333.643 562.029 333.046Q561.592 332.449 561.217 331.811Q560.842 331.173 560.534 330.501Q560.225 329.828 559.986 329.128Q559.771 328.517 559.619 327.887Q559.467 327.258 559.38 326.616Q559.293 325.974 559.271 325.327Q559.249 324.679 559.292 324.033Q559.336 323.387 559.445 322.748Q559.554 322.11 559.727 321.486Q559.9 320.862 560.135 320.258Q560.37 319.655 560.665 319.078C562.644 315.237 565.741 313.45 569.677 312.073Z"/>
	<path d="M452.58 311.567C455.415 311.408 458.585 312.417 460.958 313.936C464.148 315.979 466.222 319.326 466.883 323.035C467.542 326.731 466.769 330.679 464.511 333.715C461.566 337.673 457.984 338.755 453.349 339.44C450.766 339.189 448.466 338.775 446.151 337.538C442.677 335.684 440.056 332.691 439.064 328.84Q438.904 328.229 438.806 327.605Q438.707 326.981 438.671 326.35Q438.634 325.719 438.659 325.088Q438.685 324.457 438.772 323.831Q438.86 323.205 439.008 322.591Q439.157 321.977 439.365 321.381Q439.573 320.784 439.839 320.211Q440.105 319.638 440.426 319.094C443.201 314.428 447.621 312.843 452.58 311.567Z"/>
	<path fill="#EDA785" d="M565.414 350.59C568.523 350.68 571.691 351.491 574.353 353.127Q574.971 353.5 575.548 353.935Q576.125 354.369 576.654 354.86Q577.183 355.351 577.66 355.893Q578.137 356.435 578.555 357.024Q578.974 357.612 579.331 358.239Q579.688 358.867 579.979 359.528Q580.269 360.189 580.491 360.876Q580.713 361.563 580.864 362.269Q581.025 363.034 581.106 363.812Q581.187 364.589 581.188 365.371Q581.189 366.153 581.11 366.931Q581.03 367.708 580.872 368.474Q580.713 369.239 580.476 369.985Q580.24 370.73 579.928 371.447Q579.616 372.164 579.232 372.845Q578.849 373.526 578.397 374.164C575.45 378.284 571.706 379.751 566.933 380.593C563.648 380.463 560.34 379.744 557.474 378.088C554.139 376.161 551.535 373.04 550.7 369.232C549.846 365.336 550.899 361.349 553.141 358.106C556.126 353.787 560.395 351.628 565.414 350.59Z"/>
	<path fill="#EDA785" d="M457.94 351.16C460.669 351.234 463.29 351.741 465.726 353.009Q466.369 353.342 466.975 353.74Q467.58 354.138 468.141 354.597Q468.701 355.056 469.212 355.57Q469.722 356.085 470.176 356.649Q470.629 357.214 471.022 357.823Q471.415 358.431 471.743 359.078Q472.07 359.724 472.329 360.4Q472.588 361.077 472.775 361.777C473.919 365.916 473.091 370.339 470.881 373.977C467.992 378.734 464.047 380.466 458.877 381.619C455.105 381.312 451.753 380.603 448.635 378.334Q448.032 377.898 447.475 377.403Q446.919 376.907 446.416 376.358Q445.913 375.809 445.469 375.212Q445.024 374.615 444.642 373.976Q444.26 373.336 443.945 372.662Q443.63 371.987 443.385 371.284Q443.14 370.581 442.967 369.856Q442.795 369.132 442.697 368.394C442.145 364.518 443.042 360.514 445.444 357.392C448.603 353.286 453.012 351.803 457.94 351.16Z"/>
	<path fill="#00547E" d="M214.003 1023.47C218.062 1000.54 220.228 977.107 223.434 954.034C228.199 919.733 233.535 885.755 236.244 851.187C238.811 818.427 237.264 784.681 242.891 752.271C245.34 738.162 249.726 724.141 253.861 710.431C263.782 677.538 278.163 642.783 301.487 616.979C312.536 604.754 325.127 594.669 338.584 585.238L338.928 681.527C338.956 696.083 337.886 710.794 338.784 725.318C338.963 728.776 339.2 732.238 339.146 735.703C338.588 747.894 338.967 760.246 338.968 772.458L338.984 838.847L339.007 869.922C339.014 874.556 338.287 881.058 339.411 885.498C339.742 894.316 340.171 904.073 339.303 912.839C338.422 918.138 339.042 924.397 339.012 929.789L338.965 970.466L339.011 1007.37C339.035 1012.41 338.458 1018 339.227 1022.95C340.156 1023.59 339.732 1023.43 340.412 1023.62L340.475 1024L220.799 1024L213.988 1024L214.003 1023.47Z"/>
	<path fill="#02658B" d="M214.003 1023.47C216.315 1023.47 218.564 1023.32 220.799 1024L213.988 1024L214.003 1023.47Z"/>
	<path fill="#00547E" d="M684.665 580.767C703.837 593.8 717.312 603.076 732.385 621.415C758.125 652.73 771.419 703.632 780.122 742.833C781.441 748.774 783.067 754.65 784.19 760.632C786.403 772.426 787.152 784.495 788.036 796.445Q789.888 820.022 791.292 843.629Q793.442 876.529 796.025 909.397Q799.203 942.738 803.198 975.99L807.093 1008.38C807.679 1013.23 807.764 1018.94 809.142 1023.59L809.082 1024L686.01 1024L684.129 1023.34L685.277 1022.86C686.376 1018.84 685.506 995.912 685.501 990.07L685.087 879.5L684.676 721.884Q685.253 676.504 684.992 631.122C684.984 614.358 685.263 597.523 684.665 580.767Z"/>
	<path fill="#00547E" d="M61.3143 258.514L253.349 258.501C247.646 275.165 248.416 291.949 256.188 307.879C263.855 323.596 278.817 335.931 295.322 341.428C304.534 344.496 313.142 345.164 322.772 344.797Q322.466 378.163 322.625 411.531C322.632 420.791 323.593 431.777 322.407 440.857L321.95 441.192L321.27 441.009C318.963 440.403 316.583 439.67 314.456 441.21C310.871 443.805 312.77 450.994 307.007 451.236C304.046 451.361 300.86 448.022 298.304 450.579C296.22 452.662 295.286 457.207 294.916 459.989C294.75 461.242 294.55 462.492 294.375 463.743C291.089 462.073 286.23 458.86 282.374 460.014C280.562 460.557 278.888 461.594 278.049 463.345C276.018 467.588 280.109 472.239 276.467 476.025C271.221 477.742 264.535 471.381 260.685 477.755C257.865 482.423 265.1 491.234 259.835 493.683C255.924 495.503 247.377 492.124 244.504 496.217C243.432 497.743 243.864 499.978 244.362 501.626C245.591 505.693 247.893 508.7 250.484 511.987C228.89 510.733 206.842 511.612 185.207 511.619C177.662 511.622 169.612 512.209 162.119 511.502C161.674 506.814 161.963 501.852 161.94 497.133L161.858 469.607L168.894 460.766C174.549 454.892 188.439 444.893 190.556 437.979C192.108 432.91 190.112 429.318 187.797 424.983C195.139 419.354 204.806 417.451 209.868 408.881C211.019 406.934 211.591 404.828 210.892 402.613C208.238 394.196 199.282 396.369 195.685 394.296C194.982 393.891 195.139 393.488 195.021 392.768C195.986 390.249 213.416 381.497 218.133 375.783C220.947 372.374 222.938 368.098 222.285 363.594C219.534 344.592 197.95 355.156 189.281 348.914C187.36 344.374 199.023 334.642 200.892 326.765C201.658 323.54 201.176 320.533 199.396 317.73C193.081 307.788 184.274 321.359 178.245 319.738C174.683 318.779 175.006 306.576 172.719 302.926C170.484 299.358 167.402 298.575 163.558 297.757C162.369 298.107 161.148 298.471 160.015 298.976C153.741 301.773 154.301 310.664 152.08 316.111C148.367 325.214 142.117 315.665 134.096 319.5C131.876 320.561 130.321 322.406 129.166 324.535C123.572 334.855 134.363 341.243 131.951 347.851C129.943 353.352 116.07 345.949 108.654 349.531C104.961 351.314 102.542 354.664 101.303 358.505C96.9449 372.011 106.351 379.4 115.492 387.011C117.204 388.436 119.601 390.185 120.586 392.221C121.075 393.231 120.913 393.411 120.527 394.384C119.207 395.221 117.845 394.988 116.351 394.927C114.111 395.392 112.373 395.801 110.98 397.744C109.647 399.603 109.425 401.913 109.872 404.107C111.148 410.376 116.436 414.504 121.574 417.68C124.646 419.578 130.338 421.915 131.891 425.173C130.814 431.651 125.505 434.211 130.349 440.855C134.046 445.926 139.285 449.401 143.747 453.719C149.36 459.152 154.504 465.05 160.223 470.386C160.154 483.909 160.523 497.441 160.532 510.968C157.27 512.499 75.6328 511.573 63.7085 511.561C64.4889 506.471 65.7183 501.497 65.986 496.327C66.8086 480.444 60.1802 462.263 49.5182 450.51Q48.4654 449.349 47.3561 448.242Q46.2468 447.135 45.0837 446.084Q43.9206 445.034 42.7066 444.042Q41.4927 443.051 40.2308 442.122Q38.969 441.192 37.6624 440.326Q36.3558 439.461 35.0077 438.661Q33.6596 437.862 32.2734 437.131Q30.8872 436.4 29.4663 435.738Q28.0453 435.077 26.5932 434.487Q25.1411 433.898 23.6614 433.381Q22.1817 432.864 20.6782 432.422Q19.1746 431.98 17.6508 431.613Q16.1271 431.246 14.587 430.956Q13.0469 430.665 11.4942 430.452Q9.94149 430.238 8.3801 430.103Q6.81872 429.967 5.25251 429.909C3.59534 429.857 1.76983 429.611 0.533669 430.76L0 430.988L0 345.886C18.3047 344.913 36.5925 337.738 49.1007 323.97C59.85 312.138 66.4411 294.207 65.554 278.221C65.1805 271.49 63.3603 264.906 61.3143 258.514Z"/>
	<path fill="#B3CCDC" d="M324.331 0L445.34 0L454.789 0L463.898 0L520.5 0L672.209 0L699.077 0L700.378 0L700.233 38.7116C695.248 42.1116 683.466 49.2165 680.218 53.7306L680.732 53.9126C687.351 49.4397 693.651 44.3935 700.197 39.7866C700.837 55.3464 700.193 71.1564 700.118 86.7413C695.338 85.6744 690.771 85.5835 686.396 88.1231C679.628 92.0511 677.427 99.2246 675.497 106.284C670.947 98.4706 666.071 90.7926 659.364 84.6393Q661.439 80.7461 663.062 76.6433Q664.684 72.5405 665.832 68.2806C668.974 56.4284 670.572 40.5966 664.126 29.5561C666.983 26.0002 674.468 17.2573 675.01 12.9925C674.881 13.0061 664.63 27.3529 663.246 29.0258Q662.693 28.7445 662.132 28.4799C647.659 21.6725 628.351 20.1499 613.252 25.7367C569.059 42.0882 534.194 105.815 515.265 146.315C531.373 145.782 547.515 144.552 563.369 141.544C601.384 134.331 636.402 118.61 658.818 85.6212C665.583 91.6078 670.457 100.304 675.379 107.775C675.237 111.915 675.367 120.256 672.315 123.523C669.162 126.899 660.706 122.23 656.158 122.921C646.905 124.328 646.492 133.781 641.878 139.95C641.775 140.088 641.666 140.222 641.56 140.357C637.081 140.829 633.487 141.271 630.5 145.095C627.864 148.468 627.644 153.216 628.071 157.302C629.82 174.047 641.95 191.035 654.733 201.323C653.355 204.53 651.692 207.83 650.898 211.229C653.349 209.944 654.898 204.351 655.92 201.84C670.629 205.594 685.108 205.749 700.076 203.475L700.119 255.133Q667.721 255.707 635.319 255.411C624.146 238.172 611.715 223.213 594.42 211.775C567.923 194.252 537.504 188.361 506.216 188.118C494.361 188.026 482.653 188.55 470.996 190.949Q466.949 191.772 462.966 192.86Q458.982 193.948 455.079 195.297Q451.176 196.645 447.37 198.248Q443.564 199.85 439.872 201.7C413.394 214.662 398.216 232.892 382.362 256.961Q353.318 256.508 324.271 256.496C324.702 233.52 323.992 210.541 324.417 187.575C329.057 198.905 334.71 208.759 342.345 218.333L345.075 218.195C377.983 216.366 411.555 202.417 433.658 177.481C439.643 170.729 448.732 158.535 447.794 148.904C447.074 141.503 436.359 142.573 431.828 138.692C423.53 131.585 438.823 113.821 437.546 103.018C436.267 92.1934 419.212 94.6541 412.078 88.9112C404.394 82.7254 410.925 73.354 409.652 65.7445C409.473 64.6744 409.044 63.6379 408.045 63.0858C406.12 62.0219 403.543 62.6492 401.672 63.4577L397.392 65.2573C378.74 61.8918 368.593 43.8747 357.553 30.3942C360.302 41.815 365.045 52.6018 363.318 64.6535C362.533 70.1363 359.913 77.8526 355.191 81.0553C349.359 85.0104 347.132 76.7162 343.093 76.028C342.54 77.0063 342.559 77.6135 342.705 78.7032C344.454 91.7402 348.283 103.224 342.751 116.273C341.718 118.711 340.032 120.898 337.497 121.872C333.059 123.579 328.62 122.042 324.518 120.254L324.331 0Z"/>
	<path fill="#737373" d="M445.34 0L454.789 0L454.961 0.511533C451.774 0.573264 448.46 0.695644 445.34 0Z"/>
	<path fill="#649CBF" d="M672.209 0L699.077 0C690.373 1.25399 680.816 0.678483 672.035 0.533511L672.209 0Z"/>
	<path d="M454.789 0L463.898 0L520.5 0L672.209 0L672.035 0.533511C656.207 -0.13489 640.061 0.575454 624.204 0.605621L520.483 0.674137L518.138 1.13249C518.563 1.97388 518.7 2.05986 519.346 2.67555C526.175 9.17792 530.334 19.9573 530.422 29.3018C530.522 39.8313 525.679 51.5666 518.238 59.0082Q517.554 59.6834 516.838 60.3241Q516.121 60.9648 515.374 61.5695Q514.627 62.1742 513.852 62.7415Q513.076 63.3087 512.273 63.8371Q511.47 64.3656 510.642 64.8539Q509.815 65.3422 508.964 65.7892Q508.113 66.2363 507.241 66.6409Q506.37 67.0456 505.479 67.4069Q504.589 67.7682 503.681 68.0853Q502.774 68.4024 501.852 68.6744Q500.93 68.9465 499.996 69.173Q499.062 69.3994 498.118 69.5797Q497.174 69.7599 496.223 69.8935Q495.271 70.0272 494.314 70.1138Q493.357 70.2005 492.396 70.24Q491.436 70.2795 490.475 70.2717C479.72 70.2137 470.013 65.879 462.523 58.1994C454.991 50.4769 450.894 40.5662 451.149 29.77C451.366 20.5808 453.959 14.24 459.599 7.03562C461.158 5.0447 463.089 2.98749 464.301 0.777523C461.288 0.316238 458.013 0.519966 454.961 0.511533L454.789 0Z"/>
	<path fill="#FEFEFE" d="M465.999 0.941756C482.38 0.914033 498.831 0.567765 515.203 1.01563C517.933 2.94766 520.031 5.10623 522.008 7.7778C528.19 16.1297 530.364 25.9679 528.754 36.2024C526.882 48.1026 520.509 56.6114 510.938 63.4752Q509.911 64.1081 508.846 64.6746Q507.781 65.2412 506.683 65.7391Q505.584 66.2371 504.456 66.6645Q503.328 67.0918 502.175 67.4469Q501.022 67.802 499.849 68.0833Q498.676 68.3647 497.488 68.5712Q496.299 68.7776 495.1 68.9084Q493.901 69.0392 492.696 69.0938C482.308 69.5819 472.656 66.2157 465.003 59.1563C457.332 52.08 452.589 42.464 452.283 31.9964C451.883 18.3396 456.964 10.5549 465.999 0.941756Z"/>
	<path fill="#00547E" d="M765.473 258.469C808.808 257.686 852.328 258.277 895.673 258.412C927.239 258.511 958.857 257.986 990.413 258.42Q989.686 259.844 989.034 261.304C982.709 275.71 982.921 291.595 988.614 306.112C995.09 322.624 1007.86 334.602 1024 341.618L1024 341.872L1024 441.998L1023.46 442.047C1013.03 447.793 1004.42 455.938 998.599 466.389C990.83 480.341 988.567 495.811 992.903 511.169C951.991 510.489 910.912 510.807 869.994 511.22C869.981 479.818 869.135 448.024 870.736 416.673C883.58 432.331 908.032 435.338 926.196 442.179C933.56 444.953 940.256 449.028 947.58 451.843C945.053 447.757 929.679 426.761 929.475 424.644C929.436 424.25 929.594 423.862 929.654 423.47C930.88 421.683 932.537 420.473 934.399 419.384C939.011 416.685 944.549 415.066 949.464 412.956C959.096 408.821 968.335 404.427 978.34 401.172C973.002 398.855 967.331 397.372 961.965 395.111C954.497 391.964 945.286 384.805 936.947 384.896C933.054 384.939 928.082 385.371 924.507 383.649C923.52 380.637 932.137 375.082 934.284 373.385C946.903 363.408 935.96 362.312 940.192 351.686C944.332 341.294 951.957 333.106 956.319 323.057C956.409 322.851 956.493 322.643 956.58 322.436C945.792 326.917 929.121 338.209 919.269 339.839C916.75 340.255 913.817 339.697 911.287 339.417C905.542 342.791 901.465 348.435 895.646 351.808C894.284 352.597 893.098 353.208 891.497 352.771C888.952 349.571 890.458 342.233 890.835 338.319C891.215 334.364 892.112 329.84 890.891 325.986C889.142 320.467 884.228 316.95 881.986 311.765C877.792 302.066 876.28 291.699 872.542 281.978L872.269 281.282C871.045 284.418 869.643 287.48 868.52 290.657C866.321 296.878 864.729 304.188 861.058 309.716C858.306 313.861 854.438 317.042 851.485 321.032C851.369 321.19 851.255 321.35 851.14 321.51C850.163 330.54 852.174 339.983 848.524 348.604C847.594 350.8 846.684 352.566 844.391 353.491C839.879 353.357 836.774 345.679 833.348 343.062C829.228 339.915 819.918 337.679 814.919 335.452C808.172 332.448 801.752 328.858 795.346 325.19C797.153 332.607 800.363 339.556 801.815 347.101C803.223 354.419 801.49 363.589 805.083 370.259C807.306 374.386 811.848 376.254 814.813 379.706C816.489 381.657 817.183 383.972 816.918 386.506L816.211 386.982C813.882 387.001 811.553 386.003 809.351 385.298C805.148 386.481 801.7 389.402 797.619 390.909C787.019 394.82 776.862 395.617 767.072 401.937C784.152 405.755 797.683 419.495 814.312 420.614C811.288 428.438 806.034 434.703 801.868 441.892C799.109 446.654 797.006 451.753 794.266 456.539C812.297 451.57 822.509 447.432 839.049 439.126C844.1 436.589 849.296 434.154 854.02 431.038C859.008 427.748 863.528 423.655 868.409 420.178C869.003 450.527 867.969 481.035 867.971 511.409C835.304 511.379 802.548 511.044 769.889 511.666C770.738 508.662 771.661 505.813 771.287 502.651C770.911 499.469 769.646 496.592 767.021 494.644C763.982 492.389 760.837 492.009 757.197 492.494C756.878 489.431 756.59 486.443 755.407 483.563C752.772 477.148 748.854 474.831 742.059 474.792C740.797 474.785 739.204 475.031 738.055 474.443C736.39 473.591 736.046 470.243 735.596 468.592C734.843 465.826 733.754 463.664 731.137 462.275C726.448 459.785 723.163 460.795 718.532 462.208C716.342 459.423 717.223 455.878 715.475 452.983C712.77 448.503 706.765 447.035 702.032 445.921L701.997 344.215Q703.074 344.14 704.145 343.999C721.81 341.793 740.084 330.676 750.932 316.697C763.881 300.01 768.077 279.163 765.473 258.469Z"/>
	<path fill="#02658B" d="M1023.46 442.047C1023.41 428.895 1022.73 345.284 1024 341.872L1024 441.998L1023.46 442.047Z"/>
	<path fill="#00547E" d="M869.586 512.918L1024 513.15L1024 513.456L1024 653.554L1023.58 653.613C1020.69 654.581 1017.83 655.648 1015.16 657.107C1001.81 664.383 991.023 678.362 986.886 692.95C981.738 711.102 984.078 728.133 993.158 744.533L782.325 744.521C777.876 720.984 770.812 697.889 762.929 675.295C760.301 667.762 756.384 660.614 754.123 652.971C752.746 648.318 753.616 642.876 752.861 638.038C750.904 625.487 747.218 613.708 742.84 601.829C751.484 602.446 758.979 601.046 766.71 597.053C776.876 591.803 784.852 581.717 788.231 570.84Q788.522 569.872 788.766 568.891Q789.01 567.91 789.206 566.919Q789.402 565.927 789.55 564.928Q789.698 563.928 789.797 562.922Q789.897 561.916 789.947 560.907Q789.998 559.897 790 558.886Q790.002 557.876 789.955 556.866Q789.907 555.857 789.812 554.85Q789.716 553.844 789.571 552.844Q789.427 551.844 789.234 550.851Q789.041 549.859 788.801 548.877Q788.561 547.896 788.273 546.927Q787.985 545.958 787.651 545.004Q787.317 544.05 786.937 543.113Q786.557 542.177 786.132 541.26Q785.708 540.343 785.239 539.447C777.749 525.311 766.808 518.448 751.92 513.936C761.988 513.986 772.004 513.13 782.066 513.039L867.969 512.9C867.925 518.211 867.232 524.35 868.311 529.522L868.888 529.79C870.542 525.47 869.607 517.691 869.586 512.918Z"/>
	<path fill="#FEFEFE" d="M965.002 539.167Q965.762 539.083 966.525 539.032Q967.288 538.981 968.053 538.962Q968.817 538.944 969.582 538.958Q970.347 538.972 971.11 539.019Q971.873 539.066 972.634 539.146Q973.394 539.225 974.151 539.338Q974.907 539.45 975.659 539.594Q976.41 539.739 977.154 539.915Q977.898 540.091 978.634 540.299Q979.37 540.507 980.096 540.747Q980.822 540.986 981.538 541.257Q982.253 541.527 982.956 541.827Q983.66 542.128 984.349 542.458Q985.039 542.789 985.714 543.149Q986.389 543.508 987.047 543.897Q987.706 544.285 988.348 544.701Q989.053 545.162 989.734 545.656Q990.415 546.151 991.072 546.678Q991.728 547.205 992.358 547.764Q992.988 548.322 993.59 548.911Q994.193 549.499 994.765 550.116Q995.338 550.733 995.88 551.378Q996.422 552.022 996.932 552.692Q997.442 553.362 997.919 554.056Q998.396 554.749 998.838 555.466Q999.281 556.182 999.688 556.919Q1000.09 557.656 1000.47 558.412Q1000.84 559.168 1001.17 559.941Q1001.5 560.714 1001.8 561.502Q1002.09 562.291 1002.35 563.092Q1002.61 563.894 1002.82 564.708Q1003.04 565.521 1003.22 566.344C1005.07 575.241 1003.05 584.912 998.054 592.478C992.387 601.053 984.208 605.4 974.341 607.362C965.311 608.45 957.449 606.979 949.978 601.636Q949.25 601.125 948.548 600.578Q947.846 600.031 947.172 599.449Q946.499 598.868 945.855 598.253Q945.212 597.638 944.6 596.992Q943.988 596.346 943.41 595.669Q942.831 594.993 942.287 594.289Q941.744 593.584 941.236 592.853Q940.728 592.122 940.258 591.367Q939.788 590.612 939.356 589.833Q938.924 589.055 938.532 588.257Q938.14 587.458 937.788 586.64Q937.437 585.823 937.127 584.988Q936.817 584.154 936.549 583.306Q936.282 582.457 936.057 581.596Q935.832 580.735 935.651 579.864Q935.47 578.992 935.333 578.113C933.898 568.903 936.403 560.174 941.923 552.736C947.788 544.831 955.353 540.665 965.002 539.167Z"/>
	<path fill="#FEFEFE" d="M844.991 565.285C849.185 567.083 851.73 571.549 855.646 573.84C856.815 574.524 857.494 574.885 858.814 574.54C860.251 572.521 859.674 570.023 860.839 567.866L861.818 567.948C865.424 571.123 868.445 577.017 869.799 581.583Q872.221 582.484 874.576 583.546Q876.932 584.607 879.21 585.825Q881.489 587.042 883.681 588.41Q885.873 589.777 887.969 591.289Q890.064 592.801 892.053 594.45Q894.042 596.099 895.916 597.878Q897.789 599.657 899.539 601.557Q901.29 603.458 902.908 605.472C915.608 621.439 918.974 639.575 916.772 659.563C921.952 663.375 925.376 668.326 926.505 674.75C927.504 680.435 925.543 687.008 922.129 691.586C911.073 706.413 880.963 707.007 863.961 708.076C854.098 708.696 844.22 709.229 834.367 709.991C828.312 710.46 822.49 712.332 816.484 713.133C810.271 713.963 802.837 712.746 797.858 708.821C795.481 706.947 793.224 704.458 792.97 701.296C792.789 699.026 793.891 696.856 795.41 695.239C797.501 693.012 800.405 691.526 803.301 690.651C814.726 687.199 822.184 692.945 832.847 694.575C836.891 695.193 841.476 694.593 845.562 694.381C849.568 694.088 853.803 693.611 857.807 693.986C868.593 694.997 874.273 697.694 886.005 696.67C898.141 695.61 911.743 690.631 919.442 680.661C920.19 679.692 920.665 679.047 920.486 677.801C918.462 678.631 916.715 681.638 915.11 683.202C908.795 689.361 899.079 693.198 890.507 694.694C877.3 696.998 861.91 695.215 850.804 687.233C843.811 682.207 838.138 675.484 836.804 666.724Q836.702 666.029 836.634 665.329Q836.566 664.629 836.532 663.927Q836.499 663.225 836.501 662.522Q836.502 661.819 836.538 661.117Q836.574 660.415 836.645 659.715Q836.716 659.016 836.821 658.321Q836.926 657.626 837.066 656.937Q837.205 656.248 837.378 655.566Q837.552 654.885 837.758 654.213Q837.965 653.541 838.204 652.88Q838.444 652.219 838.716 651.571Q838.988 650.923 839.292 650.289Q839.595 649.655 839.93 649.037Q840.265 648.418 840.629 647.818Q840.994 647.217 841.388 646.634Q841.782 646.052 842.204 645.49C844.583 642.319 849.928 636.652 853.929 635.999C855.448 635.751 855.896 636.778 857.178 636.583C857.918 633.328 852.877 621.102 851.697 617.344C850.014 618.503 848.342 619.302 846.358 619.837C836.163 622.586 824.767 620.786 815.712 615.579C816.534 614.786 817.401 613.907 818.074 612.982C819.044 611.651 819.897 609.533 819.686 607.891C818.082 609.119 817.156 612.034 816.131 613.827C815.466 614.154 815.257 614.506 814.514 614.166C812.962 613.455 811.304 611.221 810.785 609.605C810.309 608.122 810.422 606.766 811.167 605.392C813.571 600.962 819.416 599.44 822.937 596.066C824.501 594.568 825.575 592.508 826.671 590.662C831.854 581.928 834.46 578.089 844.576 574.734C844.508 571.617 844.2 568.324 844.991 565.285Z"/>
	<path fill="#B3CCDC" d="M0 513.324C30.7944 513.45 314.287 512.334 317.989 514.391C317.078 519.085 314.413 523.814 312.778 528.34Q304.862 550.066 294.422 570.699C285.753 587.858 276.326 604.415 269.639 622.519C264.435 636.61 262.09 651.594 261.657 666.569C261.5 671.979 262.311 677.638 261.18 682.95C259.879 689.062 257.089 695.063 255.182 701.038C250.72 715.015 246.388 729.365 243.501 743.753Q187.109 743.996 130.717 743.655C106.184 743.609 81.5391 744.184 57.0183 743.461C65.5041 726.107 70.5515 711.827 63.9873 692.572Q63.5298 691.191 63.0027 689.836Q62.4756 688.48 61.8802 687.153Q61.2848 685.826 60.6227 684.53Q59.9606 683.235 59.2335 681.975Q58.5064 680.715 57.7161 679.494Q56.9259 678.273 56.0746 677.093Q55.2233 675.914 54.3131 674.779Q53.4029 673.645 52.4361 672.558Q51.4694 671.471 50.4487 670.435Q49.4279 669.398 48.3558 668.415Q47.2837 667.432 46.163 666.505Q45.0422 665.578 43.8758 664.708Q42.7093 663.839 41.5002 663.031Q40.2911 662.222 39.0424 661.476Q37.7937 660.73 36.5087 660.048Q35.2237 659.366 33.9057 658.751C22.468 653.288 12.3715 652.527 0 654.205L0 513.324Z"/>
	<path fill="#FEFEFE" d="M218.873 539.25C226.916 539.104 234.162 540.451 240.893 545.095Q241.594 545.575 242.27 546.09Q242.947 546.604 243.597 547.151Q244.247 547.698 244.87 548.276Q245.492 548.855 246.085 549.463Q246.678 550.072 247.24 550.709Q247.803 551.346 248.333 552.01Q248.863 552.674 249.36 553.363Q249.857 554.053 250.319 554.766Q250.781 555.479 251.207 556.214Q251.633 556.949 252.023 557.704Q252.413 558.459 252.764 559.232Q253.116 560.006 253.429 560.796Q253.743 561.586 254.016 562.39Q254.29 563.194 254.524 564.011Q254.758 564.828 254.951 565.656Q255.144 566.483 255.296 567.319Q255.447 568.138 255.557 568.963Q255.667 569.789 255.736 570.618Q255.804 571.448 255.83 572.28Q255.857 573.113 255.841 573.945Q255.826 574.778 255.769 575.609Q255.711 576.439 255.612 577.266Q255.513 578.093 255.373 578.913Q255.232 579.734 255.051 580.547Q254.869 581.359 254.647 582.162Q254.425 582.964 254.162 583.755Q253.9 584.545 253.598 585.321Q253.297 586.097 252.956 586.857Q252.616 587.617 252.238 588.359Q251.859 589.101 251.444 589.823Q251.029 590.544 250.578 591.244Q250.127 591.944 249.642 592.621C243.619 601.191 235.736 605.06 225.628 606.753C217.119 606.929 210.123 605.474 203.097 600.5C195.523 595.138 190.685 587.435 189.226 578.27C187.728 568.86 190.213 559.864 195.858 552.254C201.705 544.371 209.323 540.642 218.873 539.25Z"/>
	<path d="M15.9071 530.949C18.2011 531.636 38.4286 549.188 41.8743 552.012C52.9595 544.662 65.6808 542.404 78.7471 544.434C120.484 550.918 158.304 599.813 175.663 635.829Q179.723 644.098 183.152 652.648C185.019 657.442 185.989 664.663 189.026 668.644C196.702 678.702 204.775 688.437 212.396 698.541L213.163 699.876L212.789 700.508C209 697.405 205.758 692.148 202.713 688.269Q194.558 677.868 186.244 667.594C161.76 671.696 124.472 660.512 102.267 650.251C76.9829 638.566 50.7289 618.34 41.001 591.367C36.6349 579.261 35.5032 564.963 41.0474 553.036C36.1462 549.049 17.5863 535.389 15.9071 530.949Z"/>
	<path fill="#00547E" d="M63.8545 545.182C77.1307 543.049 93.668 549.021 105.066 555.345C141.422 575.516 175.063 627.521 186.232 666.586L173.743 657.14C158.301 645.659 143.61 633.431 128.499 621.541Q85.1739 588.029 43.2103 552.828C49.821 548.799 56.1537 546.133 63.8545 545.182Z"/>
	<path fill="#00547E" d="M42.3183 553.791C77.6939 582.979 113.907 611.044 149.41 640.052Q159.372 648.214 169.645 655.98C173.734 659.115 178.415 662.205 182.023 665.877L181.864 666.5L179.195 666.907C153.129 667.926 121.904 658.478 98.6415 647.107C74.9864 635.544 50.1392 614.968 41.4975 589.38C37.7051 578.151 37.0039 564.667 42.3183 553.791Z"/>
	<path fill="#91261A" d="M491.906 189.713C532.796 188.279 573.472 194.14 605.622 221.712C626.178 239.341 639.433 263.17 648.916 288.206C660.515 318.833 663.946 351.788 669.512 383.842Q676.902 424.944 688.301 465.119C692.17 478.305 696.771 491.216 701.043 504.268C705.569 518.096 709.771 532.081 715.246 545.575C730.42 582.976 749.072 607.573 752.215 649.603C738.843 623.703 720.151 602.122 695.857 585.876C681.067 575.986 665.305 567.518 650.439 557.677C632.506 545.805 615.924 532.313 598.58 519.664L598.539 483.654C598.539 477.117 599.183 469.89 598.023 463.457C597.624 461.244 596.745 459.537 595.18 457.921C587.625 450.119 565.034 453.473 554.484 453.579C564.565 449.202 573.705 442.983 581.915 435.705C598.494 421.007 610.056 401.834 616.257 380.604C617.766 375.439 619.216 369.905 619.538 364.516C631.229 359.865 642.603 353.649 649.473 342.643C653.276 336.551 653.937 330.852 652.25 323.999C650.288 316.03 644.885 311.052 637.25 308.491C629.582 305.919 621.823 307.125 613.915 306.83C604.615 306.484 595.904 304.581 587.131 301.518C563.018 293.101 542.386 276.61 525.003 258.192C519.965 252.854 516.353 246.04 510.006 242.149C507.796 244.45 506.069 247.17 504.249 249.782C500.418 254.97 495.848 259.64 491.359 264.257C471.883 284.285 447.303 302.109 419.08 306.365C415.582 306.893 411.96 307.395 408.418 307.394C401.474 307.393 394.475 305.954 387.68 308.069C381.653 309.944 375.943 314.444 373.014 320.023C370.207 325.367 369.442 330.997 371.371 336.765C376.266 351.399 390.899 357.958 403.566 364.343C405.468 373.255 407.4 382.154 410.511 390.74C420.457 418.187 438.731 440.504 465.275 453.008C464.672 452.943 464.076 452.882 463.471 452.848C454.166 452.319 436.82 450.398 429.758 457.118C427.745 459.034 426.516 461.478 426.008 464.195C425.061 469.259 425.827 475.062 425.793 480.238L425.469 519.534C425.411 519.616 425.352 519.697 425.295 519.78C420.732 526.433 404.887 536.932 397.509 542.337C332.091 590.263 297.347 598.773 263.022 678.85C261.64 621.44 283.378 600.947 304.634 552.952Q314.124 530.999 322.153 508.47Q330.182 485.941 336.714 462.934C352.356 406.151 351.722 348.031 369.416 292.135C376.009 271.31 385.381 251.327 399.826 234.739C424.612 206.274 454.279 192.27 491.906 189.713Z"/>
</svg>
